<?xml version="1.0" encoding="utf-8" standalone="no"?>
<!DOCTYPE svg PUBLIC "-//W3C//DTD SVG 1.1//EN"
  "http://www.w3.org/Graphics/SVG/1.1/DTD/svg11.dtd">
<svg xmlns:xlink="http://www.w3.org/1999/xlink" width="432pt" height="288pt" viewBox="0 0 432 288" xmlns="http://www.w3.org/2000/svg" version="1.1">
 <metadata>
  <rdf:RDF xmlns:dc="http://purl.org/dc/elements/1.1/" xmlns:cc="http://creativecommons.org/ns#" xmlns:rdf="http://www.w3.org/1999/02/22-rdf-syntax-ns#">
   <cc:Work>
    <dc:type rdf:resource="http://purl.org/dc/dcmitype/StillImage"/>
    <dc:date>2022-10-23T14:33:49.774641</dc:date>
    <dc:format>image/svg+xml</dc:format>
    <dc:creator>
     <cc:Agent>
      <dc:title>Matplotlib v3.5.2, https://matplotlib.org/</dc:title>
     </cc:Agent>
    </dc:creator>
   </cc:Work>
  </rdf:RDF>
 </metadata>
 <defs>
  <style type="text/css">*{stroke-linejoin: round; stroke-linecap: butt}</style>
 </defs>
 <g id="figure_1">
  <g id="patch_1">
   <path d="M 0 288 
L 432 288 
L 432 0 
L 0 0 
z
" style="fill: #ffffff"/>
  </g>
  <g id="axes_1">
   <g id="patch_2">
    <path d="M 37.743522 236.090711 
L 421.2 236.090711 
L 421.2 10.8 
L 37.743522 10.8 
z
" style="fill: #eaeaf2"/>
   </g>
   <g id="matplotlib.axis_1">
    <g id="xtick_1">
     <g id="line2d_1">
      <path d="M 50.330234 236.090711 
L 50.330234 10.8 
" clip-path="url(#p7acc3ff9b0)" style="fill: none; stroke: #ffffff; stroke-width: 0.8; stroke-linecap: round"/>
     </g>
     <g id="text_1">
      <!-- $\mathdefault{0}$ -->
      <g style="fill: #262626" transform="translate(46.428241 254.1603)scale(0.16 -0.16)">
       <defs>
        <path id="CMR17-30" d="M 2688 2038 
C 2688 2430 2682 3099 2413 3613 
C 2176 4063 1798 4224 1466 4224 
C 1158 4224 768 4082 525 3620 
C 269 3137 243 2539 243 2038 
C 243 1671 250 1112 448 623 
C 723 -39 1216 -128 1466 -128 
C 1760 -128 2208 -7 2470 604 
C 2662 1048 2688 1568 2688 2038 
z
M 1466 -26 
C 1056 -26 813 328 723 816 
C 653 1196 653 1749 653 2109 
C 653 2604 653 3015 736 3407 
C 858 3954 1216 4121 1466 4121 
C 1728 4121 2067 3947 2189 3420 
C 2272 3054 2278 2623 2278 2109 
C 2278 1691 2278 1176 2202 797 
C 2067 96 1690 -26 1466 -26 
z
" transform="scale(0.015625)"/>
       </defs>
       <use xlink:href="#CMR17-30" transform="scale(0.996264)"/>
      </g>
     </g>
    </g>
    <g id="xtick_2">
     <g id="line2d_2">
      <path d="M 101.312126 236.090711 
L 101.312126 10.8 
" clip-path="url(#p7acc3ff9b0)" style="fill: none; stroke: #ffffff; stroke-width: 0.8; stroke-linecap: round"/>
     </g>
     <g id="text_2">
      <!-- $\mathdefault{50}$ -->
      <g style="fill: #262626" transform="translate(93.508139 254.1603)scale(0.16 -0.16)">
       <defs>
        <path id="CMR17-35" d="M 730 3750 
C 794 3724 1056 3641 1325 3641 
C 1920 3641 2246 3961 2432 4140 
C 2432 4191 2432 4224 2394 4224 
C 2387 4224 2374 4224 2323 4198 
C 2099 4102 1837 4032 1517 4032 
C 1325 4032 1037 4055 723 4191 
C 653 4224 640 4224 634 4224 
C 602 4224 595 4217 595 4090 
L 595 2231 
C 595 2113 595 2080 659 2080 
C 691 2080 704 2093 736 2139 
C 941 2435 1222 2560 1542 2560 
C 1766 2560 2246 2415 2246 1293 
C 2246 1087 2246 716 2054 422 
C 1894 159 1645 25 1370 25 
C 947 25 518 319 403 812 
C 429 806 480 793 506 793 
C 589 793 749 838 749 1036 
C 749 1209 627 1280 506 1280 
C 358 1280 262 1190 262 1011 
C 262 454 704 -128 1382 -128 
C 2042 -128 2669 441 2669 1267 
C 2669 2054 2170 2662 1549 2662 
C 1222 2662 947 2540 730 2304 
L 730 3750 
z
" transform="scale(0.015625)"/>
       </defs>
       <use xlink:href="#CMR17-35" transform="scale(0.996264)"/>
       <use xlink:href="#CMR17-30" transform="translate(45.690477 0)scale(0.996264)"/>
      </g>
     </g>
    </g>
    <g id="xtick_3">
     <g id="line2d_3">
      <path d="M 152.294017 236.090711 
L 152.294017 10.8 
" clip-path="url(#p7acc3ff9b0)" style="fill: none; stroke: #ffffff; stroke-width: 0.8; stroke-linecap: round"/>
     </g>
     <g id="text_3">
      <!-- $\mathdefault{100}$ -->
      <g style="fill: #262626" transform="translate(140.588036 254.1603)scale(0.16 -0.16)">
       <defs>
        <path id="CMR17-31" d="M 1702 4083 
C 1702 4217 1696 4224 1606 4224 
C 1357 3927 979 3833 621 3820 
C 602 3820 570 3820 563 3808 
C 557 3795 557 3782 557 3648 
C 755 3648 1088 3686 1344 3839 
L 1344 467 
C 1344 243 1331 166 781 166 
L 589 166 
L 589 0 
C 896 6 1216 12 1523 12 
C 1830 12 2150 6 2458 0 
L 2458 166 
L 2266 166 
C 1715 166 1702 236 1702 467 
L 1702 4083 
z
" transform="scale(0.015625)"/>
       </defs>
       <use xlink:href="#CMR17-31" transform="scale(0.996264)"/>
       <use xlink:href="#CMR17-30" transform="translate(45.690477 0)scale(0.996264)"/>
       <use xlink:href="#CMR17-30" transform="translate(91.380954 0)scale(0.996264)"/>
      </g>
     </g>
    </g>
    <g id="xtick_4">
     <g id="line2d_4">
      <path d="M 203.275908 236.090711 
L 203.275908 10.8 
" clip-path="url(#p7acc3ff9b0)" style="fill: none; stroke: #ffffff; stroke-width: 0.8; stroke-linecap: round"/>
     </g>
     <g id="text_4">
      <!-- $\mathdefault{150}$ -->
      <g style="fill: #262626" transform="translate(191.569928 254.1603)scale(0.16 -0.16)">
       <use xlink:href="#CMR17-31" transform="scale(0.996264)"/>
       <use xlink:href="#CMR17-35" transform="translate(45.690477 0)scale(0.996264)"/>
       <use xlink:href="#CMR17-30" transform="translate(91.380954 0)scale(0.996264)"/>
      </g>
     </g>
    </g>
    <g id="xtick_5">
     <g id="line2d_5">
      <path d="M 254.257799 236.090711 
L 254.257799 10.8 
" clip-path="url(#p7acc3ff9b0)" style="fill: none; stroke: #ffffff; stroke-width: 0.8; stroke-linecap: round"/>
     </g>
     <g id="text_5">
      <!-- $\mathdefault{200}$ -->
      <g style="fill: #262626" transform="translate(242.551819 254.1603)scale(0.16 -0.16)">
       <defs>
        <path id="CMR17-32" d="M 2669 990 
L 2554 990 
C 2490 537 2438 460 2413 422 
C 2381 371 1920 371 1830 371 
L 602 371 
C 832 620 1280 1073 1824 1596 
C 2214 1966 2669 2400 2669 3033 
C 2669 3788 2067 4224 1395 4224 
C 691 4224 262 3603 262 3027 
C 262 2777 448 2745 525 2745 
C 589 2745 781 2783 781 3007 
C 781 3206 614 3264 525 3264 
C 486 3264 448 3257 422 3244 
C 544 3788 915 4057 1306 4057 
C 1862 4057 2227 3616 2227 3033 
C 2227 2477 1901 1998 1536 1583 
L 262 147 
L 262 0 
L 2515 0 
L 2669 990 
z
" transform="scale(0.015625)"/>
       </defs>
       <use xlink:href="#CMR17-32" transform="scale(0.996264)"/>
       <use xlink:href="#CMR17-30" transform="translate(45.690477 0)scale(0.996264)"/>
       <use xlink:href="#CMR17-30" transform="translate(91.380954 0)scale(0.996264)"/>
      </g>
     </g>
    </g>
    <g id="xtick_6">
     <g id="line2d_6">
      <path d="M 305.239691 236.090711 
L 305.239691 10.8 
" clip-path="url(#p7acc3ff9b0)" style="fill: none; stroke: #ffffff; stroke-width: 0.8; stroke-linecap: round"/>
     </g>
     <g id="text_6">
      <!-- $\mathdefault{250}$ -->
      <g style="fill: #262626" transform="translate(293.53371 254.1603)scale(0.16 -0.16)">
       <use xlink:href="#CMR17-32" transform="scale(0.996264)"/>
       <use xlink:href="#CMR17-35" transform="translate(45.690477 0)scale(0.996264)"/>
       <use xlink:href="#CMR17-30" transform="translate(91.380954 0)scale(0.996264)"/>
      </g>
     </g>
    </g>
    <g id="xtick_7">
     <g id="line2d_7">
      <path d="M 356.221582 236.090711 
L 356.221582 10.8 
" clip-path="url(#p7acc3ff9b0)" style="fill: none; stroke: #ffffff; stroke-width: 0.8; stroke-linecap: round"/>
     </g>
     <g id="text_7">
      <!-- $\mathdefault{300}$ -->
      <g style="fill: #262626" transform="translate(344.515602 254.1603)scale(0.16 -0.16)">
       <defs>
        <path id="CMR17-33" d="M 1414 2176 
C 1984 2176 2234 1673 2234 1094 
C 2234 322 1824 25 1453 25 
C 1114 25 563 193 390 691 
C 422 678 454 678 486 678 
C 640 678 755 780 755 947 
C 755 1132 614 1216 486 1216 
C 378 1216 211 1164 211 927 
C 211 335 787 -128 1466 -128 
C 2176 -128 2720 432 2720 1087 
C 2720 1718 2208 2176 1600 2246 
C 2086 2347 2554 2776 2554 3353 
C 2554 3856 2048 4224 1472 4224 
C 890 4224 378 3862 378 3347 
C 378 3123 544 3084 627 3084 
C 762 3084 877 3167 877 3334 
C 877 3500 762 3584 627 3584 
C 602 3584 570 3584 544 3571 
C 730 3999 1235 4076 1459 4076 
C 1683 4076 2106 3966 2106 3347 
C 2106 3167 2080 2851 1862 2574 
C 1670 2329 1453 2316 1242 2297 
C 1210 2297 1062 2284 1037 2284 
C 992 2278 966 2272 966 2227 
C 966 2182 973 2176 1101 2176 
L 1414 2176 
z
" transform="scale(0.015625)"/>
       </defs>
       <use xlink:href="#CMR17-33" transform="scale(0.996264)"/>
       <use xlink:href="#CMR17-30" transform="translate(45.690477 0)scale(0.996264)"/>
       <use xlink:href="#CMR17-30" transform="translate(91.380954 0)scale(0.996264)"/>
      </g>
     </g>
    </g>
    <g id="xtick_8">
     <g id="line2d_8">
      <path d="M 407.203473 236.090711 
L 407.203473 10.8 
" clip-path="url(#p7acc3ff9b0)" style="fill: none; stroke: #ffffff; stroke-width: 0.8; stroke-linecap: round"/>
     </g>
     <g id="text_8">
      <!-- $\mathdefault{350}$ -->
      <g style="fill: #262626" transform="translate(395.497493 254.1603)scale(0.16 -0.16)">
       <use xlink:href="#CMR17-33" transform="scale(0.996264)"/>
       <use xlink:href="#CMR17-35" transform="translate(45.690477 0)scale(0.996264)"/>
       <use xlink:href="#CMR17-30" transform="translate(91.380954 0)scale(0.996264)"/>
      </g>
     </g>
    </g>
    <g id="text_9">
     <!-- Time (s) -->
     <g style="fill: #262626" transform="translate(199.946677 273.214944)scale(0.16 -0.16)">
      <defs>
       <path id="CMR17-54" d="M 3981 4332 
L 288 4332 
L 179 2924 
L 294 2924 
C 378 3981 467 4166 1453 4166 
C 1568 4166 1754 4166 1805 4159 
C 1926 4140 1926 4064 1926 3917 
L 1926 465 
C 1926 236 1907 166 1376 166 
L 1197 166 
L 1197 0 
C 1504 6 1824 12 2138 12 
C 2451 12 2771 6 3078 0 
L 3078 166 
L 2899 166 
C 2368 166 2349 236 2349 465 
L 2349 3917 
C 2349 4057 2349 4134 2464 4159 
C 2515 4166 2701 4166 2816 4166 
C 3795 4166 3891 3981 3974 2924 
L 4090 2924 
L 3981 4332 
z
" transform="scale(0.015625)"/>
       <path id="CMR17-69" d="M 992 3961 
C 992 4102 877 4224 730 4224 
C 589 4224 467 4108 467 3961 
C 467 3820 582 3699 730 3699 
C 870 3699 992 3814 992 3961 
z
M 243 2745 
L 243 2579 
C 602 2579 653 2540 653 2231 
L 653 443 
C 653 198 627 166 218 166 
L 218 0 
C 371 12 646 12 806 12 
C 960 12 1222 12 1370 0 
L 1370 166 
C 992 166 979 205 979 436 
L 979 2816 
L 243 2745 
z
" transform="scale(0.015625)"/>
       <path id="CMR17-6d" d="M 4326 1954 
C 4326 2276 4269 2816 3507 2816 
C 3072 2816 2771 2520 2656 2173 
L 2650 2173 
C 2573 2700 2195 2816 1837 2816 
C 1331 2816 1069 2424 973 2166 
L 966 2166 
L 966 2816 
L 211 2745 
L 211 2578 
C 589 2578 646 2540 646 2231 
L 646 443 
C 646 198 621 166 211 166 
L 211 0 
C 365 12 646 12 813 12 
C 979 12 1267 12 1421 0 
L 1421 166 
C 1011 166 986 192 986 443 
L 986 1678 
C 986 2269 1344 2713 1792 2713 
C 2266 2713 2317 2289 2317 1980 
L 2317 443 
C 2317 198 2291 166 1882 166 
L 1882 0 
C 2035 12 2317 12 2483 12 
C 2650 12 2938 12 3091 0 
L 3091 166 
C 2682 166 2656 192 2656 443 
L 2656 1678 
C 2656 2269 3014 2713 3462 2713 
C 3936 2713 3987 2289 3987 1980 
L 3987 443 
C 3987 198 3962 166 3552 166 
L 3552 0 
C 3706 12 3987 12 4154 12 
C 4320 12 4608 12 4762 0 
L 4762 166 
C 4352 166 4326 192 4326 443 
L 4326 1954 
z
" transform="scale(0.015625)"/>
       <path id="CMR17-65" d="M 2438 1503 
C 2464 1529 2464 1542 2464 1606 
C 2464 2251 2118 2816 1389 2816 
C 710 2816 173 2175 173 1394 
C 173 554 781 -64 1459 -64 
C 2176 -64 2458 619 2458 755 
C 2458 800 2419 800 2406 800 
C 2362 800 2355 787 2330 709 
C 2189 270 1837 51 1504 51 
C 1229 51 954 206 781 490 
C 582 819 582 1200 582 1503 
L 2438 1503 
z
M 589 1600 
C 634 2511 1126 2713 1382 2713 
C 1818 2713 2112 2308 2118 1600 
L 589 1600 
z
" transform="scale(0.015625)"/>
       <path id="CMR17-28" d="M 1958 -1562 
C 1958 -1556 1958 -1543 1939 -1524 
C 1645 -1223 858 -403 858 1596 
C 858 3595 1632 4408 1946 4729 
C 1946 4735 1958 4748 1958 4767 
C 1958 4787 1939 4800 1914 4800 
C 1843 4800 1299 4325 986 3620 
C 666 2909 576 2218 576 1603 
C 576 1141 621 360 1005 -467 
C 1312 -1133 1837 -1600 1914 -1600 
C 1946 -1600 1958 -1588 1958 -1562 
z
" transform="scale(0.015625)"/>
       <path id="CMR17-73" d="M 1978 2688 
C 1978 2803 1971 2809 1933 2809 
C 1907 2809 1901 2803 1824 2707 
C 1805 2681 1747 2617 1728 2592 
C 1523 2809 1235 2816 1126 2816 
C 416 2816 160 2444 160 2073 
C 160 1497 813 1363 998 1324 
C 1402 1241 1542 1216 1677 1100 
C 1760 1024 1901 883 1901 652 
C 1901 384 1747 38 1158 38 
C 602 38 403 460 288 1024 
C 269 1113 269 1120 218 1120 
C 166 1120 160 1113 160 985 
L 160 64 
C 160 -52 166 -58 205 -58 
C 237 -58 243 -52 275 0 
C 314 57 410 211 448 275 
C 576 102 800 -64 1158 -64 
C 1792 -64 2131 281 2131 780 
C 2131 1107 1958 1280 1875 1356 
C 1683 1555 1459 1600 1190 1651 
C 838 1728 390 1817 390 2208 
C 390 2374 480 2726 1126 2726 
C 1811 2726 1850 2086 1862 1881 
C 1869 1849 1901 1843 1920 1843 
C 1978 1843 1978 1862 1978 1971 
L 1978 2688 
z
" transform="scale(0.015625)"/>
       <path id="CMR17-29" d="M 1683 1596 
C 1683 2057 1638 2839 1254 3665 
C 947 4332 422 4800 346 4800 
C 326 4800 301 4793 301 4761 
C 301 4748 307 4742 314 4729 
C 621 4408 1402 3595 1402 1603 
C 1402 -396 627 -1210 314 -1530 
C 307 -1543 301 -1549 301 -1562 
C 301 -1594 326 -1600 346 -1600 
C 416 -1600 960 -1127 1274 -422 
C 1594 289 1683 981 1683 1596 
z
" transform="scale(0.015625)"/>
      </defs>
      <use xlink:href="#CMR17-54" transform="scale(0.996264)"/>
      <use xlink:href="#CMR17-69" transform="translate(66.509881 0)scale(0.996264)"/>
      <use xlink:href="#CMR17-6d" transform="translate(91.380939 0)scale(0.996264)"/>
      <use xlink:href="#CMR17-65" transform="translate(168.300529 0)scale(0.996264)"/>
      <use xlink:href="#CMR17-28" transform="translate(238.862156 0)scale(0.996264)"/>
      <use xlink:href="#CMR17-73" transform="translate(274.142924 0)scale(0.996264)"/>
      <use xlink:href="#CMR17-29" transform="translate(309.944261 0)scale(0.996264)"/>
     </g>
    </g>
   </g>
   <g id="matplotlib.axis_2">
    <g id="ytick_1">
     <g id="line2d_9">
      <path d="M 37.743522 225.850224 
L 421.2 225.850224 
" clip-path="url(#p7acc3ff9b0)" style="fill: none; stroke: #ffffff; stroke-width: 0.8; stroke-linecap: round"/>
     </g>
     <g id="text_10">
      <!-- $\mathdefault{0.0}$ -->
      <g style="fill: #262626" transform="translate(10.8 231.385019)scale(0.16 -0.16)">
       <defs>
        <path id="CMMI12-3a" d="M 1178 307 
C 1178 492 1024 620 870 620 
C 685 620 557 467 557 313 
C 557 128 710 0 864 0 
C 1050 0 1178 153 1178 307 
z
" transform="scale(0.015625)"/>
       </defs>
       <use xlink:href="#CMR17-30" transform="scale(0.996264)"/>
       <use xlink:href="#CMMI12-3a" transform="translate(45.690477 0)scale(0.996264)"/>
       <use xlink:href="#CMR17-30" transform="translate(72.787654 0)scale(0.996264)"/>
      </g>
     </g>
    </g>
    <g id="ytick_2">
     <g id="line2d_10">
      <path d="M 37.743522 184.888277 
L 421.2 184.888277 
" clip-path="url(#p7acc3ff9b0)" style="fill: none; stroke: #ffffff; stroke-width: 0.8; stroke-linecap: round"/>
     </g>
     <g id="text_11">
      <!-- $\mathdefault{0.2}$ -->
      <g style="fill: #262626" transform="translate(10.8 190.423071)scale(0.16 -0.16)">
       <use xlink:href="#CMR17-30" transform="scale(0.996264)"/>
       <use xlink:href="#CMMI12-3a" transform="translate(45.690477 0)scale(0.996264)"/>
       <use xlink:href="#CMR17-32" transform="translate(72.787654 0)scale(0.996264)"/>
      </g>
     </g>
    </g>
    <g id="ytick_3">
     <g id="line2d_11">
      <path d="M 37.743522 143.926329 
L 421.2 143.926329 
" clip-path="url(#p7acc3ff9b0)" style="fill: none; stroke: #ffffff; stroke-width: 0.8; stroke-linecap: round"/>
     </g>
     <g id="text_12">
      <!-- $\mathdefault{0.4}$ -->
      <g style="fill: #262626" transform="translate(10.8 149.461124)scale(0.16 -0.16)">
       <defs>
        <path id="CMR17-34" d="M 2150 4147 
C 2150 4281 2144 4288 2029 4288 
L 128 1254 
L 128 1088 
L 1779 1088 
L 1779 460 
C 1779 230 1766 166 1318 166 
L 1197 166 
L 1197 0 
C 1402 12 1747 12 1965 12 
C 2182 12 2528 12 2733 0 
L 2733 166 
L 2611 166 
C 2163 166 2150 230 2150 460 
L 2150 1088 
L 2803 1088 
L 2803 1254 
L 2150 1254 
L 2150 4147 
z
M 1798 3723 
L 1798 1254 
L 256 1254 
L 1798 3723 
z
" transform="scale(0.015625)"/>
       </defs>
       <use xlink:href="#CMR17-30" transform="scale(0.996264)"/>
       <use xlink:href="#CMMI12-3a" transform="translate(45.690477 0)scale(0.996264)"/>
       <use xlink:href="#CMR17-34" transform="translate(72.787654 0)scale(0.996264)"/>
      </g>
     </g>
    </g>
    <g id="ytick_4">
     <g id="line2d_12">
      <path d="M 37.743522 102.964382 
L 421.2 102.964382 
" clip-path="url(#p7acc3ff9b0)" style="fill: none; stroke: #ffffff; stroke-width: 0.8; stroke-linecap: round"/>
     </g>
     <g id="text_13">
      <!-- $\mathdefault{0.6}$ -->
      <g style="fill: #262626" transform="translate(10.8 108.499176)scale(0.16 -0.16)">
       <defs>
        <path id="CMR17-36" d="M 678 2198 
C 678 3712 1395 4076 1811 4076 
C 1946 4076 2272 4049 2400 3782 
C 2298 3782 2106 3782 2106 3558 
C 2106 3385 2246 3328 2336 3328 
C 2394 3328 2566 3353 2566 3571 
C 2566 3987 2246 4224 1805 4224 
C 1043 4224 243 3411 243 2011 
C 243 257 966 -128 1478 -128 
C 2099 -128 2688 431 2688 1295 
C 2688 2101 2170 2688 1517 2688 
C 1126 2688 838 2430 678 1979 
L 678 2198 
z
M 1478 25 
C 691 25 691 1212 691 1450 
C 691 1914 909 2585 1504 2585 
C 1613 2585 1926 2585 2138 2140 
C 2253 1889 2253 1624 2253 1302 
C 2253 954 2253 696 2118 438 
C 1978 173 1773 25 1478 25 
z
" transform="scale(0.015625)"/>
       </defs>
       <use xlink:href="#CMR17-30" transform="scale(0.996264)"/>
       <use xlink:href="#CMMI12-3a" transform="translate(45.690477 0)scale(0.996264)"/>
       <use xlink:href="#CMR17-36" transform="translate(72.787654 0)scale(0.996264)"/>
      </g>
     </g>
    </g>
    <g id="ytick_5">
     <g id="line2d_13">
      <path d="M 37.743522 62.002434 
L 421.2 62.002434 
" clip-path="url(#p7acc3ff9b0)" style="fill: none; stroke: #ffffff; stroke-width: 0.8; stroke-linecap: round"/>
     </g>
     <g id="text_14">
      <!-- $\mathdefault{0.8}$ -->
      <g style="fill: #262626" transform="translate(10.8 67.537229)scale(0.16 -0.16)">
       <defs>
        <path id="CMR17-38" d="M 1741 2289 
C 2144 2494 2554 2803 2554 3298 
C 2554 3884 1990 4224 1472 4224 
C 890 4224 378 3800 378 3215 
C 378 3054 416 2777 666 2533 
C 730 2469 998 2276 1171 2154 
C 883 2006 211 1652 211 945 
C 211 282 838 -128 1459 -128 
C 2144 -128 2720 366 2720 1022 
C 2720 1607 2330 1877 2074 2051 
L 1741 2289 
z
M 902 2855 
C 851 2887 595 3086 595 3388 
C 595 3781 998 4076 1459 4076 
C 1965 4076 2336 3716 2336 3298 
C 2336 2700 1670 2359 1638 2359 
C 1632 2359 1626 2359 1574 2398 
L 902 2855 
z
M 2080 1536 
C 2176 1466 2483 1253 2483 861 
C 2483 385 2010 25 1472 25 
C 890 25 448 443 448 951 
C 448 1459 838 1884 1280 2083 
L 2080 1536 
z
" transform="scale(0.015625)"/>
       </defs>
       <use xlink:href="#CMR17-30" transform="scale(0.996264)"/>
       <use xlink:href="#CMMI12-3a" transform="translate(45.690477 0)scale(0.996264)"/>
       <use xlink:href="#CMR17-38" transform="translate(72.787654 0)scale(0.996264)"/>
      </g>
     </g>
    </g>
    <g id="ytick_6">
     <g id="line2d_14">
      <path d="M 37.743522 21.040487 
L 421.2 21.040487 
" clip-path="url(#p7acc3ff9b0)" style="fill: none; stroke: #ffffff; stroke-width: 0.8; stroke-linecap: round"/>
     </g>
     <g id="text_15">
      <!-- $\mathdefault{1.0}$ -->
      <g style="fill: #262626" transform="translate(10.8 26.575281)scale(0.16 -0.16)">
       <use xlink:href="#CMR17-31" transform="scale(0.996264)"/>
       <use xlink:href="#CMMI12-3a" transform="translate(45.690477 0)scale(0.996264)"/>
       <use xlink:href="#CMR17-30" transform="translate(72.787654 0)scale(0.996264)"/>
      </g>
     </g>
    </g>
    <g id="text_16">
     <!-- % of Experiments -->
     <g style="fill: #262626" transform="translate(3.700524 123.445356)rotate(-90)scale(0.16 -0.16)"/>
    </g>
   </g>
   <g id="line2d_15">
    <path d="M 78.134409 225.850224 
L 81.728294 225.007386 
L 81.79196 224.164548 
L 82.191328 223.321709 
L 82.59063 221.636032 
L 83.839536 220.793194 
L 84.230171 219.950355 
L 84.273645 219.107517 
L 84.570504 217.42184 
L 84.615252 216.579002 
L 84.845285 215.736163 
L 86.691348 214.893325 
L 87.17243 211.521971 
L 87.320502 208.150618 
L 87.393069 206.464941 
L 87.670204 204.779264 
L 89.063137 203.936425 
L 89.164226 203.093587 
L 89.412839 202.250749 
L 89.499841 200.565072 
L 89.775973 198.879395 
L 89.967841 195.508041 
L 90.091829 194.665203 
L 90.869082 192.136687 
L 91.412014 191.293849 
L 91.891854 189.608172 
L 92.149351 187.922495 
L 92.574732 187.079657 
L 92.704021 184.551142 
L 92.872795 183.708303 
L 94.038429 182.022626 
L 94.095863 181.179788 
L 94.627197 178.651273 
L 95.0664 177.808434 
L 96.121795 176.965596 
L 96.199722 175.279919 
L 96.276662 174.43708 
L 96.920522 171.908565 
L 97.023941 170.222888 
L 97.394825 169.38005 
L 97.495089 168.537211 
L 97.913819 166.851535 
L 99.28364 165.165858 
L 99.565898 164.323019 
L 99.652574 163.480181 
L 99.920038 162.637342 
L 100.40147 158.42315 
L 100.660263 157.580312 
L 101.081254 156.737474 
L 102.891761 155.051797 
L 104.656806 154.208958 
L 105.022833 151.680443 
L 105.882251 150.837605 
L 105.927628 149.151928 
L 106.175724 148.309089 
L 106.205385 147.466251 
L 106.371692 146.623412 
L 106.406689 145.780574 
L 106.55524 144.937736 
L 106.577996 144.094897 
L 106.986278 142.40922 
L 106.997881 141.566382 
L 107.26947 140.723543 
L 107.440774 138.195028 
L 107.452691 137.35219 
L 107.914785 136.509351 
L 108.005366 134.823674 
L 108.36327 133.980836 
L 108.494111 132.295159 
L 109.148528 131.452321 
L 109.628509 129.766644 
L 109.748395 128.080967 
L 110.402778 127.238129 
L 110.826496 126.39529 
L 110.91589 125.552452 
L 111.315236 124.709613 
L 111.648702 122.181098 
L 111.896025 121.33826 
L 112.025502 120.495421 
L 112.036412 119.652583 
L 112.170916 118.809744 
L 112.431994 117.966906 
L 113.058108 113.752714 
L 113.505135 112.067037 
L 113.508165 111.224198 
L 113.648117 109.538522 
L 113.961765 105.32433 
L 114.527025 96.895945 
L 114.963137 95.210268 
L 115.514573 94.36743 
L 115.778735 93.524592 
L 116.16778 90.996076 
L 116.172805 90.153238 
L 116.344179 89.310399 
L 116.511882 86.781884 
L 116.880449 85.939046 
L 116.892815 84.253369 
L 117.163886 83.41053 
L 117.950841 78.3535 
L 118.114499 77.510661 
L 118.272205 74.139308 
L 118.530662 73.296469 
L 119.122825 72.453631 
L 119.147412 71.610792 
L 119.497382 70.767954 
L 119.502274 69.925116 
L 120.06579 67.3966 
L 120.083615 66.553762 
L 120.351232 65.710923 
L 120.519466 64.025247 
L 120.764009 63.182408 
L 121.209563 59.811054 
L 121.280589 58.125378 
L 121.630208 57.282539 
L 121.814399 56.439701 
L 121.869643 55.596862 
L 122.268074 54.754024 
L 122.380284 52.225509 
L 122.688762 51.38267 
L 123.543022 50.539832 
L 124.564047 48.011317 
L 124.632297 46.32564 
L 125.001001 45.482801 
L 125.119066 43.797124 
L 125.647336 42.954286 
L 125.662154 42.111448 
L 125.836242 41.268609 
L 127.121258 39.582932 
L 127.274252 38.740094 
L 128.247823 37.897255 
L 128.952038 36.211579 
L 130.228865 35.36874 
L 130.255981 34.525902 
L 130.65662 33.683063 
L 130.734082 32.840225 
L 131.514515 31.997386 
L 131.926871 31.154548 
L 133.497819 30.31171 
L 135.444524 29.468871 
L 135.917103 28.626033 
L 136.038978 27.783194 
L 137.179939 26.940356 
L 138.095332 26.097517 
L 139.192735 25.254679 
L 141.78646 23.569002 
L 168.398164 22.726164 
L 170.62125 21.883325 
L 211.539871 21.040487 
L 211.539871 21.040487 
" clip-path="url(#p7acc3ff9b0)" style="fill: none; stroke: #1f77b4; stroke-width: 1.5; stroke-linecap: round"/>
   </g>
   <g id="line2d_16">
    <path d="M 61.17224 225.850224 
L 61.327167 224.164548 
L 61.454941 220.793194 
L 63.425124 219.950355 
L 63.696852 208.150618 
L 65.511752 207.307779 
L 65.651954 204.779264 
L 65.926988 195.508041 
L 67.688279 194.665203 
L 68.190659 183.708303 
L 69.935095 182.865465 
L 70.177535 176.965596 
L 70.251462 174.43708 
L 72.052805 173.594242 
L 72.206541 171.908565 
L 72.254304 168.537211 
L 72.410736 166.851535 
L 72.422739 165.165858 
L 72.609418 164.323019 
L 74.407439 163.480181 
L 74.420325 161.794504 
L 74.573644 160.951666 
L 74.617745 157.580312 
L 76.477798 156.737474 
L 76.640445 155.051797 
L 76.738672 149.151928 
L 76.901141 145.780574 
L 77.123587 141.566382 
L 77.22932 139.880705 
L 78.783202 139.037867 
L 78.957353 133.137998 
L 79.049696 129.766644 
L 79.176377 124.709613 
L 79.257344 121.33826 
L 79.553323 117.124067 
L 80.764768 116.281229 
L 81.028044 110.38136 
L 81.165452 100.267299 
L 81.25901 95.210268 
L 81.439092 86.781884 
L 81.799032 82.567692 
L 83.0338 81.724854 
L 83.271846 79.196338 
L 83.575243 69.082277 
L 83.695212 68.239439 
L 83.809497 64.868085 
L 84.117475 63.182408 
L 84.250266 61.496731 
L 85.282848 60.653893 
L 85.367937 58.968216 
L 85.387822 57.282539 
L 85.559122 56.439701 
L 85.654028 49.696993 
L 85.754733 47.168478 
L 85.769515 46.32564 
L 86.100992 45.482801 
L 87.143276 44.639963 
L 87.667267 43.797124 
L 87.73361 42.111448 
L 87.818172 41.268609 
L 88.857624 39.582932 
L 89.628394 38.740094 
L 89.719511 37.054417 
L 89.982115 35.36874 
L 90.018769 33.683063 
L 90.279536 32.840225 
L 90.321704 31.997386 
L 91.190172 30.31171 
L 91.68379 27.783194 
L 92.525101 26.940356 
L 93.998232 26.097517 
L 94.137461 24.411841 
L 94.902115 23.569002 
L 94.95752 22.726164 
L 95.788452 21.883325 
L 96.817441 21.040487 
L 403.77016 21.040487 
L 403.77016 21.040487 
" clip-path="url(#p7acc3ff9b0)" style="fill: none; stroke: #ff7f0e; stroke-width: 1.5; stroke-linecap: round"/>
   </g>
   <g id="line2d_17">
    <path d="M 55.173362 225.850224 
L 55.715881 225.007386 
L 57.450543 224.164548 
L 57.807108 223.321709 
L 58.693697 222.478871 
L 59.950147 221.636032 
L 60.314196 220.793194 
L 61.33795 219.950355 
L 61.394222 219.107517 
L 62.351252 218.264679 
L 63.343438 216.579002 
L 64.129492 215.736163 
L 66.015222 214.893325 
L 66.572003 214.050486 
L 66.83181 213.207648 
L 67.826828 212.36481 
L 69.3119 211.521971 
L 69.812996 210.679133 
L 70.044241 208.150618 
L 71.746416 207.307779 
L 72.764436 206.464941 
L 74.008636 204.779264 
L 74.522173 203.936425 
L 74.830881 202.250749 
L 75.280381 201.40791 
L 76.110555 200.565072 
L 77.304887 199.722233 
L 77.946266 198.879395 
L 78.882013 198.036556 
L 80.038119 196.35088 
L 80.386646 194.665203 
L 80.829412 193.822364 
L 80.917268 192.979526 
L 81.43352 192.136687 
L 81.949537 190.451011 
L 83.201625 189.608172 
L 83.42647 187.922495 
L 83.717803 186.236818 
L 84.248238 185.39398 
L 84.455858 184.551142 
L 84.479677 183.708303 
L 85.586603 182.865465 
L 87.461628 182.022626 
L 87.751591 181.179788 
L 88.425112 180.336949 
L 88.554596 178.651273 
L 88.77642 176.122757 
L 89.110056 175.279919 
L 89.22004 174.43708 
L 90.591408 173.594242 
L 91.061769 172.751404 
L 91.531578 166.851535 
L 91.707642 166.008696 
L 92.979901 165.165858 
L 93.124507 164.323019 
L 93.748581 162.637342 
L 94.710016 160.951666 
L 95.259523 159.265989 
L 95.660718 158.42315 
L 95.929315 157.580312 
L 97.199169 156.737474 
L 97.238315 155.894635 
L 98.83195 155.051797 
L 99.155996 153.36612 
L 99.380805 152.523281 
L 99.906183 151.680443 
L 102.269587 150.837605 
L 102.792019 149.994766 
L 106.061554 148.309089 
L 106.970381 146.623412 
L 107.960544 145.780574 
L 108.345318 143.252059 
L 109.01057 142.40922 
L 110.552446 141.566382 
L 110.987656 140.723543 
L 111.052232 139.880705 
L 111.557553 139.037867 
L 111.687603 138.195028 
L 112.170713 137.35219 
L 113.170613 136.509351 
L 115.039969 132.295159 
L 117.278931 131.452321 
L 117.620752 130.609482 
L 117.65424 129.766644 
L 118.162493 128.923805 
L 121.12037 128.080967 
L 121.36681 127.238129 
L 121.381034 126.39529 
L 121.617535 125.552452 
L 122.065367 124.709613 
L 122.29213 123.023936 
L 122.731803 122.181098 
L 123.043111 120.495421 
L 123.37936 119.652583 
L 123.384225 118.809744 
L 125.498966 117.124067 
L 126.001626 116.281229 
L 127.053981 115.438391 
L 127.256089 114.595552 
L 127.855752 113.752714 
L 128.202125 112.909875 
L 128.746345 112.067037 
L 128.966468 110.38136 
L 129.108435 109.538522 
L 129.538688 108.695683 
L 130.780629 107.852845 
L 131.816771 107.010006 
L 132.103933 106.167168 
L 132.994525 105.32433 
L 135.012341 104.481491 
L 135.299726 103.638653 
L 135.880371 102.795814 
L 135.98853 101.952976 
L 137.298036 101.110137 
L 137.505455 100.267299 
L 138.368213 99.424461 
L 138.447069 98.581622 
L 138.646496 97.738784 
L 138.660128 96.895945 
L 139.015066 96.053107 
L 139.021123 95.210268 
L 139.868047 94.36743 
L 140.546456 91.838915 
L 141.770229 90.996076 
L 141.995708 90.153238 
L 142.035538 89.310399 
L 142.741654 88.467561 
L 144.972667 87.624723 
L 145.818808 86.781884 
L 146.089555 85.939046 
L 146.615776 85.096207 
L 146.65608 84.253369 
L 147.488788 83.41053 
L 148.596762 82.567692 
L 148.676443 81.724854 
L 148.897446 80.882015 
L 148.974425 80.039177 
L 149.720048 79.196338 
L 150.274945 78.3535 
L 151.147153 77.510661 
L 153.562037 76.667823 
L 153.982417 75.824985 
L 154.038916 74.982146 
L 155.15833 74.139308 
L 155.294251 73.296469 
L 155.553333 72.453631 
L 156.212468 71.610792 
L 156.314852 70.767954 
L 156.860558 69.925116 
L 158.007057 69.082277 
L 158.07383 68.239439 
L 158.863439 67.3966 
L 159.143493 66.553762 
L 159.854456 65.710923 
L 161.305313 64.868085 
L 163.008493 63.182408 
L 163.542152 62.33957 
L 164.373903 61.496731 
L 165.744308 60.653893 
L 165.982891 59.811054 
L 167.229082 58.968216 
L 167.259944 58.125378 
L 168.363148 57.282539 
L 170.566 56.439701 
L 174.695524 55.596862 
L 174.712695 54.754024 
L 174.892899 53.911186 
L 176.446211 53.068347 
L 179.310199 52.225509 
L 180.717359 51.38267 
L 181.120427 50.539832 
L 181.338445 49.696993 
L 181.39577 48.854155 
L 182.282793 48.011317 
L 182.797987 46.32564 
L 185.53984 45.482801 
L 185.906314 44.639963 
L 190.174991 43.797124 
L 191.446674 42.954286 
L 191.730351 42.111448 
L 192.478356 41.268609 
L 193.042854 40.425771 
L 196.450048 39.582932 
L 196.616159 38.740094 
L 197.312724 37.897255 
L 197.444673 37.054417 
L 201.517944 36.211579 
L 201.663499 35.36874 
L 209.408341 34.525902 
L 212.933073 33.683063 
L 221.912414 32.840225 
L 223.902748 31.997386 
L 226.240102 31.154548 
L 226.992421 30.31171 
L 235.346797 29.468871 
L 235.892337 28.626033 
L 236.90771 27.783194 
L 248.93205 26.940356 
L 251.077447 26.097517 
L 257.894138 25.254679 
L 285.217267 24.411841 
L 324.33902 23.569002 
L 346.975135 22.726164 
L 355.526406 21.883325 
L 403.77016 21.040487 
L 403.77016 21.040487 
" clip-path="url(#p7acc3ff9b0)" style="fill: none; stroke: #2ca02c; stroke-width: 1.5; stroke-linecap: round"/>
   </g>
   <g id="patch_3">
    <path d="M 37.743522 236.090711 
L 37.743522 10.8 
" style="fill: none; stroke: #ffffff; stroke-width: 0.8; stroke-linejoin: miter; stroke-linecap: square"/>
   </g>
   <g id="patch_4">
    <path d="M 421.2 236.090711 
L 421.2 10.8 
" style="fill: none; stroke: #ffffff; stroke-width: 0.8; stroke-linejoin: miter; stroke-linecap: square"/>
   </g>
   <g id="patch_5">
    <path d="M 37.743522 236.090711 
L 421.2 236.090711 
" style="fill: none; stroke: #ffffff; stroke-width: 0.8; stroke-linejoin: miter; stroke-linecap: square"/>
   </g>
   <g id="patch_6">
    <path d="M 37.743522 10.8 
L 421.2 10.8 
" style="fill: none; stroke: #ffffff; stroke-width: 0.8; stroke-linejoin: miter; stroke-linecap: square"/>
   </g>
   <g id="legend_1">
    <g id="patch_7">
     <path d="M 222.032741 228.090711 
L 410 228.090711 
Q 413.2 228.090711 413.2 224.890711 
L 413.2 159.592283 
Q 413.2 156.392283 410 156.392283 
L 222.032741 156.392283 
Q 218.832741 156.392283 218.832741 159.592283 
L 218.832741 224.890711 
Q 218.832741 228.090711 222.032741 228.090711 
z
" style="fill: #eaeaf2; opacity: 0.8; stroke: #cccccc; stroke-linejoin: miter"/>
    </g>
    <g id="line2d_18">
     <path d="M 225.232741 168.392283 
L 241.232741 168.392283 
L 257.232741 168.392283 
" style="fill: none; stroke: #1f77b4; stroke-width: 1.5; stroke-linecap: round"/>
    </g>
    <g id="text_17">
     <!-- Randomized PADM -->
     <g style="fill: #262626" transform="translate(270.032741 173.992283)scale(0.16 -0.16)">
      <defs>
       <path id="CMR17-52" d="M 2509 2156 
C 3117 2278 3629 2689 3629 3203 
C 3629 3806 2950 4352 2054 4352 
L 333 4352 
L 333 4185 
C 774 4185 845 4185 845 3896 
L 845 428 
C 845 140 774 140 333 140 
L 333 -26 
C 518 -13 851 -13 1050 -13 
C 1248 -13 1581 -13 1766 -26 
L 1766 140 
C 1325 140 1254 140 1254 428 
L 1254 2112 
L 2003 2112 
C 2368 2112 2573 1964 2662 1881 
C 2918 1632 2918 1459 2918 1024 
C 2918 595 2918 377 3110 160 
C 3354 -103 3680 -128 3821 -128 
C 4294 -128 4365 403 4365 512 
C 4365 550 4365 595 4307 595 
C 4256 595 4250 556 4250 531 
C 4218 115 4032 -26 3834 -26 
C 3482 -26 3443 377 3405 768 
C 3386 902 3373 998 3360 1139 
C 3322 1459 3270 1926 2509 2156 
z
M 1984 2214 
L 1254 2214 
L 1254 3935 
C 1254 4153 1267 4185 1523 4185 
L 1990 4185 
C 2522 4185 3142 3999 3142 3203 
C 3142 2374 2464 2214 1984 2214 
z
" transform="scale(0.015625)"/>
       <path id="CMR17-61" d="M 2304 1656 
C 2304 2048 2304 2275 2035 2534 
C 1798 2751 1523 2816 1306 2816 
C 800 2816 435 2408 435 1977 
C 435 1740 627 1728 666 1728 
C 749 1728 896 1779 896 1958 
C 896 2118 774 2188 666 2188 
C 640 2188 608 2182 589 2176 
C 723 2594 1069 2713 1293 2713 
C 1613 2713 1965 2421 1965 1875 
L 1965 1632 
C 1587 1619 1133 1568 774 1373 
C 371 1147 256 822 256 576 
C 256 77 832 -64 1171 -64 
C 1523 -64 1850 135 1990 505 
C 2003 219 2182 -39 2464 -39 
C 2598 -39 2938 51 2938 563 
L 2938 926 
L 2822 926 
L 2822 557 
C 2822 161 2650 109 2566 109 
C 2304 109 2304 446 2304 732 
L 2304 1656 
z
M 1965 887 
C 1965 323 1568 38 1216 38 
C 896 38 646 278 646 576 
C 646 771 730 1114 1101 1322 
C 1408 1497 1760 1523 1965 1536 
L 1965 887 
z
" transform="scale(0.015625)"/>
       <path id="CMR17-6e" d="M 2656 1954 
C 2656 2282 2592 2816 1837 2816 
C 1331 2816 1069 2424 973 2166 
L 966 2166 
L 966 2816 
L 211 2745 
L 211 2578 
C 589 2578 646 2540 646 2231 
L 646 443 
C 646 198 621 166 211 166 
L 211 0 
C 365 12 646 12 813 12 
C 979 12 1267 12 1421 0 
L 1421 166 
C 1011 166 986 192 986 443 
L 986 1678 
C 986 2269 1344 2713 1792 2713 
C 2266 2713 2317 2289 2317 1980 
L 2317 443 
C 2317 198 2291 166 1882 166 
L 1882 0 
C 2035 12 2317 12 2483 12 
C 2650 12 2938 12 3091 0 
L 3091 166 
C 2682 166 2656 192 2656 443 
L 2656 1954 
z
" transform="scale(0.015625)"/>
       <path id="CMR17-64" d="M 1869 4345 
L 1869 4179 
C 2246 4179 2304 4141 2304 3843 
L 2304 2371 
C 2278 2403 2016 2816 1498 2816 
C 845 2816 211 2228 211 1376 
C 211 529 806 -64 1434 -64 
C 1978 -64 2259 361 2291 406 
L 2291 -64 
L 3066 -13 
L 3066 154 
C 2688 154 2630 193 2630 503 
L 2630 4416 
L 1869 4345 
z
M 2291 762 
C 2291 568 2176 393 2029 264 
C 1811 70 1594 38 1472 38 
C 1286 38 621 135 621 1369 
C 621 2636 1363 2713 1530 2713 
C 1824 2713 2061 2545 2208 2313 
C 2291 2177 2291 2157 2291 2041 
L 2291 762 
z
" transform="scale(0.015625)"/>
       <path id="CMR17-6f" d="M 2758 1356 
C 2758 2176 2163 2816 1466 2816 
C 768 2816 173 2176 173 1356 
C 173 550 768 -64 1466 -64 
C 2163 -64 2758 550 2758 1356 
z
M 1466 51 
C 1165 51 909 230 762 480 
C 602 768 582 1126 582 1408 
C 582 1676 595 2009 762 2297 
C 890 2508 1139 2713 1466 2713 
C 1754 2713 1997 2553 2150 2329 
C 2349 2028 2349 1606 2349 1408 
C 2349 1158 2336 774 2163 467 
C 1984 172 1709 51 1466 51 
z
" transform="scale(0.015625)"/>
       <path id="CMR17-7a" d="M 2310 2604 
C 2362 2668 2362 2681 2362 2694 
C 2362 2752 2336 2752 2221 2752 
L 275 2752 
L 211 1760 
L 326 1760 
C 371 2380 442 2649 1178 2649 
L 1958 2649 
L 128 96 
C 128 6 134 0 269 0 
L 2291 0 
L 2381 1152 
L 2266 1152 
C 2214 441 2131 115 1350 115 
L 531 115 
L 2310 2604 
z
" transform="scale(0.015625)"/>
       <path id="CMR17-50" d="M 1267 2048 
L 2291 2048 
C 3117 2048 3718 2583 3718 3187 
C 3718 3791 3130 4352 2291 4352 
L 333 4352 
L 333 4185 
C 774 4185 845 4185 845 3899 
L 845 453 
C 845 166 774 166 333 166 
L 333 0 
C 518 12 858 12 1056 12 
C 1254 12 1594 12 1779 0 
L 1779 166 
C 1338 166 1267 166 1267 453 
L 1267 2048 
z
M 1254 2182 
L 1254 3937 
C 1254 4153 1267 4185 1523 4185 
L 2170 4185 
C 2995 4185 3232 3715 3232 3187 
C 3232 2608 2950 2182 2170 2182 
L 1254 2182 
z
" transform="scale(0.015625)"/>
       <path id="CMR17-41" d="M 2323 4441 
C 2291 4524 2278 4544 2214 4544 
C 2150 4544 2138 4524 2106 4441 
L 749 580 
C 627 236 371 166 147 166 
L 147 0 
C 262 12 518 12 640 12 
C 800 12 1056 12 1210 0 
L 1210 166 
C 909 179 864 382 864 459 
C 864 516 877 548 890 586 
L 1229 1536 
L 2906 1536 
L 3290 453 
C 3322 376 3322 363 3322 338 
C 3322 166 3046 166 2925 166 
L 2925 0 
C 3110 12 3443 12 3642 12 
C 3808 12 4128 12 4282 0 
L 4282 166 
C 3942 166 3827 166 3744 402 
L 2323 4441 
z
M 2067 3924 
L 2848 1702 
L 1286 1702 
L 2067 3924 
z
" transform="scale(0.015625)"/>
       <path id="CMR17-44" d="M 333 4352 
L 333 4185 
C 774 4185 845 4185 845 3898 
L 845 453 
C 845 166 774 166 333 166 
L 333 0 
L 2368 0 
C 3398 0 4224 943 4224 2140 
C 4224 3344 3411 4352 2368 4352 
L 333 4352 
z
M 1523 166 
C 1267 166 1254 198 1254 414 
L 1254 3936 
C 1254 4153 1267 4185 1523 4185 
L 2240 4185 
C 2771 4185 3750 3873 3750 2140 
C 3750 1242 3488 879 3366 707 
C 3213 510 2848 166 2240 166 
L 1523 166 
z
" transform="scale(0.015625)"/>
       <path id="CMR17-4d" d="M 1338 4249 
C 1299 4345 1293 4352 1158 4352 
L 339 4352 
L 339 4185 
C 781 4185 851 4185 851 3898 
L 851 624 
C 851 465 851 166 339 166 
L 339 0 
C 486 12 755 12 915 12 
C 1075 12 1344 12 1491 0 
L 1491 166 
C 979 166 979 465 979 624 
L 979 4159 
L 986 4159 
L 2490 102 
C 2515 38 2528 0 2579 0 
C 2630 0 2643 38 2669 102 
L 4186 4191 
L 4192 4191 
L 4192 453 
C 4192 166 4122 166 3680 166 
L 3680 0 
C 3853 12 4198 12 4384 12 
C 4570 12 4922 12 5094 0 
L 5094 166 
C 4653 166 4582 166 4582 453 
L 4582 3898 
C 4582 4185 4653 4185 5094 4185 
L 5094 4352 
L 4282 4352 
C 4147 4352 4141 4345 4102 4249 
L 2720 516 
L 1338 4249 
z
" transform="scale(0.015625)"/>
      </defs>
      <use xlink:href="#CMR17-52" transform="scale(0.996264)"/>
      <use xlink:href="#CMR17-61" transform="translate(67.791102 0)scale(0.996264)"/>
      <use xlink:href="#CMR17-6e" transform="translate(113.481579 0)scale(0.996264)"/>
      <use xlink:href="#CMR17-64" transform="translate(164.376949 0)scale(0.996264)"/>
      <use xlink:href="#CMR17-6f" transform="translate(215.272319 0)scale(0.996264)"/>
      <use xlink:href="#CMR17-6d" transform="translate(260.962796 0)scale(0.996264)"/>
      <use xlink:href="#CMR17-69" transform="translate(337.882386 0)scale(0.996264)"/>
      <use xlink:href="#CMR17-7a" transform="translate(362.753444 0)scale(0.996264)"/>
      <use xlink:href="#CMR17-65" transform="translate(403.239105 0)scale(0.996264)"/>
      <use xlink:href="#CMR17-64" transform="translate(443.724765 0)scale(0.996264)"/>
      <use xlink:href="#CMR17-50" transform="translate(524.696101 0)scale(0.996264)"/>
      <use xlink:href="#CMR17-41" transform="translate(579.475146 0)scale(0.996264)"/>
      <use xlink:href="#CMR17-44" transform="translate(648.547576 0)scale(0.996264)"/>
      <use xlink:href="#CMR17-4d" transform="translate(718.941132 0)scale(0.996264)"/>
     </g>
    </g>
    <g id="line2d_19">
     <path d="M 225.232741 190.691759 
L 241.232741 190.691759 
L 257.232741 190.691759 
" style="fill: none; stroke: #ff7f0e; stroke-width: 1.5; stroke-linecap: round"/>
    </g>
    <g id="text_18">
     <!-- PADM -->
     <g style="fill: #262626" transform="translate(270.032741 196.291759)scale(0.16 -0.16)">
      <use xlink:href="#CMR17-50" transform="scale(0.996264)"/>
      <use xlink:href="#CMR17-41" transform="translate(54.779045 0)scale(0.996264)"/>
      <use xlink:href="#CMR17-44" transform="translate(123.851475 0)scale(0.996264)"/>
      <use xlink:href="#CMR17-4d" transform="translate(194.245031 0)scale(0.996264)"/>
     </g>
    </g>
    <g id="line2d_20">
     <path d="M 225.232741 212.991235 
L 241.232741 212.991235 
L 257.232741 212.991235 
" style="fill: none; stroke: #2ca02c; stroke-width: 1.5; stroke-linecap: round"/>
    </g>
    <g id="text_19">
     <!-- Exact -->
     <g style="fill: #262626" transform="translate(270.032741 218.591235)scale(0.16 -0.16)">
      <defs>
       <path id="CMR17-45" d="M 3885 1614 
L 3770 1614 
C 3629 676 3546 166 2419 166 
L 1530 166 
C 1274 166 1261 198 1261 415 
L 1261 2176 
L 1862 2176 
C 2464 2176 2522 1959 2522 1429 
L 2637 1429 
L 2637 3086 
L 2522 3086 
C 2522 2558 2464 2342 1862 2342 
L 1261 2342 
L 1261 3924 
C 1261 4141 1274 4172 1530 4172 
L 2406 4172 
C 3398 4172 3514 3778 3603 2933 
L 3718 2933 
L 3565 4339 
L 326 4339 
L 326 4172 
C 768 4172 838 4172 838 3886 
L 838 453 
C 838 166 768 166 326 166 
L 326 0 
L 3654 0 
L 3885 1614 
z
" transform="scale(0.015625)"/>
       <path id="CMR17-78" d="M 1664 1491 
C 1856 1740 2074 2022 2253 2233 
C 2464 2476 2707 2579 2989 2585 
L 2989 2752 
C 2880 2745 2656 2739 2541 2739 
C 2368 2739 2170 2739 2022 2752 
L 2022 2585 
C 2112 2572 2163 2508 2163 2419 
C 2163 2304 2099 2233 2067 2188 
L 1594 1587 
L 1030 2323 
C 973 2393 973 2406 973 2438 
C 973 2515 1037 2579 1146 2585 
L 1146 2752 
C 992 2739 717 2739 557 2739 
C 384 2739 179 2739 38 2752 
L 38 2585 
C 384 2585 461 2560 614 2368 
L 1350 1414 
C 1363 1401 1395 1363 1395 1344 
C 1395 1318 838 633 768 544 
C 480 198 179 172 6 166 
L 6 0 
C 115 6 339 12 454 12 
C 582 12 864 12 979 0 
L 979 166 
C 941 172 838 185 838 332 
C 838 448 890 518 947 595 
L 1478 1248 
L 2035 524 
C 2086 454 2163 358 2163 313 
C 2163 224 2086 172 1984 166 
L 1984 0 
C 2138 12 2413 12 2573 12 
C 2746 12 2950 12 3091 0 
L 3091 166 
C 2771 166 2675 179 2522 377 
L 1664 1491 
z
" transform="scale(0.015625)"/>
       <path id="CMR17-63" d="M 2234 2240 
C 2112 2240 1933 2240 1933 2015 
C 1933 1836 2080 1785 2163 1785 
C 2208 1785 2394 1804 2394 2028 
C 2394 2476 1958 2816 1466 2816 
C 787 2816 211 2201 211 1379 
C 211 521 813 -64 1466 -64 
C 2259 -64 2458 676 2458 747 
C 2458 773 2451 792 2406 792 
C 2362 792 2355 786 2330 702 
C 2163 180 1798 51 1523 51 
C 1114 51 621 431 621 1385 
C 621 2358 1094 2700 1472 2700 
C 1722 2700 2093 2582 2234 2240 
z
" transform="scale(0.015625)"/>
       <path id="CMR17-74" d="M 966 2585 
L 1862 2585 
L 1862 2752 
L 966 2752 
L 966 3968 
L 851 3968 
C 838 3292 614 2700 70 2687 
L 70 2585 
L 627 2585 
L 627 778 
C 627 655 627 -64 1370 -64 
C 1747 -64 1965 308 1965 784 
L 1965 1151 
L 1850 1151 
L 1850 790 
C 1850 347 1677 51 1408 51 
C 1222 51 966 179 966 765 
L 966 2585 
z
" transform="scale(0.015625)"/>
      </defs>
      <use xlink:href="#CMR17-45" transform="scale(0.996264)"/>
      <use xlink:href="#CMR17-78" transform="translate(62.586301 0)scale(0.996264)"/>
      <use xlink:href="#CMR17-61" transform="translate(110.879216 0)scale(0.996264)"/>
      <use xlink:href="#CMR17-63" transform="translate(156.569693 0)scale(0.996264)"/>
      <use xlink:href="#CMR17-74" transform="translate(197.055354 0)scale(0.996264)"/>
     </g>
    </g>
   </g>
  </g>
 </g>
 <defs>
  <clipPath id="p7acc3ff9b0">
   <rect x="37.743522" y="10.8" width="383.456478" height="225.290711"/>
  </clipPath>
 </defs>
</svg>
