<?xml version="1.0" encoding="utf-8" standalone="no"?>
<!DOCTYPE svg PUBLIC "-//W3C//DTD SVG 1.1//EN"
  "http://www.w3.org/Graphics/SVG/1.1/DTD/svg11.dtd">
<svg xmlns:xlink="http://www.w3.org/1999/xlink" width="432pt" height="288pt" viewBox="0 0 432 288" xmlns="http://www.w3.org/2000/svg" version="1.1">
 <metadata>
  <rdf:RDF xmlns:dc="http://purl.org/dc/elements/1.1/" xmlns:cc="http://creativecommons.org/ns#" xmlns:rdf="http://www.w3.org/1999/02/22-rdf-syntax-ns#">
   <cc:Work>
    <dc:type rdf:resource="http://purl.org/dc/dcmitype/StillImage"/>
    <dc:date>2022-10-23T14:33:52.310025</dc:date>
    <dc:format>image/svg+xml</dc:format>
    <dc:creator>
     <cc:Agent>
      <dc:title>Matplotlib v3.5.2, https://matplotlib.org/</dc:title>
     </cc:Agent>
    </dc:creator>
   </cc:Work>
  </rdf:RDF>
 </metadata>
 <defs>
  <style type="text/css">*{stroke-linejoin: round; stroke-linecap: butt}</style>
 </defs>
 <g id="figure_1">
  <g id="patch_1">
   <path d="M 0 288 
L 432 288 
L 432 0 
L 0 0 
z
" style="fill: #ffffff"/>
  </g>
  <g id="axes_1">
   <g id="patch_2">
    <path d="M 37.743522 237.861871 
L 421.2 237.861871 
L 421.2 10.8 
L 37.743522 10.8 
z
" style="fill: #eaeaf2"/>
   </g>
   <g id="matplotlib.axis_1">
    <g id="xtick_1">
     <g id="line2d_1">
      <path d="M 84.31511 237.861871 
L 84.31511 10.8 
" clip-path="url(#pd643f587c2)" style="fill: none; stroke: #ffffff; stroke-width: 0.8; stroke-linecap: round"/>
     </g>
     <g id="text_1">
      <!-- $\mathdefault{2}$ -->
      <g style="fill: #262626" transform="translate(80.413117 255.931459)scale(0.16 -0.16)">
       <defs>
        <path id="CMR17-32" d="M 2669 990 
L 2554 990 
C 2490 537 2438 460 2413 422 
C 2381 371 1920 371 1830 371 
L 602 371 
C 832 620 1280 1073 1824 1596 
C 2214 1966 2669 2400 2669 3033 
C 2669 3788 2067 4224 1395 4224 
C 691 4224 262 3603 262 3027 
C 262 2777 448 2745 525 2745 
C 589 2745 781 2783 781 3007 
C 781 3206 614 3264 525 3264 
C 486 3264 448 3257 422 3244 
C 544 3788 915 4057 1306 4057 
C 1862 4057 2227 3616 2227 3033 
C 2227 2477 1901 1998 1536 1583 
L 262 147 
L 262 0 
L 2515 0 
L 2669 990 
z
" transform="scale(0.015625)"/>
       </defs>
       <use xlink:href="#CMR17-32" transform="scale(0.996264)"/>
      </g>
     </g>
    </g>
    <g id="xtick_2">
     <g id="line2d_2">
      <path d="M 142.598606 237.861871 
L 142.598606 10.8 
" clip-path="url(#pd643f587c2)" style="fill: none; stroke: #ffffff; stroke-width: 0.8; stroke-linecap: round"/>
     </g>
     <g id="text_2">
      <!-- $\mathdefault{4}$ -->
      <g style="fill: #262626" transform="translate(138.696613 255.931459)scale(0.16 -0.16)">
       <defs>
        <path id="CMR17-34" d="M 2150 4147 
C 2150 4281 2144 4288 2029 4288 
L 128 1254 
L 128 1088 
L 1779 1088 
L 1779 460 
C 1779 230 1766 166 1318 166 
L 1197 166 
L 1197 0 
C 1402 12 1747 12 1965 12 
C 2182 12 2528 12 2733 0 
L 2733 166 
L 2611 166 
C 2163 166 2150 230 2150 460 
L 2150 1088 
L 2803 1088 
L 2803 1254 
L 2150 1254 
L 2150 4147 
z
M 1798 3723 
L 1798 1254 
L 256 1254 
L 1798 3723 
z
" transform="scale(0.015625)"/>
       </defs>
       <use xlink:href="#CMR17-34" transform="scale(0.996264)"/>
      </g>
     </g>
    </g>
    <g id="xtick_3">
     <g id="line2d_3">
      <path d="M 200.882102 237.861871 
L 200.882102 10.8 
" clip-path="url(#pd643f587c2)" style="fill: none; stroke: #ffffff; stroke-width: 0.8; stroke-linecap: round"/>
     </g>
     <g id="text_3">
      <!-- $\mathdefault{6}$ -->
      <g style="fill: #262626" transform="translate(196.980108 255.931459)scale(0.16 -0.16)">
       <defs>
        <path id="CMR17-36" d="M 678 2198 
C 678 3712 1395 4076 1811 4076 
C 1946 4076 2272 4049 2400 3782 
C 2298 3782 2106 3782 2106 3558 
C 2106 3385 2246 3328 2336 3328 
C 2394 3328 2566 3353 2566 3571 
C 2566 3987 2246 4224 1805 4224 
C 1043 4224 243 3411 243 2011 
C 243 257 966 -128 1478 -128 
C 2099 -128 2688 431 2688 1295 
C 2688 2101 2170 2688 1517 2688 
C 1126 2688 838 2430 678 1979 
L 678 2198 
z
M 1478 25 
C 691 25 691 1212 691 1450 
C 691 1914 909 2585 1504 2585 
C 1613 2585 1926 2585 2138 2140 
C 2253 1889 2253 1624 2253 1302 
C 2253 954 2253 696 2118 438 
C 1978 173 1773 25 1478 25 
z
" transform="scale(0.015625)"/>
       </defs>
       <use xlink:href="#CMR17-36" transform="scale(0.996264)"/>
      </g>
     </g>
    </g>
    <g id="xtick_4">
     <g id="line2d_4">
      <path d="M 259.165598 237.861871 
L 259.165598 10.8 
" clip-path="url(#pd643f587c2)" style="fill: none; stroke: #ffffff; stroke-width: 0.8; stroke-linecap: round"/>
     </g>
     <g id="text_4">
      <!-- $\mathdefault{8}$ -->
      <g style="fill: #262626" transform="translate(255.263604 255.931459)scale(0.16 -0.16)">
       <defs>
        <path id="CMR17-38" d="M 1741 2289 
C 2144 2494 2554 2803 2554 3298 
C 2554 3884 1990 4224 1472 4224 
C 890 4224 378 3800 378 3215 
C 378 3054 416 2777 666 2533 
C 730 2469 998 2276 1171 2154 
C 883 2006 211 1652 211 945 
C 211 282 838 -128 1459 -128 
C 2144 -128 2720 366 2720 1022 
C 2720 1607 2330 1877 2074 2051 
L 1741 2289 
z
M 902 2855 
C 851 2887 595 3086 595 3388 
C 595 3781 998 4076 1459 4076 
C 1965 4076 2336 3716 2336 3298 
C 2336 2700 1670 2359 1638 2359 
C 1632 2359 1626 2359 1574 2398 
L 902 2855 
z
M 2080 1536 
C 2176 1466 2483 1253 2483 861 
C 2483 385 2010 25 1472 25 
C 890 25 448 443 448 951 
C 448 1459 838 1884 1280 2083 
L 2080 1536 
z
" transform="scale(0.015625)"/>
       </defs>
       <use xlink:href="#CMR17-38" transform="scale(0.996264)"/>
      </g>
     </g>
    </g>
    <g id="xtick_5">
     <g id="line2d_5">
      <path d="M 317.449094 237.861871 
L 317.449094 10.8 
" clip-path="url(#pd643f587c2)" style="fill: none; stroke: #ffffff; stroke-width: 0.8; stroke-linecap: round"/>
     </g>
     <g id="text_5">
      <!-- $\mathdefault{10}$ -->
      <g style="fill: #262626" transform="translate(309.645107 255.931459)scale(0.16 -0.16)">
       <defs>
        <path id="CMR17-31" d="M 1702 4083 
C 1702 4217 1696 4224 1606 4224 
C 1357 3927 979 3833 621 3820 
C 602 3820 570 3820 563 3808 
C 557 3795 557 3782 557 3648 
C 755 3648 1088 3686 1344 3839 
L 1344 467 
C 1344 243 1331 166 781 166 
L 589 166 
L 589 0 
C 896 6 1216 12 1523 12 
C 1830 12 2150 6 2458 0 
L 2458 166 
L 2266 166 
C 1715 166 1702 236 1702 467 
L 1702 4083 
z
" transform="scale(0.015625)"/>
        <path id="CMR17-30" d="M 2688 2038 
C 2688 2430 2682 3099 2413 3613 
C 2176 4063 1798 4224 1466 4224 
C 1158 4224 768 4082 525 3620 
C 269 3137 243 2539 243 2038 
C 243 1671 250 1112 448 623 
C 723 -39 1216 -128 1466 -128 
C 1760 -128 2208 -7 2470 604 
C 2662 1048 2688 1568 2688 2038 
z
M 1466 -26 
C 1056 -26 813 328 723 816 
C 653 1196 653 1749 653 2109 
C 653 2604 653 3015 736 3407 
C 858 3954 1216 4121 1466 4121 
C 1728 4121 2067 3947 2189 3420 
C 2272 3054 2278 2623 2278 2109 
C 2278 1691 2278 1176 2202 797 
C 2067 96 1690 -26 1466 -26 
z
" transform="scale(0.015625)"/>
       </defs>
       <use xlink:href="#CMR17-31" transform="scale(0.996264)"/>
       <use xlink:href="#CMR17-30" transform="translate(45.690477 0)scale(0.996264)"/>
      </g>
     </g>
    </g>
    <g id="xtick_6">
     <g id="line2d_6">
      <path d="M 375.732589 237.861871 
L 375.732589 10.8 
" clip-path="url(#pd643f587c2)" style="fill: none; stroke: #ffffff; stroke-width: 0.8; stroke-linecap: round"/>
     </g>
     <g id="text_6">
      <!-- $\mathdefault{12}$ -->
      <g style="fill: #262626" transform="translate(367.928602 255.931459)scale(0.16 -0.16)">
       <use xlink:href="#CMR17-31" transform="scale(0.996264)"/>
       <use xlink:href="#CMR17-32" transform="translate(45.690477 0)scale(0.996264)"/>
      </g>
     </g>
    </g>
    <g id="text_7">
     <!-- Performance Ratio -->
     <g style="fill: #262626" transform="translate(165.525175 274.100524)scale(0.16 -0.16)">
      <defs>
       <path id="CMR17-50" d="M 1267 2048 
L 2291 2048 
C 3117 2048 3718 2583 3718 3187 
C 3718 3791 3130 4352 2291 4352 
L 333 4352 
L 333 4185 
C 774 4185 845 4185 845 3899 
L 845 453 
C 845 166 774 166 333 166 
L 333 0 
C 518 12 858 12 1056 12 
C 1254 12 1594 12 1779 0 
L 1779 166 
C 1338 166 1267 166 1267 453 
L 1267 2048 
z
M 1254 2182 
L 1254 3937 
C 1254 4153 1267 4185 1523 4185 
L 2170 4185 
C 2995 4185 3232 3715 3232 3187 
C 3232 2608 2950 2182 2170 2182 
L 1254 2182 
z
" transform="scale(0.015625)"/>
       <path id="CMR17-65" d="M 2438 1503 
C 2464 1529 2464 1542 2464 1606 
C 2464 2251 2118 2816 1389 2816 
C 710 2816 173 2175 173 1394 
C 173 554 781 -64 1459 -64 
C 2176 -64 2458 619 2458 755 
C 2458 800 2419 800 2406 800 
C 2362 800 2355 787 2330 709 
C 2189 270 1837 51 1504 51 
C 1229 51 954 206 781 490 
C 582 819 582 1200 582 1503 
L 2438 1503 
z
M 589 1600 
C 634 2511 1126 2713 1382 2713 
C 1818 2713 2112 2308 2118 1600 
L 589 1600 
z
" transform="scale(0.015625)"/>
       <path id="CMR17-72" d="M 960 1517 
C 960 2134 1222 2713 1702 2713 
C 1747 2713 1792 2707 1837 2687 
C 1837 2687 1696 2642 1696 2475 
C 1696 2321 1818 2257 1914 2257 
C 1990 2257 2131 2302 2131 2482 
C 2131 2687 1926 2816 1709 2816 
C 1222 2816 1011 2340 947 2115 
L 941 2115 
L 941 2816 
L 198 2745 
L 198 2578 
C 576 2578 634 2540 634 2231 
L 634 443 
C 634 198 608 166 198 166 
L 198 0 
C 352 12 646 12 813 12 
C 998 12 1325 12 1498 0 
L 1498 166 
C 1037 166 960 166 960 455 
L 960 1517 
z
" transform="scale(0.015625)"/>
       <path id="CMR17-66" d="M 979 2585 
L 1709 2585 
L 1709 2752 
L 966 2752 
L 966 3539 
C 966 4076 1235 4377 1510 4377 
C 1594 4377 1690 4363 1754 4339 
C 1702 4326 1568 4281 1568 4121 
C 1568 3955 1696 3904 1786 3904 
C 1875 3904 2003 3955 2003 4121 
C 2003 4353 1773 4480 1517 4480 
C 1152 4480 653 4211 653 3526 
L 653 2752 
L 141 2752 
L 141 2585 
L 653 2585 
L 653 441 
C 653 198 627 166 218 166 
L 218 0 
C 371 12 666 12 832 12 
C 1018 12 1344 12 1517 0 
L 1517 166 
C 1056 166 979 166 979 454 
L 979 2585 
z
" transform="scale(0.015625)"/>
       <path id="CMR17-6f" d="M 2758 1356 
C 2758 2176 2163 2816 1466 2816 
C 768 2816 173 2176 173 1356 
C 173 550 768 -64 1466 -64 
C 2163 -64 2758 550 2758 1356 
z
M 1466 51 
C 1165 51 909 230 762 480 
C 602 768 582 1126 582 1408 
C 582 1676 595 2009 762 2297 
C 890 2508 1139 2713 1466 2713 
C 1754 2713 1997 2553 2150 2329 
C 2349 2028 2349 1606 2349 1408 
C 2349 1158 2336 774 2163 467 
C 1984 172 1709 51 1466 51 
z
" transform="scale(0.015625)"/>
       <path id="CMR17-6d" d="M 4326 1954 
C 4326 2276 4269 2816 3507 2816 
C 3072 2816 2771 2520 2656 2173 
L 2650 2173 
C 2573 2700 2195 2816 1837 2816 
C 1331 2816 1069 2424 973 2166 
L 966 2166 
L 966 2816 
L 211 2745 
L 211 2578 
C 589 2578 646 2540 646 2231 
L 646 443 
C 646 198 621 166 211 166 
L 211 0 
C 365 12 646 12 813 12 
C 979 12 1267 12 1421 0 
L 1421 166 
C 1011 166 986 192 986 443 
L 986 1678 
C 986 2269 1344 2713 1792 2713 
C 2266 2713 2317 2289 2317 1980 
L 2317 443 
C 2317 198 2291 166 1882 166 
L 1882 0 
C 2035 12 2317 12 2483 12 
C 2650 12 2938 12 3091 0 
L 3091 166 
C 2682 166 2656 192 2656 443 
L 2656 1678 
C 2656 2269 3014 2713 3462 2713 
C 3936 2713 3987 2289 3987 1980 
L 3987 443 
C 3987 198 3962 166 3552 166 
L 3552 0 
C 3706 12 3987 12 4154 12 
C 4320 12 4608 12 4762 0 
L 4762 166 
C 4352 166 4326 192 4326 443 
L 4326 1954 
z
" transform="scale(0.015625)"/>
       <path id="CMR17-61" d="M 2304 1656 
C 2304 2048 2304 2275 2035 2534 
C 1798 2751 1523 2816 1306 2816 
C 800 2816 435 2408 435 1977 
C 435 1740 627 1728 666 1728 
C 749 1728 896 1779 896 1958 
C 896 2118 774 2188 666 2188 
C 640 2188 608 2182 589 2176 
C 723 2594 1069 2713 1293 2713 
C 1613 2713 1965 2421 1965 1875 
L 1965 1632 
C 1587 1619 1133 1568 774 1373 
C 371 1147 256 822 256 576 
C 256 77 832 -64 1171 -64 
C 1523 -64 1850 135 1990 505 
C 2003 219 2182 -39 2464 -39 
C 2598 -39 2938 51 2938 563 
L 2938 926 
L 2822 926 
L 2822 557 
C 2822 161 2650 109 2566 109 
C 2304 109 2304 446 2304 732 
L 2304 1656 
z
M 1965 887 
C 1965 323 1568 38 1216 38 
C 896 38 646 278 646 576 
C 646 771 730 1114 1101 1322 
C 1408 1497 1760 1523 1965 1536 
L 1965 887 
z
" transform="scale(0.015625)"/>
       <path id="CMR17-6e" d="M 2656 1954 
C 2656 2282 2592 2816 1837 2816 
C 1331 2816 1069 2424 973 2166 
L 966 2166 
L 966 2816 
L 211 2745 
L 211 2578 
C 589 2578 646 2540 646 2231 
L 646 443 
C 646 198 621 166 211 166 
L 211 0 
C 365 12 646 12 813 12 
C 979 12 1267 12 1421 0 
L 1421 166 
C 1011 166 986 192 986 443 
L 986 1678 
C 986 2269 1344 2713 1792 2713 
C 2266 2713 2317 2289 2317 1980 
L 2317 443 
C 2317 198 2291 166 1882 166 
L 1882 0 
C 2035 12 2317 12 2483 12 
C 2650 12 2938 12 3091 0 
L 3091 166 
C 2682 166 2656 192 2656 443 
L 2656 1954 
z
" transform="scale(0.015625)"/>
       <path id="CMR17-63" d="M 2234 2240 
C 2112 2240 1933 2240 1933 2015 
C 1933 1836 2080 1785 2163 1785 
C 2208 1785 2394 1804 2394 2028 
C 2394 2476 1958 2816 1466 2816 
C 787 2816 211 2201 211 1379 
C 211 521 813 -64 1466 -64 
C 2259 -64 2458 676 2458 747 
C 2458 773 2451 792 2406 792 
C 2362 792 2355 786 2330 702 
C 2163 180 1798 51 1523 51 
C 1114 51 621 431 621 1385 
C 621 2358 1094 2700 1472 2700 
C 1722 2700 2093 2582 2234 2240 
z
" transform="scale(0.015625)"/>
       <path id="CMR17-52" d="M 2509 2156 
C 3117 2278 3629 2689 3629 3203 
C 3629 3806 2950 4352 2054 4352 
L 333 4352 
L 333 4185 
C 774 4185 845 4185 845 3896 
L 845 428 
C 845 140 774 140 333 140 
L 333 -26 
C 518 -13 851 -13 1050 -13 
C 1248 -13 1581 -13 1766 -26 
L 1766 140 
C 1325 140 1254 140 1254 428 
L 1254 2112 
L 2003 2112 
C 2368 2112 2573 1964 2662 1881 
C 2918 1632 2918 1459 2918 1024 
C 2918 595 2918 377 3110 160 
C 3354 -103 3680 -128 3821 -128 
C 4294 -128 4365 403 4365 512 
C 4365 550 4365 595 4307 595 
C 4256 595 4250 556 4250 531 
C 4218 115 4032 -26 3834 -26 
C 3482 -26 3443 377 3405 768 
C 3386 902 3373 998 3360 1139 
C 3322 1459 3270 1926 2509 2156 
z
M 1984 2214 
L 1254 2214 
L 1254 3935 
C 1254 4153 1267 4185 1523 4185 
L 1990 4185 
C 2522 4185 3142 3999 3142 3203 
C 3142 2374 2464 2214 1984 2214 
z
" transform="scale(0.015625)"/>
       <path id="CMR17-74" d="M 966 2585 
L 1862 2585 
L 1862 2752 
L 966 2752 
L 966 3968 
L 851 3968 
C 838 3292 614 2700 70 2687 
L 70 2585 
L 627 2585 
L 627 778 
C 627 655 627 -64 1370 -64 
C 1747 -64 1965 308 1965 784 
L 1965 1151 
L 1850 1151 
L 1850 790 
C 1850 347 1677 51 1408 51 
C 1222 51 966 179 966 765 
L 966 2585 
z
" transform="scale(0.015625)"/>
       <path id="CMR17-69" d="M 992 3961 
C 992 4102 877 4224 730 4224 
C 589 4224 467 4108 467 3961 
C 467 3820 582 3699 730 3699 
C 870 3699 992 3814 992 3961 
z
M 243 2745 
L 243 2579 
C 602 2579 653 2540 653 2231 
L 653 443 
C 653 198 627 166 218 166 
L 218 0 
C 371 12 646 12 806 12 
C 960 12 1222 12 1370 0 
L 1370 166 
C 992 166 979 205 979 436 
L 979 2816 
L 243 2745 
z
" transform="scale(0.015625)"/>
      </defs>
      <use xlink:href="#CMR17-50" transform="scale(0.996264)"/>
      <use xlink:href="#CMR17-65" transform="translate(59.983847 0)scale(0.996264)"/>
      <use xlink:href="#CMR17-72" transform="translate(100.469507 0)scale(0.996264)"/>
      <use xlink:href="#CMR17-66" transform="translate(135.750275 0)scale(0.996264)"/>
      <use xlink:href="#CMR17-6f" transform="translate(163.223787 0)scale(0.996264)"/>
      <use xlink:href="#CMR17-72" transform="translate(208.914264 0)scale(0.996264)"/>
      <use xlink:href="#CMR17-6d" transform="translate(244.195032 0)scale(0.996264)"/>
      <use xlink:href="#CMR17-61" transform="translate(321.114622 0)scale(0.996264)"/>
      <use xlink:href="#CMR17-6e" transform="translate(366.805099 0)scale(0.996264)"/>
      <use xlink:href="#CMR17-63" transform="translate(417.700469 0)scale(0.996264)"/>
      <use xlink:href="#CMR17-65" transform="translate(458.186129 0)scale(0.996264)"/>
      <use xlink:href="#CMR17-52" transform="translate(528.747756 0)scale(0.996264)"/>
      <use xlink:href="#CMR17-61" transform="translate(596.538858 0)scale(0.996264)"/>
      <use xlink:href="#CMR17-74" transform="translate(642.229335 0)scale(0.996264)"/>
      <use xlink:href="#CMR17-69" transform="translate(677.510103 0)scale(0.996264)"/>
      <use xlink:href="#CMR17-6f" transform="translate(702.381162 0)scale(0.996264)"/>
     </g>
    </g>
   </g>
   <g id="matplotlib.axis_2">
    <g id="ytick_1">
     <g id="line2d_7">
      <path d="M 37.743522 227.540877 
L 421.2 227.540877 
" clip-path="url(#pd643f587c2)" style="fill: none; stroke: #ffffff; stroke-width: 0.8; stroke-linecap: round"/>
     </g>
     <g id="text_8">
      <!-- $\mathdefault{0.0}$ -->
      <g style="fill: #262626" transform="translate(10.8 233.075671)scale(0.16 -0.16)">
       <defs>
        <path id="CMMI12-3a" d="M 1178 307 
C 1178 492 1024 620 870 620 
C 685 620 557 467 557 313 
C 557 128 710 0 864 0 
C 1050 0 1178 153 1178 307 
z
" transform="scale(0.015625)"/>
       </defs>
       <use xlink:href="#CMR17-30" transform="scale(0.996264)"/>
       <use xlink:href="#CMMI12-3a" transform="translate(45.690477 0)scale(0.996264)"/>
       <use xlink:href="#CMR17-30" transform="translate(72.787654 0)scale(0.996264)"/>
      </g>
     </g>
    </g>
    <g id="ytick_2">
     <g id="line2d_8">
      <path d="M 37.743522 186.2569 
L 421.2 186.2569 
" clip-path="url(#pd643f587c2)" style="fill: none; stroke: #ffffff; stroke-width: 0.8; stroke-linecap: round"/>
     </g>
     <g id="text_9">
      <!-- $\mathdefault{0.2}$ -->
      <g style="fill: #262626" transform="translate(10.8 191.791694)scale(0.16 -0.16)">
       <use xlink:href="#CMR17-30" transform="scale(0.996264)"/>
       <use xlink:href="#CMMI12-3a" transform="translate(45.690477 0)scale(0.996264)"/>
       <use xlink:href="#CMR17-32" transform="translate(72.787654 0)scale(0.996264)"/>
      </g>
     </g>
    </g>
    <g id="ytick_3">
     <g id="line2d_9">
      <path d="M 37.743522 144.972924 
L 421.2 144.972924 
" clip-path="url(#pd643f587c2)" style="fill: none; stroke: #ffffff; stroke-width: 0.8; stroke-linecap: round"/>
     </g>
     <g id="text_10">
      <!-- $\mathdefault{0.4}$ -->
      <g style="fill: #262626" transform="translate(10.8 150.507718)scale(0.16 -0.16)">
       <use xlink:href="#CMR17-30" transform="scale(0.996264)"/>
       <use xlink:href="#CMMI12-3a" transform="translate(45.690477 0)scale(0.996264)"/>
       <use xlink:href="#CMR17-34" transform="translate(72.787654 0)scale(0.996264)"/>
      </g>
     </g>
    </g>
    <g id="ytick_4">
     <g id="line2d_10">
      <path d="M 37.743522 103.688947 
L 421.2 103.688947 
" clip-path="url(#pd643f587c2)" style="fill: none; stroke: #ffffff; stroke-width: 0.8; stroke-linecap: round"/>
     </g>
     <g id="text_11">
      <!-- $\mathdefault{0.6}$ -->
      <g style="fill: #262626" transform="translate(10.8 109.223741)scale(0.16 -0.16)">
       <use xlink:href="#CMR17-30" transform="scale(0.996264)"/>
       <use xlink:href="#CMMI12-3a" transform="translate(45.690477 0)scale(0.996264)"/>
       <use xlink:href="#CMR17-36" transform="translate(72.787654 0)scale(0.996264)"/>
      </g>
     </g>
    </g>
    <g id="ytick_5">
     <g id="line2d_11">
      <path d="M 37.743522 62.404971 
L 421.2 62.404971 
" clip-path="url(#pd643f587c2)" style="fill: none; stroke: #ffffff; stroke-width: 0.8; stroke-linecap: round"/>
     </g>
     <g id="text_12">
      <!-- $\mathdefault{0.8}$ -->
      <g style="fill: #262626" transform="translate(10.8 67.939765)scale(0.16 -0.16)">
       <use xlink:href="#CMR17-30" transform="scale(0.996264)"/>
       <use xlink:href="#CMMI12-3a" transform="translate(45.690477 0)scale(0.996264)"/>
       <use xlink:href="#CMR17-38" transform="translate(72.787654 0)scale(0.996264)"/>
      </g>
     </g>
    </g>
    <g id="ytick_6">
     <g id="line2d_12">
      <path d="M 37.743522 21.120994 
L 421.2 21.120994 
" clip-path="url(#pd643f587c2)" style="fill: none; stroke: #ffffff; stroke-width: 0.8; stroke-linecap: round"/>
     </g>
     <g id="text_13">
      <!-- $\mathdefault{1.0}$ -->
      <g style="fill: #262626" transform="translate(10.8 26.655788)scale(0.16 -0.16)">
       <use xlink:href="#CMR17-31" transform="scale(0.996264)"/>
       <use xlink:href="#CMMI12-3a" transform="translate(45.690477 0)scale(0.996264)"/>
       <use xlink:href="#CMR17-30" transform="translate(72.787654 0)scale(0.996264)"/>
      </g>
     </g>
    </g>
    <g id="text_14">
     <!-- % of Experiments -->
     <g style="fill: #262626" transform="translate(3.700524 124.330936)rotate(-90)scale(0.16 -0.16)"/>
    </g>
   </g>
   <g id="line2d_13">
    <path d="M 55.173362 227.540877 
L 55.173362 224.992483 
L 56.476432 224.143019 
L 58.038086 223.293554 
L 58.196057 221.594625 
L 58.198495 220.745161 
L 58.638981 218.196767 
L 58.943487 217.347302 
L 60.60172 216.497838 
L 60.748665 215.648373 
L 60.817607 213.949444 
L 61.070405 213.09998 
L 62.441362 212.250515 
L 62.595775 211.401051 
L 63.1674 210.551586 
L 63.560098 209.702122 
L 63.773035 208.852657 
L 63.971065 204.605334 
L 65.038965 202.906405 
L 65.101037 202.056941 
L 65.772059 200.358012 
L 66.606246 198.659083 
L 67.216523 197.809618 
L 67.254695 196.960154 
L 67.597272 196.110689 
L 67.731432 195.261224 
L 68.120418 194.41176 
L 68.242527 193.562295 
L 68.613974 192.712831 
L 68.669943 191.013902 
L 69.035373 189.314973 
L 69.462693 188.465508 
L 69.664548 186.766579 
L 69.840973 185.917115 
L 70.288066 185.06765 
L 71.033668 184.218185 
L 71.317439 183.368721 
L 71.35372 182.519256 
L 71.695718 181.669792 
L 71.71208 180.820327 
L 72.312329 179.970863 
L 72.351047 179.121398 
L 73.26567 178.271934 
L 73.948967 177.422469 
L 74.280229 176.573005 
L 75.405361 175.72354 
L 76.327301 174.874076 
L 77.345464 173.175146 
L 77.746987 171.476217 
L 77.822033 170.626753 
L 78.023237 169.777288 
L 78.508791 168.927824 
L 78.807364 165.529966 
L 79.314456 164.680501 
L 79.376469 163.831037 
L 79.845145 162.981572 
L 79.868317 162.132107 
L 80.647194 159.583714 
L 80.940806 158.734249 
L 81.185146 157.03532 
L 81.777162 156.185856 
L 82.090277 155.336391 
L 82.549082 154.486927 
L 82.788383 153.637462 
L 82.801637 152.787998 
L 83.403045 151.089068 
L 83.706718 149.390139 
L 83.75775 148.540675 
L 84.157912 147.69121 
L 84.252469 145.992281 
L 84.256938 145.142817 
L 84.53731 144.293352 
L 84.627065 143.443888 
L 84.970482 142.594423 
L 85.282173 138.3471 
L 85.617788 137.497636 
L 86.084882 136.648171 
L 86.181137 135.798707 
L 88.327502 131.551384 
L 88.365283 130.70192 
L 88.964213 128.153526 
L 89.85448 127.304061 
L 90.401112 125.605132 
L 90.508274 123.056739 
L 90.678612 122.207274 
L 91.081361 121.35781 
L 91.248037 119.658881 
L 92.101129 117.959951 
L 92.133238 117.110487 
L 93.537358 115.411558 
L 94.133302 114.562093 
L 94.456067 112.863164 
L 94.90521 112.0137 
L 95.578109 111.164235 
L 96.50171 106.916912 
L 97.365637 105.217983 
L 97.624394 104.368519 
L 97.6785 103.519054 
L 98.269694 102.66959 
L 98.288883 101.820125 
L 99.33529 100.970661 
L 100.141774 100.121196 
L 100.216345 99.271732 
L 100.804582 98.422267 
L 102.030903 97.572803 
L 102.0705 95.024409 
L 102.915877 94.174944 
L 103.398924 93.32548 
L 103.723482 92.476015 
L 105.07593 90.777086 
L 105.201562 89.927622 
L 105.96693 88.228693 
L 107.442875 86.529764 
L 109.490066 85.680299 
L 109.668092 84.830834 
L 110.536165 83.98137 
L 115.928554 83.131905 
L 116.550939 82.282441 
L 117.446087 81.432976 
L 118.217191 79.734047 
L 119.655286 78.884583 
L 119.885776 78.035118 
L 122.513494 77.185654 
L 122.539743 76.336189 
L 128.389289 72.938331 
L 129.149498 72.088866 
L 129.256037 70.389937 
L 130.03079 69.540473 
L 130.434216 68.691008 
L 130.604454 67.841544 
L 131.03927 66.992079 
L 131.556559 65.29315 
L 132.237662 64.443686 
L 132.284812 63.594221 
L 133.127326 62.744756 
L 133.175764 61.895292 
L 133.745685 61.045827 
L 134.958828 60.196363 
L 136.719909 59.346898 
L 138.00914 58.497434 
L 138.365287 57.647969 
L 139.045132 56.798505 
L 140.171954 55.94904 
L 144.629259 55.099576 
L 145.421286 54.250111 
L 148.146397 53.400647 
L 148.92186 52.551182 
L 149.493482 51.701718 
L 152.263644 50.852253 
L 152.534442 49.153324 
L 155.715192 48.303859 
L 156.048377 47.454395 
L 159.46581 46.60493 
L 160.704839 44.906001 
L 161.875872 44.056537 
L 163.764817 43.207072 
L 167.484271 42.357608 
L 168.665241 41.508143 
L 170.054877 40.658679 
L 170.404886 39.809214 
L 172.006406 38.959749 
L 173.852209 38.110285 
L 175.024524 37.26082 
L 180.556539 36.411356 
L 181.036507 35.561891 
L 185.876822 34.712427 
L 187.925721 33.862962 
L 190.895881 33.013498 
L 194.629073 32.164033 
L 211.987383 31.314569 
L 217.694718 30.465104 
L 218.411784 29.61564 
L 218.59007 28.766175 
L 221.046678 27.91671 
L 224.027026 27.067246 
L 228.991006 26.217781 
L 236.450768 25.368317 
L 242.795572 24.518852 
L 250.17986 23.669388 
L 335.121349 22.819923 
L 369.103272 21.970459 
L 382.489988 21.120994 
L 382.489988 21.120994 
" clip-path="url(#pd643f587c2)" style="fill: none; stroke: #1f77b4; stroke-width: 1.5; stroke-linecap: round"/>
   </g>
   <g id="line2d_14">
    <path d="M 55.173362 227.540877 
L 55.173362 54.250111 
L 55.445227 52.551182 
L 56.128814 51.701718 
L 56.243226 50.002788 
L 56.780525 49.153324 
L 57.137971 48.303859 
L 58.304191 47.454395 
L 58.642685 46.60493 
L 61.667621 44.906001 
L 62.533262 44.056537 
L 64.274211 43.207072 
L 64.732905 42.357608 
L 65.546392 41.508143 
L 66.52599 39.809214 
L 68.077852 38.959749 
L 69.86238 38.110285 
L 71.952619 37.26082 
L 72.02037 36.411356 
L 77.574355 35.561891 
L 79.634094 34.712427 
L 80.546646 33.862962 
L 81.075081 33.013498 
L 82.549118 32.164033 
L 84.257848 31.314569 
L 85.019052 30.465104 
L 102.010278 29.61564 
L 110.397929 27.91671 
L 110.692706 27.067246 
L 113.921327 26.217781 
L 125.434677 25.368317 
L 132.973428 24.518852 
L 135.096519 23.669388 
L 147.095901 22.819923 
L 194.299068 21.970459 
L 211.966104 21.120994 
L 211.966104 21.120994 
" clip-path="url(#pd643f587c2)" style="fill: none; stroke: #ff7f0e; stroke-width: 1.5; stroke-linecap: round"/>
   </g>
   <g id="line2d_15">
    <path d="M 55.173362 227.540877 
L 55.173362 198.659083 
L 55.832865 197.809618 
L 56.267015 195.261224 
L 56.899432 194.41176 
L 58.968098 193.562295 
L 59.46678 192.712831 
L 59.509702 191.863366 
L 60.094433 191.013902 
L 61.89343 190.164437 
L 62.808331 189.314973 
L 63.079339 187.616044 
L 64.358855 186.766579 
L 64.540655 185.917115 
L 65.019506 185.06765 
L 65.04438 184.218185 
L 65.616748 183.368721 
L 66.348843 182.519256 
L 66.379228 181.669792 
L 66.749776 179.970863 
L 67.728002 176.573005 
L 67.973634 175.72354 
L 70.459875 174.874076 
L 71.056986 174.024611 
L 71.390016 173.175146 
L 71.913116 172.325682 
L 71.941001 171.476217 
L 73.72109 170.626753 
L 73.816443 169.777288 
L 74.445725 168.927824 
L 76.479958 167.228895 
L 76.515829 166.37943 
L 76.727825 165.529966 
L 77.321729 164.680501 
L 77.441245 163.831037 
L 78.605188 162.981572 
L 78.962003 162.132107 
L 79.542457 159.583714 
L 79.847502 158.734249 
L 79.869057 157.884785 
L 80.191076 157.03532 
L 80.409299 155.336391 
L 81.107456 154.486927 
L 81.585911 152.787998 
L 82.567491 151.938533 
L 84.737421 151.089068 
L 85.200136 150.239604 
L 86.035665 149.390139 
L 86.664168 147.69121 
L 87.634627 146.841746 
L 87.875047 145.992281 
L 89.928589 145.142817 
L 90.130463 144.293352 
L 92.775351 142.594423 
L 93.141743 141.744959 
L 93.616033 139.196565 
L 93.637193 138.3471 
L 94.379852 137.497636 
L 96.201007 135.798707 
L 96.666993 134.949242 
L 96.879648 134.099778 
L 97.214456 133.250313 
L 97.340122 132.400849 
L 98.647917 131.551384 
L 98.703607 130.70192 
L 100.471976 129.852455 
L 100.663497 129.00299 
L 102.768877 128.153526 
L 102.893136 127.304061 
L 103.496301 126.454597 
L 104.172523 123.906203 
L 104.925669 123.056739 
L 105.200325 122.207274 
L 106.11992 121.35781 
L 106.785926 120.508345 
L 106.890088 119.658881 
L 107.200667 118.809416 
L 108.003292 117.959951 
L 108.115428 117.110487 
L 111.174788 115.411558 
L 111.244525 114.562093 
L 112.18883 113.712629 
L 113.699731 112.863164 
L 114.226229 112.0137 
L 114.43847 111.164235 
L 115.668542 110.314771 
L 115.900122 109.465306 
L 116.411813 108.615842 
L 117.991509 107.766377 
L 119.268999 106.916912 
L 119.88584 106.067448 
L 120.647699 105.217983 
L 121.840554 104.368519 
L 122.571544 103.519054 
L 122.819149 102.66959 
L 126.245961 98.422267 
L 126.7095 97.572803 
L 128.893141 96.723338 
L 129.272638 95.873873 
L 130.614981 95.024409 
L 130.925477 94.174944 
L 131.494229 93.32548 
L 131.799883 92.476015 
L 132.596558 91.626551 
L 132.884121 90.777086 
L 133.425358 89.927622 
L 133.530826 89.078157 
L 134.191938 88.228693 
L 134.262724 87.379228 
L 136.640557 86.529764 
L 138.325607 85.680299 
L 141.549154 84.830834 
L 141.627746 83.131905 
L 143.607691 82.282441 
L 147.174634 80.583512 
L 148.101084 79.734047 
L 148.15546 78.884583 
L 150.254636 77.185654 
L 150.393988 76.336189 
L 150.653293 75.486725 
L 150.748563 74.63726 
L 151.582134 73.787795 
L 152.040042 72.938331 
L 152.846955 72.088866 
L 156.669865 71.239402 
L 157.005915 70.389937 
L 157.048388 69.540473 
L 157.653905 68.691008 
L 157.857646 67.841544 
L 159.740055 66.992079 
L 160.729545 66.142615 
L 160.853015 65.29315 
L 162.646214 64.443686 
L 163.388914 63.594221 
L 166.113042 62.744756 
L 166.175981 61.895292 
L 168.401359 61.045827 
L 168.756109 60.196363 
L 170.036338 59.346898 
L 170.742794 58.497434 
L 170.797234 57.647969 
L 171.541094 56.798505 
L 173.160347 55.94904 
L 175.481798 54.250111 
L 175.82196 53.400647 
L 182.059287 52.551182 
L 183.311754 51.701718 
L 186.094701 50.852253 
L 186.330455 50.002788 
L 187.037658 49.153324 
L 190.266848 48.303859 
L 191.096962 47.454395 
L 191.729173 46.60493 
L 197.520778 45.755466 
L 199.610281 44.906001 
L 199.850541 44.056537 
L 200.811217 43.207072 
L 209.637665 42.357608 
L 209.726933 41.508143 
L 212.532738 40.658679 
L 215.198482 38.959749 
L 219.350424 38.110285 
L 220.126264 36.411356 
L 223.867428 35.561891 
L 225.23683 34.712427 
L 227.624866 33.862962 
L 234.634124 33.013498 
L 236.177421 32.164033 
L 245.594541 31.314569 
L 246.351523 30.465104 
L 246.547213 29.61564 
L 261.35899 28.766175 
L 262.664998 27.91671 
L 266.1541 27.067246 
L 279.621992 26.217781 
L 298.492044 25.368317 
L 299.463724 24.518852 
L 311.550934 23.669388 
L 317.70245 22.819923 
L 382.471423 21.970459 
L 403.77016 21.120994 
L 403.77016 21.120994 
" clip-path="url(#pd643f587c2)" style="fill: none; stroke: #2ca02c; stroke-width: 1.5; stroke-linecap: round"/>
   </g>
   <g id="patch_3">
    <path d="M 37.743522 237.861871 
L 37.743522 10.8 
" style="fill: none; stroke: #ffffff; stroke-width: 0.8; stroke-linejoin: miter; stroke-linecap: square"/>
   </g>
   <g id="patch_4">
    <path d="M 421.2 237.861871 
L 421.2 10.8 
" style="fill: none; stroke: #ffffff; stroke-width: 0.8; stroke-linejoin: miter; stroke-linecap: square"/>
   </g>
   <g id="patch_5">
    <path d="M 37.743522 237.861871 
L 421.2 237.861871 
" style="fill: none; stroke: #ffffff; stroke-width: 0.8; stroke-linejoin: miter; stroke-linecap: square"/>
   </g>
   <g id="patch_6">
    <path d="M 37.743522 10.8 
L 421.2 10.8 
" style="fill: none; stroke: #ffffff; stroke-width: 0.8; stroke-linejoin: miter; stroke-linecap: square"/>
   </g>
   <g id="legend_1">
    <g id="patch_7">
     <path d="M 248.913141 229.861871 
L 410 229.861871 
Q 413.2 229.861871 413.2 226.661871 
L 413.2 161.363442 
Q 413.2 158.163442 410 158.163442 
L 248.913141 158.163442 
Q 245.713141 158.163442 245.713141 161.363442 
L 245.713141 226.661871 
Q 245.713141 229.861871 248.913141 229.861871 
z
" style="fill: #eaeaf2; opacity: 0.8; stroke: #cccccc; stroke-linejoin: miter"/>
    </g>
    <g id="line2d_16">
     <path d="M 252.113141 170.163442 
L 268.113141 170.163442 
L 284.113141 170.163442 
" style="fill: none; stroke: #1f77b4; stroke-width: 1.5; stroke-linecap: round"/>
    </g>
    <g id="text_15">
     <!-- Random PADM -->
     <g style="fill: #262626" transform="translate(296.913141 175.763442)scale(0.16 -0.16)">
      <defs>
       <path id="CMR17-64" d="M 1869 4345 
L 1869 4179 
C 2246 4179 2304 4141 2304 3843 
L 2304 2371 
C 2278 2403 2016 2816 1498 2816 
C 845 2816 211 2228 211 1376 
C 211 529 806 -64 1434 -64 
C 1978 -64 2259 361 2291 406 
L 2291 -64 
L 3066 -13 
L 3066 154 
C 2688 154 2630 193 2630 503 
L 2630 4416 
L 1869 4345 
z
M 2291 762 
C 2291 568 2176 393 2029 264 
C 1811 70 1594 38 1472 38 
C 1286 38 621 135 621 1369 
C 621 2636 1363 2713 1530 2713 
C 1824 2713 2061 2545 2208 2313 
C 2291 2177 2291 2157 2291 2041 
L 2291 762 
z
" transform="scale(0.015625)"/>
       <path id="CMR17-41" d="M 2323 4441 
C 2291 4524 2278 4544 2214 4544 
C 2150 4544 2138 4524 2106 4441 
L 749 580 
C 627 236 371 166 147 166 
L 147 0 
C 262 12 518 12 640 12 
C 800 12 1056 12 1210 0 
L 1210 166 
C 909 179 864 382 864 459 
C 864 516 877 548 890 586 
L 1229 1536 
L 2906 1536 
L 3290 453 
C 3322 376 3322 363 3322 338 
C 3322 166 3046 166 2925 166 
L 2925 0 
C 3110 12 3443 12 3642 12 
C 3808 12 4128 12 4282 0 
L 4282 166 
C 3942 166 3827 166 3744 402 
L 2323 4441 
z
M 2067 3924 
L 2848 1702 
L 1286 1702 
L 2067 3924 
z
" transform="scale(0.015625)"/>
       <path id="CMR17-44" d="M 333 4352 
L 333 4185 
C 774 4185 845 4185 845 3898 
L 845 453 
C 845 166 774 166 333 166 
L 333 0 
L 2368 0 
C 3398 0 4224 943 4224 2140 
C 4224 3344 3411 4352 2368 4352 
L 333 4352 
z
M 1523 166 
C 1267 166 1254 198 1254 414 
L 1254 3936 
C 1254 4153 1267 4185 1523 4185 
L 2240 4185 
C 2771 4185 3750 3873 3750 2140 
C 3750 1242 3488 879 3366 707 
C 3213 510 2848 166 2240 166 
L 1523 166 
z
" transform="scale(0.015625)"/>
       <path id="CMR17-4d" d="M 1338 4249 
C 1299 4345 1293 4352 1158 4352 
L 339 4352 
L 339 4185 
C 781 4185 851 4185 851 3898 
L 851 624 
C 851 465 851 166 339 166 
L 339 0 
C 486 12 755 12 915 12 
C 1075 12 1344 12 1491 0 
L 1491 166 
C 979 166 979 465 979 624 
L 979 4159 
L 986 4159 
L 2490 102 
C 2515 38 2528 0 2579 0 
C 2630 0 2643 38 2669 102 
L 4186 4191 
L 4192 4191 
L 4192 453 
C 4192 166 4122 166 3680 166 
L 3680 0 
C 3853 12 4198 12 4384 12 
C 4570 12 4922 12 5094 0 
L 5094 166 
C 4653 166 4582 166 4582 453 
L 4582 3898 
C 4582 4185 4653 4185 5094 4185 
L 5094 4352 
L 4282 4352 
C 4147 4352 4141 4345 4102 4249 
L 2720 516 
L 1338 4249 
z
" transform="scale(0.015625)"/>
      </defs>
      <use xlink:href="#CMR17-52" transform="scale(0.996264)"/>
      <use xlink:href="#CMR17-61" transform="translate(67.791102 0)scale(0.996264)"/>
      <use xlink:href="#CMR17-6e" transform="translate(113.481579 0)scale(0.996264)"/>
      <use xlink:href="#CMR17-64" transform="translate(164.376949 0)scale(0.996264)"/>
      <use xlink:href="#CMR17-6f" transform="translate(215.272319 0)scale(0.996264)"/>
      <use xlink:href="#CMR17-6d" transform="translate(260.962796 0)scale(0.996264)"/>
      <use xlink:href="#CMR17-50" transform="translate(367.958352 0)scale(0.996264)"/>
      <use xlink:href="#CMR17-41" transform="translate(422.737397 0)scale(0.996264)"/>
      <use xlink:href="#CMR17-44" transform="translate(491.809827 0)scale(0.996264)"/>
      <use xlink:href="#CMR17-4d" transform="translate(562.203383 0)scale(0.996264)"/>
     </g>
    </g>
    <g id="line2d_17">
     <path d="M 252.113141 192.462919 
L 268.113141 192.462919 
L 284.113141 192.462919 
" style="fill: none; stroke: #ff7f0e; stroke-width: 1.5; stroke-linecap: round"/>
    </g>
    <g id="text_16">
     <!-- PADM -->
     <g style="fill: #262626" transform="translate(296.913141 198.062919)scale(0.16 -0.16)">
      <use xlink:href="#CMR17-50" transform="scale(0.996264)"/>
      <use xlink:href="#CMR17-41" transform="translate(54.779045 0)scale(0.996264)"/>
      <use xlink:href="#CMR17-44" transform="translate(123.851475 0)scale(0.996264)"/>
      <use xlink:href="#CMR17-4d" transform="translate(194.245031 0)scale(0.996264)"/>
     </g>
    </g>
    <g id="line2d_18">
     <path d="M 252.113141 214.762395 
L 268.113141 214.762395 
L 284.113141 214.762395 
" style="fill: none; stroke: #2ca02c; stroke-width: 1.5; stroke-linecap: round"/>
    </g>
    <g id="text_17">
     <!-- Exact -->
     <g style="fill: #262626" transform="translate(296.913141 220.362395)scale(0.16 -0.16)">
      <defs>
       <path id="CMR17-45" d="M 3885 1614 
L 3770 1614 
C 3629 676 3546 166 2419 166 
L 1530 166 
C 1274 166 1261 198 1261 415 
L 1261 2176 
L 1862 2176 
C 2464 2176 2522 1959 2522 1429 
L 2637 1429 
L 2637 3086 
L 2522 3086 
C 2522 2558 2464 2342 1862 2342 
L 1261 2342 
L 1261 3924 
C 1261 4141 1274 4172 1530 4172 
L 2406 4172 
C 3398 4172 3514 3778 3603 2933 
L 3718 2933 
L 3565 4339 
L 326 4339 
L 326 4172 
C 768 4172 838 4172 838 3886 
L 838 453 
C 838 166 768 166 326 166 
L 326 0 
L 3654 0 
L 3885 1614 
z
" transform="scale(0.015625)"/>
       <path id="CMR17-78" d="M 1664 1491 
C 1856 1740 2074 2022 2253 2233 
C 2464 2476 2707 2579 2989 2585 
L 2989 2752 
C 2880 2745 2656 2739 2541 2739 
C 2368 2739 2170 2739 2022 2752 
L 2022 2585 
C 2112 2572 2163 2508 2163 2419 
C 2163 2304 2099 2233 2067 2188 
L 1594 1587 
L 1030 2323 
C 973 2393 973 2406 973 2438 
C 973 2515 1037 2579 1146 2585 
L 1146 2752 
C 992 2739 717 2739 557 2739 
C 384 2739 179 2739 38 2752 
L 38 2585 
C 384 2585 461 2560 614 2368 
L 1350 1414 
C 1363 1401 1395 1363 1395 1344 
C 1395 1318 838 633 768 544 
C 480 198 179 172 6 166 
L 6 0 
C 115 6 339 12 454 12 
C 582 12 864 12 979 0 
L 979 166 
C 941 172 838 185 838 332 
C 838 448 890 518 947 595 
L 1478 1248 
L 2035 524 
C 2086 454 2163 358 2163 313 
C 2163 224 2086 172 1984 166 
L 1984 0 
C 2138 12 2413 12 2573 12 
C 2746 12 2950 12 3091 0 
L 3091 166 
C 2771 166 2675 179 2522 377 
L 1664 1491 
z
" transform="scale(0.015625)"/>
      </defs>
      <use xlink:href="#CMR17-45" transform="scale(0.996264)"/>
      <use xlink:href="#CMR17-78" transform="translate(62.586301 0)scale(0.996264)"/>
      <use xlink:href="#CMR17-61" transform="translate(110.879216 0)scale(0.996264)"/>
      <use xlink:href="#CMR17-63" transform="translate(156.569693 0)scale(0.996264)"/>
      <use xlink:href="#CMR17-74" transform="translate(197.055354 0)scale(0.996264)"/>
     </g>
    </g>
   </g>
  </g>
 </g>
 <defs>
  <clipPath id="pd643f587c2">
   <rect x="37.743522" y="10.8" width="383.456478" height="227.061871"/>
  </clipPath>
 </defs>
</svg>
