<?xml version="1.0" encoding="utf-8" standalone="no"?>
<!DOCTYPE svg PUBLIC "-//W3C//DTD SVG 1.1//EN"
  "http://www.w3.org/Graphics/SVG/1.1/DTD/svg11.dtd">
<svg xmlns:xlink="http://www.w3.org/1999/xlink" width="432pt" height="288pt" viewBox="0 0 432 288" xmlns="http://www.w3.org/2000/svg" version="1.1">
 <metadata>
  <rdf:RDF xmlns:dc="http://purl.org/dc/elements/1.1/" xmlns:cc="http://creativecommons.org/ns#" xmlns:rdf="http://www.w3.org/1999/02/22-rdf-syntax-ns#">
   <cc:Work>
    <dc:type rdf:resource="http://purl.org/dc/dcmitype/StillImage"/>
    <dc:date>2022-10-20T22:50:28.941031</dc:date>
    <dc:format>image/svg+xml</dc:format>
    <dc:creator>
     <cc:Agent>
      <dc:title>Matplotlib v3.5.2, https://matplotlib.org/</dc:title>
     </cc:Agent>
    </dc:creator>
   </cc:Work>
  </rdf:RDF>
 </metadata>
 <defs>
  <style type="text/css">*{stroke-linejoin: round; stroke-linecap: butt}</style>
 </defs>
 <g id="figure_1">
  <g id="patch_1">
   <path d="M 0 288 
L 432 288 
L 432 0 
L 0 0 
z
" style="fill: #ffffff"/>
  </g>
  <g id="axes_1">
   <g id="patch_2">
    <path d="M 49.516452 245.831983 
L 421.2 245.831983 
L 421.2 10.8 
L 49.516452 10.8 
z
" style="fill: #ffffff"/>
   </g>
   <g id="matplotlib.axis_1">
    <g id="xtick_1">
     <g id="line2d_1">
      <defs>
       <path id="m7637ac20e0" d="M 0 0 
L 0 3.5 
" style="stroke: #000000; stroke-width: 0.8"/>
      </defs>
      <g>
       <use xlink:href="#m7637ac20e0" x="114.023514" y="245.831983" style="stroke: #000000; stroke-width: 0.8"/>
      </g>
     </g>
     <g id="text_1">
      <!-- 2004 -->
      <g transform="translate(101.342035 261.826011)scale(0.13 -0.13)">
       <defs>
        <path id="CMR17-32" d="M 2669 990 
L 2554 990 
C 2490 537 2438 460 2413 422 
C 2381 371 1920 371 1830 371 
L 602 371 
C 832 620 1280 1073 1824 1596 
C 2214 1966 2669 2400 2669 3033 
C 2669 3788 2067 4224 1395 4224 
C 691 4224 262 3603 262 3027 
C 262 2777 448 2745 525 2745 
C 589 2745 781 2783 781 3007 
C 781 3206 614 3264 525 3264 
C 486 3264 448 3257 422 3244 
C 544 3788 915 4057 1306 4057 
C 1862 4057 2227 3616 2227 3033 
C 2227 2477 1901 1998 1536 1583 
L 262 147 
L 262 0 
L 2515 0 
L 2669 990 
z
" transform="scale(0.015625)"/>
        <path id="CMR17-30" d="M 2688 2038 
C 2688 2430 2682 3099 2413 3613 
C 2176 4063 1798 4224 1466 4224 
C 1158 4224 768 4082 525 3620 
C 269 3137 243 2539 243 2038 
C 243 1671 250 1112 448 623 
C 723 -39 1216 -128 1466 -128 
C 1760 -128 2208 -7 2470 604 
C 2662 1048 2688 1568 2688 2038 
z
M 1466 -26 
C 1056 -26 813 328 723 816 
C 653 1196 653 1749 653 2109 
C 653 2604 653 3015 736 3407 
C 858 3954 1216 4121 1466 4121 
C 1728 4121 2067 3947 2189 3420 
C 2272 3054 2278 2623 2278 2109 
C 2278 1691 2278 1176 2202 797 
C 2067 96 1690 -26 1466 -26 
z
" transform="scale(0.015625)"/>
        <path id="CMR17-34" d="M 2150 4147 
C 2150 4281 2144 4288 2029 4288 
L 128 1254 
L 128 1088 
L 1779 1088 
L 1779 460 
C 1779 230 1766 166 1318 166 
L 1197 166 
L 1197 0 
C 1402 12 1747 12 1965 12 
C 2182 12 2528 12 2733 0 
L 2733 166 
L 2611 166 
C 2163 166 2150 230 2150 460 
L 2150 1088 
L 2803 1088 
L 2803 1254 
L 2150 1254 
L 2150 4147 
z
M 1798 3723 
L 1798 1254 
L 256 1254 
L 1798 3723 
z
" transform="scale(0.015625)"/>
       </defs>
       <use xlink:href="#CMR17-32" transform="scale(0.996264)"/>
       <use xlink:href="#CMR17-30" transform="translate(45.690477 0)scale(0.996264)"/>
       <use xlink:href="#CMR17-30" transform="translate(91.380954 0)scale(0.996264)"/>
       <use xlink:href="#CMR17-34" transform="translate(137.071431 0)scale(0.996264)"/>
      </g>
     </g>
    </g>
    <g id="xtick_2">
     <g id="line2d_2">
      <g>
       <use xlink:href="#m7637ac20e0" x="206.17646" y="245.831983" style="stroke: #000000; stroke-width: 0.8"/>
      </g>
     </g>
     <g id="text_2">
      <!-- 2009 -->
      <g transform="translate(193.494981 261.826011)scale(0.13 -0.13)">
       <defs>
        <path id="CMR17-39" d="M 2253 1871 
C 2253 448 1670 25 1190 25 
C 1043 25 685 43 538 281 
C 704 256 826 345 826 505 
C 826 678 685 736 595 736 
C 538 736 365 710 365 492 
C 365 68 742 -128 1203 -128 
C 1939 -128 2688 665 2688 2090 
C 2688 3857 1971 4224 1485 4224 
C 851 4224 243 3664 243 2800 
C 243 2000 762 1408 1414 1408 
C 1952 1408 2189 1910 2253 2122 
L 2253 1871 
z
M 1427 1510 
C 1254 1510 1011 1542 813 1929 
C 678 2181 678 2477 678 2793 
C 678 3174 678 3438 858 3722 
C 947 3857 1114 4076 1485 4076 
C 2240 4076 2240 2909 2240 2651 
C 2240 2193 2035 1510 1427 1510 
z
" transform="scale(0.015625)"/>
       </defs>
       <use xlink:href="#CMR17-32" transform="scale(0.996264)"/>
       <use xlink:href="#CMR17-30" transform="translate(45.690477 0)scale(0.996264)"/>
       <use xlink:href="#CMR17-30" transform="translate(91.380954 0)scale(0.996264)"/>
       <use xlink:href="#CMR17-39" transform="translate(137.071431 0)scale(0.996264)"/>
      </g>
     </g>
    </g>
    <g id="xtick_3">
     <g id="line2d_3">
      <g>
       <use xlink:href="#m7637ac20e0" x="298.329406" y="245.831983" style="stroke: #000000; stroke-width: 0.8"/>
      </g>
     </g>
     <g id="text_3">
      <!-- 2014 -->
      <g transform="translate(285.647927 261.826011)scale(0.13 -0.13)">
       <defs>
        <path id="CMR17-31" d="M 1702 4083 
C 1702 4217 1696 4224 1606 4224 
C 1357 3927 979 3833 621 3820 
C 602 3820 570 3820 563 3808 
C 557 3795 557 3782 557 3648 
C 755 3648 1088 3686 1344 3839 
L 1344 467 
C 1344 243 1331 166 781 166 
L 589 166 
L 589 0 
C 896 6 1216 12 1523 12 
C 1830 12 2150 6 2458 0 
L 2458 166 
L 2266 166 
C 1715 166 1702 236 1702 467 
L 1702 4083 
z
" transform="scale(0.015625)"/>
       </defs>
       <use xlink:href="#CMR17-32" transform="scale(0.996264)"/>
       <use xlink:href="#CMR17-30" transform="translate(45.690477 0)scale(0.996264)"/>
       <use xlink:href="#CMR17-31" transform="translate(91.380954 0)scale(0.996264)"/>
       <use xlink:href="#CMR17-34" transform="translate(137.071431 0)scale(0.996264)"/>
      </g>
     </g>
    </g>
    <g id="xtick_4">
     <g id="line2d_4">
      <g>
       <use xlink:href="#m7637ac20e0" x="390.482351" y="245.831983" style="stroke: #000000; stroke-width: 0.8"/>
      </g>
     </g>
     <g id="text_4">
      <!-- 2019 -->
      <g transform="translate(377.800873 261.826011)scale(0.13 -0.13)">
       <use xlink:href="#CMR17-32" transform="scale(0.996264)"/>
       <use xlink:href="#CMR17-30" transform="translate(45.690477 0)scale(0.996264)"/>
       <use xlink:href="#CMR17-31" transform="translate(91.380954 0)scale(0.996264)"/>
       <use xlink:href="#CMR17-39" transform="translate(137.071431 0)scale(0.996264)"/>
      </g>
     </g>
    </g>
    <g id="xtick_5">
     <g id="line2d_5">
      <defs>
       <path id="m7bc8e87917" d="M 0 0 
L 0 2 
" style="stroke: #000000; stroke-width: 0.6"/>
      </defs>
      <g>
       <use xlink:href="#m7bc8e87917" x="58.731747" y="245.831983" style="stroke: #000000; stroke-width: 0.6"/>
      </g>
     </g>
    </g>
    <g id="xtick_6">
     <g id="line2d_6">
      <g>
       <use xlink:href="#m7bc8e87917" x="77.162336" y="245.831983" style="stroke: #000000; stroke-width: 0.6"/>
      </g>
     </g>
    </g>
    <g id="xtick_7">
     <g id="line2d_7">
      <g>
       <use xlink:href="#m7bc8e87917" x="95.592925" y="245.831983" style="stroke: #000000; stroke-width: 0.6"/>
      </g>
     </g>
    </g>
    <g id="xtick_8">
     <g id="line2d_8">
      <g>
       <use xlink:href="#m7bc8e87917" x="132.454103" y="245.831983" style="stroke: #000000; stroke-width: 0.6"/>
      </g>
     </g>
    </g>
    <g id="xtick_9">
     <g id="line2d_9">
      <g>
       <use xlink:href="#m7bc8e87917" x="150.884692" y="245.831983" style="stroke: #000000; stroke-width: 0.6"/>
      </g>
     </g>
    </g>
    <g id="xtick_10">
     <g id="line2d_10">
      <g>
       <use xlink:href="#m7bc8e87917" x="169.315282" y="245.831983" style="stroke: #000000; stroke-width: 0.6"/>
      </g>
     </g>
    </g>
    <g id="xtick_11">
     <g id="line2d_11">
      <g>
       <use xlink:href="#m7bc8e87917" x="187.745871" y="245.831983" style="stroke: #000000; stroke-width: 0.6"/>
      </g>
     </g>
    </g>
    <g id="xtick_12">
     <g id="line2d_12">
      <g>
       <use xlink:href="#m7bc8e87917" x="224.607049" y="245.831983" style="stroke: #000000; stroke-width: 0.6"/>
      </g>
     </g>
    </g>
    <g id="xtick_13">
     <g id="line2d_13">
      <g>
       <use xlink:href="#m7bc8e87917" x="243.037638" y="245.831983" style="stroke: #000000; stroke-width: 0.6"/>
      </g>
     </g>
    </g>
    <g id="xtick_14">
     <g id="line2d_14">
      <g>
       <use xlink:href="#m7bc8e87917" x="261.468227" y="245.831983" style="stroke: #000000; stroke-width: 0.6"/>
      </g>
     </g>
    </g>
    <g id="xtick_15">
     <g id="line2d_15">
      <g>
       <use xlink:href="#m7bc8e87917" x="279.898817" y="245.831983" style="stroke: #000000; stroke-width: 0.6"/>
      </g>
     </g>
    </g>
    <g id="xtick_16">
     <g id="line2d_16">
      <g>
       <use xlink:href="#m7bc8e87917" x="316.759995" y="245.831983" style="stroke: #000000; stroke-width: 0.6"/>
      </g>
     </g>
    </g>
    <g id="xtick_17">
     <g id="line2d_17">
      <g>
       <use xlink:href="#m7bc8e87917" x="335.190584" y="245.831983" style="stroke: #000000; stroke-width: 0.6"/>
      </g>
     </g>
    </g>
    <g id="xtick_18">
     <g id="line2d_18">
      <g>
       <use xlink:href="#m7bc8e87917" x="353.621173" y="245.831983" style="stroke: #000000; stroke-width: 0.6"/>
      </g>
     </g>
    </g>
    <g id="xtick_19">
     <g id="line2d_19">
      <g>
       <use xlink:href="#m7bc8e87917" x="372.051762" y="245.831983" style="stroke: #000000; stroke-width: 0.6"/>
      </g>
     </g>
    </g>
    <g id="xtick_20">
     <g id="line2d_20">
      <g>
       <use xlink:href="#m7bc8e87917" x="408.912941" y="245.831983" style="stroke: #000000; stroke-width: 0.6"/>
      </g>
     </g>
    </g>
    <g id="text_5">
     <!-- StartMonth -->
     <g transform="translate(209.884242 275.262822)scale(0.1 -0.1)">
      <defs>
       <path id="CMR17-53" d="M 2803 4351 
C 2803 4467 2797 4473 2758 4473 
C 2720 4473 2707 4447 2682 4390 
L 2490 3965 
C 2246 4320 1875 4480 1472 4480 
C 819 4480 294 3958 294 3301 
C 294 3101 339 2817 557 2546 
C 794 2250 1018 2198 1530 2063 
C 1722 2011 2042 1927 2106 1901 
C 2470 1747 2662 1360 2662 999 
C 2662 534 2336 38 1779 38 
C 1094 38 454 425 410 1328 
C 403 1431 397 1437 352 1437 
C 301 1437 294 1431 294 1302 
L 294 0 
C 294 -116 301 -122 339 -122 
C 384 -122 397 -90 486 109 
C 493 128 493 141 614 386 
C 934 -39 1472 -128 1779 -128 
C 2477 -128 2970 457 2970 1141 
C 2970 1476 2848 1734 2778 1850 
C 2509 2263 2221 2340 1914 2417 
C 1869 2437 1856 2437 1498 2527 
C 1152 2617 1005 2662 845 2836 
C 666 3036 602 3243 602 3449 
C 602 3868 934 4326 1478 4326 
C 2157 4326 2579 3842 2675 3036 
C 2694 2920 2701 2914 2746 2914 
C 2803 2914 2803 2933 2803 3043 
L 2803 4351 
z
" transform="scale(0.015625)"/>
       <path id="CMR17-74" d="M 966 2585 
L 1862 2585 
L 1862 2752 
L 966 2752 
L 966 3968 
L 851 3968 
C 838 3292 614 2700 70 2687 
L 70 2585 
L 627 2585 
L 627 778 
C 627 655 627 -64 1370 -64 
C 1747 -64 1965 308 1965 784 
L 1965 1151 
L 1850 1151 
L 1850 790 
C 1850 347 1677 51 1408 51 
C 1222 51 966 179 966 765 
L 966 2585 
z
" transform="scale(0.015625)"/>
       <path id="CMR17-61" d="M 2304 1656 
C 2304 2048 2304 2275 2035 2534 
C 1798 2751 1523 2816 1306 2816 
C 800 2816 435 2408 435 1977 
C 435 1740 627 1728 666 1728 
C 749 1728 896 1779 896 1958 
C 896 2118 774 2188 666 2188 
C 640 2188 608 2182 589 2176 
C 723 2594 1069 2713 1293 2713 
C 1613 2713 1965 2421 1965 1875 
L 1965 1632 
C 1587 1619 1133 1568 774 1373 
C 371 1147 256 822 256 576 
C 256 77 832 -64 1171 -64 
C 1523 -64 1850 135 1990 505 
C 2003 219 2182 -39 2464 -39 
C 2598 -39 2938 51 2938 563 
L 2938 926 
L 2822 926 
L 2822 557 
C 2822 161 2650 109 2566 109 
C 2304 109 2304 446 2304 732 
L 2304 1656 
z
M 1965 887 
C 1965 323 1568 38 1216 38 
C 896 38 646 278 646 576 
C 646 771 730 1114 1101 1322 
C 1408 1497 1760 1523 1965 1536 
L 1965 887 
z
" transform="scale(0.015625)"/>
       <path id="CMR17-72" d="M 960 1517 
C 960 2134 1222 2713 1702 2713 
C 1747 2713 1792 2707 1837 2687 
C 1837 2687 1696 2642 1696 2475 
C 1696 2321 1818 2257 1914 2257 
C 1990 2257 2131 2302 2131 2482 
C 2131 2687 1926 2816 1709 2816 
C 1222 2816 1011 2340 947 2115 
L 941 2115 
L 941 2816 
L 198 2745 
L 198 2578 
C 576 2578 634 2540 634 2231 
L 634 443 
C 634 198 608 166 198 166 
L 198 0 
C 352 12 646 12 813 12 
C 998 12 1325 12 1498 0 
L 1498 166 
C 1037 166 960 166 960 455 
L 960 1517 
z
" transform="scale(0.015625)"/>
       <path id="CMR17-4d" d="M 1338 4249 
C 1299 4345 1293 4352 1158 4352 
L 339 4352 
L 339 4185 
C 781 4185 851 4185 851 3898 
L 851 624 
C 851 465 851 166 339 166 
L 339 0 
C 486 12 755 12 915 12 
C 1075 12 1344 12 1491 0 
L 1491 166 
C 979 166 979 465 979 624 
L 979 4159 
L 986 4159 
L 2490 102 
C 2515 38 2528 0 2579 0 
C 2630 0 2643 38 2669 102 
L 4186 4191 
L 4192 4191 
L 4192 453 
C 4192 166 4122 166 3680 166 
L 3680 0 
C 3853 12 4198 12 4384 12 
C 4570 12 4922 12 5094 0 
L 5094 166 
C 4653 166 4582 166 4582 453 
L 4582 3898 
C 4582 4185 4653 4185 5094 4185 
L 5094 4352 
L 4282 4352 
C 4147 4352 4141 4345 4102 4249 
L 2720 516 
L 1338 4249 
z
" transform="scale(0.015625)"/>
       <path id="CMR17-6f" d="M 2758 1356 
C 2758 2176 2163 2816 1466 2816 
C 768 2816 173 2176 173 1356 
C 173 550 768 -64 1466 -64 
C 2163 -64 2758 550 2758 1356 
z
M 1466 51 
C 1165 51 909 230 762 480 
C 602 768 582 1126 582 1408 
C 582 1676 595 2009 762 2297 
C 890 2508 1139 2713 1466 2713 
C 1754 2713 1997 2553 2150 2329 
C 2349 2028 2349 1606 2349 1408 
C 2349 1158 2336 774 2163 467 
C 1984 172 1709 51 1466 51 
z
" transform="scale(0.015625)"/>
       <path id="CMR17-6e" d="M 2656 1954 
C 2656 2282 2592 2816 1837 2816 
C 1331 2816 1069 2424 973 2166 
L 966 2166 
L 966 2816 
L 211 2745 
L 211 2578 
C 589 2578 646 2540 646 2231 
L 646 443 
C 646 198 621 166 211 166 
L 211 0 
C 365 12 646 12 813 12 
C 979 12 1267 12 1421 0 
L 1421 166 
C 1011 166 986 192 986 443 
L 986 1678 
C 986 2269 1344 2713 1792 2713 
C 2266 2713 2317 2289 2317 1980 
L 2317 443 
C 2317 198 2291 166 1882 166 
L 1882 0 
C 2035 12 2317 12 2483 12 
C 2650 12 2938 12 3091 0 
L 3091 166 
C 2682 166 2656 192 2656 443 
L 2656 1954 
z
" transform="scale(0.015625)"/>
       <path id="CMR17-68" d="M 2656 1954 
C 2656 2282 2592 2816 1837 2816 
C 1312 2816 1056 2392 979 2179 
L 973 2179 
L 973 4416 
L 211 4345 
L 211 4179 
C 589 4179 646 4141 646 3843 
L 646 443 
C 646 198 621 166 211 166 
L 211 0 
C 365 12 646 12 813 12 
C 979 12 1267 12 1421 0 
L 1421 166 
C 1011 166 986 192 986 443 
L 986 1678 
C 986 2269 1344 2713 1792 2713 
C 2266 2713 2317 2289 2317 1980 
L 2317 443 
C 2317 198 2291 166 1882 166 
L 1882 0 
C 2035 12 2317 12 2483 12 
C 2650 12 2938 12 3091 0 
L 3091 166 
C 2682 166 2656 192 2656 443 
L 2656 1954 
z
" transform="scale(0.015625)"/>
      </defs>
      <use xlink:href="#CMR17-53" transform="scale(0.996264)"/>
      <use xlink:href="#CMR17-74" transform="translate(50.89537 0)scale(0.996264)"/>
      <use xlink:href="#CMR17-61" transform="translate(86.176138 0)scale(0.996264)"/>
      <use xlink:href="#CMR17-72" transform="translate(131.866615 0)scale(0.996264)"/>
      <use xlink:href="#CMR17-74" transform="translate(167.147382 0)scale(0.996264)"/>
      <use xlink:href="#CMR17-4d" transform="translate(202.42815 0)scale(0.996264)"/>
      <use xlink:href="#CMR17-6f" transform="translate(287.115091 0)scale(0.996264)"/>
      <use xlink:href="#CMR17-6e" transform="translate(332.805568 0)scale(0.996264)"/>
      <use xlink:href="#CMR17-74" transform="translate(381.098484 0)scale(0.996264)"/>
      <use xlink:href="#CMR17-68" transform="translate(416.379252 0)scale(0.996264)"/>
     </g>
    </g>
   </g>
   <g id="matplotlib.axis_2">
    <g id="ytick_1">
     <g id="line2d_21">
      <defs>
       <path id="ma7c92e314c" d="M 0 0 
L -3.5 0 
" style="stroke: #000000; stroke-width: 0.8"/>
      </defs>
      <g>
       <use xlink:href="#ma7c92e314c" x="49.516452" y="224.117056" style="stroke: #000000; stroke-width: 0.8"/>
      </g>
     </g>
     <g id="text_6">
      <!-- $\mathdefault{1.0}$ -->
      <g transform="translate(26.31234 228.61407)scale(0.13 -0.13)">
       <defs>
        <path id="CMMI12-3a" d="M 1178 307 
C 1178 492 1024 620 870 620 
C 685 620 557 467 557 313 
C 557 128 710 0 864 0 
C 1050 0 1178 153 1178 307 
z
" transform="scale(0.015625)"/>
       </defs>
       <use xlink:href="#CMR17-31" transform="scale(0.996264)"/>
       <use xlink:href="#CMMI12-3a" transform="translate(45.690477 0)scale(0.996264)"/>
       <use xlink:href="#CMR17-30" transform="translate(72.787654 0)scale(0.996264)"/>
      </g>
     </g>
    </g>
    <g id="ytick_2">
     <g id="line2d_22">
      <g>
       <use xlink:href="#ma7c92e314c" x="49.516452" y="194.325425" style="stroke: #000000; stroke-width: 0.8"/>
      </g>
     </g>
     <g id="text_7">
      <!-- $\mathdefault{1.2}$ -->
      <g transform="translate(26.31234 198.822439)scale(0.13 -0.13)">
       <use xlink:href="#CMR17-31" transform="scale(0.996264)"/>
       <use xlink:href="#CMMI12-3a" transform="translate(45.690477 0)scale(0.996264)"/>
       <use xlink:href="#CMR17-32" transform="translate(72.787654 0)scale(0.996264)"/>
      </g>
     </g>
    </g>
    <g id="ytick_3">
     <g id="line2d_23">
      <g>
       <use xlink:href="#ma7c92e314c" x="49.516452" y="164.533794" style="stroke: #000000; stroke-width: 0.8"/>
      </g>
     </g>
     <g id="text_8">
      <!-- $\mathdefault{1.4}$ -->
      <g transform="translate(26.31234 169.030808)scale(0.13 -0.13)">
       <use xlink:href="#CMR17-31" transform="scale(0.996264)"/>
       <use xlink:href="#CMMI12-3a" transform="translate(45.690477 0)scale(0.996264)"/>
       <use xlink:href="#CMR17-34" transform="translate(72.787654 0)scale(0.996264)"/>
      </g>
     </g>
    </g>
    <g id="ytick_4">
     <g id="line2d_24">
      <g>
       <use xlink:href="#ma7c92e314c" x="49.516452" y="134.742163" style="stroke: #000000; stroke-width: 0.8"/>
      </g>
     </g>
     <g id="text_9">
      <!-- $\mathdefault{1.6}$ -->
      <g transform="translate(26.31234 139.239177)scale(0.13 -0.13)">
       <defs>
        <path id="CMR17-36" d="M 678 2198 
C 678 3712 1395 4076 1811 4076 
C 1946 4076 2272 4049 2400 3782 
C 2298 3782 2106 3782 2106 3558 
C 2106 3385 2246 3328 2336 3328 
C 2394 3328 2566 3353 2566 3571 
C 2566 3987 2246 4224 1805 4224 
C 1043 4224 243 3411 243 2011 
C 243 257 966 -128 1478 -128 
C 2099 -128 2688 431 2688 1295 
C 2688 2101 2170 2688 1517 2688 
C 1126 2688 838 2430 678 1979 
L 678 2198 
z
M 1478 25 
C 691 25 691 1212 691 1450 
C 691 1914 909 2585 1504 2585 
C 1613 2585 1926 2585 2138 2140 
C 2253 1889 2253 1624 2253 1302 
C 2253 954 2253 696 2118 438 
C 1978 173 1773 25 1478 25 
z
" transform="scale(0.015625)"/>
       </defs>
       <use xlink:href="#CMR17-31" transform="scale(0.996264)"/>
       <use xlink:href="#CMMI12-3a" transform="translate(45.690477 0)scale(0.996264)"/>
       <use xlink:href="#CMR17-36" transform="translate(72.787654 0)scale(0.996264)"/>
      </g>
     </g>
    </g>
    <g id="ytick_5">
     <g id="line2d_25">
      <g>
       <use xlink:href="#ma7c92e314c" x="49.516452" y="104.950532" style="stroke: #000000; stroke-width: 0.8"/>
      </g>
     </g>
     <g id="text_10">
      <!-- $\mathdefault{1.8}$ -->
      <g transform="translate(26.31234 109.447546)scale(0.13 -0.13)">
       <defs>
        <path id="CMR17-38" d="M 1741 2289 
C 2144 2494 2554 2803 2554 3298 
C 2554 3884 1990 4224 1472 4224 
C 890 4224 378 3800 378 3215 
C 378 3054 416 2777 666 2533 
C 730 2469 998 2276 1171 2154 
C 883 2006 211 1652 211 945 
C 211 282 838 -128 1459 -128 
C 2144 -128 2720 366 2720 1022 
C 2720 1607 2330 1877 2074 2051 
L 1741 2289 
z
M 902 2855 
C 851 2887 595 3086 595 3388 
C 595 3781 998 4076 1459 4076 
C 1965 4076 2336 3716 2336 3298 
C 2336 2700 1670 2359 1638 2359 
C 1632 2359 1626 2359 1574 2398 
L 902 2855 
z
M 2080 1536 
C 2176 1466 2483 1253 2483 861 
C 2483 385 2010 25 1472 25 
C 890 25 448 443 448 951 
C 448 1459 838 1884 1280 2083 
L 2080 1536 
z
" transform="scale(0.015625)"/>
       </defs>
       <use xlink:href="#CMR17-31" transform="scale(0.996264)"/>
       <use xlink:href="#CMMI12-3a" transform="translate(45.690477 0)scale(0.996264)"/>
       <use xlink:href="#CMR17-38" transform="translate(72.787654 0)scale(0.996264)"/>
      </g>
     </g>
    </g>
    <g id="ytick_6">
     <g id="line2d_26">
      <g>
       <use xlink:href="#ma7c92e314c" x="49.516452" y="75.158901" style="stroke: #000000; stroke-width: 0.8"/>
      </g>
     </g>
     <g id="text_11">
      <!-- $\mathdefault{2.0}$ -->
      <g transform="translate(26.31234 79.655915)scale(0.13 -0.13)">
       <use xlink:href="#CMR17-32" transform="scale(0.996264)"/>
       <use xlink:href="#CMMI12-3a" transform="translate(45.690477 0)scale(0.996264)"/>
       <use xlink:href="#CMR17-30" transform="translate(72.787654 0)scale(0.996264)"/>
      </g>
     </g>
    </g>
    <g id="ytick_7">
     <g id="line2d_27">
      <g>
       <use xlink:href="#ma7c92e314c" x="49.516452" y="45.36727" style="stroke: #000000; stroke-width: 0.8"/>
      </g>
     </g>
     <g id="text_12">
      <!-- $\mathdefault{2.2}$ -->
      <g transform="translate(26.31234 49.864284)scale(0.13 -0.13)">
       <use xlink:href="#CMR17-32" transform="scale(0.996264)"/>
       <use xlink:href="#CMMI12-3a" transform="translate(45.690477 0)scale(0.996264)"/>
       <use xlink:href="#CMR17-32" transform="translate(72.787654 0)scale(0.996264)"/>
      </g>
     </g>
    </g>
    <g id="ytick_8">
     <g id="line2d_28">
      <g>
       <use xlink:href="#ma7c92e314c" x="49.516452" y="15.575639" style="stroke: #000000; stroke-width: 0.8"/>
      </g>
     </g>
     <g id="text_13">
      <!-- $\mathdefault{2.4}$ -->
      <g transform="translate(26.31234 20.072653)scale(0.13 -0.13)">
       <use xlink:href="#CMR17-32" transform="scale(0.996264)"/>
       <use xlink:href="#CMMI12-3a" transform="translate(45.690477 0)scale(0.996264)"/>
       <use xlink:href="#CMR17-34" transform="translate(72.787654 0)scale(0.996264)"/>
      </g>
     </g>
    </g>
    <g id="text_14">
     <!-- Cumulative Relative Wealth -->
     <g transform="translate(19.794028 206.779254)rotate(-90)scale(0.13 -0.13)">
      <defs>
       <path id="CMR17-43" d="M 3974 4351 
C 3974 4467 3968 4473 3930 4473 
C 3904 4473 3898 4467 3853 4390 
L 3571 3849 
C 3258 4249 2874 4480 2381 4480 
C 1286 4480 294 3507 294 2179 
C 294 837 1286 -128 2387 -128 
C 3366 -128 3974 741 3974 1482 
C 3974 1547 3974 1573 3917 1573 
C 3866 1573 3866 1553 3859 1495 
C 3808 592 3168 38 2477 38 
C 1824 38 781 502 781 2179 
C 781 3862 1843 4313 2464 4313 
C 3187 4313 3712 3681 3834 2785 
C 3846 2707 3846 2695 3904 2695 
C 3974 2695 3974 2707 3974 2824 
L 3974 4351 
z
" transform="scale(0.015625)"/>
       <path id="CMR17-75" d="M 1882 2745 
L 1882 2579 
C 2259 2579 2317 2540 2317 2229 
L 2317 1053 
C 2317 510 2029 38 1555 38 
C 1030 38 986 355 986 691 
L 986 2816 
L 211 2745 
L 211 2579 
C 467 2579 640 2579 646 2320 
L 646 1079 
C 646 646 646 368 813 187 
C 896 103 1056 -64 1517 -64 
C 2061 -64 2272 400 2323 536 
L 2330 536 
L 2330 -64 
L 3091 -13 
L 3091 154 
C 2714 154 2656 193 2656 503 
L 2656 2816 
L 1882 2745 
z
" transform="scale(0.015625)"/>
       <path id="CMR17-6d" d="M 4326 1954 
C 4326 2276 4269 2816 3507 2816 
C 3072 2816 2771 2520 2656 2173 
L 2650 2173 
C 2573 2700 2195 2816 1837 2816 
C 1331 2816 1069 2424 973 2166 
L 966 2166 
L 966 2816 
L 211 2745 
L 211 2578 
C 589 2578 646 2540 646 2231 
L 646 443 
C 646 198 621 166 211 166 
L 211 0 
C 365 12 646 12 813 12 
C 979 12 1267 12 1421 0 
L 1421 166 
C 1011 166 986 192 986 443 
L 986 1678 
C 986 2269 1344 2713 1792 2713 
C 2266 2713 2317 2289 2317 1980 
L 2317 443 
C 2317 198 2291 166 1882 166 
L 1882 0 
C 2035 12 2317 12 2483 12 
C 2650 12 2938 12 3091 0 
L 3091 166 
C 2682 166 2656 192 2656 443 
L 2656 1678 
C 2656 2269 3014 2713 3462 2713 
C 3936 2713 3987 2289 3987 1980 
L 3987 443 
C 3987 198 3962 166 3552 166 
L 3552 0 
C 3706 12 3987 12 4154 12 
C 4320 12 4608 12 4762 0 
L 4762 166 
C 4352 166 4326 192 4326 443 
L 4326 1954 
z
" transform="scale(0.015625)"/>
       <path id="CMR17-6c" d="M 979 4416 
L 218 4345 
L 218 4179 
C 595 4179 653 4141 653 3835 
L 653 439 
C 653 198 627 166 218 166 
L 218 0 
C 371 12 653 12 813 12 
C 979 12 1261 12 1414 0 
L 1414 166 
C 1005 166 979 191 979 439 
L 979 4416 
z
" transform="scale(0.015625)"/>
       <path id="CMR17-69" d="M 992 3961 
C 992 4102 877 4224 730 4224 
C 589 4224 467 4108 467 3961 
C 467 3820 582 3699 730 3699 
C 870 3699 992 3814 992 3961 
z
M 243 2745 
L 243 2579 
C 602 2579 653 2540 653 2231 
L 653 443 
C 653 198 627 166 218 166 
L 218 0 
C 371 12 646 12 806 12 
C 960 12 1222 12 1370 0 
L 1370 166 
C 992 166 979 205 979 436 
L 979 2816 
L 243 2745 
z
" transform="scale(0.015625)"/>
       <path id="CMR17-76" d="M 2502 2173 
C 2560 2315 2662 2572 3034 2585 
L 3034 2752 
C 2912 2745 2752 2739 2630 2739 
C 2496 2739 2285 2739 2157 2752 
L 2157 2585 
C 2317 2572 2406 2495 2406 2328 
C 2406 2270 2406 2257 2368 2167 
L 1664 379 
L 902 2308 
C 864 2392 864 2405 864 2431 
C 864 2585 1075 2585 1171 2585 
L 1171 2752 
C 1018 2739 736 2739 576 2739 
C 403 2739 205 2739 64 2752 
L 64 2585 
C 307 2585 442 2585 518 2386 
L 1446 44 
C 1485 -52 1491 -64 1549 -64 
C 1606 -64 1613 -52 1651 44 
L 2502 2173 
z
" transform="scale(0.015625)"/>
       <path id="CMR17-65" d="M 2438 1503 
C 2464 1529 2464 1542 2464 1606 
C 2464 2251 2118 2816 1389 2816 
C 710 2816 173 2175 173 1394 
C 173 554 781 -64 1459 -64 
C 2176 -64 2458 619 2458 755 
C 2458 800 2419 800 2406 800 
C 2362 800 2355 787 2330 709 
C 2189 270 1837 51 1504 51 
C 1229 51 954 206 781 490 
C 582 819 582 1200 582 1503 
L 2438 1503 
z
M 589 1600 
C 634 2511 1126 2713 1382 2713 
C 1818 2713 2112 2308 2118 1600 
L 589 1600 
z
" transform="scale(0.015625)"/>
       <path id="CMR17-52" d="M 2509 2156 
C 3117 2278 3629 2689 3629 3203 
C 3629 3806 2950 4352 2054 4352 
L 333 4352 
L 333 4185 
C 774 4185 845 4185 845 3896 
L 845 428 
C 845 140 774 140 333 140 
L 333 -26 
C 518 -13 851 -13 1050 -13 
C 1248 -13 1581 -13 1766 -26 
L 1766 140 
C 1325 140 1254 140 1254 428 
L 1254 2112 
L 2003 2112 
C 2368 2112 2573 1964 2662 1881 
C 2918 1632 2918 1459 2918 1024 
C 2918 595 2918 377 3110 160 
C 3354 -103 3680 -128 3821 -128 
C 4294 -128 4365 403 4365 512 
C 4365 550 4365 595 4307 595 
C 4256 595 4250 556 4250 531 
C 4218 115 4032 -26 3834 -26 
C 3482 -26 3443 377 3405 768 
C 3386 902 3373 998 3360 1139 
C 3322 1459 3270 1926 2509 2156 
z
M 1984 2214 
L 1254 2214 
L 1254 3935 
C 1254 4153 1267 4185 1523 4185 
L 1990 4185 
C 2522 4185 3142 3999 3142 3203 
C 3142 2374 2464 2214 1984 2214 
z
" transform="scale(0.015625)"/>
       <path id="CMR17-57" d="M 5523 3775 
C 5581 3948 5677 4173 6048 4185 
L 6048 4352 
C 5939 4345 5715 4339 5600 4339 
C 5440 4339 5158 4339 5005 4352 
L 5005 4185 
C 5293 4179 5414 4019 5414 3865 
C 5414 3820 5408 3794 5382 3724 
L 4390 557 
L 3347 3890 
C 3328 3955 3322 3980 3322 4006 
C 3322 4185 3603 4185 3725 4185 
L 3725 4352 
C 3539 4339 3219 4339 3021 4339 
C 2861 4339 2573 4339 2426 4352 
L 2426 4185 
C 2720 4185 2797 4166 2861 4051 
C 2886 3993 2989 3660 2989 3640 
C 2989 3615 2976 3576 2970 3557 
L 2029 564 
L 986 3890 
C 954 3980 954 3993 954 4006 
C 954 4185 1235 4185 1363 4185 
L 1363 4352 
C 1178 4339 858 4339 659 4339 
C 493 4339 211 4339 58 4352 
L 58 4185 
C 442 4185 467 4147 531 3942 
L 1779 -20 
C 1811 -116 1811 -128 1869 -128 
C 1920 -128 1939 -116 1965 -26 
L 3053 3448 
L 4141 -26 
C 4166 -116 4186 -128 4237 -128 
C 4294 -128 4294 -116 4326 -20 
L 5523 3775 
z
" transform="scale(0.015625)"/>
      </defs>
      <use xlink:href="#CMR17-43" transform="scale(0.996264)"/>
      <use xlink:href="#CMR17-75" transform="translate(66.509881 0)scale(0.996264)"/>
      <use xlink:href="#CMR17-6d" transform="translate(117.40525 0)scale(0.996264)"/>
      <use xlink:href="#CMR17-75" transform="translate(191.722386 0)scale(0.996264)"/>
      <use xlink:href="#CMR17-6c" transform="translate(242.617756 0)scale(0.996264)"/>
      <use xlink:href="#CMR17-61" transform="translate(267.488815 0)scale(0.996264)"/>
      <use xlink:href="#CMR17-74" transform="translate(313.179292 0)scale(0.996264)"/>
      <use xlink:href="#CMR17-69" transform="translate(348.460059 0)scale(0.996264)"/>
      <use xlink:href="#CMR17-76" transform="translate(373.331118 0)scale(0.996264)"/>
      <use xlink:href="#CMR17-65" transform="translate(419.02158 0)scale(0.996264)"/>
      <use xlink:href="#CMR17-52" transform="translate(489.583207 0)scale(0.996264)"/>
      <use xlink:href="#CMR17-65" transform="translate(557.374309 0)scale(0.996264)"/>
      <use xlink:href="#CMR17-6c" transform="translate(597.859969 0)scale(0.996264)"/>
      <use xlink:href="#CMR17-61" transform="translate(622.731028 0)scale(0.996264)"/>
      <use xlink:href="#CMR17-74" transform="translate(668.421505 0)scale(0.996264)"/>
      <use xlink:href="#CMR17-69" transform="translate(703.702272 0)scale(0.996264)"/>
      <use xlink:href="#CMR17-76" transform="translate(728.573331 0)scale(0.996264)"/>
      <use xlink:href="#CMR17-65" transform="translate(774.263793 0)scale(0.996264)"/>
      <use xlink:href="#CMR17-57" transform="translate(844.82542 0)scale(0.996264)"/>
      <use xlink:href="#CMR17-65" transform="translate(932.114814 0)scale(0.996264)"/>
      <use xlink:href="#CMR17-61" transform="translate(972.600475 0)scale(0.996264)"/>
      <use xlink:href="#CMR17-6c" transform="translate(1018.290952 0)scale(0.996264)"/>
      <use xlink:href="#CMR17-74" transform="translate(1043.16201 0)scale(0.996264)"/>
      <use xlink:href="#CMR17-68" transform="translate(1078.442778 0)scale(0.996264)"/>
     </g>
    </g>
   </g>
   <g id="line2d_29">
    <path d="M 49.516452 222.211217 
L 51.052335 210.995884 
L 54.124099 228.146068 
L 55.659982 234.067111 
L 57.195864 235.148711 
L 58.731747 222.962661 
L 60.267629 219.300203 
L 61.803512 221.751609 
L 63.339394 213.474954 
L 64.875276 209.775282 
L 66.411159 210.10835 
L 67.947041 209.651897 
L 69.482924 215.055936 
L 71.018806 223.852103 
L 72.554689 215.13834 
L 74.090571 214.827626 
L 75.626453 217.127415 
L 77.162336 216.81773 
L 78.698218 224.556377 
L 80.234101 223.249431 
L 81.769983 220.544443 
L 83.305866 221.192629 
L 84.841748 220.777622 
L 86.37763 231.532002 
L 87.913513 228.114938 
L 89.449395 230.827658 
L 90.985278 228.561237 
L 92.52116 219.601096 
L 94.057043 220.523418 
L 95.592925 225.930375 
L 97.128807 224.635836 
L 98.66469 226.607884 
L 100.200572 225.530464 
L 101.736455 221.812791 
L 103.272337 220.165073 
L 104.80822 215.031863 
L 106.344102 212.541319 
L 107.879984 212.4271 
L 109.415867 211.845093 
L 110.951749 206.999223 
L 112.487632 208.522088 
L 114.023514 207.578618 
L 115.559397 208.224226 
L 117.095279 204.972674 
L 118.631161 208.261323 
L 120.167044 201.550396 
L 121.702926 203.91837 
L 123.238809 204.150326 
L 124.774691 206.314416 
L 126.310574 201.328237 
L 127.846456 202.910452 
L 129.382338 193.290422 
L 130.918221 192.163182 
L 132.454103 192.30505 
L 133.989986 186.873537 
L 135.525868 191.672405 
L 137.061751 197.287437 
L 138.597633 193.403769 
L 140.133515 191.310485 
L 141.669398 184.993852 
L 143.20528 183.354718 
L 144.741163 179.572095 
L 146.277045 177.956558 
L 147.812928 176.593282 
L 149.34881 173.699803 
L 150.884692 169.414589 
L 152.420575 170.505846 
L 155.49234 168.800519 
L 157.028222 172.713605 
L 158.564105 170.899367 
L 161.635869 173.370424 
L 163.171752 172.90192 
L 164.707634 172.698187 
L 166.243517 169.156963 
L 167.779399 172.599499 
L 169.315282 170.552413 
L 170.851164 174.338258 
L 172.387046 176.136283 
L 173.922929 176.932282 
L 175.458811 171.367646 
L 176.994694 169.776132 
L 178.530576 182.863735 
L 180.066459 183.031175 
L 181.602341 185.105729 
L 183.138223 188.038389 
L 184.674106 189.73299 
L 186.209988 181.431708 
L 187.745871 183.325367 
L 189.281753 178.466801 
L 190.817636 177.857005 
L 192.353518 172.628424 
L 193.8894 166.248591 
L 195.425283 172.353905 
L 196.961165 173.105601 
L 198.497048 178.15478 
L 200.03293 185.890426 
L 201.568813 187.377309 
L 203.104695 197.772453 
L 204.640577 193.417365 
L 206.17646 183.927543 
L 207.712342 181.001666 
L 209.248225 169.696596 
L 210.784107 159.677594 
L 212.31999 151.964346 
L 213.855872 163.841083 
L 215.391754 152.103036 
L 216.927637 150.975796 
L 218.463519 151.498116 
L 219.999402 150.617918 
L 221.535284 146.097884 
L 223.071167 139.185708 
L 224.607049 138.705492 
L 226.142931 138.100972 
L 227.678814 134.997883 
L 229.214696 133.002966 
L 230.750579 137.646109 
L 232.286461 136.625103 
L 233.822344 129.750636 
L 235.358226 132.769117 
L 236.894108 124.418907 
L 238.429991 117.709357 
L 239.965873 129.165263 
L 241.501756 126.100876 
L 243.037638 133.29297 
L 244.573521 128.867908 
L 246.109403 126.592206 
L 247.645285 128.506937 
L 249.181168 122.561342 
L 250.71705 128.515252 
L 252.252933 129.04912 
L 253.788815 130.1471 
L 255.324698 134.508579 
L 256.86058 130.827766 
L 258.396462 127.670747 
L 261.468227 129.281338 
L 263.00411 117.675697 
L 264.539992 115.1461 
L 266.075875 107.285195 
L 267.611757 113.607521 
L 269.147639 98.735717 
L 270.683522 98.149273 
L 272.219404 101.44433 
L 273.755287 101.502859 
L 275.291169 112.079256 
L 276.827052 107.859736 
L 278.362934 111.978099 
L 279.898817 108.390079 
L 281.434699 118.513145 
L 282.970581 118.33823 
L 284.506464 118.860738 
L 286.042346 101.378741 
L 287.578229 110.980349 
L 289.114111 108.810764 
L 290.649994 108.045046 
L 292.185876 102.775797 
L 293.721758 99.67125 
L 295.257641 100.726556 
L 296.793523 89.043555 
L 298.329406 104.157146 
L 299.865288 101.371357 
L 301.401171 100.029814 
L 302.937053 96.998981 
L 306.008818 89.771514 
L 307.5447 88.176193 
L 309.080583 81.994636 
L 310.616465 79.559075 
L 312.152348 78.813792 
L 313.68823 82.76706 
L 315.224112 78.492345 
L 316.759995 69.505685 
L 318.295877 63.59775 
L 319.83176 66.846905 
L 321.367642 58.602175 
L 324.439407 64.175245 
L 325.975289 65.69502 
L 327.511172 70.517347 
L 329.047054 75.85778 
L 330.582937 71.774933 
L 332.118819 73.511539 
L 335.190584 80.319749 
L 336.726466 74.524422 
L 338.262349 81.982574 
L 339.798231 76.368673 
L 341.334114 69.999458 
L 342.869996 75.240444 
L 344.405879 70.493418 
L 345.941761 62.344604 
L 347.477643 63.000947 
L 349.013526 60.752331 
L 350.549408 71.959809 
L 352.085291 64.184759 
L 353.621173 53.84536 
L 355.157056 51.43588 
L 356.692938 65.45808 
L 359.764703 58.804465 
L 361.300585 58.869005 
L 362.836468 72.841839 
L 364.37235 71.402383 
L 365.908233 69.722901 
L 367.444115 73.348014 
L 368.979997 68.335436 
L 370.51588 61.267556 
L 372.051762 57.999907 
L 373.587645 65.755574 
L 375.123527 66.617808 
L 376.65941 69.463023 
L 378.195292 59.623731 
L 379.731174 58.873162 
L 381.267057 56.001413 
L 382.802939 49.676825 
L 384.338822 48.429019 
L 385.874704 42.719385 
L 387.410587 52.682474 
L 388.946469 57.494395 
L 390.482351 54.731291 
L 392.018234 52.561549 
L 393.554116 48.898583 
L 395.089999 62.068586 
L 396.625881 68.277282 
L 398.161764 62.172377 
L 399.697646 59.577822 
L 401.233528 59.750642 
L 402.769411 67.000716 
L 404.305293 55.517326 
L 405.841176 49.035278 
L 407.377058 46.968242 
L 408.912941 53.4906 
L 410.448823 46.544876 
L 411.984705 36.645605 
L 413.520588 31.22812 
L 415.05647 27.830504 
L 416.592353 23.351859 
L 418.128235 21.897625 
L 419.664118 21.483272 
L 421.2 21.483272 
L 421.2 21.483272 
" clip-path="url(#pac29175ec2)" style="fill: none; stroke: #1f77b4; stroke-width: 1.5; stroke-linecap: square"/>
   </g>
   <g id="line2d_30">
    <path d="M 49.516452 222.693355 
L 51.052335 220.215472 
L 52.588217 223.061892 
L 54.124099 226.637398 
L 57.195864 220.547201 
L 58.731747 216.853305 
L 60.267629 213.877266 
L 61.803512 210.071472 
L 63.339394 205.447042 
L 64.875276 206.958677 
L 67.947041 210.743241 
L 69.482924 209.743218 
L 71.018806 210.933425 
L 72.554689 209.454215 
L 74.090571 206.610162 
L 77.162336 203.930513 
L 78.698218 205.021749 
L 80.234101 204.173675 
L 81.769983 204.298973 
L 83.305866 206.427805 
L 84.841748 201.279849 
L 86.37763 206.48831 
L 87.913513 207.962833 
L 89.449395 201.711979 
L 90.985278 196.543581 
L 92.52116 190.283664 
L 94.057043 195.830752 
L 95.592925 197.629948 
L 97.128807 200.7168 
L 98.66469 201.438212 
L 100.200572 205.321029 
L 101.736455 202.204224 
L 103.272337 203.33451 
L 104.80822 203.607566 
L 106.344102 198.833345 
L 107.879984 203.332498 
L 109.415867 199.734096 
L 110.951749 202.231134 
L 114.023514 196.512118 
L 115.559397 196.307002 
L 117.095279 198.273003 
L 118.631161 202.925844 
L 120.167044 202.506135 
L 121.702926 203.033018 
L 123.238809 201.579778 
L 124.774691 202.550775 
L 126.310574 200.602698 
L 127.846456 198.872093 
L 129.382338 198.079583 
L 130.918221 198.795695 
L 132.454103 201.699077 
L 133.989986 202.69997 
L 135.525868 199.172091 
L 137.061751 199.921881 
L 138.597633 199.177857 
L 140.133515 197.335721 
L 141.669398 199.71896 
L 143.20528 198.030961 
L 144.741163 196.132602 
L 146.277045 200.664592 
L 147.812928 198.935221 
L 149.34881 199.919475 
L 150.884692 198.277306 
L 152.420575 197.642901 
L 153.956457 193.495363 
L 155.49234 195.866534 
L 157.028222 193.729222 
L 158.564105 192.099721 
L 160.099987 191.894221 
L 163.171752 188.13277 
L 164.707634 183.510313 
L 167.779399 180.957061 
L 169.315282 180.401481 
L 170.851164 179.089739 
L 172.387046 175.185335 
L 173.922929 176.145412 
L 175.458811 174.977833 
L 176.994694 170.842153 
L 178.530576 175.059584 
L 180.066459 177.932173 
L 181.602341 175.802806 
L 183.138223 182.173639 
L 184.674106 187.277761 
L 186.209988 184.395444 
L 187.745871 185.192577 
L 189.281753 186.249265 
L 190.817636 185.773273 
L 192.353518 181.019251 
L 193.8894 181.037209 
L 195.425283 187.487024 
L 196.961165 191.107482 
L 198.497048 188.881395 
L 200.03293 190.835964 
L 201.568813 192.390933 
L 203.104695 192.218845 
L 204.640577 190.362348 
L 206.17646 180.763582 
L 207.712342 174.732211 
L 210.784107 174.804658 
L 212.31999 173.876361 
L 213.855872 177.159446 
L 216.927637 169.209987 
L 218.463519 168.328311 
L 219.999402 173.43088 
L 221.535284 174.697554 
L 223.071167 171.855553 
L 224.607049 172.422624 
L 226.142931 173.869042 
L 227.678814 175.001899 
L 229.214696 177.235596 
L 230.750579 181.322144 
L 232.286461 178.418584 
L 233.822344 177.226892 
L 236.894108 177.882255 
L 239.965873 173.156735 
L 241.501756 169.126025 
L 243.037638 167.825325 
L 244.573521 163.541954 
L 246.109403 162.295067 
L 247.645285 163.840169 
L 249.181168 162.434959 
L 250.71705 160.858688 
L 252.252933 160.814042 
L 253.788815 163.471377 
L 255.324698 160.613788 
L 256.86058 159.379314 
L 258.396462 158.584737 
L 259.932345 158.421589 
L 261.468227 160.647401 
L 264.539992 166.968817 
L 266.075875 164.164695 
L 267.611757 165.737048 
L 269.147639 167.704435 
L 270.683522 167.029222 
L 272.219404 168.56685 
L 273.755287 166.738719 
L 275.291169 166.053727 
L 276.827052 172.448295 
L 278.362934 170.730706 
L 279.898817 170.80158 
L 281.434699 172.455125 
L 282.970581 172.359383 
L 284.506464 172.847867 
L 286.042346 173.120547 
L 287.578229 176.214949 
L 289.114111 174.623324 
L 290.649994 175.497216 
L 292.185876 170.338237 
L 293.721758 168.199715 
L 295.257641 170.640153 
L 296.793523 171.529421 
L 298.329406 169.342053 
L 299.865288 164.317802 
L 301.401171 162.738375 
L 302.937053 163.517123 
L 304.472935 165.30483 
L 306.008818 165.039138 
L 309.080583 163.906214 
L 310.616465 165.230121 
L 312.152348 165.251813 
L 313.68823 165.946884 
L 315.224112 163.025348 
L 316.759995 164.257234 
L 318.295877 168.653129 
L 319.83176 166.033334 
L 321.367642 163.960699 
L 322.903525 164.683203 
L 324.439407 159.403055 
L 325.975289 161.187488 
L 327.511172 165.672241 
L 329.047054 165.228354 
L 330.582937 165.187439 
L 332.118819 166.448892 
L 333.654702 166.503706 
L 335.190584 162.232368 
L 336.726466 162.305483 
L 338.262349 160.217835 
L 339.798231 160.117727 
L 341.334114 155.067583 
L 342.869996 155.287132 
L 344.405879 154.539109 
L 345.941761 154.836365 
L 347.477643 152.936267 
L 349.013526 154.666227 
L 350.549408 157.374047 
L 352.085291 154.159615 
L 353.621173 154.844709 
L 355.157056 155.058115 
L 356.692938 157.122665 
L 358.22882 158.165117 
L 359.764703 158.479473 
L 361.300585 158.314896 
L 362.836468 157.814376 
L 364.37235 154.608584 
L 365.908233 155.703088 
L 367.444115 156.436446 
L 368.979997 155.399741 
L 370.51588 156.994388 
L 372.051762 158.194402 
L 373.587645 157.644292 
L 375.123527 155.974102 
L 376.65941 150.699248 
L 378.195292 151.312835 
L 379.731174 153.075714 
L 381.267057 152.49116 
L 382.802939 155.062779 
L 384.338822 158.058751 
L 385.874704 157.258872 
L 387.410587 155.168895 
L 388.946469 159.029153 
L 390.482351 159.460294 
L 392.018234 160.208242 
L 393.554116 164.579595 
L 395.089999 163.80639 
L 396.625881 162.397792 
L 398.161764 164.703062 
L 401.233528 164.97403 
L 402.769411 163.17966 
L 404.305293 162.726351 
L 405.841176 161.013572 
L 407.377058 160.654489 
L 408.912941 157.229041 
L 410.448823 160.214052 
L 411.984705 167.619506 
L 413.520588 169.420808 
L 415.05647 169.694316 
L 416.592353 170.164895 
L 418.128235 172.304721 
L 419.664118 175.570446 
L 421.2 175.570446 
L 421.2 175.570446 
" clip-path="url(#pac29175ec2)" style="fill: none; stroke: #ff7f0e; stroke-width: 1.5; stroke-linecap: square"/>
   </g>
   <g id="patch_3">
    <path d="M 49.516452 245.831983 
L 49.516452 10.8 
" style="fill: none; stroke: #000000; stroke-width: 0.8; stroke-linejoin: miter; stroke-linecap: square"/>
   </g>
   <g id="patch_4">
    <path d="M 421.2 245.831983 
L 421.2 10.8 
" style="fill: none; stroke: #000000; stroke-width: 0.8; stroke-linejoin: miter; stroke-linecap: square"/>
   </g>
   <g id="patch_5">
    <path d="M 49.516452 245.831983 
L 421.2 245.831983 
" style="fill: none; stroke: #000000; stroke-width: 0.8; stroke-linejoin: miter; stroke-linecap: square"/>
   </g>
   <g id="patch_6">
    <path d="M 49.516452 10.8 
L 421.2 10.8 
" style="fill: none; stroke: #000000; stroke-width: 0.8; stroke-linejoin: miter; stroke-linecap: square"/>
   </g>
   <g id="legend_1">
    <g id="patch_7">
     <path d="M 58.616452 57.436624 
L 228.671133 57.436624 
Q 231.271133 57.436624 231.271133 54.836624 
L 231.271133 19.9 
Q 231.271133 17.3 228.671133 17.3 
L 58.616452 17.3 
Q 56.016452 17.3 56.016452 19.9 
L 56.016452 54.836624 
Q 56.016452 57.436624 58.616452 57.436624 
z
" style="fill: #ffffff; opacity: 0.8; stroke: #cccccc; stroke-linejoin: miter"/>
    </g>
    <g id="line2d_31">
     <path d="M 61.216452 27.05 
L 74.216452 27.05 
L 87.216452 27.05 
" style="fill: none; stroke: #1f77b4; stroke-width: 1.5; stroke-linecap: square"/>
    </g>
    <g id="text_15">
     <!-- Exact Solve - Vol -->
     <g transform="translate(97.616452 31.6)scale(0.13 -0.13)">
      <defs>
       <path id="CMR17-45" d="M 3885 1614 
L 3770 1614 
C 3629 676 3546 166 2419 166 
L 1530 166 
C 1274 166 1261 198 1261 415 
L 1261 2176 
L 1862 2176 
C 2464 2176 2522 1959 2522 1429 
L 2637 1429 
L 2637 3086 
L 2522 3086 
C 2522 2558 2464 2342 1862 2342 
L 1261 2342 
L 1261 3924 
C 1261 4141 1274 4172 1530 4172 
L 2406 4172 
C 3398 4172 3514 3778 3603 2933 
L 3718 2933 
L 3565 4339 
L 326 4339 
L 326 4172 
C 768 4172 838 4172 838 3886 
L 838 453 
C 838 166 768 166 326 166 
L 326 0 
L 3654 0 
L 3885 1614 
z
" transform="scale(0.015625)"/>
       <path id="CMR17-78" d="M 1664 1491 
C 1856 1740 2074 2022 2253 2233 
C 2464 2476 2707 2579 2989 2585 
L 2989 2752 
C 2880 2745 2656 2739 2541 2739 
C 2368 2739 2170 2739 2022 2752 
L 2022 2585 
C 2112 2572 2163 2508 2163 2419 
C 2163 2304 2099 2233 2067 2188 
L 1594 1587 
L 1030 2323 
C 973 2393 973 2406 973 2438 
C 973 2515 1037 2579 1146 2585 
L 1146 2752 
C 992 2739 717 2739 557 2739 
C 384 2739 179 2739 38 2752 
L 38 2585 
C 384 2585 461 2560 614 2368 
L 1350 1414 
C 1363 1401 1395 1363 1395 1344 
C 1395 1318 838 633 768 544 
C 480 198 179 172 6 166 
L 6 0 
C 115 6 339 12 454 12 
C 582 12 864 12 979 0 
L 979 166 
C 941 172 838 185 838 332 
C 838 448 890 518 947 595 
L 1478 1248 
L 2035 524 
C 2086 454 2163 358 2163 313 
C 2163 224 2086 172 1984 166 
L 1984 0 
C 2138 12 2413 12 2573 12 
C 2746 12 2950 12 3091 0 
L 3091 166 
C 2771 166 2675 179 2522 377 
L 1664 1491 
z
" transform="scale(0.015625)"/>
       <path id="CMR17-63" d="M 2234 2240 
C 2112 2240 1933 2240 1933 2015 
C 1933 1836 2080 1785 2163 1785 
C 2208 1785 2394 1804 2394 2028 
C 2394 2476 1958 2816 1466 2816 
C 787 2816 211 2201 211 1379 
C 211 521 813 -64 1466 -64 
C 2259 -64 2458 676 2458 747 
C 2458 773 2451 792 2406 792 
C 2362 792 2355 786 2330 702 
C 2163 180 1798 51 1523 51 
C 1114 51 621 431 621 1385 
C 621 2358 1094 2700 1472 2700 
C 1722 2700 2093 2582 2234 2240 
z
" transform="scale(0.015625)"/>
       <path id="CMR17-2d" d="M 1632 1254 
L 1632 1536 
L 26 1536 
L 26 1254 
L 1632 1254 
z
" transform="scale(0.015625)"/>
       <path id="CMR17-56" d="M 3776 3762 
C 3834 3903 3936 4179 4365 4185 
L 4365 4352 
C 4218 4339 4051 4339 3891 4339 
C 3738 4339 3475 4339 3328 4352 
L 3328 4185 
C 3648 4166 3661 3942 3661 3903 
C 3661 3833 3642 3788 3622 3737 
L 2362 448 
L 1043 3903 
C 1024 3948 1011 3980 1011 4012 
C 1011 4185 1267 4185 1402 4185 
L 1402 4352 
C 1197 4339 896 4339 685 4339 
C 518 4339 218 4339 64 4352 
L 64 4185 
C 435 4185 506 4160 582 3955 
L 2106 -26 
C 2138 -116 2144 -128 2214 -128 
C 2285 -128 2291 -116 2323 -26 
L 3776 3762 
z
" transform="scale(0.015625)"/>
      </defs>
      <use xlink:href="#CMR17-45" transform="scale(0.996264)"/>
      <use xlink:href="#CMR17-78" transform="translate(62.586301 0)scale(0.996264)"/>
      <use xlink:href="#CMR17-61" transform="translate(110.879216 0)scale(0.996264)"/>
      <use xlink:href="#CMR17-63" transform="translate(156.569693 0)scale(0.996264)"/>
      <use xlink:href="#CMR17-74" transform="translate(197.055354 0)scale(0.996264)"/>
      <use xlink:href="#CMR17-53" transform="translate(262.412088 0)scale(0.996264)"/>
      <use xlink:href="#CMR17-6f" transform="translate(313.307458 0)scale(0.996264)"/>
      <use xlink:href="#CMR17-6c" transform="translate(358.997935 0)scale(0.996264)"/>
      <use xlink:href="#CMR17-76" transform="translate(383.868993 0)scale(0.996264)"/>
      <use xlink:href="#CMR17-65" transform="translate(429.559455 0)scale(0.996264)"/>
      <use xlink:href="#CMR17-2d" transform="translate(500.121082 0)scale(0.996264)"/>
      <use xlink:href="#CMR17-56" transform="translate(560.273015 0)scale(0.996264)"/>
      <use xlink:href="#CMR17-6f" transform="translate(621.538189 0)scale(0.996264)"/>
      <use xlink:href="#CMR17-6c" transform="translate(667.228666 0)scale(0.996264)"/>
     </g>
    </g>
    <g id="line2d_32">
     <path d="M 61.216452 45.168312 
L 74.216452 45.168312 
L 87.216452 45.168312 
" style="fill: none; stroke: #ff7f0e; stroke-width: 1.5; stroke-linecap: square"/>
    </g>
    <g id="text_16">
     <!-- PADM - Fundamentals -->
     <g transform="translate(97.616452 49.718312)scale(0.13 -0.13)">
      <defs>
       <path id="CMR17-50" d="M 1267 2048 
L 2291 2048 
C 3117 2048 3718 2583 3718 3187 
C 3718 3791 3130 4352 2291 4352 
L 333 4352 
L 333 4185 
C 774 4185 845 4185 845 3899 
L 845 453 
C 845 166 774 166 333 166 
L 333 0 
C 518 12 858 12 1056 12 
C 1254 12 1594 12 1779 0 
L 1779 166 
C 1338 166 1267 166 1267 453 
L 1267 2048 
z
M 1254 2182 
L 1254 3937 
C 1254 4153 1267 4185 1523 4185 
L 2170 4185 
C 2995 4185 3232 3715 3232 3187 
C 3232 2608 2950 2182 2170 2182 
L 1254 2182 
z
" transform="scale(0.015625)"/>
       <path id="CMR17-41" d="M 2323 4441 
C 2291 4524 2278 4544 2214 4544 
C 2150 4544 2138 4524 2106 4441 
L 749 580 
C 627 236 371 166 147 166 
L 147 0 
C 262 12 518 12 640 12 
C 800 12 1056 12 1210 0 
L 1210 166 
C 909 179 864 382 864 459 
C 864 516 877 548 890 586 
L 1229 1536 
L 2906 1536 
L 3290 453 
C 3322 376 3322 363 3322 338 
C 3322 166 3046 166 2925 166 
L 2925 0 
C 3110 12 3443 12 3642 12 
C 3808 12 4128 12 4282 0 
L 4282 166 
C 3942 166 3827 166 3744 402 
L 2323 4441 
z
M 2067 3924 
L 2848 1702 
L 1286 1702 
L 2067 3924 
z
" transform="scale(0.015625)"/>
       <path id="CMR17-44" d="M 333 4352 
L 333 4185 
C 774 4185 845 4185 845 3898 
L 845 453 
C 845 166 774 166 333 166 
L 333 0 
L 2368 0 
C 3398 0 4224 943 4224 2140 
C 4224 3344 3411 4352 2368 4352 
L 333 4352 
z
M 1523 166 
C 1267 166 1254 198 1254 414 
L 1254 3936 
C 1254 4153 1267 4185 1523 4185 
L 2240 4185 
C 2771 4185 3750 3873 3750 2140 
C 3750 1242 3488 879 3366 707 
C 3213 510 2848 166 2240 166 
L 1523 166 
z
" transform="scale(0.015625)"/>
       <path id="CMR17-46" d="M 3482 4339 
L 326 4339 
L 326 4172 
C 768 4172 838 4172 838 3883 
L 838 450 
C 838 166 768 166 326 166 
L 326 0 
C 512 12 870 12 1069 12 
C 1331 12 1638 12 1901 0 
L 1901 166 
L 1760 166 
C 1274 166 1261 229 1261 456 
L 1261 2073 
L 1837 2073 
C 2432 2073 2490 1865 2490 1334 
L 2605 1334 
L 2605 2991 
L 2490 2991 
C 2490 2451 2432 2240 1837 2240 
L 1261 2240 
L 1261 3922 
C 1261 4140 1274 4172 1530 4172 
L 2355 4172 
C 3322 4172 3430 3774 3520 2920 
L 3635 2920 
L 3482 4339 
z
" transform="scale(0.015625)"/>
       <path id="CMR17-64" d="M 1869 4345 
L 1869 4179 
C 2246 4179 2304 4141 2304 3843 
L 2304 2371 
C 2278 2403 2016 2816 1498 2816 
C 845 2816 211 2228 211 1376 
C 211 529 806 -64 1434 -64 
C 1978 -64 2259 361 2291 406 
L 2291 -64 
L 3066 -13 
L 3066 154 
C 2688 154 2630 193 2630 503 
L 2630 4416 
L 1869 4345 
z
M 2291 762 
C 2291 568 2176 393 2029 264 
C 1811 70 1594 38 1472 38 
C 1286 38 621 135 621 1369 
C 621 2636 1363 2713 1530 2713 
C 1824 2713 2061 2545 2208 2313 
C 2291 2177 2291 2157 2291 2041 
L 2291 762 
z
" transform="scale(0.015625)"/>
       <path id="CMR17-73" d="M 1978 2688 
C 1978 2803 1971 2809 1933 2809 
C 1907 2809 1901 2803 1824 2707 
C 1805 2681 1747 2617 1728 2592 
C 1523 2809 1235 2816 1126 2816 
C 416 2816 160 2444 160 2073 
C 160 1497 813 1363 998 1324 
C 1402 1241 1542 1216 1677 1100 
C 1760 1024 1901 883 1901 652 
C 1901 384 1747 38 1158 38 
C 602 38 403 460 288 1024 
C 269 1113 269 1120 218 1120 
C 166 1120 160 1113 160 985 
L 160 64 
C 160 -52 166 -58 205 -58 
C 237 -58 243 -52 275 0 
C 314 57 410 211 448 275 
C 576 102 800 -64 1158 -64 
C 1792 -64 2131 281 2131 780 
C 2131 1107 1958 1280 1875 1356 
C 1683 1555 1459 1600 1190 1651 
C 838 1728 390 1817 390 2208 
C 390 2374 480 2726 1126 2726 
C 1811 2726 1850 2086 1862 1881 
C 1869 1849 1901 1843 1920 1843 
C 1978 1843 1978 1862 1978 1971 
L 1978 2688 
z
" transform="scale(0.015625)"/>
      </defs>
      <use xlink:href="#CMR17-50" transform="scale(0.996264)"/>
      <use xlink:href="#CMR17-41" transform="translate(54.779045 0)scale(0.996264)"/>
      <use xlink:href="#CMR17-44" transform="translate(123.851475 0)scale(0.996264)"/>
      <use xlink:href="#CMR17-4d" transform="translate(194.245031 0)scale(0.996264)"/>
      <use xlink:href="#CMR17-2d" transform="translate(309.007938 0)scale(0.996264)"/>
      <use xlink:href="#CMR17-46" transform="translate(369.15987 0)scale(0.996264)"/>
      <use xlink:href="#CMR17-75" transform="translate(421.336462 0)scale(0.996264)"/>
      <use xlink:href="#CMR17-6e" transform="translate(472.231831 0)scale(0.996264)"/>
      <use xlink:href="#CMR17-64" transform="translate(523.127201 0)scale(0.996264)"/>
      <use xlink:href="#CMR17-61" transform="translate(574.022571 0)scale(0.996264)"/>
      <use xlink:href="#CMR17-6d" transform="translate(619.713048 0)scale(0.996264)"/>
      <use xlink:href="#CMR17-65" transform="translate(696.632638 0)scale(0.996264)"/>
      <use xlink:href="#CMR17-6e" transform="translate(737.118298 0)scale(0.996264)"/>
      <use xlink:href="#CMR17-74" transform="translate(785.411214 0)scale(0.996264)"/>
      <use xlink:href="#CMR17-61" transform="translate(820.691982 0)scale(0.996264)"/>
      <use xlink:href="#CMR17-6c" transform="translate(866.382459 0)scale(0.996264)"/>
      <use xlink:href="#CMR17-73" transform="translate(891.253518 0)scale(0.996264)"/>
     </g>
    </g>
   </g>
  </g>
 </g>
 <defs>
  <clipPath id="pac29175ec2">
   <rect x="49.516452" y="10.8" width="371.683548" height="235.031983"/>
  </clipPath>
 </defs>
</svg>
