<?xml version="1.0" encoding="utf-8" standalone="no"?>
<!DOCTYPE svg PUBLIC "-//W3C//DTD SVG 1.1//EN"
  "http://www.w3.org/Graphics/SVG/1.1/DTD/svg11.dtd">
<svg xmlns:xlink="http://www.w3.org/1999/xlink" width="432pt" height="432pt" viewBox="0 0 432 432" xmlns="http://www.w3.org/2000/svg" version="1.1">
 <metadata>
  <rdf:RDF xmlns:dc="http://purl.org/dc/elements/1.1/" xmlns:cc="http://creativecommons.org/ns#" xmlns:rdf="http://www.w3.org/1999/02/22-rdf-syntax-ns#">
   <cc:Work>
    <dc:type rdf:resource="http://purl.org/dc/dcmitype/StillImage"/>
    <dc:date>2022-10-20T22:29:18.410840</dc:date>
    <dc:format>image/svg+xml</dc:format>
    <dc:creator>
     <cc:Agent>
      <dc:title>Matplotlib v3.5.2, https://matplotlib.org/</dc:title>
     </cc:Agent>
    </dc:creator>
   </cc:Work>
  </rdf:RDF>
 </metadata>
 <defs>
  <style type="text/css">*{stroke-linejoin: round; stroke-linecap: butt}</style>
 </defs>
 <g id="figure_1">
  <g id="patch_1">
   <path d="M 0 432 
L 432 432 
L 432 0 
L 0 0 
z
" style="fill: #ffffff"/>
  </g>
  <g id="axes_1">
   <g id="patch_2">
    <path d="M 54 124.153043 
L 321.84 124.153043 
L 321.84 51.84 
L 54 51.84 
z
" style="fill: #ffffff"/>
   </g>
   <g id="matplotlib.axis_1">
    <g id="xtick_1">
     <g id="line2d_1">
      <defs>
       <path id="m9852d62f88" d="M 0 0 
L 0 3.5 
" style="stroke: #000000; stroke-width: 0.8"/>
      </defs>
      <g>
       <use xlink:href="#m9852d62f88" x="100.484628" y="124.153043" style="stroke: #000000; stroke-width: 0.8"/>
      </g>
     </g>
    </g>
    <g id="xtick_2">
     <g id="line2d_2">
      <g>
       <use xlink:href="#m9852d62f88" x="166.89124" y="124.153043" style="stroke: #000000; stroke-width: 0.8"/>
      </g>
     </g>
    </g>
    <g id="xtick_3">
     <g id="line2d_3">
      <g>
       <use xlink:href="#m9852d62f88" x="233.297851" y="124.153043" style="stroke: #000000; stroke-width: 0.8"/>
      </g>
     </g>
    </g>
    <g id="xtick_4">
     <g id="line2d_4">
      <g>
       <use xlink:href="#m9852d62f88" x="299.704463" y="124.153043" style="stroke: #000000; stroke-width: 0.8"/>
      </g>
     </g>
    </g>
    <g id="xtick_5">
     <g id="line2d_5">
      <defs>
       <path id="m54207f2715" d="M 0 0 
L 0 2 
" style="stroke: #000000; stroke-width: 0.6"/>
      </defs>
      <g>
       <use xlink:href="#m54207f2715" x="60.640661" y="124.153043" style="stroke: #000000; stroke-width: 0.6"/>
      </g>
     </g>
    </g>
    <g id="xtick_6">
     <g id="line2d_6">
      <g>
       <use xlink:href="#m54207f2715" x="73.921983" y="124.153043" style="stroke: #000000; stroke-width: 0.6"/>
      </g>
     </g>
    </g>
    <g id="xtick_7">
     <g id="line2d_7">
      <g>
       <use xlink:href="#m54207f2715" x="87.203306" y="124.153043" style="stroke: #000000; stroke-width: 0.6"/>
      </g>
     </g>
    </g>
    <g id="xtick_8">
     <g id="line2d_8">
      <g>
       <use xlink:href="#m54207f2715" x="113.76595" y="124.153043" style="stroke: #000000; stroke-width: 0.6"/>
      </g>
     </g>
    </g>
    <g id="xtick_9">
     <g id="line2d_9">
      <g>
       <use xlink:href="#m54207f2715" x="127.047273" y="124.153043" style="stroke: #000000; stroke-width: 0.6"/>
      </g>
     </g>
    </g>
    <g id="xtick_10">
     <g id="line2d_10">
      <g>
       <use xlink:href="#m54207f2715" x="140.328595" y="124.153043" style="stroke: #000000; stroke-width: 0.6"/>
      </g>
     </g>
    </g>
    <g id="xtick_11">
     <g id="line2d_11">
      <g>
       <use xlink:href="#m54207f2715" x="153.609917" y="124.153043" style="stroke: #000000; stroke-width: 0.6"/>
      </g>
     </g>
    </g>
    <g id="xtick_12">
     <g id="line2d_12">
      <g>
       <use xlink:href="#m54207f2715" x="180.172562" y="124.153043" style="stroke: #000000; stroke-width: 0.6"/>
      </g>
     </g>
    </g>
    <g id="xtick_13">
     <g id="line2d_13">
      <g>
       <use xlink:href="#m54207f2715" x="193.453884" y="124.153043" style="stroke: #000000; stroke-width: 0.6"/>
      </g>
     </g>
    </g>
    <g id="xtick_14">
     <g id="line2d_14">
      <g>
       <use xlink:href="#m54207f2715" x="206.735207" y="124.153043" style="stroke: #000000; stroke-width: 0.6"/>
      </g>
     </g>
    </g>
    <g id="xtick_15">
     <g id="line2d_15">
      <g>
       <use xlink:href="#m54207f2715" x="220.016529" y="124.153043" style="stroke: #000000; stroke-width: 0.6"/>
      </g>
     </g>
    </g>
    <g id="xtick_16">
     <g id="line2d_16">
      <g>
       <use xlink:href="#m54207f2715" x="246.579174" y="124.153043" style="stroke: #000000; stroke-width: 0.6"/>
      </g>
     </g>
    </g>
    <g id="xtick_17">
     <g id="line2d_17">
      <g>
       <use xlink:href="#m54207f2715" x="259.860496" y="124.153043" style="stroke: #000000; stroke-width: 0.6"/>
      </g>
     </g>
    </g>
    <g id="xtick_18">
     <g id="line2d_18">
      <g>
       <use xlink:href="#m54207f2715" x="273.141818" y="124.153043" style="stroke: #000000; stroke-width: 0.6"/>
      </g>
     </g>
    </g>
    <g id="xtick_19">
     <g id="line2d_19">
      <g>
       <use xlink:href="#m54207f2715" x="286.42314" y="124.153043" style="stroke: #000000; stroke-width: 0.6"/>
      </g>
     </g>
    </g>
    <g id="xtick_20">
     <g id="line2d_20">
      <g>
       <use xlink:href="#m54207f2715" x="312.985785" y="124.153043" style="stroke: #000000; stroke-width: 0.6"/>
      </g>
     </g>
    </g>
   </g>
   <g id="matplotlib.axis_2">
    <g id="ytick_1">
     <g id="line2d_21">
      <defs>
       <path id="mf41ad4f592" d="M 0 0 
L -3.5 0 
" style="stroke: #000000; stroke-width: 0.8"/>
      </defs>
      <g>
       <use xlink:href="#mf41ad4f592" x="54" y="105.720137" style="stroke: #000000; stroke-width: 0.8"/>
      </g>
     </g>
     <g id="text_1">
      <!-- $\mathdefault{0.05}$ -->
      <g transform="translate(29.288586 109.179386)scale(0.1 -0.1)">
       <defs>
        <path id="CMR17-30" d="M 2688 2038 
C 2688 2430 2682 3099 2413 3613 
C 2176 4063 1798 4224 1466 4224 
C 1158 4224 768 4082 525 3620 
C 269 3137 243 2539 243 2038 
C 243 1671 250 1112 448 623 
C 723 -39 1216 -128 1466 -128 
C 1760 -128 2208 -7 2470 604 
C 2662 1048 2688 1568 2688 2038 
z
M 1466 -26 
C 1056 -26 813 328 723 816 
C 653 1196 653 1749 653 2109 
C 653 2604 653 3015 736 3407 
C 858 3954 1216 4121 1466 4121 
C 1728 4121 2067 3947 2189 3420 
C 2272 3054 2278 2623 2278 2109 
C 2278 1691 2278 1176 2202 797 
C 2067 96 1690 -26 1466 -26 
z
" transform="scale(0.015625)"/>
        <path id="CMMI12-3a" d="M 1178 307 
C 1178 492 1024 620 870 620 
C 685 620 557 467 557 313 
C 557 128 710 0 864 0 
C 1050 0 1178 153 1178 307 
z
" transform="scale(0.015625)"/>
        <path id="CMR17-35" d="M 730 3750 
C 794 3724 1056 3641 1325 3641 
C 1920 3641 2246 3961 2432 4140 
C 2432 4191 2432 4224 2394 4224 
C 2387 4224 2374 4224 2323 4198 
C 2099 4102 1837 4032 1517 4032 
C 1325 4032 1037 4055 723 4191 
C 653 4224 640 4224 634 4224 
C 602 4224 595 4217 595 4090 
L 595 2231 
C 595 2113 595 2080 659 2080 
C 691 2080 704 2093 736 2139 
C 941 2435 1222 2560 1542 2560 
C 1766 2560 2246 2415 2246 1293 
C 2246 1087 2246 716 2054 422 
C 1894 159 1645 25 1370 25 
C 947 25 518 319 403 812 
C 429 806 480 793 506 793 
C 589 793 749 838 749 1036 
C 749 1209 627 1280 506 1280 
C 358 1280 262 1190 262 1011 
C 262 454 704 -128 1382 -128 
C 2042 -128 2669 441 2669 1267 
C 2669 2054 2170 2662 1549 2662 
C 1222 2662 947 2540 730 2304 
L 730 3750 
z
" transform="scale(0.015625)"/>
       </defs>
       <use xlink:href="#CMR17-30" transform="scale(0.996264)"/>
       <use xlink:href="#CMMI12-3a" transform="translate(45.690477 0)scale(0.996264)"/>
       <use xlink:href="#CMR17-30" transform="translate(72.787654 0)scale(0.996264)"/>
       <use xlink:href="#CMR17-35" transform="translate(118.478131 0)scale(0.996264)"/>
      </g>
     </g>
    </g>
    <g id="ytick_2">
     <g id="line2d_22">
      <g>
       <use xlink:href="#mf41ad4f592" x="54" y="63.631816" style="stroke: #000000; stroke-width: 0.8"/>
      </g>
     </g>
     <g id="text_2">
      <!-- $\mathdefault{0.10}$ -->
      <g transform="translate(29.288586 67.091065)scale(0.1 -0.1)">
       <defs>
        <path id="CMR17-31" d="M 1702 4083 
C 1702 4217 1696 4224 1606 4224 
C 1357 3927 979 3833 621 3820 
C 602 3820 570 3820 563 3808 
C 557 3795 557 3782 557 3648 
C 755 3648 1088 3686 1344 3839 
L 1344 467 
C 1344 243 1331 166 781 166 
L 589 166 
L 589 0 
C 896 6 1216 12 1523 12 
C 1830 12 2150 6 2458 0 
L 2458 166 
L 2266 166 
C 1715 166 1702 236 1702 467 
L 1702 4083 
z
" transform="scale(0.015625)"/>
       </defs>
       <use xlink:href="#CMR17-30" transform="scale(0.996264)"/>
       <use xlink:href="#CMMI12-3a" transform="translate(45.690477 0)scale(0.996264)"/>
       <use xlink:href="#CMR17-31" transform="translate(72.787654 0)scale(0.996264)"/>
       <use xlink:href="#CMR17-30" transform="translate(118.478131 0)scale(0.996264)"/>
      </g>
     </g>
    </g>
   </g>
   <g id="line2d_23">
    <path d="M 54 105.161551 
L 55.106777 103.960351 
L 57.320331 106.669864 
L 58.427107 107.477782 
L 62.854215 101.570044 
L 63.960992 103.097749 
L 69.494876 95.307641 
L 72.815207 100.089153 
L 76.135537 95.272206 
L 77.242314 96.888888 
L 79.455868 93.641324 
L 80.562645 93.37845 
L 89.41686 80.067361 
L 96.057521 90.362003 
L 99.377851 85.158755 
L 102.698182 90.391733 
L 103.804959 88.641922 
L 106.018512 92.147434 
L 108.232066 88.638917 
L 109.338843 87.579611 
L 112.659174 82.289038 
L 115.979504 87.609092 
L 119.299835 82.266636 
L 123.726942 89.428422 
L 132.581157 75.022298 
L 133.687934 76.838477 
L 134.794711 75.241116 
L 138.115041 69.756443 
L 140.328595 73.436528 
L 141.435372 71.591182 
L 144.755702 77.146284 
L 145.862479 75.289879 
L 152.50314 86.482796 
L 155.823471 80.860732 
L 159.143802 86.502323 
L 162.464132 80.852099 
L 163.570909 82.738129 
L 165.784463 78.962787 
L 172.425124 90.324258 
L 173.531901 88.427713 
L 179.065785 97.905737 
L 180.172562 96.013991 
L 182.386116 99.793519 
L 183.492893 98.40415 
L 184.599669 96.517343 
L 192.347107 109.679793 
L 193.453884 107.809303 
L 195.667438 111.54228 
L 196.774215 109.68027 
L 201.201322 117.098161 
L 204.521653 111.56941 
L 205.62843 113.40668 
L 206.735207 113.55703 
L 211.162314 120.866087 
L 212.269091 120.295166 
L 213.375868 120.246886 
L 220.016529 109.380577 
L 222.230083 112.992008 
L 224.443636 109.38599 
L 225.550413 111.18753 
L 232.191074 100.401052 
L 238.831736 111.151697 
L 247.68595 96.901839 
L 248.792727 98.67965 
L 259.860496 80.890105 
L 262.07405 84.458425 
L 265.39438 79.099346 
L 266.501157 80.888287 
L 272.035041 71.922856 
L 273.141818 73.720609 
L 279.782479 62.897062 
L 280.889256 64.708456 
L 286.42314 55.61721 
L 289.743471 61.103065 
L 293.063802 55.592291 
L 294.170579 55.126957 
L 298.597686 62.529148 
L 299.704463 61.033418 
L 300.81124 60.543313 
L 301.918017 58.681198 
L 303.024793 60.545557 
L 305.238347 56.810874 
L 307.451901 60.554065 
L 308.558678 58.679551 
L 311.879008 64.314918 
L 314.092562 60.549625 
L 318.519669 68.099965 
L 320.733223 64.316172 
L 321.84 66.210302 
L 321.84 66.210302 
" clip-path="url(#p74856ea615)" style="fill: none; stroke: #1f77b4; stroke-width: 1.5; stroke-linecap: square"/>
   </g>
   <g id="patch_3">
    <path d="M 54 124.153043 
L 54 51.84 
" style="fill: none; stroke: #000000; stroke-width: 0.8; stroke-linejoin: miter; stroke-linecap: square"/>
   </g>
   <g id="patch_4">
    <path d="M 321.84 124.153043 
L 321.84 51.84 
" style="fill: none; stroke: #000000; stroke-width: 0.8; stroke-linejoin: miter; stroke-linecap: square"/>
   </g>
   <g id="patch_5">
    <path d="M 54 124.153043 
L 321.84 124.153043 
" style="fill: none; stroke: #000000; stroke-width: 0.8; stroke-linejoin: miter; stroke-linecap: square"/>
   </g>
   <g id="patch_6">
    <path d="M 54 51.84 
L 321.84 51.84 
" style="fill: none; stroke: #000000; stroke-width: 0.8; stroke-linejoin: miter; stroke-linecap: square"/>
   </g>
   <g id="legend_1">
    <g id="patch_7">
     <path d="M 328.84 96.465111 
L 384.362949 96.465111 
Q 386.362949 96.465111 386.362949 94.465111 
L 386.362949 81.527933 
Q 386.362949 79.527933 384.362949 79.527933 
L 328.84 79.527933 
Q 326.84 79.527933 326.84 81.527933 
L 326.84 94.465111 
Q 326.84 96.465111 328.84 96.465111 
z
" style="fill: #ffffff; opacity: 0.8; stroke: #cccccc; stroke-linejoin: miter"/>
    </g>
    <g id="line2d_24">
     <path d="M 330.84 87.027933 
L 340.84 87.027933 
L 350.84 87.027933 
" style="fill: none; stroke: #1f77b4; stroke-width: 1.5; stroke-linecap: square"/>
    </g>
    <g id="text_3">
     <!-- INV1 -->
     <g transform="translate(358.84 90.527933)scale(0.1 -0.1)">
      <defs>
       <path id="CMR17-49" d="M 1261 3898 
C 1261 4185 1338 4185 1798 4185 
L 1798 4352 
C 1594 4339 1267 4339 1050 4339 
C 832 4339 506 4339 301 4352 
L 301 4185 
C 762 4185 838 4185 838 3898 
L 838 453 
C 838 166 762 166 301 166 
L 301 0 
C 506 12 832 12 1050 12 
C 1267 12 1594 12 1798 0 
L 1798 166 
C 1338 166 1261 166 1261 453 
L 1261 3898 
z
" transform="scale(0.015625)"/>
       <path id="CMR17-4e" d="M 1312 4275 
C 1267 4345 1261 4352 1139 4352 
L 326 4352 
L 326 4185 
L 448 4185 
C 704 4185 819 4153 838 4147 
L 838 624 
C 838 465 838 166 326 166 
L 326 0 
C 474 12 742 12 902 12 
C 1062 12 1331 12 1478 0 
L 1478 166 
C 966 166 966 465 966 624 
L 966 4057 
C 1011 4019 1011 4007 1056 3943 
L 3430 76 
C 3475 0 3494 0 3526 0 
C 3590 0 3590 19 3590 140 
L 3590 3726 
C 3590 3885 3590 4185 4102 4185 
L 4102 4352 
C 3955 4339 3686 4339 3526 4339 
C 3366 4339 3098 4339 2950 4352 
L 2950 4185 
C 3462 4185 3462 3885 3462 3726 
L 3462 777 
L 1312 4275 
z
" transform="scale(0.015625)"/>
       <path id="CMR17-56" d="M 3776 3762 
C 3834 3903 3936 4179 4365 4185 
L 4365 4352 
C 4218 4339 4051 4339 3891 4339 
C 3738 4339 3475 4339 3328 4352 
L 3328 4185 
C 3648 4166 3661 3942 3661 3903 
C 3661 3833 3642 3788 3622 3737 
L 2362 448 
L 1043 3903 
C 1024 3948 1011 3980 1011 4012 
C 1011 4185 1267 4185 1402 4185 
L 1402 4352 
C 1197 4339 896 4339 685 4339 
C 518 4339 218 4339 64 4352 
L 64 4185 
C 435 4185 506 4160 582 3955 
L 2106 -26 
C 2138 -116 2144 -128 2214 -128 
C 2285 -128 2291 -116 2323 -26 
L 3776 3762 
z
" transform="scale(0.015625)"/>
      </defs>
      <use xlink:href="#CMR17-49" transform="scale(0.996264)"/>
      <use xlink:href="#CMR17-4e" transform="translate(32.638409 0)scale(0.996264)"/>
      <use xlink:href="#CMR17-56" transform="translate(101.710839 0)scale(0.996264)"/>
      <use xlink:href="#CMR17-31" transform="translate(170.783269 0)scale(0.996264)"/>
     </g>
    </g>
   </g>
  </g>
  <g id="axes_2">
   <g id="patch_8">
    <path d="M 54 210.928696 
L 321.84 210.928696 
L 321.84 138.615652 
L 54 138.615652 
z
" style="fill: #ffffff"/>
   </g>
   <g id="matplotlib.axis_3">
    <g id="xtick_21">
     <g id="line2d_25">
      <g>
       <use xlink:href="#m9852d62f88" x="100.484628" y="210.928696" style="stroke: #000000; stroke-width: 0.8"/>
      </g>
     </g>
    </g>
    <g id="xtick_22">
     <g id="line2d_26">
      <g>
       <use xlink:href="#m9852d62f88" x="166.89124" y="210.928696" style="stroke: #000000; stroke-width: 0.8"/>
      </g>
     </g>
    </g>
    <g id="xtick_23">
     <g id="line2d_27">
      <g>
       <use xlink:href="#m9852d62f88" x="233.297851" y="210.928696" style="stroke: #000000; stroke-width: 0.8"/>
      </g>
     </g>
    </g>
    <g id="xtick_24">
     <g id="line2d_28">
      <g>
       <use xlink:href="#m9852d62f88" x="299.704463" y="210.928696" style="stroke: #000000; stroke-width: 0.8"/>
      </g>
     </g>
    </g>
    <g id="xtick_25">
     <g id="line2d_29">
      <g>
       <use xlink:href="#m54207f2715" x="60.640661" y="210.928696" style="stroke: #000000; stroke-width: 0.6"/>
      </g>
     </g>
    </g>
    <g id="xtick_26">
     <g id="line2d_30">
      <g>
       <use xlink:href="#m54207f2715" x="73.921983" y="210.928696" style="stroke: #000000; stroke-width: 0.6"/>
      </g>
     </g>
    </g>
    <g id="xtick_27">
     <g id="line2d_31">
      <g>
       <use xlink:href="#m54207f2715" x="87.203306" y="210.928696" style="stroke: #000000; stroke-width: 0.6"/>
      </g>
     </g>
    </g>
    <g id="xtick_28">
     <g id="line2d_32">
      <g>
       <use xlink:href="#m54207f2715" x="113.76595" y="210.928696" style="stroke: #000000; stroke-width: 0.6"/>
      </g>
     </g>
    </g>
    <g id="xtick_29">
     <g id="line2d_33">
      <g>
       <use xlink:href="#m54207f2715" x="127.047273" y="210.928696" style="stroke: #000000; stroke-width: 0.6"/>
      </g>
     </g>
    </g>
    <g id="xtick_30">
     <g id="line2d_34">
      <g>
       <use xlink:href="#m54207f2715" x="140.328595" y="210.928696" style="stroke: #000000; stroke-width: 0.6"/>
      </g>
     </g>
    </g>
    <g id="xtick_31">
     <g id="line2d_35">
      <g>
       <use xlink:href="#m54207f2715" x="153.609917" y="210.928696" style="stroke: #000000; stroke-width: 0.6"/>
      </g>
     </g>
    </g>
    <g id="xtick_32">
     <g id="line2d_36">
      <g>
       <use xlink:href="#m54207f2715" x="180.172562" y="210.928696" style="stroke: #000000; stroke-width: 0.6"/>
      </g>
     </g>
    </g>
    <g id="xtick_33">
     <g id="line2d_37">
      <g>
       <use xlink:href="#m54207f2715" x="193.453884" y="210.928696" style="stroke: #000000; stroke-width: 0.6"/>
      </g>
     </g>
    </g>
    <g id="xtick_34">
     <g id="line2d_38">
      <g>
       <use xlink:href="#m54207f2715" x="206.735207" y="210.928696" style="stroke: #000000; stroke-width: 0.6"/>
      </g>
     </g>
    </g>
    <g id="xtick_35">
     <g id="line2d_39">
      <g>
       <use xlink:href="#m54207f2715" x="220.016529" y="210.928696" style="stroke: #000000; stroke-width: 0.6"/>
      </g>
     </g>
    </g>
    <g id="xtick_36">
     <g id="line2d_40">
      <g>
       <use xlink:href="#m54207f2715" x="246.579174" y="210.928696" style="stroke: #000000; stroke-width: 0.6"/>
      </g>
     </g>
    </g>
    <g id="xtick_37">
     <g id="line2d_41">
      <g>
       <use xlink:href="#m54207f2715" x="259.860496" y="210.928696" style="stroke: #000000; stroke-width: 0.6"/>
      </g>
     </g>
    </g>
    <g id="xtick_38">
     <g id="line2d_42">
      <g>
       <use xlink:href="#m54207f2715" x="273.141818" y="210.928696" style="stroke: #000000; stroke-width: 0.6"/>
      </g>
     </g>
    </g>
    <g id="xtick_39">
     <g id="line2d_43">
      <g>
       <use xlink:href="#m54207f2715" x="286.42314" y="210.928696" style="stroke: #000000; stroke-width: 0.6"/>
      </g>
     </g>
    </g>
    <g id="xtick_40">
     <g id="line2d_44">
      <g>
       <use xlink:href="#m54207f2715" x="312.985785" y="210.928696" style="stroke: #000000; stroke-width: 0.6"/>
      </g>
     </g>
    </g>
   </g>
   <g id="matplotlib.axis_4">
    <g id="ytick_3">
     <g id="line2d_45">
      <g>
       <use xlink:href="#mf41ad4f592" x="54" y="207.641739" style="stroke: #000000; stroke-width: 0.8"/>
      </g>
     </g>
     <g id="text_4">
      <!-- $\mathdefault{0.0000}$ -->
      <g transform="translate(19.325915 211.100988)scale(0.1 -0.1)">
       <use xlink:href="#CMR17-30" transform="scale(0.996264)"/>
       <use xlink:href="#CMMI12-3a" transform="translate(45.690477 0)scale(0.996264)"/>
       <use xlink:href="#CMR17-30" transform="translate(72.787654 0)scale(0.996264)"/>
       <use xlink:href="#CMR17-30" transform="translate(118.478131 0)scale(0.996264)"/>
       <use xlink:href="#CMR17-30" transform="translate(164.168608 0)scale(0.996264)"/>
       <use xlink:href="#CMR17-30" transform="translate(209.859086 0)scale(0.996264)"/>
      </g>
     </g>
    </g>
    <g id="ytick_4">
     <g id="line2d_46">
      <g>
       <use xlink:href="#mf41ad4f592" x="54" y="179.265703" style="stroke: #000000; stroke-width: 0.8"/>
      </g>
     </g>
     <g id="text_5">
      <!-- $\mathdefault{0.0025}$ -->
      <g transform="translate(19.325915 182.724952)scale(0.1 -0.1)">
       <defs>
        <path id="CMR17-32" d="M 2669 990 
L 2554 990 
C 2490 537 2438 460 2413 422 
C 2381 371 1920 371 1830 371 
L 602 371 
C 832 620 1280 1073 1824 1596 
C 2214 1966 2669 2400 2669 3033 
C 2669 3788 2067 4224 1395 4224 
C 691 4224 262 3603 262 3027 
C 262 2777 448 2745 525 2745 
C 589 2745 781 2783 781 3007 
C 781 3206 614 3264 525 3264 
C 486 3264 448 3257 422 3244 
C 544 3788 915 4057 1306 4057 
C 1862 4057 2227 3616 2227 3033 
C 2227 2477 1901 1998 1536 1583 
L 262 147 
L 262 0 
L 2515 0 
L 2669 990 
z
" transform="scale(0.015625)"/>
       </defs>
       <use xlink:href="#CMR17-30" transform="scale(0.996264)"/>
       <use xlink:href="#CMMI12-3a" transform="translate(45.690477 0)scale(0.996264)"/>
       <use xlink:href="#CMR17-30" transform="translate(72.787654 0)scale(0.996264)"/>
       <use xlink:href="#CMR17-30" transform="translate(118.478131 0)scale(0.996264)"/>
       <use xlink:href="#CMR17-32" transform="translate(164.168608 0)scale(0.996264)"/>
       <use xlink:href="#CMR17-35" transform="translate(209.859086 0)scale(0.996264)"/>
      </g>
     </g>
    </g>
    <g id="ytick_5">
     <g id="line2d_47">
      <g>
       <use xlink:href="#mf41ad4f592" x="54" y="150.889667" style="stroke: #000000; stroke-width: 0.8"/>
      </g>
     </g>
     <g id="text_6">
      <!-- $\mathdefault{0.0050}$ -->
      <g transform="translate(19.325915 154.348916)scale(0.1 -0.1)">
       <use xlink:href="#CMR17-30" transform="scale(0.996264)"/>
       <use xlink:href="#CMMI12-3a" transform="translate(45.690477 0)scale(0.996264)"/>
       <use xlink:href="#CMR17-30" transform="translate(72.787654 0)scale(0.996264)"/>
       <use xlink:href="#CMR17-30" transform="translate(118.478131 0)scale(0.996264)"/>
       <use xlink:href="#CMR17-35" transform="translate(164.168608 0)scale(0.996264)"/>
       <use xlink:href="#CMR17-30" transform="translate(209.859086 0)scale(0.996264)"/>
      </g>
     </g>
    </g>
   </g>
   <g id="line2d_48">
    <path d="M 54 203.79173 
L 55.106777 207.641739 
L 56.213554 207.31718 
L 57.320331 198.457585 
L 58.427107 193.057184 
L 59.533884 207.641739 
L 60.640661 207.641739 
L 61.747438 193.709323 
L 62.854215 184.039759 
L 63.960992 204.639389 
L 65.067769 187.995508 
L 66.174545 207.641739 
L 69.494876 207.641739 
L 70.601653 205.711582 
L 71.70843 207.641739 
L 76.135537 207.641739 
L 77.242314 185.842328 
L 78.349091 179.896083 
L 79.455868 163.480162 
L 80.562645 185.515841 
L 81.669421 184.06455 
L 82.776198 206.265868 
L 83.882975 200.698008 
L 84.989752 203.637353 
L 86.096529 203.913675 
L 87.203306 203.650871 
L 88.310083 207.641739 
L 89.41686 207.641739 
L 90.523636 202.149356 
L 91.630413 206.769651 
L 92.73719 198.038632 
L 93.843967 198.714965 
L 96.057521 199.326399 
L 97.164298 206.305987 
L 98.271074 205.95102 
L 99.377851 205.937529 
L 101.591405 170.941644 
L 102.698182 167.555632 
L 103.804959 181.363646 
L 104.911736 199.46762 
L 106.018512 202.747853 
L 107.125289 207.641739 
L 108.232066 183.981194 
L 109.338843 186.198845 
L 110.44562 207.641739 
L 112.659174 207.641739 
L 113.76595 183.772067 
L 114.872727 207.176154 
L 115.979504 207.641739 
L 117.086281 207.641739 
L 118.193058 188.322133 
L 119.299835 196.497202 
L 120.406612 199.815378 
L 121.513388 198.367414 
L 122.620165 197.625431 
L 123.726942 195.646295 
L 124.833719 207.641739 
L 125.940496 207.641739 
L 127.047273 205.815518 
L 128.15405 198.89223 
L 129.260826 195.830327 
L 130.367603 206.927274 
L 131.47438 207.641739 
L 132.581157 207.641739 
L 133.687934 207.372366 
L 134.794711 200.396965 
L 135.901488 207.641739 
L 137.008264 207.641739 
L 138.115041 182.931214 
L 139.221818 207.279061 
L 140.328595 207.284855 
L 141.435372 188.585334 
L 142.542149 207.155796 
L 143.648926 204.266625 
L 144.755702 198.420304 
L 145.862479 189.195777 
L 146.969256 207.641739 
L 153.609917 207.641739 
L 154.716694 184.431404 
L 155.823471 175.158592 
L 156.930248 200.49429 
L 158.037025 207.033631 
L 159.143802 207.238489 
L 160.250579 207.641739 
L 161.357355 184.580341 
L 162.464132 182.635748 
L 163.570909 207.641691 
L 164.677686 207.641739 
L 165.784463 189.432881 
L 166.89124 207.641739 
L 167.998017 207.641739 
L 169.104793 205.270548 
L 170.21157 193.024974 
L 172.425124 141.902609 
L 173.531901 167.475706 
L 174.638678 174.684981 
L 175.745455 187.481369 
L 176.852231 165.149799 
L 177.959008 180.509678 
L 179.065785 206.043645 
L 180.172562 207.641739 
L 181.279339 205.0871 
L 182.386116 205.996715 
L 183.492893 180.540946 
L 184.599669 205.982738 
L 185.706446 180.558224 
L 186.813223 179.968888 
L 187.92 178.611852 
L 189.026777 190.763544 
L 190.133554 207.641739 
L 191.240331 182.342345 
L 192.347107 204.102683 
L 193.453884 201.810793 
L 194.560661 207.641739 
L 195.667438 207.641739 
L 196.774215 193.587075 
L 197.880992 197.685136 
L 198.987769 198.183495 
L 200.094545 206.996551 
L 201.201322 207.483179 
L 202.308099 207.641739 
L 204.521653 207.641739 
L 205.62843 193.467425 
L 206.735207 207.433232 
L 207.841983 207.641739 
L 208.94876 207.641739 
L 210.055537 203.059185 
L 211.162314 207.641739 
L 212.269091 207.344444 
L 213.375868 206.646594 
L 214.482645 202.977937 
L 215.589421 200.893325 
L 216.696198 199.066646 
L 217.802975 191.585443 
L 218.909752 203.322649 
L 220.016529 178.950054 
L 221.123306 178.116651 
L 222.230083 173.741897 
L 223.33686 179.556427 
L 224.443636 190.135151 
L 225.550413 206.025775 
L 226.65719 200.800118 
L 228.870744 201.242769 
L 229.977521 200.179164 
L 231.084298 200.881956 
L 232.191074 201.366251 
L 233.297851 207.641739 
L 234.404628 202.660787 
L 235.511405 201.833478 
L 236.618182 207.641739 
L 241.045289 207.641739 
L 242.152066 198.086852 
L 243.258843 201.558496 
L 244.36562 207.641739 
L 245.472397 199.207557 
L 246.579174 199.062058 
L 247.68595 196.93191 
L 248.792727 207.641739 
L 249.899504 196.932905 
L 251.006281 176.65711 
L 252.113058 167.816511 
L 253.219835 150.82965 
L 254.326612 151.037981 
L 255.433388 145.417266 
L 256.540165 164.699221 
L 257.646942 162.269716 
L 258.753719 169.007142 
L 259.860496 161.161353 
L 262.07405 207.25176 
L 263.180826 183.179734 
L 265.39438 153.972831 
L 266.501157 174.822263 
L 267.607934 164.809983 
L 268.714711 188.968707 
L 269.821488 207.641739 
L 270.928264 207.641739 
L 272.035041 206.278919 
L 273.141818 207.27807 
L 275.355372 195.96482 
L 276.462149 207.641739 
L 278.675702 207.641739 
L 279.782479 183.248898 
L 280.889256 207.641739 
L 281.996033 207.347207 
L 283.10281 207.641739 
L 285.316364 207.641739 
L 286.42314 200.806255 
L 287.529917 207.641739 
L 288.636694 182.985094 
L 290.850248 207.641739 
L 291.957025 207.641739 
L 293.063802 198.089483 
L 294.170579 207.641739 
L 295.277355 182.751107 
L 296.384132 207.641739 
L 297.490909 207.44096 
L 298.597686 201.140431 
L 299.704463 202.466916 
L 300.81124 201.421163 
L 301.918017 207.641739 
L 308.558678 207.641739 
L 309.665455 205.856361 
L 310.772231 206.404915 
L 311.879008 206.362368 
L 312.985785 207.641739 
L 315.199339 207.641739 
L 316.306116 182.199921 
L 317.412893 183.598073 
L 318.519669 183.770612 
L 319.626446 198.148446 
L 320.733223 175.246707 
L 321.84 193.757968 
L 321.84 193.757968 
" clip-path="url(#p4b3abfe85d)" style="fill: none; stroke: #ff7f0e; stroke-width: 1.5; stroke-linecap: square"/>
   </g>
   <g id="patch_9">
    <path d="M 54 210.928696 
L 54 138.615652 
" style="fill: none; stroke: #000000; stroke-width: 0.8; stroke-linejoin: miter; stroke-linecap: square"/>
   </g>
   <g id="patch_10">
    <path d="M 321.84 210.928696 
L 321.84 138.615652 
" style="fill: none; stroke: #000000; stroke-width: 0.8; stroke-linejoin: miter; stroke-linecap: square"/>
   </g>
   <g id="patch_11">
    <path d="M 54 210.928696 
L 321.84 210.928696 
" style="fill: none; stroke: #000000; stroke-width: 0.8; stroke-linejoin: miter; stroke-linecap: square"/>
   </g>
   <g id="patch_12">
    <path d="M 54 138.615652 
L 321.84 138.615652 
" style="fill: none; stroke: #000000; stroke-width: 0.8; stroke-linejoin: miter; stroke-linecap: square"/>
   </g>
   <g id="legend_2">
    <g id="patch_13">
     <path d="M 328.84 183.240763 
L 384.362949 183.240763 
Q 386.362949 183.240763 386.362949 181.240763 
L 386.362949 168.303585 
Q 386.362949 166.303585 384.362949 166.303585 
L 328.84 166.303585 
Q 326.84 166.303585 326.84 168.303585 
L 326.84 181.240763 
Q 326.84 183.240763 328.84 183.240763 
z
" style="fill: #ffffff; opacity: 0.8; stroke: #cccccc; stroke-linejoin: miter"/>
    </g>
    <g id="line2d_49">
     <path d="M 330.84 173.803585 
L 340.84 173.803585 
L 350.84 173.803585 
" style="fill: none; stroke: #ff7f0e; stroke-width: 1.5; stroke-linecap: square"/>
    </g>
    <g id="text_7">
     <!-- INV3 -->
     <g transform="translate(358.84 177.303585)scale(0.1 -0.1)">
      <defs>
       <path id="CMR17-33" d="M 1414 2176 
C 1984 2176 2234 1673 2234 1094 
C 2234 322 1824 25 1453 25 
C 1114 25 563 193 390 691 
C 422 678 454 678 486 678 
C 640 678 755 780 755 947 
C 755 1132 614 1216 486 1216 
C 378 1216 211 1164 211 927 
C 211 335 787 -128 1466 -128 
C 2176 -128 2720 432 2720 1087 
C 2720 1718 2208 2176 1600 2246 
C 2086 2347 2554 2776 2554 3353 
C 2554 3856 2048 4224 1472 4224 
C 890 4224 378 3862 378 3347 
C 378 3123 544 3084 627 3084 
C 762 3084 877 3167 877 3334 
C 877 3500 762 3584 627 3584 
C 602 3584 570 3584 544 3571 
C 730 3999 1235 4076 1459 4076 
C 1683 4076 2106 3966 2106 3347 
C 2106 3167 2080 2851 1862 2574 
C 1670 2329 1453 2316 1242 2297 
C 1210 2297 1062 2284 1037 2284 
C 992 2278 966 2272 966 2227 
C 966 2182 973 2176 1101 2176 
L 1414 2176 
z
" transform="scale(0.015625)"/>
      </defs>
      <use xlink:href="#CMR17-49" transform="scale(0.996264)"/>
      <use xlink:href="#CMR17-4e" transform="translate(32.638409 0)scale(0.996264)"/>
      <use xlink:href="#CMR17-56" transform="translate(101.710839 0)scale(0.996264)"/>
      <use xlink:href="#CMR17-33" transform="translate(170.783269 0)scale(0.996264)"/>
     </g>
    </g>
   </g>
  </g>
  <g id="axes_3">
   <g id="patch_14">
    <path d="M 54 297.704348 
L 321.84 297.704348 
L 321.84 225.391304 
L 54 225.391304 
z
" style="fill: #ffffff"/>
   </g>
   <g id="matplotlib.axis_5">
    <g id="xtick_41">
     <g id="line2d_50">
      <g>
       <use xlink:href="#m9852d62f88" x="100.484628" y="297.704348" style="stroke: #000000; stroke-width: 0.8"/>
      </g>
     </g>
    </g>
    <g id="xtick_42">
     <g id="line2d_51">
      <g>
       <use xlink:href="#m9852d62f88" x="166.89124" y="297.704348" style="stroke: #000000; stroke-width: 0.8"/>
      </g>
     </g>
    </g>
    <g id="xtick_43">
     <g id="line2d_52">
      <g>
       <use xlink:href="#m9852d62f88" x="233.297851" y="297.704348" style="stroke: #000000; stroke-width: 0.8"/>
      </g>
     </g>
    </g>
    <g id="xtick_44">
     <g id="line2d_53">
      <g>
       <use xlink:href="#m9852d62f88" x="299.704463" y="297.704348" style="stroke: #000000; stroke-width: 0.8"/>
      </g>
     </g>
    </g>
    <g id="xtick_45">
     <g id="line2d_54">
      <g>
       <use xlink:href="#m54207f2715" x="60.640661" y="297.704348" style="stroke: #000000; stroke-width: 0.6"/>
      </g>
     </g>
    </g>
    <g id="xtick_46">
     <g id="line2d_55">
      <g>
       <use xlink:href="#m54207f2715" x="73.921983" y="297.704348" style="stroke: #000000; stroke-width: 0.6"/>
      </g>
     </g>
    </g>
    <g id="xtick_47">
     <g id="line2d_56">
      <g>
       <use xlink:href="#m54207f2715" x="87.203306" y="297.704348" style="stroke: #000000; stroke-width: 0.6"/>
      </g>
     </g>
    </g>
    <g id="xtick_48">
     <g id="line2d_57">
      <g>
       <use xlink:href="#m54207f2715" x="113.76595" y="297.704348" style="stroke: #000000; stroke-width: 0.6"/>
      </g>
     </g>
    </g>
    <g id="xtick_49">
     <g id="line2d_58">
      <g>
       <use xlink:href="#m54207f2715" x="127.047273" y="297.704348" style="stroke: #000000; stroke-width: 0.6"/>
      </g>
     </g>
    </g>
    <g id="xtick_50">
     <g id="line2d_59">
      <g>
       <use xlink:href="#m54207f2715" x="140.328595" y="297.704348" style="stroke: #000000; stroke-width: 0.6"/>
      </g>
     </g>
    </g>
    <g id="xtick_51">
     <g id="line2d_60">
      <g>
       <use xlink:href="#m54207f2715" x="153.609917" y="297.704348" style="stroke: #000000; stroke-width: 0.6"/>
      </g>
     </g>
    </g>
    <g id="xtick_52">
     <g id="line2d_61">
      <g>
       <use xlink:href="#m54207f2715" x="180.172562" y="297.704348" style="stroke: #000000; stroke-width: 0.6"/>
      </g>
     </g>
    </g>
    <g id="xtick_53">
     <g id="line2d_62">
      <g>
       <use xlink:href="#m54207f2715" x="193.453884" y="297.704348" style="stroke: #000000; stroke-width: 0.6"/>
      </g>
     </g>
    </g>
    <g id="xtick_54">
     <g id="line2d_63">
      <g>
       <use xlink:href="#m54207f2715" x="206.735207" y="297.704348" style="stroke: #000000; stroke-width: 0.6"/>
      </g>
     </g>
    </g>
    <g id="xtick_55">
     <g id="line2d_64">
      <g>
       <use xlink:href="#m54207f2715" x="220.016529" y="297.704348" style="stroke: #000000; stroke-width: 0.6"/>
      </g>
     </g>
    </g>
    <g id="xtick_56">
     <g id="line2d_65">
      <g>
       <use xlink:href="#m54207f2715" x="246.579174" y="297.704348" style="stroke: #000000; stroke-width: 0.6"/>
      </g>
     </g>
    </g>
    <g id="xtick_57">
     <g id="line2d_66">
      <g>
       <use xlink:href="#m54207f2715" x="259.860496" y="297.704348" style="stroke: #000000; stroke-width: 0.6"/>
      </g>
     </g>
    </g>
    <g id="xtick_58">
     <g id="line2d_67">
      <g>
       <use xlink:href="#m54207f2715" x="273.141818" y="297.704348" style="stroke: #000000; stroke-width: 0.6"/>
      </g>
     </g>
    </g>
    <g id="xtick_59">
     <g id="line2d_68">
      <g>
       <use xlink:href="#m54207f2715" x="286.42314" y="297.704348" style="stroke: #000000; stroke-width: 0.6"/>
      </g>
     </g>
    </g>
    <g id="xtick_60">
     <g id="line2d_69">
      <g>
       <use xlink:href="#m54207f2715" x="312.985785" y="297.704348" style="stroke: #000000; stroke-width: 0.6"/>
      </g>
     </g>
    </g>
   </g>
   <g id="matplotlib.axis_6">
    <g id="ytick_6">
     <g id="line2d_70">
      <g>
       <use xlink:href="#mf41ad4f592" x="54" y="294.417391" style="stroke: #000000; stroke-width: 0.8"/>
      </g>
     </g>
     <g id="text_8">
      <!-- $\mathdefault{0.00}$ -->
      <g transform="translate(29.288586 297.87664)scale(0.1 -0.1)">
       <use xlink:href="#CMR17-30" transform="scale(0.996264)"/>
       <use xlink:href="#CMMI12-3a" transform="translate(45.690477 0)scale(0.996264)"/>
       <use xlink:href="#CMR17-30" transform="translate(72.787654 0)scale(0.996264)"/>
       <use xlink:href="#CMR17-30" transform="translate(118.478131 0)scale(0.996264)"/>
      </g>
     </g>
    </g>
    <g id="ytick_7">
     <g id="line2d_71">
      <g>
       <use xlink:href="#mf41ad4f592" x="54" y="254.457541" style="stroke: #000000; stroke-width: 0.8"/>
      </g>
     </g>
     <g id="text_9">
      <!-- $\mathdefault{0.01}$ -->
      <g transform="translate(29.288586 257.91679)scale(0.1 -0.1)">
       <use xlink:href="#CMR17-30" transform="scale(0.996264)"/>
       <use xlink:href="#CMMI12-3a" transform="translate(45.690477 0)scale(0.996264)"/>
       <use xlink:href="#CMR17-30" transform="translate(72.787654 0)scale(0.996264)"/>
       <use xlink:href="#CMR17-31" transform="translate(118.478131 0)scale(0.996264)"/>
      </g>
     </g>
    </g>
   </g>
   <g id="line2d_72">
    <path d="M 54 293.469626 
L 55.106777 292.950528 
L 56.213554 294.345824 
L 59.533884 274.185512 
L 60.640661 281.157888 
L 61.747438 274.162795 
L 62.854215 274.612985 
L 65.067769 289.163645 
L 66.174545 281.818597 
L 67.281322 279.704257 
L 69.494876 294.417391 
L 70.601653 286.881778 
L 71.70843 294.417391 
L 72.815207 294.417391 
L 73.921983 287.351972 
L 76.135537 286.902475 
L 77.242314 294.417391 
L 78.349091 294.417391 
L 79.455868 288.763604 
L 80.562645 291.848478 
L 81.669421 291.748759 
L 82.776198 290.818626 
L 83.882975 290.065383 
L 84.989752 292.24565 
L 86.096529 292.20494 
L 87.203306 294.417391 
L 88.310083 294.417391 
L 89.41686 287.897109 
L 90.523636 279.833289 
L 91.630413 284.750969 
L 92.73719 276.614339 
L 93.843967 284.782508 
L 94.950744 291.103574 
L 96.057521 282.931034 
L 97.164298 291.151398 
L 98.271074 294.417391 
L 99.377851 294.417391 
L 100.484628 286.153602 
L 101.591405 293.832602 
L 102.698182 293.406231 
L 103.804959 294.417391 
L 106.018512 294.299465 
L 107.125289 294.417391 
L 109.338843 277.745444 
L 110.44562 285.473707 
L 112.659174 285.041108 
L 113.76595 282.088819 
L 114.872727 290.509811 
L 115.979504 282.830212 
L 117.086281 276.14184 
L 118.193058 276.164837 
L 119.299835 279.578039 
L 120.406612 288.064082 
L 121.513388 294.198465 
L 122.620165 294.221056 
L 123.726942 285.711381 
L 124.833719 289.254459 
L 125.940496 288.99947 
L 127.047273 287.212287 
L 128.15405 284.345918 
L 129.260826 282.127427 
L 130.367603 280.823384 
L 131.47438 272.243736 
L 132.581157 264.994131 
L 133.687934 273.615776 
L 134.794711 274.884352 
L 135.901488 283.543631 
L 137.008264 274.865882 
L 138.115041 271.251565 
L 140.328595 288.721455 
L 141.435372 293.090624 
L 142.542149 294.200778 
L 143.648926 294.417391 
L 144.755702 293.830071 
L 149.18281 258.500916 
L 150.289587 252.77548 
L 151.396364 261.649269 
L 152.50314 260.999915 
L 153.609917 252.112943 
L 154.716694 261.008765 
L 155.823471 252.102819 
L 158.037025 269.286834 
L 159.143802 278.220304 
L 160.250579 269.284923 
L 161.357355 276.160696 
L 162.464132 285.107466 
L 164.677686 273.335323 
L 165.784463 264.37091 
L 166.89124 266.015601 
L 167.998017 274.998173 
L 170.21157 257.019134 
L 172.425124 275.017084 
L 173.531901 281.598186 
L 174.638678 285.335347 
L 175.745455 285.290532 
L 176.852231 294.290909 
L 177.959008 294.417391 
L 179.065785 294.417391 
L 182.386116 267.495048 
L 184.599669 284.625745 
L 185.706446 282.565637 
L 186.813223 280.902189 
L 187.92 289.840779 
L 189.026777 294.417391 
L 190.133554 287.008555 
L 191.240331 294.417391 
L 192.347107 294.417391 
L 193.453884 286.980913 
L 194.560661 288.454998 
L 195.667438 287.884285 
L 196.774215 293.956801 
L 197.880992 294.417391 
L 198.987769 294.417391 
L 200.094545 291.771676 
L 201.201322 286.192844 
L 202.308099 291.714882 
L 203.414876 282.96708 
L 204.521653 286.427484 
L 205.62843 293.216147 
L 206.735207 284.50804 
L 207.841983 280.073473 
L 208.94876 280.380596 
L 215.589421 228.678261 
L 218.909752 254.458934 
L 220.016529 260.707976 
L 221.123306 262.289102 
L 222.230083 262.104809 
L 223.33686 253.543016 
L 224.443636 249.802652 
L 225.550413 258.354817 
L 226.65719 261.635709 
L 227.763967 259.041981 
L 228.870744 256.744988 
L 233.297851 290.851369 
L 234.404628 293.637963 
L 235.511405 290.169092 
L 236.618182 294.417391 
L 238.831736 294.352137 
L 239.938512 285.874436 
L 241.045289 294.344503 
L 243.258843 294.417391 
L 244.36562 294.417391 
L 245.472397 285.971616 
L 246.579174 290.294449 
L 248.792727 273.414588 
L 251.006281 290.290517 
L 252.113058 294.417391 
L 253.219835 285.979408 
L 254.326612 294.417391 
L 255.433388 294.417391 
L 256.540165 291.397079 
L 257.646942 291.259682 
L 258.753719 282.804279 
L 259.860496 291.265641 
L 260.967273 294.248791 
L 262.07405 293.833348 
L 263.180826 285.358639 
L 264.287603 287.078598 
L 265.39438 294.417391 
L 266.501157 288.810083 
L 267.607934 280.312138 
L 268.714711 284.447012 
L 269.821488 287.622628 
L 272.035041 287.108013 
L 273.141818 294.259353 
L 274.248595 285.718522 
L 275.355372 279.287229 
L 276.462149 286.023899 
L 277.568926 287.415143 
L 278.675702 287.238106 
L 279.782479 291.006682 
L 280.889256 282.407736 
L 281.996033 285.064426 
L 283.10281 293.684742 
L 284.209587 294.417391 
L 285.316364 294.417391 
L 289.743471 259.72102 
L 290.850248 266.146805 
L 291.957025 265.742986 
L 293.063802 257.009654 
L 294.170579 255.873441 
L 296.384132 238.332385 
L 303.024793 291.005139 
L 305.238347 293.312933 
L 306.345124 284.433277 
L 307.451901 293.322788 
L 308.558678 284.424202 
L 309.665455 288.775617 
L 310.772231 289.677057 
L 311.879008 289.675454 
L 312.985785 292.207518 
L 314.092562 294.417391 
L 315.199339 294.417391 
L 316.306116 292.156962 
L 317.412893 291.739305 
L 318.519669 290.806059 
L 319.626446 294.417391 
L 320.733223 294.417391 
L 321.84 294.28962 
L 321.84 294.28962 
" clip-path="url(#pd11e515224)" style="fill: none; stroke: #2ca02c; stroke-width: 1.5; stroke-linecap: square"/>
   </g>
   <g id="patch_15">
    <path d="M 54 297.704348 
L 54 225.391304 
" style="fill: none; stroke: #000000; stroke-width: 0.8; stroke-linejoin: miter; stroke-linecap: square"/>
   </g>
   <g id="patch_16">
    <path d="M 321.84 297.704348 
L 321.84 225.391304 
" style="fill: none; stroke: #000000; stroke-width: 0.8; stroke-linejoin: miter; stroke-linecap: square"/>
   </g>
   <g id="patch_17">
    <path d="M 54 297.704348 
L 321.84 297.704348 
" style="fill: none; stroke: #000000; stroke-width: 0.8; stroke-linejoin: miter; stroke-linecap: square"/>
   </g>
   <g id="patch_18">
    <path d="M 54 225.391304 
L 321.84 225.391304 
" style="fill: none; stroke: #000000; stroke-width: 0.8; stroke-linejoin: miter; stroke-linecap: square"/>
   </g>
   <g id="legend_3">
    <g id="patch_19">
     <path d="M 328.84 270.016415 
L 387.407091 270.016415 
Q 389.407091 270.016415 389.407091 268.016415 
L 389.407091 255.079237 
Q 389.407091 253.079237 387.407091 253.079237 
L 328.84 253.079237 
Q 326.84 253.079237 326.84 255.079237 
L 326.84 268.016415 
Q 326.84 270.016415 328.84 270.016415 
z
" style="fill: #ffffff; opacity: 0.8; stroke: #cccccc; stroke-linejoin: miter"/>
    </g>
    <g id="line2d_73">
     <path d="M 330.84 260.579237 
L 340.84 260.579237 
L 350.84 260.579237 
" style="fill: none; stroke: #2ca02c; stroke-width: 1.5; stroke-linecap: square"/>
    </g>
    <g id="text_10">
     <!-- PRO6 -->
     <g transform="translate(358.84 264.079237)scale(0.1 -0.1)">
      <defs>
       <path id="CMR17-50" d="M 1267 2048 
L 2291 2048 
C 3117 2048 3718 2583 3718 3187 
C 3718 3791 3130 4352 2291 4352 
L 333 4352 
L 333 4185 
C 774 4185 845 4185 845 3899 
L 845 453 
C 845 166 774 166 333 166 
L 333 0 
C 518 12 858 12 1056 12 
C 1254 12 1594 12 1779 0 
L 1779 166 
C 1338 166 1267 166 1267 453 
L 1267 2048 
z
M 1254 2182 
L 1254 3937 
C 1254 4153 1267 4185 1523 4185 
L 2170 4185 
C 2995 4185 3232 3715 3232 3187 
C 3232 2608 2950 2182 2170 2182 
L 1254 2182 
z
" transform="scale(0.015625)"/>
       <path id="CMR17-52" d="M 2509 2156 
C 3117 2278 3629 2689 3629 3203 
C 3629 3806 2950 4352 2054 4352 
L 333 4352 
L 333 4185 
C 774 4185 845 4185 845 3896 
L 845 428 
C 845 140 774 140 333 140 
L 333 -26 
C 518 -13 851 -13 1050 -13 
C 1248 -13 1581 -13 1766 -26 
L 1766 140 
C 1325 140 1254 140 1254 428 
L 1254 2112 
L 2003 2112 
C 2368 2112 2573 1964 2662 1881 
C 2918 1632 2918 1459 2918 1024 
C 2918 595 2918 377 3110 160 
C 3354 -103 3680 -128 3821 -128 
C 4294 -128 4365 403 4365 512 
C 4365 550 4365 595 4307 595 
C 4256 595 4250 556 4250 531 
C 4218 115 4032 -26 3834 -26 
C 3482 -26 3443 377 3405 768 
C 3386 902 3373 998 3360 1139 
C 3322 1459 3270 1926 2509 2156 
z
M 1984 2214 
L 1254 2214 
L 1254 3935 
C 1254 4153 1267 4185 1523 4185 
L 1990 4185 
C 2522 4185 3142 3999 3142 3203 
C 3142 2374 2464 2214 1984 2214 
z
" transform="scale(0.015625)"/>
       <path id="CMR17-4f" d="M 4307 2166 
C 4307 3488 3366 4480 2304 4480 
C 1216 4480 294 3475 294 2166 
C 294 857 1229 -128 2298 -128 
C 3392 -128 4307 876 4307 2166 
z
M 2304 -13 
C 1574 -13 781 722 781 2250 
C 781 3771 1651 4364 2298 4364 
C 2976 4364 3821 3752 3821 2250 
C 3821 696 3008 -13 2304 -13 
z
" transform="scale(0.015625)"/>
       <path id="CMR17-36" d="M 678 2198 
C 678 3712 1395 4076 1811 4076 
C 1946 4076 2272 4049 2400 3782 
C 2298 3782 2106 3782 2106 3558 
C 2106 3385 2246 3328 2336 3328 
C 2394 3328 2566 3353 2566 3571 
C 2566 3987 2246 4224 1805 4224 
C 1043 4224 243 3411 243 2011 
C 243 257 966 -128 1478 -128 
C 2099 -128 2688 431 2688 1295 
C 2688 2101 2170 2688 1517 2688 
C 1126 2688 838 2430 678 1979 
L 678 2198 
z
M 1478 25 
C 691 25 691 1212 691 1450 
C 691 1914 909 2585 1504 2585 
C 1613 2585 1926 2585 2138 2140 
C 2253 1889 2253 1624 2253 1302 
C 2253 954 2253 696 2118 438 
C 1978 173 1773 25 1478 25 
z
" transform="scale(0.015625)"/>
      </defs>
      <use xlink:href="#CMR17-50" transform="scale(0.996264)"/>
      <use xlink:href="#CMR17-52" transform="translate(62.586301 0)scale(0.996264)"/>
      <use xlink:href="#CMR17-4f" transform="translate(127.774949 0)scale(0.996264)"/>
      <use xlink:href="#CMR17-36" transform="translate(199.489737 0)scale(0.996264)"/>
     </g>
    </g>
   </g>
  </g>
  <g id="axes_4">
   <g id="patch_20">
    <path d="M 54 384.48 
L 321.84 384.48 
L 321.84 312.166957 
L 54 312.166957 
z
" style="fill: #ffffff"/>
   </g>
   <g id="matplotlib.axis_7">
    <g id="xtick_61">
     <g id="line2d_74">
      <g>
       <use xlink:href="#m9852d62f88" x="100.484628" y="384.48" style="stroke: #000000; stroke-width: 0.8"/>
      </g>
     </g>
     <g id="text_11">
      <!-- 2004 -->
      <g transform="translate(90.521958 398.398498)scale(0.1 -0.1)">
       <defs>
        <path id="CMR17-34" d="M 2150 4147 
C 2150 4281 2144 4288 2029 4288 
L 128 1254 
L 128 1088 
L 1779 1088 
L 1779 460 
C 1779 230 1766 166 1318 166 
L 1197 166 
L 1197 0 
C 1402 12 1747 12 1965 12 
C 2182 12 2528 12 2733 0 
L 2733 166 
L 2611 166 
C 2163 166 2150 230 2150 460 
L 2150 1088 
L 2803 1088 
L 2803 1254 
L 2150 1254 
L 2150 4147 
z
M 1798 3723 
L 1798 1254 
L 256 1254 
L 1798 3723 
z
" transform="scale(0.015625)"/>
       </defs>
       <use xlink:href="#CMR17-32" transform="scale(0.996264)"/>
       <use xlink:href="#CMR17-30" transform="translate(45.690477 0)scale(0.996264)"/>
       <use xlink:href="#CMR17-30" transform="translate(91.380954 0)scale(0.996264)"/>
       <use xlink:href="#CMR17-34" transform="translate(137.071431 0)scale(0.996264)"/>
      </g>
     </g>
    </g>
    <g id="xtick_62">
     <g id="line2d_75">
      <g>
       <use xlink:href="#m9852d62f88" x="166.89124" y="384.48" style="stroke: #000000; stroke-width: 0.8"/>
      </g>
     </g>
     <g id="text_12">
      <!-- 2009 -->
      <g transform="translate(156.928569 398.398498)scale(0.1 -0.1)">
       <defs>
        <path id="CMR17-39" d="M 2253 1871 
C 2253 448 1670 25 1190 25 
C 1043 25 685 43 538 281 
C 704 256 826 345 826 505 
C 826 678 685 736 595 736 
C 538 736 365 710 365 492 
C 365 68 742 -128 1203 -128 
C 1939 -128 2688 665 2688 2090 
C 2688 3857 1971 4224 1485 4224 
C 851 4224 243 3664 243 2800 
C 243 2000 762 1408 1414 1408 
C 1952 1408 2189 1910 2253 2122 
L 2253 1871 
z
M 1427 1510 
C 1254 1510 1011 1542 813 1929 
C 678 2181 678 2477 678 2793 
C 678 3174 678 3438 858 3722 
C 947 3857 1114 4076 1485 4076 
C 2240 4076 2240 2909 2240 2651 
C 2240 2193 2035 1510 1427 1510 
z
" transform="scale(0.015625)"/>
       </defs>
       <use xlink:href="#CMR17-32" transform="scale(0.996264)"/>
       <use xlink:href="#CMR17-30" transform="translate(45.690477 0)scale(0.996264)"/>
       <use xlink:href="#CMR17-30" transform="translate(91.380954 0)scale(0.996264)"/>
       <use xlink:href="#CMR17-39" transform="translate(137.071431 0)scale(0.996264)"/>
      </g>
     </g>
    </g>
    <g id="xtick_63">
     <g id="line2d_76">
      <g>
       <use xlink:href="#m9852d62f88" x="233.297851" y="384.48" style="stroke: #000000; stroke-width: 0.8"/>
      </g>
     </g>
     <g id="text_13">
      <!-- 2014 -->
      <g transform="translate(223.335181 398.398498)scale(0.1 -0.1)">
       <use xlink:href="#CMR17-32" transform="scale(0.996264)"/>
       <use xlink:href="#CMR17-30" transform="translate(45.690477 0)scale(0.996264)"/>
       <use xlink:href="#CMR17-31" transform="translate(91.380954 0)scale(0.996264)"/>
       <use xlink:href="#CMR17-34" transform="translate(137.071431 0)scale(0.996264)"/>
      </g>
     </g>
    </g>
    <g id="xtick_64">
     <g id="line2d_77">
      <g>
       <use xlink:href="#m9852d62f88" x="299.704463" y="384.48" style="stroke: #000000; stroke-width: 0.8"/>
      </g>
     </g>
     <g id="text_14">
      <!-- 2019 -->
      <g transform="translate(289.741792 398.398498)scale(0.1 -0.1)">
       <use xlink:href="#CMR17-32" transform="scale(0.996264)"/>
       <use xlink:href="#CMR17-30" transform="translate(45.690477 0)scale(0.996264)"/>
       <use xlink:href="#CMR17-31" transform="translate(91.380954 0)scale(0.996264)"/>
       <use xlink:href="#CMR17-39" transform="translate(137.071431 0)scale(0.996264)"/>
      </g>
     </g>
    </g>
    <g id="xtick_65">
     <g id="line2d_78">
      <g>
       <use xlink:href="#m54207f2715" x="60.640661" y="384.48" style="stroke: #000000; stroke-width: 0.6"/>
      </g>
     </g>
    </g>
    <g id="xtick_66">
     <g id="line2d_79">
      <g>
       <use xlink:href="#m54207f2715" x="73.921983" y="384.48" style="stroke: #000000; stroke-width: 0.6"/>
      </g>
     </g>
    </g>
    <g id="xtick_67">
     <g id="line2d_80">
      <g>
       <use xlink:href="#m54207f2715" x="87.203306" y="384.48" style="stroke: #000000; stroke-width: 0.6"/>
      </g>
     </g>
    </g>
    <g id="xtick_68">
     <g id="line2d_81">
      <g>
       <use xlink:href="#m54207f2715" x="113.76595" y="384.48" style="stroke: #000000; stroke-width: 0.6"/>
      </g>
     </g>
    </g>
    <g id="xtick_69">
     <g id="line2d_82">
      <g>
       <use xlink:href="#m54207f2715" x="127.047273" y="384.48" style="stroke: #000000; stroke-width: 0.6"/>
      </g>
     </g>
    </g>
    <g id="xtick_70">
     <g id="line2d_83">
      <g>
       <use xlink:href="#m54207f2715" x="140.328595" y="384.48" style="stroke: #000000; stroke-width: 0.6"/>
      </g>
     </g>
    </g>
    <g id="xtick_71">
     <g id="line2d_84">
      <g>
       <use xlink:href="#m54207f2715" x="153.609917" y="384.48" style="stroke: #000000; stroke-width: 0.6"/>
      </g>
     </g>
    </g>
    <g id="xtick_72">
     <g id="line2d_85">
      <g>
       <use xlink:href="#m54207f2715" x="180.172562" y="384.48" style="stroke: #000000; stroke-width: 0.6"/>
      </g>
     </g>
    </g>
    <g id="xtick_73">
     <g id="line2d_86">
      <g>
       <use xlink:href="#m54207f2715" x="193.453884" y="384.48" style="stroke: #000000; stroke-width: 0.6"/>
      </g>
     </g>
    </g>
    <g id="xtick_74">
     <g id="line2d_87">
      <g>
       <use xlink:href="#m54207f2715" x="206.735207" y="384.48" style="stroke: #000000; stroke-width: 0.6"/>
      </g>
     </g>
    </g>
    <g id="xtick_75">
     <g id="line2d_88">
      <g>
       <use xlink:href="#m54207f2715" x="220.016529" y="384.48" style="stroke: #000000; stroke-width: 0.6"/>
      </g>
     </g>
    </g>
    <g id="xtick_76">
     <g id="line2d_89">
      <g>
       <use xlink:href="#m54207f2715" x="246.579174" y="384.48" style="stroke: #000000; stroke-width: 0.6"/>
      </g>
     </g>
    </g>
    <g id="xtick_77">
     <g id="line2d_90">
      <g>
       <use xlink:href="#m54207f2715" x="259.860496" y="384.48" style="stroke: #000000; stroke-width: 0.6"/>
      </g>
     </g>
    </g>
    <g id="xtick_78">
     <g id="line2d_91">
      <g>
       <use xlink:href="#m54207f2715" x="273.141818" y="384.48" style="stroke: #000000; stroke-width: 0.6"/>
      </g>
     </g>
    </g>
    <g id="xtick_79">
     <g id="line2d_92">
      <g>
       <use xlink:href="#m54207f2715" x="286.42314" y="384.48" style="stroke: #000000; stroke-width: 0.6"/>
      </g>
     </g>
    </g>
    <g id="xtick_80">
     <g id="line2d_93">
      <g>
       <use xlink:href="#m54207f2715" x="312.985785" y="384.48" style="stroke: #000000; stroke-width: 0.6"/>
      </g>
     </g>
    </g>
    <g id="text_15">
     <!-- StartMonth -->
     <g transform="translate(162.446016 411.254175)scale(0.1 -0.1)">
      <defs>
       <path id="CMR17-53" d="M 2803 4351 
C 2803 4467 2797 4473 2758 4473 
C 2720 4473 2707 4447 2682 4390 
L 2490 3965 
C 2246 4320 1875 4480 1472 4480 
C 819 4480 294 3958 294 3301 
C 294 3101 339 2817 557 2546 
C 794 2250 1018 2198 1530 2063 
C 1722 2011 2042 1927 2106 1901 
C 2470 1747 2662 1360 2662 999 
C 2662 534 2336 38 1779 38 
C 1094 38 454 425 410 1328 
C 403 1431 397 1437 352 1437 
C 301 1437 294 1431 294 1302 
L 294 0 
C 294 -116 301 -122 339 -122 
C 384 -122 397 -90 486 109 
C 493 128 493 141 614 386 
C 934 -39 1472 -128 1779 -128 
C 2477 -128 2970 457 2970 1141 
C 2970 1476 2848 1734 2778 1850 
C 2509 2263 2221 2340 1914 2417 
C 1869 2437 1856 2437 1498 2527 
C 1152 2617 1005 2662 845 2836 
C 666 3036 602 3243 602 3449 
C 602 3868 934 4326 1478 4326 
C 2157 4326 2579 3842 2675 3036 
C 2694 2920 2701 2914 2746 2914 
C 2803 2914 2803 2933 2803 3043 
L 2803 4351 
z
" transform="scale(0.015625)"/>
       <path id="CMR17-74" d="M 966 2585 
L 1862 2585 
L 1862 2752 
L 966 2752 
L 966 3968 
L 851 3968 
C 838 3292 614 2700 70 2687 
L 70 2585 
L 627 2585 
L 627 778 
C 627 655 627 -64 1370 -64 
C 1747 -64 1965 308 1965 784 
L 1965 1151 
L 1850 1151 
L 1850 790 
C 1850 347 1677 51 1408 51 
C 1222 51 966 179 966 765 
L 966 2585 
z
" transform="scale(0.015625)"/>
       <path id="CMR17-61" d="M 2304 1656 
C 2304 2048 2304 2275 2035 2534 
C 1798 2751 1523 2816 1306 2816 
C 800 2816 435 2408 435 1977 
C 435 1740 627 1728 666 1728 
C 749 1728 896 1779 896 1958 
C 896 2118 774 2188 666 2188 
C 640 2188 608 2182 589 2176 
C 723 2594 1069 2713 1293 2713 
C 1613 2713 1965 2421 1965 1875 
L 1965 1632 
C 1587 1619 1133 1568 774 1373 
C 371 1147 256 822 256 576 
C 256 77 832 -64 1171 -64 
C 1523 -64 1850 135 1990 505 
C 2003 219 2182 -39 2464 -39 
C 2598 -39 2938 51 2938 563 
L 2938 926 
L 2822 926 
L 2822 557 
C 2822 161 2650 109 2566 109 
C 2304 109 2304 446 2304 732 
L 2304 1656 
z
M 1965 887 
C 1965 323 1568 38 1216 38 
C 896 38 646 278 646 576 
C 646 771 730 1114 1101 1322 
C 1408 1497 1760 1523 1965 1536 
L 1965 887 
z
" transform="scale(0.015625)"/>
       <path id="CMR17-72" d="M 960 1517 
C 960 2134 1222 2713 1702 2713 
C 1747 2713 1792 2707 1837 2687 
C 1837 2687 1696 2642 1696 2475 
C 1696 2321 1818 2257 1914 2257 
C 1990 2257 2131 2302 2131 2482 
C 2131 2687 1926 2816 1709 2816 
C 1222 2816 1011 2340 947 2115 
L 941 2115 
L 941 2816 
L 198 2745 
L 198 2578 
C 576 2578 634 2540 634 2231 
L 634 443 
C 634 198 608 166 198 166 
L 198 0 
C 352 12 646 12 813 12 
C 998 12 1325 12 1498 0 
L 1498 166 
C 1037 166 960 166 960 455 
L 960 1517 
z
" transform="scale(0.015625)"/>
       <path id="CMR17-4d" d="M 1338 4249 
C 1299 4345 1293 4352 1158 4352 
L 339 4352 
L 339 4185 
C 781 4185 851 4185 851 3898 
L 851 624 
C 851 465 851 166 339 166 
L 339 0 
C 486 12 755 12 915 12 
C 1075 12 1344 12 1491 0 
L 1491 166 
C 979 166 979 465 979 624 
L 979 4159 
L 986 4159 
L 2490 102 
C 2515 38 2528 0 2579 0 
C 2630 0 2643 38 2669 102 
L 4186 4191 
L 4192 4191 
L 4192 453 
C 4192 166 4122 166 3680 166 
L 3680 0 
C 3853 12 4198 12 4384 12 
C 4570 12 4922 12 5094 0 
L 5094 166 
C 4653 166 4582 166 4582 453 
L 4582 3898 
C 4582 4185 4653 4185 5094 4185 
L 5094 4352 
L 4282 4352 
C 4147 4352 4141 4345 4102 4249 
L 2720 516 
L 1338 4249 
z
" transform="scale(0.015625)"/>
       <path id="CMR17-6f" d="M 2758 1356 
C 2758 2176 2163 2816 1466 2816 
C 768 2816 173 2176 173 1356 
C 173 550 768 -64 1466 -64 
C 2163 -64 2758 550 2758 1356 
z
M 1466 51 
C 1165 51 909 230 762 480 
C 602 768 582 1126 582 1408 
C 582 1676 595 2009 762 2297 
C 890 2508 1139 2713 1466 2713 
C 1754 2713 1997 2553 2150 2329 
C 2349 2028 2349 1606 2349 1408 
C 2349 1158 2336 774 2163 467 
C 1984 172 1709 51 1466 51 
z
" transform="scale(0.015625)"/>
       <path id="CMR17-6e" d="M 2656 1954 
C 2656 2282 2592 2816 1837 2816 
C 1331 2816 1069 2424 973 2166 
L 966 2166 
L 966 2816 
L 211 2745 
L 211 2578 
C 589 2578 646 2540 646 2231 
L 646 443 
C 646 198 621 166 211 166 
L 211 0 
C 365 12 646 12 813 12 
C 979 12 1267 12 1421 0 
L 1421 166 
C 1011 166 986 192 986 443 
L 986 1678 
C 986 2269 1344 2713 1792 2713 
C 2266 2713 2317 2289 2317 1980 
L 2317 443 
C 2317 198 2291 166 1882 166 
L 1882 0 
C 2035 12 2317 12 2483 12 
C 2650 12 2938 12 3091 0 
L 3091 166 
C 2682 166 2656 192 2656 443 
L 2656 1954 
z
" transform="scale(0.015625)"/>
       <path id="CMR17-68" d="M 2656 1954 
C 2656 2282 2592 2816 1837 2816 
C 1312 2816 1056 2392 979 2179 
L 973 2179 
L 973 4416 
L 211 4345 
L 211 4179 
C 589 4179 646 4141 646 3843 
L 646 443 
C 646 198 621 166 211 166 
L 211 0 
C 365 12 646 12 813 12 
C 979 12 1267 12 1421 0 
L 1421 166 
C 1011 166 986 192 986 443 
L 986 1678 
C 986 2269 1344 2713 1792 2713 
C 2266 2713 2317 2289 2317 1980 
L 2317 443 
C 2317 198 2291 166 1882 166 
L 1882 0 
C 2035 12 2317 12 2483 12 
C 2650 12 2938 12 3091 0 
L 3091 166 
C 2682 166 2656 192 2656 443 
L 2656 1954 
z
" transform="scale(0.015625)"/>
      </defs>
      <use xlink:href="#CMR17-53" transform="scale(0.996264)"/>
      <use xlink:href="#CMR17-74" transform="translate(50.89537 0)scale(0.996264)"/>
      <use xlink:href="#CMR17-61" transform="translate(86.176138 0)scale(0.996264)"/>
      <use xlink:href="#CMR17-72" transform="translate(131.866615 0)scale(0.996264)"/>
      <use xlink:href="#CMR17-74" transform="translate(167.147382 0)scale(0.996264)"/>
      <use xlink:href="#CMR17-4d" transform="translate(202.42815 0)scale(0.996264)"/>
      <use xlink:href="#CMR17-6f" transform="translate(287.115091 0)scale(0.996264)"/>
      <use xlink:href="#CMR17-6e" transform="translate(332.805568 0)scale(0.996264)"/>
      <use xlink:href="#CMR17-74" transform="translate(381.098484 0)scale(0.996264)"/>
      <use xlink:href="#CMR17-68" transform="translate(416.379252 0)scale(0.996264)"/>
     </g>
    </g>
   </g>
   <g id="matplotlib.axis_8">
    <g id="ytick_8">
     <g id="line2d_94">
      <g>
       <use xlink:href="#mf41ad4f592" x="54" y="381.193043" style="stroke: #000000; stroke-width: 0.8"/>
      </g>
     </g>
     <g id="text_16">
      <!-- $\mathdefault{0.000}$ -->
      <g transform="translate(24.307251 384.652293)scale(0.1 -0.1)">
       <use xlink:href="#CMR17-30" transform="scale(0.996264)"/>
       <use xlink:href="#CMMI12-3a" transform="translate(45.690477 0)scale(0.996264)"/>
       <use xlink:href="#CMR17-30" transform="translate(72.787654 0)scale(0.996264)"/>
       <use xlink:href="#CMR17-30" transform="translate(118.478131 0)scale(0.996264)"/>
       <use xlink:href="#CMR17-30" transform="translate(164.168608 0)scale(0.996264)"/>
      </g>
     </g>
    </g>
    <g id="ytick_9">
     <g id="line2d_95">
      <g>
       <use xlink:href="#mf41ad4f592" x="54" y="351.813659" style="stroke: #000000; stroke-width: 0.8"/>
      </g>
     </g>
     <g id="text_17">
      <!-- $\mathdefault{0.005}$ -->
      <g transform="translate(24.307251 355.272908)scale(0.1 -0.1)">
       <use xlink:href="#CMR17-30" transform="scale(0.996264)"/>
       <use xlink:href="#CMMI12-3a" transform="translate(45.690477 0)scale(0.996264)"/>
       <use xlink:href="#CMR17-30" transform="translate(72.787654 0)scale(0.996264)"/>
       <use xlink:href="#CMR17-30" transform="translate(118.478131 0)scale(0.996264)"/>
       <use xlink:href="#CMR17-35" transform="translate(164.168608 0)scale(0.996264)"/>
      </g>
     </g>
    </g>
    <g id="ytick_10">
     <g id="line2d_96">
      <g>
       <use xlink:href="#mf41ad4f592" x="54" y="322.434274" style="stroke: #000000; stroke-width: 0.8"/>
      </g>
     </g>
     <g id="text_18">
      <!-- $\mathdefault{0.010}$ -->
      <g transform="translate(24.307251 325.893523)scale(0.1 -0.1)">
       <use xlink:href="#CMR17-30" transform="scale(0.996264)"/>
       <use xlink:href="#CMMI12-3a" transform="translate(45.690477 0)scale(0.996264)"/>
       <use xlink:href="#CMR17-30" transform="translate(72.787654 0)scale(0.996264)"/>
       <use xlink:href="#CMR17-31" transform="translate(118.478131 0)scale(0.996264)"/>
       <use xlink:href="#CMR17-30" transform="translate(164.168608 0)scale(0.996264)"/>
      </g>
     </g>
    </g>
   </g>
   <g id="line2d_97">
    <path d="M 54 374.192108 
L 55.106777 381.193043 
L 56.213554 380.558434 
L 57.320331 381.157353 
L 58.427107 381.193043 
L 59.533884 381.040563 
L 60.640661 379.156049 
L 61.747438 378.890097 
L 62.854215 376.127499 
L 63.960992 380.205272 
L 65.067769 379.747654 
L 66.174545 381.193043 
L 67.281322 377.984774 
L 68.388099 378.420104 
L 69.494876 381.15049 
L 70.601653 362.33294 
L 71.70843 366.783266 
L 72.815207 381.193043 
L 73.921983 369.327 
L 75.02876 374.884205 
L 76.135537 376.073292 
L 77.242314 379.392992 
L 78.349091 381.193043 
L 79.455868 381.193043 
L 80.562645 378.995803 
L 81.669421 373.603572 
L 82.776198 381.193043 
L 83.882975 381.193043 
L 84.989752 379.307488 
L 86.096529 379.310217 
L 87.203306 376.552125 
L 88.310083 375.141397 
L 89.41686 381.193043 
L 90.523636 372.848273 
L 91.630413 369.790162 
L 92.73719 376.07668 
L 93.843967 376.958447 
L 94.950744 381.193043 
L 96.057521 381.193043 
L 97.164298 375.944706 
L 98.271074 381.168282 
L 99.377851 381.193043 
L 100.484628 371.047116 
L 101.591405 377.618998 
L 102.698182 377.386247 
L 103.804959 358.336695 
L 104.911736 378.327446 
L 106.018512 379.284013 
L 107.125289 375.969255 
L 108.232066 381.193043 
L 112.659174 381.193043 
L 113.76595 377.277336 
L 114.872727 365.714297 
L 115.979504 381.193043 
L 117.086281 373.987252 
L 118.193058 380.66089 
L 119.299835 380.723274 
L 120.406612 374.577669 
L 121.513388 380.862444 
L 122.620165 379.40901 
L 123.726942 378.680191 
L 124.833719 376.700177 
L 125.940496 379.225053 
L 127.047273 381.193043 
L 130.367603 381.193043 
L 131.47438 379.709272 
L 132.581157 380.570461 
L 134.794711 374.393613 
L 135.901488 381.193043 
L 137.008264 381.193043 
L 138.115041 373.893909 
L 139.221818 378.341552 
L 140.328595 376.589903 
L 141.435372 375.334267 
L 142.542149 380.62483 
L 143.648926 335.640068 
L 144.755702 340.731513 
L 145.862479 329.793088 
L 146.969256 379.606874 
L 148.076033 378.863066 
L 149.18281 380.595048 
L 150.289587 376.400965 
L 151.396364 378.253018 
L 152.50314 375.555599 
L 153.609917 377.302275 
L 154.716694 373.991068 
L 155.823471 365.917175 
L 156.930248 367.315361 
L 158.037025 379.143332 
L 159.143802 380.437641 
L 160.250579 379.691665 
L 161.357355 379.145841 
L 162.464132 379.427772 
L 163.570909 375.246043 
L 164.677686 381.177439 
L 165.784463 371.911086 
L 166.89124 368.371067 
L 167.998017 377.060115 
L 169.104793 366.587043 
L 170.21157 349.306534 
L 171.318347 371.592205 
L 172.425124 332.670302 
L 173.531901 377.727635 
L 174.638678 379.905729 
L 175.745455 375.553008 
L 176.852231 356.684923 
L 177.959008 380.2517 
L 179.065785 374.011075 
L 180.172562 378.668608 
L 181.279339 379.304365 
L 182.386116 378.465106 
L 183.492893 370.325138 
L 184.599669 346.425092 
L 185.706446 375.043759 
L 186.813223 370.791437 
L 187.92 380.329601 
L 189.026777 379.865647 
L 190.133554 381.193043 
L 191.240331 368.674039 
L 192.347107 378.452499 
L 193.453884 375.182893 
L 194.560661 379.744558 
L 195.667438 381.193043 
L 196.774215 369.265149 
L 197.880992 372.854979 
L 198.987769 373.183068 
L 200.094545 380.448815 
L 201.201322 378.606952 
L 202.308099 373.906126 
L 203.414876 370.204969 
L 204.521653 368.069176 
L 205.62843 380.652975 
L 206.735207 380.760172 
L 207.841983 381.193043 
L 208.94876 381.193043 
L 210.055537 378.75099 
L 211.162314 381.193043 
L 213.375868 381.193043 
L 214.482645 379.582674 
L 216.696198 381.193043 
L 218.909752 381.193043 
L 220.016529 379.339235 
L 221.123306 380.427845 
L 222.230083 381.193042 
L 223.33686 381.062419 
L 224.443636 381.193043 
L 225.550413 378.119346 
L 226.65719 372.466694 
L 227.763967 376.058736 
L 228.870744 375.54787 
L 229.977521 360.828343 
L 231.084298 359.591306 
L 232.191074 362.542693 
L 233.297851 375.804908 
L 234.404628 375.96263 
L 235.511405 376.371206 
L 236.618182 378.508863 
L 237.724959 381.193043 
L 238.831736 381.077222 
L 239.938512 381.193043 
L 241.045289 381.184997 
L 242.152066 379.64287 
L 243.258843 375.684526 
L 244.36562 380.364986 
L 245.472397 381.193043 
L 246.579174 381.016588 
L 247.68595 381.116901 
L 248.792727 377.544935 
L 249.899504 375.387563 
L 251.006281 372.31596 
L 252.113058 368.64553 
L 253.219835 358.009041 
L 254.326612 357.850224 
L 255.433388 355.814168 
L 256.540165 369.904949 
L 258.753719 366.512827 
L 259.860496 360.474587 
L 260.967273 374.710406 
L 262.07405 370.379658 
L 263.180826 381.193043 
L 264.287603 381.193043 
L 265.39438 380.061726 
L 266.501157 381.193043 
L 268.714711 381.193043 
L 269.821488 379.966169 
L 270.928264 381.193043 
L 272.035041 381.193043 
L 273.141818 374.13698 
L 274.248595 381.193043 
L 275.355372 381.193043 
L 276.462149 378.509212 
L 277.568926 376.303146 
L 278.675702 377.392508 
L 279.782479 357.123966 
L 280.889256 375.824234 
L 281.996033 375.133483 
L 283.10281 380.333365 
L 284.209587 380.20577 
L 285.316364 381.193043 
L 287.529917 381.193043 
L 288.636694 379.246862 
L 289.743471 370.972905 
L 290.850248 367.557039 
L 291.957025 365.647186 
L 293.063802 363.433553 
L 294.170579 369.414739 
L 295.277355 376.520512 
L 296.384132 370.970966 
L 297.490909 370.825273 
L 298.597686 376.382405 
L 299.704463 340.324254 
L 300.81124 338.612068 
L 301.918017 349.516583 
L 303.024793 361.654918 
L 304.13157 381.193043 
L 306.345124 381.193043 
L 307.451901 380.776431 
L 308.558678 381.193043 
L 309.665455 366.244955 
L 310.772231 363.239765 
L 311.879008 364.540424 
L 312.985785 352.59251 
L 314.092562 379.617676 
L 315.199339 375.029072 
L 316.306116 318.605089 
L 317.412893 315.453913 
L 318.519669 315.697656 
L 319.626446 346.826319 
L 320.733223 346.175398 
L 321.84 379.091974 
L 321.84 379.091974 
" clip-path="url(#p0c15ddcff2)" style="fill: none; stroke: #d62728; stroke-width: 1.5; stroke-linecap: square"/>
   </g>
   <g id="patch_21">
    <path d="M 54 384.48 
L 54 312.166957 
" style="fill: none; stroke: #000000; stroke-width: 0.8; stroke-linejoin: miter; stroke-linecap: square"/>
   </g>
   <g id="patch_22">
    <path d="M 321.84 384.48 
L 321.84 312.166957 
" style="fill: none; stroke: #000000; stroke-width: 0.8; stroke-linejoin: miter; stroke-linecap: square"/>
   </g>
   <g id="patch_23">
    <path d="M 54 384.48 
L 321.84 384.48 
" style="fill: none; stroke: #000000; stroke-width: 0.8; stroke-linejoin: miter; stroke-linecap: square"/>
   </g>
   <g id="patch_24">
    <path d="M 54 312.166957 
L 321.84 312.166957 
" style="fill: none; stroke: #000000; stroke-width: 0.8; stroke-linejoin: miter; stroke-linecap: square"/>
   </g>
   <g id="legend_4">
    <g id="patch_25">
     <path d="M 328.84 356.792067 
L 379.575345 356.792067 
Q 381.575345 356.792067 381.575345 354.792067 
L 381.575345 341.854889 
Q 381.575345 339.854889 379.575345 339.854889 
L 328.84 339.854889 
Q 326.84 339.854889 326.84 341.854889 
L 326.84 354.792067 
Q 326.84 356.792067 328.84 356.792067 
z
" style="fill: #ffffff; opacity: 0.8; stroke: #cccccc; stroke-linejoin: miter"/>
    </g>
    <g id="line2d_98">
     <path d="M 330.84 347.354889 
L 340.84 347.354889 
L 350.84 347.354889 
" style="fill: none; stroke: #d62728; stroke-width: 1.5; stroke-linecap: square"/>
    </g>
    <g id="text_19">
     <!-- Bias -->
     <g transform="translate(358.84 350.854889)scale(0.1 -0.1)">
      <defs>
       <path id="CMR17-42" d="M 333 4352 
L 333 4185 
C 774 4185 845 4185 845 3897 
L 845 451 
C 845 166 774 166 333 166 
L 333 0 
L 2534 0 
C 3354 0 3885 578 3885 1155 
C 3885 1726 3360 2214 2675 2259 
C 3290 2380 3718 2790 3718 3276 
C 3718 3808 3194 4352 2368 4352 
L 333 4352 
z
M 1248 2304 
L 1248 3936 
C 1248 4153 1261 4185 1517 4185 
L 2336 4185 
C 2970 4185 3251 3673 3251 3276 
C 3251 2790 2861 2304 2170 2304 
L 1248 2304 
z
M 1517 166 
C 1261 166 1248 198 1248 413 
L 1248 2201 
L 2432 2201 
C 3091 2201 3411 1624 3411 1161 
C 3411 698 3046 166 2349 166 
L 1517 166 
z
" transform="scale(0.015625)"/>
       <path id="CMR17-69" d="M 992 3961 
C 992 4102 877 4224 730 4224 
C 589 4224 467 4108 467 3961 
C 467 3820 582 3699 730 3699 
C 870 3699 992 3814 992 3961 
z
M 243 2745 
L 243 2579 
C 602 2579 653 2540 653 2231 
L 653 443 
C 653 198 627 166 218 166 
L 218 0 
C 371 12 646 12 806 12 
C 960 12 1222 12 1370 0 
L 1370 166 
C 992 166 979 205 979 436 
L 979 2816 
L 243 2745 
z
" transform="scale(0.015625)"/>
       <path id="CMR17-73" d="M 1978 2688 
C 1978 2803 1971 2809 1933 2809 
C 1907 2809 1901 2803 1824 2707 
C 1805 2681 1747 2617 1728 2592 
C 1523 2809 1235 2816 1126 2816 
C 416 2816 160 2444 160 2073 
C 160 1497 813 1363 998 1324 
C 1402 1241 1542 1216 1677 1100 
C 1760 1024 1901 883 1901 652 
C 1901 384 1747 38 1158 38 
C 602 38 403 460 288 1024 
C 269 1113 269 1120 218 1120 
C 166 1120 160 1113 160 985 
L 160 64 
C 160 -52 166 -58 205 -58 
C 237 -58 243 -52 275 0 
C 314 57 410 211 448 275 
C 576 102 800 -64 1158 -64 
C 1792 -64 2131 281 2131 780 
C 2131 1107 1958 1280 1875 1356 
C 1683 1555 1459 1600 1190 1651 
C 838 1728 390 1817 390 2208 
C 390 2374 480 2726 1126 2726 
C 1811 2726 1850 2086 1862 1881 
C 1869 1849 1901 1843 1920 1843 
C 1978 1843 1978 1862 1978 1971 
L 1978 2688 
z
" transform="scale(0.015625)"/>
      </defs>
      <use xlink:href="#CMR17-42" transform="scale(0.996264)"/>
      <use xlink:href="#CMR17-69" transform="translate(65.188754 0)scale(0.996264)"/>
      <use xlink:href="#CMR17-61" transform="translate(90.059813 0)scale(0.996264)"/>
      <use xlink:href="#CMR17-73" transform="translate(135.75029 0)scale(0.996264)"/>
     </g>
    </g>
   </g>
  </g>
 </g>
 <defs>
  <clipPath id="p74856ea615">
   <rect x="54" y="51.84" width="267.84" height="72.313043"/>
  </clipPath>
  <clipPath id="p4b3abfe85d">
   <rect x="54" y="138.615652" width="267.84" height="72.313043"/>
  </clipPath>
  <clipPath id="pd11e515224">
   <rect x="54" y="225.391304" width="267.84" height="72.313043"/>
  </clipPath>
  <clipPath id="p0c15ddcff2">
   <rect x="54" y="312.166957" width="267.84" height="72.313043"/>
  </clipPath>
 </defs>
</svg>
