<?xml version="1.0" encoding="utf-8" standalone="no"?>
<!DOCTYPE svg PUBLIC "-//W3C//DTD SVG 1.1//EN"
  "http://www.w3.org/Graphics/SVG/1.1/DTD/svg11.dtd">
<svg xmlns:xlink="http://www.w3.org/1999/xlink" width="432pt" height="288pt" viewBox="0 0 432 288" xmlns="http://www.w3.org/2000/svg" version="1.1">
 <metadata>
  <rdf:RDF xmlns:dc="http://purl.org/dc/elements/1.1/" xmlns:cc="http://creativecommons.org/ns#" xmlns:rdf="http://www.w3.org/1999/02/22-rdf-syntax-ns#">
   <cc:Work>
    <dc:type rdf:resource="http://purl.org/dc/dcmitype/StillImage"/>
    <dc:date>2022-10-21T11:08:06.341985</dc:date>
    <dc:format>image/svg+xml</dc:format>
    <dc:creator>
     <cc:Agent>
      <dc:title>Matplotlib v3.5.2, https://matplotlib.org/</dc:title>
     </cc:Agent>
    </dc:creator>
   </cc:Work>
  </rdf:RDF>
 </metadata>
 <defs>
  <style type="text/css">*{stroke-linejoin: round; stroke-linecap: butt}</style>
 </defs>
 <g id="figure_1">
  <g id="patch_1">
   <path d="M 0 288 
L 432 288 
L 432 0 
L 0 0 
z
" style="fill: #ffffff"/>
  </g>
  <g id="axes_1">
   <g id="patch_2">
    <path d="M 56.447902 153.273048 
L 394.037203 153.273048 
L 394.037203 27.869588 
L 56.447902 27.869588 
z
" style="fill: #ffffff"/>
   </g>
   <g id="matplotlib.axis_1">
    <g id="xtick_1">
     <g id="line2d_1">
      <defs>
       <path id="mc7f0b40397" d="M 0 0 
L 0 3.5 
" style="stroke: #000000; stroke-width: 0.8"/>
      </defs>
      <g>
       <use xlink:href="#mc7f0b40397" x="90.228001" y="153.273048" style="stroke: #000000; stroke-width: 0.8"/>
      </g>
     </g>
     <g id="text_1">
      <!-- $\mathdefault{0.05}$ -->
      <g transform="translate(81.372294 167.191546)scale(0.1 -0.1)">
       <defs>
        <path id="CMR17-30" d="M 2688 2038 
C 2688 2430 2682 3099 2413 3613 
C 2176 4063 1798 4224 1466 4224 
C 1158 4224 768 4082 525 3620 
C 269 3137 243 2539 243 2038 
C 243 1671 250 1112 448 623 
C 723 -39 1216 -128 1466 -128 
C 1760 -128 2208 -7 2470 604 
C 2662 1048 2688 1568 2688 2038 
z
M 1466 -26 
C 1056 -26 813 328 723 816 
C 653 1196 653 1749 653 2109 
C 653 2604 653 3015 736 3407 
C 858 3954 1216 4121 1466 4121 
C 1728 4121 2067 3947 2189 3420 
C 2272 3054 2278 2623 2278 2109 
C 2278 1691 2278 1176 2202 797 
C 2067 96 1690 -26 1466 -26 
z
" transform="scale(0.015625)"/>
        <path id="CMMI12-3a" d="M 1178 307 
C 1178 492 1024 620 870 620 
C 685 620 557 467 557 313 
C 557 128 710 0 864 0 
C 1050 0 1178 153 1178 307 
z
" transform="scale(0.015625)"/>
        <path id="CMR17-35" d="M 730 3750 
C 794 3724 1056 3641 1325 3641 
C 1920 3641 2246 3961 2432 4140 
C 2432 4191 2432 4224 2394 4224 
C 2387 4224 2374 4224 2323 4198 
C 2099 4102 1837 4032 1517 4032 
C 1325 4032 1037 4055 723 4191 
C 653 4224 640 4224 634 4224 
C 602 4224 595 4217 595 4090 
L 595 2231 
C 595 2113 595 2080 659 2080 
C 691 2080 704 2093 736 2139 
C 941 2435 1222 2560 1542 2560 
C 1766 2560 2246 2415 2246 1293 
C 2246 1087 2246 716 2054 422 
C 1894 159 1645 25 1370 25 
C 947 25 518 319 403 812 
C 429 806 480 793 506 793 
C 589 793 749 838 749 1036 
C 749 1209 627 1280 506 1280 
C 358 1280 262 1190 262 1011 
C 262 454 704 -128 1382 -128 
C 2042 -128 2669 441 2669 1267 
C 2669 2054 2170 2662 1549 2662 
C 1222 2662 947 2540 730 2304 
L 730 3750 
z
" transform="scale(0.015625)"/>
       </defs>
       <use xlink:href="#CMR17-30" transform="scale(0.996264)"/>
       <use xlink:href="#CMMI12-3a" transform="translate(45.690477 0)scale(0.996264)"/>
       <use xlink:href="#CMR17-30" transform="translate(72.787654 0)scale(0.996264)"/>
       <use xlink:href="#CMR17-35" transform="translate(118.478131 0)scale(0.996264)"/>
      </g>
     </g>
    </g>
    <g id="xtick_2">
     <g id="line2d_2">
      <g>
       <use xlink:href="#mc7f0b40397" x="129.201192" y="153.273048" style="stroke: #000000; stroke-width: 0.8"/>
      </g>
     </g>
     <g id="text_2">
      <!-- $\mathdefault{0.10}$ -->
      <g transform="translate(120.345485 167.191546)scale(0.1 -0.1)">
       <defs>
        <path id="CMR17-31" d="M 1702 4083 
C 1702 4217 1696 4224 1606 4224 
C 1357 3927 979 3833 621 3820 
C 602 3820 570 3820 563 3808 
C 557 3795 557 3782 557 3648 
C 755 3648 1088 3686 1344 3839 
L 1344 467 
C 1344 243 1331 166 781 166 
L 589 166 
L 589 0 
C 896 6 1216 12 1523 12 
C 1830 12 2150 6 2458 0 
L 2458 166 
L 2266 166 
C 1715 166 1702 236 1702 467 
L 1702 4083 
z
" transform="scale(0.015625)"/>
       </defs>
       <use xlink:href="#CMR17-30" transform="scale(0.996264)"/>
       <use xlink:href="#CMMI12-3a" transform="translate(45.690477 0)scale(0.996264)"/>
       <use xlink:href="#CMR17-31" transform="translate(72.787654 0)scale(0.996264)"/>
       <use xlink:href="#CMR17-30" transform="translate(118.478131 0)scale(0.996264)"/>
      </g>
     </g>
    </g>
    <g id="xtick_3">
     <g id="line2d_3">
      <g>
       <use xlink:href="#mc7f0b40397" x="168.174383" y="153.273048" style="stroke: #000000; stroke-width: 0.8"/>
      </g>
     </g>
     <g id="text_3">
      <!-- $\mathdefault{0.15}$ -->
      <g transform="translate(159.318676 167.191546)scale(0.1 -0.1)">
       <use xlink:href="#CMR17-30" transform="scale(0.996264)"/>
       <use xlink:href="#CMMI12-3a" transform="translate(45.690477 0)scale(0.996264)"/>
       <use xlink:href="#CMR17-31" transform="translate(72.787654 0)scale(0.996264)"/>
       <use xlink:href="#CMR17-35" transform="translate(118.478131 0)scale(0.996264)"/>
      </g>
     </g>
    </g>
    <g id="xtick_4">
     <g id="line2d_4">
      <g>
       <use xlink:href="#mc7f0b40397" x="207.147573" y="153.273048" style="stroke: #000000; stroke-width: 0.8"/>
      </g>
     </g>
     <g id="text_4">
      <!-- $\mathdefault{0.20}$ -->
      <g transform="translate(198.291866 167.191546)scale(0.1 -0.1)">
       <defs>
        <path id="CMR17-32" d="M 2669 990 
L 2554 990 
C 2490 537 2438 460 2413 422 
C 2381 371 1920 371 1830 371 
L 602 371 
C 832 620 1280 1073 1824 1596 
C 2214 1966 2669 2400 2669 3033 
C 2669 3788 2067 4224 1395 4224 
C 691 4224 262 3603 262 3027 
C 262 2777 448 2745 525 2745 
C 589 2745 781 2783 781 3007 
C 781 3206 614 3264 525 3264 
C 486 3264 448 3257 422 3244 
C 544 3788 915 4057 1306 4057 
C 1862 4057 2227 3616 2227 3033 
C 2227 2477 1901 1998 1536 1583 
L 262 147 
L 262 0 
L 2515 0 
L 2669 990 
z
" transform="scale(0.015625)"/>
       </defs>
       <use xlink:href="#CMR17-30" transform="scale(0.996264)"/>
       <use xlink:href="#CMMI12-3a" transform="translate(45.690477 0)scale(0.996264)"/>
       <use xlink:href="#CMR17-32" transform="translate(72.787654 0)scale(0.996264)"/>
       <use xlink:href="#CMR17-30" transform="translate(118.478131 0)scale(0.996264)"/>
      </g>
     </g>
    </g>
    <g id="xtick_5">
     <g id="line2d_5">
      <g>
       <use xlink:href="#mc7f0b40397" x="246.120764" y="153.273048" style="stroke: #000000; stroke-width: 0.8"/>
      </g>
     </g>
     <g id="text_5">
      <!-- $\mathdefault{0.25}$ -->
      <g transform="translate(237.265057 167.191546)scale(0.1 -0.1)">
       <use xlink:href="#CMR17-30" transform="scale(0.996264)"/>
       <use xlink:href="#CMMI12-3a" transform="translate(45.690477 0)scale(0.996264)"/>
       <use xlink:href="#CMR17-32" transform="translate(72.787654 0)scale(0.996264)"/>
       <use xlink:href="#CMR17-35" transform="translate(118.478131 0)scale(0.996264)"/>
      </g>
     </g>
    </g>
    <g id="xtick_6">
     <g id="line2d_6">
      <g>
       <use xlink:href="#mc7f0b40397" x="285.093955" y="153.273048" style="stroke: #000000; stroke-width: 0.8"/>
      </g>
     </g>
     <g id="text_6">
      <!-- $\mathdefault{0.30}$ -->
      <g transform="translate(276.238248 167.191546)scale(0.1 -0.1)">
       <defs>
        <path id="CMR17-33" d="M 1414 2176 
C 1984 2176 2234 1673 2234 1094 
C 2234 322 1824 25 1453 25 
C 1114 25 563 193 390 691 
C 422 678 454 678 486 678 
C 640 678 755 780 755 947 
C 755 1132 614 1216 486 1216 
C 378 1216 211 1164 211 927 
C 211 335 787 -128 1466 -128 
C 2176 -128 2720 432 2720 1087 
C 2720 1718 2208 2176 1600 2246 
C 2086 2347 2554 2776 2554 3353 
C 2554 3856 2048 4224 1472 4224 
C 890 4224 378 3862 378 3347 
C 378 3123 544 3084 627 3084 
C 762 3084 877 3167 877 3334 
C 877 3500 762 3584 627 3584 
C 602 3584 570 3584 544 3571 
C 730 3999 1235 4076 1459 4076 
C 1683 4076 2106 3966 2106 3347 
C 2106 3167 2080 2851 1862 2574 
C 1670 2329 1453 2316 1242 2297 
C 1210 2297 1062 2284 1037 2284 
C 992 2278 966 2272 966 2227 
C 966 2182 973 2176 1101 2176 
L 1414 2176 
z
" transform="scale(0.015625)"/>
       </defs>
       <use xlink:href="#CMR17-30" transform="scale(0.996264)"/>
       <use xlink:href="#CMMI12-3a" transform="translate(45.690477 0)scale(0.996264)"/>
       <use xlink:href="#CMR17-33" transform="translate(72.787654 0)scale(0.996264)"/>
       <use xlink:href="#CMR17-30" transform="translate(118.478131 0)scale(0.996264)"/>
      </g>
     </g>
    </g>
    <g id="xtick_7">
     <g id="line2d_7">
      <g>
       <use xlink:href="#mc7f0b40397" x="324.067146" y="153.273048" style="stroke: #000000; stroke-width: 0.8"/>
      </g>
     </g>
     <g id="text_7">
      <!-- $\mathdefault{0.35}$ -->
      <g transform="translate(315.211439 167.191546)scale(0.1 -0.1)">
       <use xlink:href="#CMR17-30" transform="scale(0.996264)"/>
       <use xlink:href="#CMMI12-3a" transform="translate(45.690477 0)scale(0.996264)"/>
       <use xlink:href="#CMR17-33" transform="translate(72.787654 0)scale(0.996264)"/>
       <use xlink:href="#CMR17-35" transform="translate(118.478131 0)scale(0.996264)"/>
      </g>
     </g>
    </g>
    <g id="xtick_8">
     <g id="line2d_8">
      <g>
       <use xlink:href="#mc7f0b40397" x="363.040337" y="153.273048" style="stroke: #000000; stroke-width: 0.8"/>
      </g>
     </g>
     <g id="text_8">
      <!-- $\mathdefault{0.40}$ -->
      <g transform="translate(354.184629 167.191546)scale(0.1 -0.1)">
       <defs>
        <path id="CMR17-34" d="M 2150 4147 
C 2150 4281 2144 4288 2029 4288 
L 128 1254 
L 128 1088 
L 1779 1088 
L 1779 460 
C 1779 230 1766 166 1318 166 
L 1197 166 
L 1197 0 
C 1402 12 1747 12 1965 12 
C 2182 12 2528 12 2733 0 
L 2733 166 
L 2611 166 
C 2163 166 2150 230 2150 460 
L 2150 1088 
L 2803 1088 
L 2803 1254 
L 2150 1254 
L 2150 4147 
z
M 1798 3723 
L 1798 1254 
L 256 1254 
L 1798 3723 
z
" transform="scale(0.015625)"/>
       </defs>
       <use xlink:href="#CMR17-30" transform="scale(0.996264)"/>
       <use xlink:href="#CMMI12-3a" transform="translate(45.690477 0)scale(0.996264)"/>
       <use xlink:href="#CMR17-34" transform="translate(72.787654 0)scale(0.996264)"/>
       <use xlink:href="#CMR17-30" transform="translate(118.478131 0)scale(0.996264)"/>
      </g>
     </g>
    </g>
    <g id="text_9">
     <!-- Volatility\: $\sqrt{ \boldsymbol{x}^{\intercal}\boldsymbol{\Sigma} \boldsymbol{x} }$ -->
     <g transform="translate(162.289365 187.284518)scale(0.16 -0.16)">
      <defs>
       <path id="CMR17-56" d="M 3776 3762 
C 3834 3903 3936 4179 4365 4185 
L 4365 4352 
C 4218 4339 4051 4339 3891 4339 
C 3738 4339 3475 4339 3328 4352 
L 3328 4185 
C 3648 4166 3661 3942 3661 3903 
C 3661 3833 3642 3788 3622 3737 
L 2362 448 
L 1043 3903 
C 1024 3948 1011 3980 1011 4012 
C 1011 4185 1267 4185 1402 4185 
L 1402 4352 
C 1197 4339 896 4339 685 4339 
C 518 4339 218 4339 64 4352 
L 64 4185 
C 435 4185 506 4160 582 3955 
L 2106 -26 
C 2138 -116 2144 -128 2214 -128 
C 2285 -128 2291 -116 2323 -26 
L 3776 3762 
z
" transform="scale(0.015625)"/>
       <path id="CMR17-6f" d="M 2758 1356 
C 2758 2176 2163 2816 1466 2816 
C 768 2816 173 2176 173 1356 
C 173 550 768 -64 1466 -64 
C 2163 -64 2758 550 2758 1356 
z
M 1466 51 
C 1165 51 909 230 762 480 
C 602 768 582 1126 582 1408 
C 582 1676 595 2009 762 2297 
C 890 2508 1139 2713 1466 2713 
C 1754 2713 1997 2553 2150 2329 
C 2349 2028 2349 1606 2349 1408 
C 2349 1158 2336 774 2163 467 
C 1984 172 1709 51 1466 51 
z
" transform="scale(0.015625)"/>
       <path id="CMR17-6c" d="M 979 4416 
L 218 4345 
L 218 4179 
C 595 4179 653 4141 653 3835 
L 653 439 
C 653 198 627 166 218 166 
L 218 0 
C 371 12 653 12 813 12 
C 979 12 1261 12 1414 0 
L 1414 166 
C 1005 166 979 191 979 439 
L 979 4416 
z
" transform="scale(0.015625)"/>
       <path id="CMR17-61" d="M 2304 1656 
C 2304 2048 2304 2275 2035 2534 
C 1798 2751 1523 2816 1306 2816 
C 800 2816 435 2408 435 1977 
C 435 1740 627 1728 666 1728 
C 749 1728 896 1779 896 1958 
C 896 2118 774 2188 666 2188 
C 640 2188 608 2182 589 2176 
C 723 2594 1069 2713 1293 2713 
C 1613 2713 1965 2421 1965 1875 
L 1965 1632 
C 1587 1619 1133 1568 774 1373 
C 371 1147 256 822 256 576 
C 256 77 832 -64 1171 -64 
C 1523 -64 1850 135 1990 505 
C 2003 219 2182 -39 2464 -39 
C 2598 -39 2938 51 2938 563 
L 2938 926 
L 2822 926 
L 2822 557 
C 2822 161 2650 109 2566 109 
C 2304 109 2304 446 2304 732 
L 2304 1656 
z
M 1965 887 
C 1965 323 1568 38 1216 38 
C 896 38 646 278 646 576 
C 646 771 730 1114 1101 1322 
C 1408 1497 1760 1523 1965 1536 
L 1965 887 
z
" transform="scale(0.015625)"/>
       <path id="CMR17-74" d="M 966 2585 
L 1862 2585 
L 1862 2752 
L 966 2752 
L 966 3968 
L 851 3968 
C 838 3292 614 2700 70 2687 
L 70 2585 
L 627 2585 
L 627 778 
C 627 655 627 -64 1370 -64 
C 1747 -64 1965 308 1965 784 
L 1965 1151 
L 1850 1151 
L 1850 790 
C 1850 347 1677 51 1408 51 
C 1222 51 966 179 966 765 
L 966 2585 
z
" transform="scale(0.015625)"/>
       <path id="CMR17-69" d="M 992 3961 
C 992 4102 877 4224 730 4224 
C 589 4224 467 4108 467 3961 
C 467 3820 582 3699 730 3699 
C 870 3699 992 3814 992 3961 
z
M 243 2745 
L 243 2579 
C 602 2579 653 2540 653 2231 
L 653 443 
C 653 198 627 166 218 166 
L 218 0 
C 371 12 646 12 806 12 
C 960 12 1222 12 1370 0 
L 1370 166 
C 992 166 979 205 979 436 
L 979 2816 
L 243 2745 
z
" transform="scale(0.015625)"/>
       <path id="CMR17-79" d="M 2496 2183 
C 2656 2579 2944 2585 3034 2585 
L 3034 2752 
C 2912 2745 2752 2739 2630 2739 
C 2496 2739 2285 2739 2157 2752 
L 2157 2585 
C 2400 2566 2406 2384 2406 2332 
C 2406 2268 2394 2235 2362 2158 
L 1664 409 
L 902 2300 
C 870 2378 870 2423 870 2430 
C 870 2572 1018 2585 1171 2585 
L 1171 2752 
C 1018 2739 742 2739 582 2739 
C 410 2739 205 2739 64 2752 
L 64 2585 
C 410 2585 448 2553 531 2345 
L 1485 -31 
C 1197 -795 1030 -1242 627 -1242 
C 557 -1242 397 -1223 282 -1106 
C 429 -1093 493 -1002 493 -892 
C 493 -782 416 -685 288 -685 
C 147 -685 77 -782 77 -899 
C 77 -1158 339 -1344 627 -1344 
C 998 -1344 1229 -983 1357 -659 
L 2496 2183 
z
" transform="scale(0.015625)"/>
       <path id="CMSY10-70" d="M 2490 -5472 
L 1363 -2983 
C 1318 -2880 1286 -2880 1267 -2880 
C 1261 -2880 1229 -2880 1158 -2932 
L 550 -3392 
C 467 -3456 467 -3476 467 -3495 
C 467 -3527 486 -3565 531 -3565 
C 570 -3565 678 -3476 749 -3424 
C 787 -3392 883 -3322 954 -3271 
L 2214 -6042 
C 2259 -6144 2291 -6144 2349 -6144 
C 2445 -6144 2464 -6106 2509 -6016 
L 5414 0 
C 5459 89 5459 115 5459 128 
C 5459 192 5408 256 5331 256 
C 5280 256 5235 224 5184 121 
L 2490 -5472 
z
" transform="scale(0.015625)"/>
       <path id="CMMIB10-78" d="M 3430 2553 
C 3200 2489 3085 2272 3085 2112 
C 3085 1971 3194 1817 3405 1817 
C 3629 1817 3866 2003 3866 2316 
C 3866 2655 3526 2880 3136 2880 
C 2771 2880 2534 2604 2451 2489 
C 2291 2758 1933 2880 1568 2880 
C 762 2880 326 2092 326 1881 
C 326 1792 422 1792 480 1792 
C 557 1792 602 1792 627 1875 
C 813 2457 1274 2649 1536 2649 
C 1779 2649 1894 2534 1894 2329 
C 1894 2208 1805 1856 1747 1625 
L 1530 748 
C 1434 358 1203 166 986 166 
C 954 166 806 166 678 262 
C 909 326 1024 544 1024 704 
C 1024 844 915 998 704 998 
C 480 998 243 812 243 499 
C 243 160 582 -64 973 -64 
C 1338 -64 1574 211 1658 326 
C 1818 57 2176 -64 2541 -64 
C 3347 -64 3782 723 3782 934 
C 3782 1024 3686 1024 3629 1024 
C 3552 1024 3507 1024 3482 940 
C 3296 358 2835 166 2573 166 
C 2330 166 2214 281 2214 486 
C 2214 620 2298 960 2355 1196 
C 2400 1363 2547 1964 2579 2067 
C 2675 2451 2899 2649 3123 2649 
C 3155 2649 3302 2649 3430 2553 
z
" transform="scale(0.015625)"/>
       <path id="MSAM10-7c" d="M 2035 2240 
L 2861 2240 
C 2950 2240 3200 2240 3200 2496 
C 3200 2752 2950 2752 2861 2752 
L 698 2752 
C 608 2752 358 2752 358 2496 
C 358 2240 608 2240 698 2240 
L 1523 2240 
L 1523 -1013 
C 1523 -1102 1523 -1351 1779 -1351 
C 2035 -1351 2035 -1102 2035 -1013 
L 2035 2240 
z
" transform="scale(0.015625)"/>
       <path id="CMBX12-6" d="M 2944 2097 
C 2995 2149 3014 2162 3014 2207 
C 3014 2226 3014 2239 2963 2304 
L 1523 4140 
L 2886 4140 
C 3814 4140 4390 3979 4525 2890 
L 4794 2890 
L 4608 4416 
L 582 4416 
C 403 4416 397 4390 397 4211 
L 2246 1853 
L 467 204 
C 442 179 397 134 397 96 
C 397 0 499 0 582 0 
L 4608 0 
L 4794 1634 
L 4525 1634 
C 4397 519 3770 384 2861 384 
L 1094 384 
L 2944 2097 
z
" transform="scale(0.015625)"/>
      </defs>
      <use xlink:href="#CMR17-56" transform="scale(0.996264)"/>
      <use xlink:href="#CMR17-6f" transform="translate(61.265174 0)scale(0.996264)"/>
      <use xlink:href="#CMR17-6c" transform="translate(106.955652 0)scale(0.996264)"/>
      <use xlink:href="#CMR17-61" transform="translate(131.82671 0)scale(0.996264)"/>
      <use xlink:href="#CMR17-74" transform="translate(177.517187 0)scale(0.996264)"/>
      <use xlink:href="#CMR17-69" transform="translate(212.797955 0)scale(0.996264)"/>
      <use xlink:href="#CMR17-6c" transform="translate(237.669013 0)scale(0.996264)"/>
      <use xlink:href="#CMR17-69" transform="translate(262.540072 0)scale(0.996264)"/>
      <use xlink:href="#CMR17-74" transform="translate(287.41113 0)scale(0.996264)"/>
      <use xlink:href="#CMR17-79" transform="translate(320.089444 0)scale(0.996264)"/>
      <use xlink:href="#CMSY10-70" transform="translate(418.763043 84.488725)scale(0.996264)"/>
      <use xlink:href="#CMMIB10-78" transform="translate(501.785297 0)scale(0.996264)"/>
      <use xlink:href="#MSAM10-7c" transform="translate(567.441795 28.780957)scale(0.697382)"/>
      <use xlink:href="#CMBX12-6" transform="translate(606.683464 0)scale(0.996264)"/>
      <use xlink:href="#CMMIB10-78" transform="translate(687.629914 0)scale(0.996264)"/>
      <path d="M 501.785297 84.488725 
L 753.286413 84.488725 
L 753.286413 88.473674 
L 501.785297 88.473674 
L 501.785297 84.488725 
z
"/>
     </g>
    </g>
   </g>
   <g id="matplotlib.axis_2">
    <g id="ytick_1">
     <g id="line2d_9">
      <defs>
       <path id="m6a3c9824d7" d="M 0 0 
L -3.5 0 
" style="stroke: #000000; stroke-width: 0.8"/>
      </defs>
      <g>
       <use xlink:href="#m6a3c9824d7" x="56.447902" y="129.523154" style="stroke: #000000; stroke-width: 0.8"/>
      </g>
     </g>
     <g id="text_10">
      <!-- $\mathdefault{−0.1}$ -->
      <g transform="translate(28.96908 132.982403)scale(0.1 -0.1)">
       <defs>
        <path id="CMSY10-0" d="M 4218 1472 
C 4326 1472 4442 1472 4442 1600 
C 4442 1728 4326 1728 4218 1728 
L 755 1728 
C 646 1728 531 1728 531 1600 
C 531 1472 646 1472 755 1472 
L 4218 1472 
z
" transform="scale(0.015625)"/>
       </defs>
       <use xlink:href="#CMSY10-0" transform="scale(0.996264)"/>
       <use xlink:href="#CMR17-30" transform="translate(77.487468 0)scale(0.996264)"/>
       <use xlink:href="#CMMI12-3a" transform="translate(123.177945 0)scale(0.996264)"/>
       <use xlink:href="#CMR17-31" transform="translate(150.275122 0)scale(0.996264)"/>
      </g>
     </g>
    </g>
    <g id="ytick_2">
     <g id="line2d_10">
      <g>
       <use xlink:href="#m6a3c9824d7" x="56.447902" y="104.059429" style="stroke: #000000; stroke-width: 0.8"/>
      </g>
     </g>
     <g id="text_11">
      <!-- $\mathdefault{0.0}$ -->
      <g transform="translate(36.717823 107.518678)scale(0.1 -0.1)">
       <use xlink:href="#CMR17-30" transform="scale(0.996264)"/>
       <use xlink:href="#CMMI12-3a" transform="translate(45.690477 0)scale(0.996264)"/>
       <use xlink:href="#CMR17-30" transform="translate(72.787654 0)scale(0.996264)"/>
      </g>
     </g>
    </g>
    <g id="ytick_3">
     <g id="line2d_11">
      <g>
       <use xlink:href="#m6a3c9824d7" x="56.447902" y="78.595704" style="stroke: #000000; stroke-width: 0.8"/>
      </g>
     </g>
     <g id="text_12">
      <!-- $\mathdefault{0.1}$ -->
      <g transform="translate(36.717823 82.054953)scale(0.1 -0.1)">
       <use xlink:href="#CMR17-30" transform="scale(0.996264)"/>
       <use xlink:href="#CMMI12-3a" transform="translate(45.690477 0)scale(0.996264)"/>
       <use xlink:href="#CMR17-31" transform="translate(72.787654 0)scale(0.996264)"/>
      </g>
     </g>
    </g>
    <g id="ytick_4">
     <g id="line2d_12">
      <g>
       <use xlink:href="#m6a3c9824d7" x="56.447902" y="53.131979" style="stroke: #000000; stroke-width: 0.8"/>
      </g>
     </g>
     <g id="text_13">
      <!-- $\mathdefault{0.2}$ -->
      <g transform="translate(36.717823 56.591228)scale(0.1 -0.1)">
       <use xlink:href="#CMR17-30" transform="scale(0.996264)"/>
       <use xlink:href="#CMMI12-3a" transform="translate(45.690477 0)scale(0.996264)"/>
       <use xlink:href="#CMR17-32" transform="translate(72.787654 0)scale(0.996264)"/>
      </g>
     </g>
    </g>
    <g id="text_14">
     <!-- Expected Return $\boldsymbol{\mu}^{\intercal} \boldsymbol{x}$ -->
     <g transform="translate(21.869588 165.725882)rotate(-90)scale(0.16 -0.16)">
      <defs>
       <path id="CMR17-45" d="M 3885 1614 
L 3770 1614 
C 3629 676 3546 166 2419 166 
L 1530 166 
C 1274 166 1261 198 1261 415 
L 1261 2176 
L 1862 2176 
C 2464 2176 2522 1959 2522 1429 
L 2637 1429 
L 2637 3086 
L 2522 3086 
C 2522 2558 2464 2342 1862 2342 
L 1261 2342 
L 1261 3924 
C 1261 4141 1274 4172 1530 4172 
L 2406 4172 
C 3398 4172 3514 3778 3603 2933 
L 3718 2933 
L 3565 4339 
L 326 4339 
L 326 4172 
C 768 4172 838 4172 838 3886 
L 838 453 
C 838 166 768 166 326 166 
L 326 0 
L 3654 0 
L 3885 1614 
z
" transform="scale(0.015625)"/>
       <path id="CMR17-78" d="M 1664 1491 
C 1856 1740 2074 2022 2253 2233 
C 2464 2476 2707 2579 2989 2585 
L 2989 2752 
C 2880 2745 2656 2739 2541 2739 
C 2368 2739 2170 2739 2022 2752 
L 2022 2585 
C 2112 2572 2163 2508 2163 2419 
C 2163 2304 2099 2233 2067 2188 
L 1594 1587 
L 1030 2323 
C 973 2393 973 2406 973 2438 
C 973 2515 1037 2579 1146 2585 
L 1146 2752 
C 992 2739 717 2739 557 2739 
C 384 2739 179 2739 38 2752 
L 38 2585 
C 384 2585 461 2560 614 2368 
L 1350 1414 
C 1363 1401 1395 1363 1395 1344 
C 1395 1318 838 633 768 544 
C 480 198 179 172 6 166 
L 6 0 
C 115 6 339 12 454 12 
C 582 12 864 12 979 0 
L 979 166 
C 941 172 838 185 838 332 
C 838 448 890 518 947 595 
L 1478 1248 
L 2035 524 
C 2086 454 2163 358 2163 313 
C 2163 224 2086 172 1984 166 
L 1984 0 
C 2138 12 2413 12 2573 12 
C 2746 12 2950 12 3091 0 
L 3091 166 
C 2771 166 2675 179 2522 377 
L 1664 1491 
z
" transform="scale(0.015625)"/>
       <path id="CMR17-70" d="M 1408 -1114 
C 998 -1114 973 -1088 973 -834 
L 973 380 
C 1158 109 1427 -64 1766 -64 
C 2406 -64 3053 503 3053 1382 
C 3053 2196 2496 2816 1837 2816 
C 1453 2816 1139 2603 960 2345 
L 960 2816 
L 198 2745 
L 198 2577 
C 576 2577 634 2539 634 2228 
L 634 -834 
C 634 -1081 608 -1114 198 -1114 
L 198 -1280 
C 352 -1268 634 -1268 800 -1268 
C 966 -1268 1254 -1268 1408 -1280 
L 1408 -1114 
z
M 973 2015 
C 973 2106 973 2241 1222 2481 
C 1254 2506 1472 2700 1792 2700 
C 2259 2700 2643 2112 2643 1376 
C 2643 639 2234 38 1728 38 
C 1498 38 1248 148 1056 451 
C 973 594 973 632 973 736 
L 973 2015 
z
" transform="scale(0.015625)"/>
       <path id="CMR17-65" d="M 2438 1503 
C 2464 1529 2464 1542 2464 1606 
C 2464 2251 2118 2816 1389 2816 
C 710 2816 173 2175 173 1394 
C 173 554 781 -64 1459 -64 
C 2176 -64 2458 619 2458 755 
C 2458 800 2419 800 2406 800 
C 2362 800 2355 787 2330 709 
C 2189 270 1837 51 1504 51 
C 1229 51 954 206 781 490 
C 582 819 582 1200 582 1503 
L 2438 1503 
z
M 589 1600 
C 634 2511 1126 2713 1382 2713 
C 1818 2713 2112 2308 2118 1600 
L 589 1600 
z
" transform="scale(0.015625)"/>
       <path id="CMR17-63" d="M 2234 2240 
C 2112 2240 1933 2240 1933 2015 
C 1933 1836 2080 1785 2163 1785 
C 2208 1785 2394 1804 2394 2028 
C 2394 2476 1958 2816 1466 2816 
C 787 2816 211 2201 211 1379 
C 211 521 813 -64 1466 -64 
C 2259 -64 2458 676 2458 747 
C 2458 773 2451 792 2406 792 
C 2362 792 2355 786 2330 702 
C 2163 180 1798 51 1523 51 
C 1114 51 621 431 621 1385 
C 621 2358 1094 2700 1472 2700 
C 1722 2700 2093 2582 2234 2240 
z
" transform="scale(0.015625)"/>
       <path id="CMR17-64" d="M 1869 4345 
L 1869 4179 
C 2246 4179 2304 4141 2304 3843 
L 2304 2371 
C 2278 2403 2016 2816 1498 2816 
C 845 2816 211 2228 211 1376 
C 211 529 806 -64 1434 -64 
C 1978 -64 2259 361 2291 406 
L 2291 -64 
L 3066 -13 
L 3066 154 
C 2688 154 2630 193 2630 503 
L 2630 4416 
L 1869 4345 
z
M 2291 762 
C 2291 568 2176 393 2029 264 
C 1811 70 1594 38 1472 38 
C 1286 38 621 135 621 1369 
C 621 2636 1363 2713 1530 2713 
C 1824 2713 2061 2545 2208 2313 
C 2291 2177 2291 2157 2291 2041 
L 2291 762 
z
" transform="scale(0.015625)"/>
       <path id="CMR17-52" d="M 2509 2156 
C 3117 2278 3629 2689 3629 3203 
C 3629 3806 2950 4352 2054 4352 
L 333 4352 
L 333 4185 
C 774 4185 845 4185 845 3896 
L 845 428 
C 845 140 774 140 333 140 
L 333 -26 
C 518 -13 851 -13 1050 -13 
C 1248 -13 1581 -13 1766 -26 
L 1766 140 
C 1325 140 1254 140 1254 428 
L 1254 2112 
L 2003 2112 
C 2368 2112 2573 1964 2662 1881 
C 2918 1632 2918 1459 2918 1024 
C 2918 595 2918 377 3110 160 
C 3354 -103 3680 -128 3821 -128 
C 4294 -128 4365 403 4365 512 
C 4365 550 4365 595 4307 595 
C 4256 595 4250 556 4250 531 
C 4218 115 4032 -26 3834 -26 
C 3482 -26 3443 377 3405 768 
C 3386 902 3373 998 3360 1139 
C 3322 1459 3270 1926 2509 2156 
z
M 1984 2214 
L 1254 2214 
L 1254 3935 
C 1254 4153 1267 4185 1523 4185 
L 1990 4185 
C 2522 4185 3142 3999 3142 3203 
C 3142 2374 2464 2214 1984 2214 
z
" transform="scale(0.015625)"/>
       <path id="CMR17-75" d="M 1882 2745 
L 1882 2579 
C 2259 2579 2317 2540 2317 2229 
L 2317 1053 
C 2317 510 2029 38 1555 38 
C 1030 38 986 355 986 691 
L 986 2816 
L 211 2745 
L 211 2579 
C 467 2579 640 2579 646 2320 
L 646 1079 
C 646 646 646 368 813 187 
C 896 103 1056 -64 1517 -64 
C 2061 -64 2272 400 2323 536 
L 2330 536 
L 2330 -64 
L 3091 -13 
L 3091 154 
C 2714 154 2656 193 2656 503 
L 2656 2816 
L 1882 2745 
z
" transform="scale(0.015625)"/>
       <path id="CMR17-72" d="M 960 1517 
C 960 2134 1222 2713 1702 2713 
C 1747 2713 1792 2707 1837 2687 
C 1837 2687 1696 2642 1696 2475 
C 1696 2321 1818 2257 1914 2257 
C 1990 2257 2131 2302 2131 2482 
C 2131 2687 1926 2816 1709 2816 
C 1222 2816 1011 2340 947 2115 
L 941 2115 
L 941 2816 
L 198 2745 
L 198 2578 
C 576 2578 634 2540 634 2231 
L 634 443 
C 634 198 608 166 198 166 
L 198 0 
C 352 12 646 12 813 12 
C 998 12 1325 12 1498 0 
L 1498 166 
C 1037 166 960 166 960 455 
L 960 1517 
z
" transform="scale(0.015625)"/>
       <path id="CMR17-6e" d="M 2656 1954 
C 2656 2282 2592 2816 1837 2816 
C 1331 2816 1069 2424 973 2166 
L 966 2166 
L 966 2816 
L 211 2745 
L 211 2578 
C 589 2578 646 2540 646 2231 
L 646 443 
C 646 198 621 166 211 166 
L 211 0 
C 365 12 646 12 813 12 
C 979 12 1267 12 1421 0 
L 1421 166 
C 1011 166 986 192 986 443 
L 986 1678 
C 986 2269 1344 2713 1792 2713 
C 2266 2713 2317 2289 2317 1980 
L 2317 443 
C 2317 198 2291 166 1882 166 
L 1882 0 
C 2035 12 2317 12 2483 12 
C 2650 12 2938 12 3091 0 
L 3091 166 
C 2682 166 2656 192 2656 443 
L 2656 1954 
z
" transform="scale(0.015625)"/>
       <path id="CMMIB10-16" d="M 1760 2112 
C 1798 2278 1869 2553 1869 2598 
C 1869 2732 1766 2880 1568 2880 
C 1235 2880 1152 2560 1133 2483 
L 282 -906 
C 256 -1008 256 -1046 256 -1071 
C 256 -1274 422 -1351 557 -1351 
C 678 -1351 851 -1281 941 -1103 
C 979 -1027 1190 -159 1235 38 
C 1498 -64 1786 -64 1869 -64 
C 2086 -64 2381 -26 2765 320 
C 2918 25 3277 -64 3514 -64 
C 3750 -64 3936 70 4070 300 
C 4230 556 4314 902 4314 934 
C 4314 1024 4218 1024 4160 1024 
C 4090 1024 4064 1024 4032 992 
C 4019 979 4019 966 3981 806 
C 3853 294 3706 166 3546 166 
C 3475 166 3398 192 3398 403 
C 3398 512 3424 614 3488 870 
L 3654 1523 
C 3686 1664 3750 1926 3795 2099 
C 3834 2246 3898 2502 3898 2547 
C 3898 2681 3795 2828 3597 2828 
C 3469 2828 3245 2751 3174 2489 
L 2733 716 
C 2707 601 2598 492 2483 396 
C 2278 224 2086 166 1914 166 
C 1478 166 1440 480 1440 672 
C 1440 844 1478 998 1504 1113 
L 1760 2112 
z
" transform="scale(0.015625)"/>
      </defs>
      <use xlink:href="#CMR17-45" transform="scale(0.996264)"/>
      <use xlink:href="#CMR17-78" transform="translate(62.586301 0)scale(0.996264)"/>
      <use xlink:href="#CMR17-70" transform="translate(110.879216 0)scale(0.996264)"/>
      <use xlink:href="#CMR17-65" transform="translate(164.377025 0)scale(0.996264)"/>
      <use xlink:href="#CMR17-63" transform="translate(204.862685 0)scale(0.996264)"/>
      <use xlink:href="#CMR17-74" transform="translate(245.348346 0)scale(0.996264)"/>
      <use xlink:href="#CMR17-65" transform="translate(280.629114 0)scale(0.996264)"/>
      <use xlink:href="#CMR17-64" transform="translate(321.114774 0)scale(0.996264)"/>
      <use xlink:href="#CMR17-52" transform="translate(402.08611 0)scale(0.996264)"/>
      <use xlink:href="#CMR17-65" transform="translate(469.877212 0)scale(0.996264)"/>
      <use xlink:href="#CMR17-74" transform="translate(510.362873 0)scale(0.996264)"/>
      <use xlink:href="#CMR17-75" transform="translate(545.64364 0)scale(0.996264)"/>
      <use xlink:href="#CMR17-72" transform="translate(596.53901 0)scale(0.996264)"/>
      <use xlink:href="#CMR17-6e" transform="translate(631.819778 0)scale(0.996264)"/>
      <use xlink:href="#CMMIB10-16" transform="translate(712.791114 0)scale(0.996264)"/>
      <use xlink:href="#MSAM10-7c" transform="translate(783.313505 36.153639)scale(0.697382)"/>
      <use xlink:href="#CMMIB10-78" transform="translate(822.555173 0)scale(0.996264)"/>
     </g>
    </g>
   </g>
   <g id="line2d_13">
    <path d="M 378.692235 147.57289 
L 278.072395 142.822759 
L 193.873268 138.072628 
L 137.871375 133.322497 
L 113.411354 128.572366 
L 98.985342 123.822235 
L 88.989292 119.072104 
L 79.910921 114.321973 
L 74.636262 109.571842 
L 72.526943 104.821711 
L 71.792871 100.07158 
L 73.110337 95.321449 
L 75.470677 90.571318 
L 79.333355 85.821187 
L 84.610791 81.071056 
L 91.869533 76.320925 
L 99.755078 71.570794 
L 110.957065 66.820663 
L 125.615182 62.070532 
L 146.122529 57.320401 
L 172.258531 52.57027 
L 203.375267 47.820139 
L 241.401125 43.070008 
L 289.226229 38.319877 
L 356.876456 33.569746 
" clip-path="url(#p8cb4ee109e)" style="fill: none; stroke: #1f77b4; stroke-width: 1.5; stroke-linecap: square"/>
    <defs>
     <path id="m4c42ef29c4" d="M 0 1.5 
C 0.397805 1.5 0.77937 1.341951 1.06066 1.06066 
C 1.341951 0.77937 1.5 0.397805 1.5 0 
C 1.5 -0.397805 1.341951 -0.77937 1.06066 -1.06066 
C 0.77937 -1.341951 0.397805 -1.5 0 -1.5 
C -0.397805 -1.5 -0.77937 -1.341951 -1.06066 -1.06066 
C -1.341951 -0.77937 -1.5 -0.397805 -1.5 0 
C -1.5 0.397805 -1.341951 0.77937 -1.06066 1.06066 
C -0.77937 1.341951 -0.397805 1.5 0 1.5 
z
" style="stroke: #1f77b4"/>
    </defs>
    <g clip-path="url(#p8cb4ee109e)">
     <use xlink:href="#m4c42ef29c4" x="378.692235" y="147.57289" style="fill: #1f77b4; stroke: #1f77b4"/>
     <use xlink:href="#m4c42ef29c4" x="278.072395" y="142.822759" style="fill: #1f77b4; stroke: #1f77b4"/>
     <use xlink:href="#m4c42ef29c4" x="193.873268" y="138.072628" style="fill: #1f77b4; stroke: #1f77b4"/>
     <use xlink:href="#m4c42ef29c4" x="137.871375" y="133.322497" style="fill: #1f77b4; stroke: #1f77b4"/>
     <use xlink:href="#m4c42ef29c4" x="113.411354" y="128.572366" style="fill: #1f77b4; stroke: #1f77b4"/>
     <use xlink:href="#m4c42ef29c4" x="98.985342" y="123.822235" style="fill: #1f77b4; stroke: #1f77b4"/>
     <use xlink:href="#m4c42ef29c4" x="88.989292" y="119.072104" style="fill: #1f77b4; stroke: #1f77b4"/>
     <use xlink:href="#m4c42ef29c4" x="79.910921" y="114.321973" style="fill: #1f77b4; stroke: #1f77b4"/>
     <use xlink:href="#m4c42ef29c4" x="74.636262" y="109.571842" style="fill: #1f77b4; stroke: #1f77b4"/>
     <use xlink:href="#m4c42ef29c4" x="72.526943" y="104.821711" style="fill: #1f77b4; stroke: #1f77b4"/>
     <use xlink:href="#m4c42ef29c4" x="71.792871" y="100.07158" style="fill: #1f77b4; stroke: #1f77b4"/>
     <use xlink:href="#m4c42ef29c4" x="73.110337" y="95.321449" style="fill: #1f77b4; stroke: #1f77b4"/>
     <use xlink:href="#m4c42ef29c4" x="75.470677" y="90.571318" style="fill: #1f77b4; stroke: #1f77b4"/>
     <use xlink:href="#m4c42ef29c4" x="79.333355" y="85.821187" style="fill: #1f77b4; stroke: #1f77b4"/>
     <use xlink:href="#m4c42ef29c4" x="84.610791" y="81.071056" style="fill: #1f77b4; stroke: #1f77b4"/>
     <use xlink:href="#m4c42ef29c4" x="91.869533" y="76.320925" style="fill: #1f77b4; stroke: #1f77b4"/>
     <use xlink:href="#m4c42ef29c4" x="99.755078" y="71.570794" style="fill: #1f77b4; stroke: #1f77b4"/>
     <use xlink:href="#m4c42ef29c4" x="110.957065" y="66.820663" style="fill: #1f77b4; stroke: #1f77b4"/>
     <use xlink:href="#m4c42ef29c4" x="125.615182" y="62.070532" style="fill: #1f77b4; stroke: #1f77b4"/>
     <use xlink:href="#m4c42ef29c4" x="146.122529" y="57.320401" style="fill: #1f77b4; stroke: #1f77b4"/>
     <use xlink:href="#m4c42ef29c4" x="172.258531" y="52.57027" style="fill: #1f77b4; stroke: #1f77b4"/>
     <use xlink:href="#m4c42ef29c4" x="203.375267" y="47.820139" style="fill: #1f77b4; stroke: #1f77b4"/>
     <use xlink:href="#m4c42ef29c4" x="241.401125" y="43.070008" style="fill: #1f77b4; stroke: #1f77b4"/>
     <use xlink:href="#m4c42ef29c4" x="289.226229" y="38.319877" style="fill: #1f77b4; stroke: #1f77b4"/>
     <use xlink:href="#m4c42ef29c4" x="356.876456" y="33.569746" style="fill: #1f77b4; stroke: #1f77b4"/>
    </g>
   </g>
   <g id="line2d_14">
    <path d="M 378.692235 147.57289 
L 278.072395 142.822759 
L 190.606185 138.072628 
L 137.889965 133.322497 
L 113.508842 128.572366 
L 99.558802 123.822235 
L 88.757127 119.072104 
L 80.235257 114.321973 
L 74.748331 109.571842 
L 72.118337 104.821711 
L 71.798669 100.07158 
L 73.083607 95.321449 
L 75.682934 90.571318 
L 79.884919 85.821187 
L 85.633862 81.071056 
L 92.651104 76.320925 
L 102.254239 71.570794 
L 115.669393 66.820663 
L 126.908615 62.070532 
L 147.762046 57.320401 
L 175.000635 52.57027 
L 208.325754 47.820139 
L 249.629162 43.070008 
L 299.175505 38.319877 
L 356.876495 33.569746 
" clip-path="url(#p8cb4ee109e)" style="fill: none; stroke-dasharray: 5.55,2.4; stroke-dashoffset: 0; stroke: #ff7f0e; stroke-width: 1.5"/>
    <defs>
     <path id="mdf64d9f0df" d="M 0 -3 
L -0.673542 -0.927051 
L -2.85317 -0.927051 
L -1.089814 0.354102 
L -1.763356 2.427051 
L -0 1.145898 
L 1.763356 2.427051 
L 1.089814 0.354102 
L 2.85317 -0.927051 
L 0.673542 -0.927051 
z
" style="stroke: #ff7f0e; stroke-linejoin: bevel"/>
    </defs>
    <g clip-path="url(#p8cb4ee109e)">
     <use xlink:href="#mdf64d9f0df" x="378.692235" y="147.57289" style="fill: #ff7f0e; stroke: #ff7f0e; stroke-linejoin: bevel"/>
     <use xlink:href="#mdf64d9f0df" x="278.072395" y="142.822759" style="fill: #ff7f0e; stroke: #ff7f0e; stroke-linejoin: bevel"/>
     <use xlink:href="#mdf64d9f0df" x="190.606185" y="138.072628" style="fill: #ff7f0e; stroke: #ff7f0e; stroke-linejoin: bevel"/>
     <use xlink:href="#mdf64d9f0df" x="137.889965" y="133.322497" style="fill: #ff7f0e; stroke: #ff7f0e; stroke-linejoin: bevel"/>
     <use xlink:href="#mdf64d9f0df" x="113.508842" y="128.572366" style="fill: #ff7f0e; stroke: #ff7f0e; stroke-linejoin: bevel"/>
     <use xlink:href="#mdf64d9f0df" x="99.558802" y="123.822235" style="fill: #ff7f0e; stroke: #ff7f0e; stroke-linejoin: bevel"/>
     <use xlink:href="#mdf64d9f0df" x="88.757127" y="119.072104" style="fill: #ff7f0e; stroke: #ff7f0e; stroke-linejoin: bevel"/>
     <use xlink:href="#mdf64d9f0df" x="80.235257" y="114.321973" style="fill: #ff7f0e; stroke: #ff7f0e; stroke-linejoin: bevel"/>
     <use xlink:href="#mdf64d9f0df" x="74.748331" y="109.571842" style="fill: #ff7f0e; stroke: #ff7f0e; stroke-linejoin: bevel"/>
     <use xlink:href="#mdf64d9f0df" x="72.118337" y="104.821711" style="fill: #ff7f0e; stroke: #ff7f0e; stroke-linejoin: bevel"/>
     <use xlink:href="#mdf64d9f0df" x="71.798669" y="100.07158" style="fill: #ff7f0e; stroke: #ff7f0e; stroke-linejoin: bevel"/>
     <use xlink:href="#mdf64d9f0df" x="73.083607" y="95.321449" style="fill: #ff7f0e; stroke: #ff7f0e; stroke-linejoin: bevel"/>
     <use xlink:href="#mdf64d9f0df" x="75.682934" y="90.571318" style="fill: #ff7f0e; stroke: #ff7f0e; stroke-linejoin: bevel"/>
     <use xlink:href="#mdf64d9f0df" x="79.884919" y="85.821187" style="fill: #ff7f0e; stroke: #ff7f0e; stroke-linejoin: bevel"/>
     <use xlink:href="#mdf64d9f0df" x="85.633862" y="81.071056" style="fill: #ff7f0e; stroke: #ff7f0e; stroke-linejoin: bevel"/>
     <use xlink:href="#mdf64d9f0df" x="92.651104" y="76.320925" style="fill: #ff7f0e; stroke: #ff7f0e; stroke-linejoin: bevel"/>
     <use xlink:href="#mdf64d9f0df" x="102.254239" y="71.570794" style="fill: #ff7f0e; stroke: #ff7f0e; stroke-linejoin: bevel"/>
     <use xlink:href="#mdf64d9f0df" x="115.669393" y="66.820663" style="fill: #ff7f0e; stroke: #ff7f0e; stroke-linejoin: bevel"/>
     <use xlink:href="#mdf64d9f0df" x="126.908615" y="62.070532" style="fill: #ff7f0e; stroke: #ff7f0e; stroke-linejoin: bevel"/>
     <use xlink:href="#mdf64d9f0df" x="147.762046" y="57.320401" style="fill: #ff7f0e; stroke: #ff7f0e; stroke-linejoin: bevel"/>
     <use xlink:href="#mdf64d9f0df" x="175.000635" y="52.57027" style="fill: #ff7f0e; stroke: #ff7f0e; stroke-linejoin: bevel"/>
     <use xlink:href="#mdf64d9f0df" x="208.325754" y="47.820139" style="fill: #ff7f0e; stroke: #ff7f0e; stroke-linejoin: bevel"/>
     <use xlink:href="#mdf64d9f0df" x="249.629162" y="43.070008" style="fill: #ff7f0e; stroke: #ff7f0e; stroke-linejoin: bevel"/>
     <use xlink:href="#mdf64d9f0df" x="299.175505" y="38.319877" style="fill: #ff7f0e; stroke: #ff7f0e; stroke-linejoin: bevel"/>
     <use xlink:href="#mdf64d9f0df" x="356.876495" y="33.569746" style="fill: #ff7f0e; stroke: #ff7f0e; stroke-linejoin: bevel"/>
    </g>
   </g>
   <g id="patch_3">
    <path d="M 56.447902 153.273048 
L 56.447902 27.869588 
" style="fill: none; stroke: #000000; stroke-width: 0.8; stroke-linejoin: miter; stroke-linecap: square"/>
   </g>
   <g id="patch_4">
    <path d="M 394.037203 153.273048 
L 394.037203 27.869588 
" style="fill: none; stroke: #000000; stroke-width: 0.8; stroke-linejoin: miter; stroke-linecap: square"/>
   </g>
   <g id="patch_5">
    <path d="M 56.447902 153.273048 
L 394.037203 153.273048 
" style="fill: none; stroke: #000000; stroke-width: 0.8; stroke-linejoin: miter; stroke-linecap: square"/>
   </g>
   <g id="patch_6">
    <path d="M 56.447902 27.869588 
L 394.037203 27.869588 
" style="fill: none; stroke: #000000; stroke-width: 0.8; stroke-linejoin: miter; stroke-linecap: square"/>
   </g>
   <g id="text_15">
    <!-- Efficient Frontier Comparison -->
    <g transform="translate(123.966895 21.869588)scale(0.16 -0.16)">
     <defs>
      <path id="CMR17-e" d="M 4154 2810 
C 4000 2804 3526 2771 3405 2758 
C 3366 2752 3354 2752 3277 2752 
L 2547 2752 
L 2547 3516 
C 2547 4127 3034 4377 3418 4377 
C 3539 4377 3814 4349 3955 4160 
C 3891 4160 3686 4160 3686 3935 
C 3686 3782 3789 3705 3917 3705 
C 4032 3705 4147 3769 4147 3942 
C 4147 4249 3840 4480 3443 4480 
C 3245 4480 2829 4435 2496 4153 
C 2413 4299 2202 4480 1837 4480 
C 1344 4480 634 4215 634 3516 
L 634 2752 
L 122 2752 
L 122 2585 
L 634 2585 
L 634 441 
C 634 198 608 166 198 166 
L 198 0 
C 352 12 634 12 794 12 
C 960 12 1242 12 1395 0 
L 1395 166 
C 986 166 960 192 960 441 
L 960 2585 
L 2234 2585 
L 2234 441 
C 2234 198 2208 166 1798 166 
L 1798 0 
C 1952 12 2234 12 2394 12 
C 2560 12 2842 12 2995 0 
L 2995 166 
C 2586 166 2560 192 2560 441 
L 2560 2585 
L 3501 2585 
C 3776 2585 3827 2528 3827 2246 
L 3827 441 
C 3827 198 3802 166 3392 166 
L 3392 0 
C 3546 12 3827 12 3987 12 
C 4154 12 4435 12 4589 0 
L 4589 166 
C 4179 166 4154 192 4154 441 
L 4154 2810 
z
M 947 2752 
L 947 3516 
C 947 4121 1421 4377 1818 4377 
C 2042 4377 2259 4293 2355 4160 
C 2291 4160 2080 4160 2080 3935 
C 2080 3820 2144 3743 2246 3711 
C 2234 3653 2234 3522 2234 3516 
L 2234 2752 
L 947 2752 
z
" transform="scale(0.015625)"/>
      <path id="CMR17-46" d="M 3482 4339 
L 326 4339 
L 326 4172 
C 768 4172 838 4172 838 3883 
L 838 450 
C 838 166 768 166 326 166 
L 326 0 
C 512 12 870 12 1069 12 
C 1331 12 1638 12 1901 0 
L 1901 166 
L 1760 166 
C 1274 166 1261 229 1261 456 
L 1261 2073 
L 1837 2073 
C 2432 2073 2490 1865 2490 1334 
L 2605 1334 
L 2605 2991 
L 2490 2991 
C 2490 2451 2432 2240 1837 2240 
L 1261 2240 
L 1261 3922 
C 1261 4140 1274 4172 1530 4172 
L 2355 4172 
C 3322 4172 3430 3774 3520 2920 
L 3635 2920 
L 3482 4339 
z
" transform="scale(0.015625)"/>
      <path id="CMR17-43" d="M 3974 4351 
C 3974 4467 3968 4473 3930 4473 
C 3904 4473 3898 4467 3853 4390 
L 3571 3849 
C 3258 4249 2874 4480 2381 4480 
C 1286 4480 294 3507 294 2179 
C 294 837 1286 -128 2387 -128 
C 3366 -128 3974 741 3974 1482 
C 3974 1547 3974 1573 3917 1573 
C 3866 1573 3866 1553 3859 1495 
C 3808 592 3168 38 2477 38 
C 1824 38 781 502 781 2179 
C 781 3862 1843 4313 2464 4313 
C 3187 4313 3712 3681 3834 2785 
C 3846 2707 3846 2695 3904 2695 
C 3974 2695 3974 2707 3974 2824 
L 3974 4351 
z
" transform="scale(0.015625)"/>
      <path id="CMR17-6d" d="M 4326 1954 
C 4326 2276 4269 2816 3507 2816 
C 3072 2816 2771 2520 2656 2173 
L 2650 2173 
C 2573 2700 2195 2816 1837 2816 
C 1331 2816 1069 2424 973 2166 
L 966 2166 
L 966 2816 
L 211 2745 
L 211 2578 
C 589 2578 646 2540 646 2231 
L 646 443 
C 646 198 621 166 211 166 
L 211 0 
C 365 12 646 12 813 12 
C 979 12 1267 12 1421 0 
L 1421 166 
C 1011 166 986 192 986 443 
L 986 1678 
C 986 2269 1344 2713 1792 2713 
C 2266 2713 2317 2289 2317 1980 
L 2317 443 
C 2317 198 2291 166 1882 166 
L 1882 0 
C 2035 12 2317 12 2483 12 
C 2650 12 2938 12 3091 0 
L 3091 166 
C 2682 166 2656 192 2656 443 
L 2656 1678 
C 2656 2269 3014 2713 3462 2713 
C 3936 2713 3987 2289 3987 1980 
L 3987 443 
C 3987 198 3962 166 3552 166 
L 3552 0 
C 3706 12 3987 12 4154 12 
C 4320 12 4608 12 4762 0 
L 4762 166 
C 4352 166 4326 192 4326 443 
L 4326 1954 
z
" transform="scale(0.015625)"/>
      <path id="CMR17-73" d="M 1978 2688 
C 1978 2803 1971 2809 1933 2809 
C 1907 2809 1901 2803 1824 2707 
C 1805 2681 1747 2617 1728 2592 
C 1523 2809 1235 2816 1126 2816 
C 416 2816 160 2444 160 2073 
C 160 1497 813 1363 998 1324 
C 1402 1241 1542 1216 1677 1100 
C 1760 1024 1901 883 1901 652 
C 1901 384 1747 38 1158 38 
C 602 38 403 460 288 1024 
C 269 1113 269 1120 218 1120 
C 166 1120 160 1113 160 985 
L 160 64 
C 160 -52 166 -58 205 -58 
C 237 -58 243 -52 275 0 
C 314 57 410 211 448 275 
C 576 102 800 -64 1158 -64 
C 1792 -64 2131 281 2131 780 
C 2131 1107 1958 1280 1875 1356 
C 1683 1555 1459 1600 1190 1651 
C 838 1728 390 1817 390 2208 
C 390 2374 480 2726 1126 2726 
C 1811 2726 1850 2086 1862 1881 
C 1869 1849 1901 1843 1920 1843 
C 1978 1843 1978 1862 1978 1971 
L 1978 2688 
z
" transform="scale(0.015625)"/>
     </defs>
     <use xlink:href="#CMR17-45" transform="scale(0.996264)"/>
     <use xlink:href="#CMR17-e" transform="translate(62.586301 0)scale(0.996264)"/>
     <use xlink:href="#CMR17-63" transform="translate(137.199582 0)scale(0.996264)"/>
     <use xlink:href="#CMR17-69" transform="translate(177.685243 0)scale(0.996264)"/>
     <use xlink:href="#CMR17-65" transform="translate(202.556301 0)scale(0.996264)"/>
     <use xlink:href="#CMR17-6e" transform="translate(243.041962 0)scale(0.996264)"/>
     <use xlink:href="#CMR17-74" transform="translate(291.334878 0)scale(0.996264)"/>
     <use xlink:href="#CMR17-46" transform="translate(356.691612 0)scale(0.996264)"/>
     <use xlink:href="#CMR17-72" transform="translate(408.868203 0)scale(0.996264)"/>
     <use xlink:href="#CMR17-6f" transform="translate(444.148971 0)scale(0.996264)"/>
     <use xlink:href="#CMR17-6e" transform="translate(489.839448 0)scale(0.996264)"/>
     <use xlink:href="#CMR17-74" transform="translate(538.132364 0)scale(0.996264)"/>
     <use xlink:href="#CMR17-69" transform="translate(573.413132 0)scale(0.996264)"/>
     <use xlink:href="#CMR17-65" transform="translate(598.28419 0)scale(0.996264)"/>
     <use xlink:href="#CMR17-72" transform="translate(638.76985 0)scale(0.996264)"/>
     <use xlink:href="#CMR17-43" transform="translate(704.126585 0)scale(0.996264)"/>
     <use xlink:href="#CMR17-6f" transform="translate(770.636465 0)scale(0.996264)"/>
     <use xlink:href="#CMR17-6d" transform="translate(816.326942 0)scale(0.996264)"/>
     <use xlink:href="#CMR17-70" transform="translate(893.246532 0)scale(0.996264)"/>
     <use xlink:href="#CMR17-61" transform="translate(944.141902 0)scale(0.996264)"/>
     <use xlink:href="#CMR17-72" transform="translate(989.832379 0)scale(0.996264)"/>
     <use xlink:href="#CMR17-69" transform="translate(1025.113147 0)scale(0.996264)"/>
     <use xlink:href="#CMR17-73" transform="translate(1049.984205 0)scale(0.996264)"/>
     <use xlink:href="#CMR17-6f" transform="translate(1085.785543 0)scale(0.996264)"/>
     <use xlink:href="#CMR17-6e" transform="translate(1131.47602 0)scale(0.996264)"/>
    </g>
   </g>
   <g id="legend_1">
    <g id="patch_7">
     <path d="M 30.679756 248.293038 
L 419.805349 248.293038 
L 419.805349 198.894085 
L 30.679756 198.894085 
z
" style="fill: #ffffff; opacity: 0.8; stroke: #cccccc; stroke-linejoin: miter"/>
    </g>
    <g id="line2d_15">
     <path d="M 37.079756 210.894085 
L 53.079756 210.894085 
L 69.079756 210.894085 
" style="fill: none; stroke: #1f77b4; stroke-width: 1.5; stroke-linecap: square"/>
     <g>
      <use xlink:href="#m4c42ef29c4" x="53.079756" y="210.894085" style="fill: #1f77b4; stroke: #1f77b4"/>
     </g>
    </g>
    <g id="text_16">
     <!-- Cardinality Constrained Mean Variance Frontier -->
     <g transform="translate(81.879756 216.494085)scale(0.16 -0.16)">
      <defs>
       <path id="CMR17-4d" d="M 1338 4249 
C 1299 4345 1293 4352 1158 4352 
L 339 4352 
L 339 4185 
C 781 4185 851 4185 851 3898 
L 851 624 
C 851 465 851 166 339 166 
L 339 0 
C 486 12 755 12 915 12 
C 1075 12 1344 12 1491 0 
L 1491 166 
C 979 166 979 465 979 624 
L 979 4159 
L 986 4159 
L 2490 102 
C 2515 38 2528 0 2579 0 
C 2630 0 2643 38 2669 102 
L 4186 4191 
L 4192 4191 
L 4192 453 
C 4192 166 4122 166 3680 166 
L 3680 0 
C 3853 12 4198 12 4384 12 
C 4570 12 4922 12 5094 0 
L 5094 166 
C 4653 166 4582 166 4582 453 
L 4582 3898 
C 4582 4185 4653 4185 5094 4185 
L 5094 4352 
L 4282 4352 
C 4147 4352 4141 4345 4102 4249 
L 2720 516 
L 1338 4249 
z
" transform="scale(0.015625)"/>
      </defs>
      <use xlink:href="#CMR17-43" transform="scale(0.996264)"/>
      <use xlink:href="#CMR17-61" transform="translate(66.509881 0)scale(0.996264)"/>
      <use xlink:href="#CMR17-72" transform="translate(112.200358 0)scale(0.996264)"/>
      <use xlink:href="#CMR17-64" transform="translate(147.481125 0)scale(0.996264)"/>
      <use xlink:href="#CMR17-69" transform="translate(198.376495 0)scale(0.996264)"/>
      <use xlink:href="#CMR17-6e" transform="translate(223.247554 0)scale(0.996264)"/>
      <use xlink:href="#CMR17-61" transform="translate(274.142924 0)scale(0.996264)"/>
      <use xlink:href="#CMR17-6c" transform="translate(319.833401 0)scale(0.996264)"/>
      <use xlink:href="#CMR17-69" transform="translate(344.704459 0)scale(0.996264)"/>
      <use xlink:href="#CMR17-74" transform="translate(369.575518 0)scale(0.996264)"/>
      <use xlink:href="#CMR17-79" transform="translate(402.253831 0)scale(0.996264)"/>
      <use xlink:href="#CMR17-43" transform="translate(480.622714 0)scale(0.996264)"/>
      <use xlink:href="#CMR17-6f" transform="translate(547.132594 0)scale(0.996264)"/>
      <use xlink:href="#CMR17-6e" transform="translate(592.823071 0)scale(0.996264)"/>
      <use xlink:href="#CMR17-73" transform="translate(643.718441 0)scale(0.996264)"/>
      <use xlink:href="#CMR17-74" transform="translate(679.519779 0)scale(0.996264)"/>
      <use xlink:href="#CMR17-72" transform="translate(714.800547 0)scale(0.996264)"/>
      <use xlink:href="#CMR17-61" transform="translate(750.081314 0)scale(0.996264)"/>
      <use xlink:href="#CMR17-69" transform="translate(795.771791 0)scale(0.996264)"/>
      <use xlink:href="#CMR17-6e" transform="translate(820.64285 0)scale(0.996264)"/>
      <use xlink:href="#CMR17-65" transform="translate(871.53822 0)scale(0.996264)"/>
      <use xlink:href="#CMR17-64" transform="translate(912.02388 0)scale(0.996264)"/>
      <use xlink:href="#CMR17-4d" transform="translate(992.995216 0)scale(0.996264)"/>
      <use xlink:href="#CMR17-65" transform="translate(1077.682157 0)scale(0.996264)"/>
      <use xlink:href="#CMR17-61" transform="translate(1118.167817 0)scale(0.996264)"/>
      <use xlink:href="#CMR17-6e" transform="translate(1163.858294 0)scale(0.996264)"/>
      <use xlink:href="#CMR17-56" transform="translate(1244.829631 0)scale(0.996264)"/>
      <use xlink:href="#CMR17-61" transform="translate(1306.094805 0)scale(0.996264)"/>
      <use xlink:href="#CMR17-72" transform="translate(1351.785282 0)scale(0.996264)"/>
      <use xlink:href="#CMR17-69" transform="translate(1387.06605 0)scale(0.996264)"/>
      <use xlink:href="#CMR17-61" transform="translate(1411.937108 0)scale(0.996264)"/>
      <use xlink:href="#CMR17-6e" transform="translate(1457.627586 0)scale(0.996264)"/>
      <use xlink:href="#CMR17-63" transform="translate(1508.522955 0)scale(0.996264)"/>
      <use xlink:href="#CMR17-65" transform="translate(1549.008616 0)scale(0.996264)"/>
      <use xlink:href="#CMR17-46" transform="translate(1619.570243 0)scale(0.996264)"/>
      <use xlink:href="#CMR17-72" transform="translate(1671.746834 0)scale(0.996264)"/>
      <use xlink:href="#CMR17-6f" transform="translate(1707.027602 0)scale(0.996264)"/>
      <use xlink:href="#CMR17-6e" transform="translate(1752.718079 0)scale(0.996264)"/>
      <use xlink:href="#CMR17-74" transform="translate(1801.010995 0)scale(0.996264)"/>
      <use xlink:href="#CMR17-69" transform="translate(1836.291762 0)scale(0.996264)"/>
      <use xlink:href="#CMR17-65" transform="translate(1861.162821 0)scale(0.996264)"/>
      <use xlink:href="#CMR17-72" transform="translate(1901.648481 0)scale(0.996264)"/>
     </g>
    </g>
    <g id="line2d_16">
     <path d="M 37.079756 233.193562 
L 53.079756 233.193562 
L 69.079756 233.193562 
" style="fill: none; stroke-dasharray: 5.55,2.4; stroke-dashoffset: 0; stroke: #ff7f0e; stroke-width: 1.5"/>
     <g>
      <use xlink:href="#mdf64d9f0df" x="53.079756" y="233.193562" style="fill: #ff7f0e; stroke: #ff7f0e; stroke-linejoin: bevel"/>
     </g>
    </g>
    <g id="text_17">
     <!-- SVM - MVO Frontier -->
     <g transform="translate(81.879756 238.793562)scale(0.16 -0.16)">
      <defs>
       <path id="CMR17-53" d="M 2803 4351 
C 2803 4467 2797 4473 2758 4473 
C 2720 4473 2707 4447 2682 4390 
L 2490 3965 
C 2246 4320 1875 4480 1472 4480 
C 819 4480 294 3958 294 3301 
C 294 3101 339 2817 557 2546 
C 794 2250 1018 2198 1530 2063 
C 1722 2011 2042 1927 2106 1901 
C 2470 1747 2662 1360 2662 999 
C 2662 534 2336 38 1779 38 
C 1094 38 454 425 410 1328 
C 403 1431 397 1437 352 1437 
C 301 1437 294 1431 294 1302 
L 294 0 
C 294 -116 301 -122 339 -122 
C 384 -122 397 -90 486 109 
C 493 128 493 141 614 386 
C 934 -39 1472 -128 1779 -128 
C 2477 -128 2970 457 2970 1141 
C 2970 1476 2848 1734 2778 1850 
C 2509 2263 2221 2340 1914 2417 
C 1869 2437 1856 2437 1498 2527 
C 1152 2617 1005 2662 845 2836 
C 666 3036 602 3243 602 3449 
C 602 3868 934 4326 1478 4326 
C 2157 4326 2579 3842 2675 3036 
C 2694 2920 2701 2914 2746 2914 
C 2803 2914 2803 2933 2803 3043 
L 2803 4351 
z
" transform="scale(0.015625)"/>
       <path id="CMR17-2d" d="M 1632 1254 
L 1632 1536 
L 26 1536 
L 26 1254 
L 1632 1254 
z
" transform="scale(0.015625)"/>
       <path id="CMR17-4f" d="M 4307 2166 
C 4307 3488 3366 4480 2304 4480 
C 1216 4480 294 3475 294 2166 
C 294 857 1229 -128 2298 -128 
C 3392 -128 4307 876 4307 2166 
z
M 2304 -13 
C 1574 -13 781 722 781 2250 
C 781 3771 1651 4364 2298 4364 
C 2976 4364 3821 3752 3821 2250 
C 3821 696 3008 -13 2304 -13 
z
" transform="scale(0.015625)"/>
      </defs>
      <use xlink:href="#CMR17-53" transform="scale(0.996264)"/>
      <use xlink:href="#CMR17-56" transform="translate(50.89537 0)scale(0.996264)"/>
      <use xlink:href="#CMR17-4d" transform="translate(119.9678 0)scale(0.996264)"/>
      <use xlink:href="#CMR17-2d" transform="translate(234.730707 0)scale(0.996264)"/>
      <use xlink:href="#CMR17-4d" transform="translate(294.882639 0)scale(0.996264)"/>
      <use xlink:href="#CMR17-56" transform="translate(379.56958 0)scale(0.996264)"/>
      <use xlink:href="#CMR17-4f" transform="translate(446.039556 0)scale(0.996264)"/>
      <use xlink:href="#CMR17-46" transform="translate(547.83031 0)scale(0.996264)"/>
      <use xlink:href="#CMR17-72" transform="translate(600.006902 0)scale(0.996264)"/>
      <use xlink:href="#CMR17-6f" transform="translate(635.287669 0)scale(0.996264)"/>
      <use xlink:href="#CMR17-6e" transform="translate(680.978147 0)scale(0.996264)"/>
      <use xlink:href="#CMR17-74" transform="translate(729.271062 0)scale(0.996264)"/>
      <use xlink:href="#CMR17-69" transform="translate(764.55183 0)scale(0.996264)"/>
      <use xlink:href="#CMR17-65" transform="translate(789.422889 0)scale(0.996264)"/>
      <use xlink:href="#CMR17-72" transform="translate(829.908549 0)scale(0.996264)"/>
     </g>
    </g>
   </g>
  </g>
 </g>
 <defs>
  <clipPath id="p8cb4ee109e">
   <rect x="56.447902" y="27.869588" width="337.589301" height="125.403459"/>
  </clipPath>
 </defs>
</svg>
