<?xml version="1.0" encoding="utf-8" standalone="no"?>
<!DOCTYPE svg PUBLIC "-//W3C//DTD SVG 1.1//EN"
  "http://www.w3.org/Graphics/SVG/1.1/DTD/svg11.dtd">
<svg xmlns:xlink="http://www.w3.org/1999/xlink" width="864pt" height="288pt" viewBox="0 0 864 288" xmlns="http://www.w3.org/2000/svg" version="1.1">
 <metadata>
  <rdf:RDF xmlns:dc="http://purl.org/dc/elements/1.1/" xmlns:cc="http://creativecommons.org/ns#" xmlns:rdf="http://www.w3.org/1999/02/22-rdf-syntax-ns#">
   <cc:Work>
    <dc:type rdf:resource="http://purl.org/dc/dcmitype/StillImage"/>
    <dc:date>2022-10-20T18:36:23.568657</dc:date>
    <dc:format>image/svg+xml</dc:format>
    <dc:creator>
     <cc:Agent>
      <dc:title>Matplotlib v3.5.2, https://matplotlib.org/</dc:title>
     </cc:Agent>
    </dc:creator>
   </cc:Work>
  </rdf:RDF>
 </metadata>
 <defs>
  <style type="text/css">*{stroke-linejoin: round; stroke-linecap: butt}</style>
 </defs>
 <g id="figure_1">
  <g id="patch_1">
   <path d="M 0 288 
L 864 288 
L 864 0 
L 0 0 
z
" style="fill: #ffffff"/>
  </g>
  <g id="axes_1">
   <g id="patch_2">
    <path d="M 40.492749 227.248777 
L 853.2 227.248777 
L 853.2 25.766376 
L 40.492749 25.766376 
z
" style="fill: #ffffff"/>
   </g>
   <g id="patch_3">
    <path d="M 45.185055 227.248777 
L 52.692743 227.248777 
L 52.692743 188.164429 
L 45.185055 188.164429 
z
" clip-path="url(#p1a31047c99)" style="fill: #1f77b4"/>
   </g>
   <g id="patch_4">
    <path d="M 63.954275 227.248777 
L 71.461963 227.248777 
L 71.461963 216.058542 
L 63.954275 216.058542 
z
" clip-path="url(#p1a31047c99)" style="fill: #1f77b4"/>
   </g>
   <g id="patch_5">
    <path d="M 82.723496 227.248777 
L 90.231184 227.248777 
L 90.231184 215.628464 
L 82.723496 215.628464 
z
" clip-path="url(#p1a31047c99)" style="fill: #1f77b4"/>
   </g>
   <g id="patch_6">
    <path d="M 101.492716 227.248777 
L 109.000405 227.248777 
L 109.000405 213.261182 
L 101.492716 213.261182 
z
" clip-path="url(#p1a31047c99)" style="fill: #1f77b4"/>
   </g>
   <g id="patch_7">
    <path d="M 120.261937 227.248777 
L 127.769625 227.248777 
L 127.769625 216.422848 
L 120.261937 216.422848 
z
" clip-path="url(#p1a31047c99)" style="fill: #1f77b4"/>
   </g>
   <g id="patch_8">
    <path d="M 139.031157 227.248777 
L 146.538846 227.248777 
L 146.538846 221.464618 
L 139.031157 221.464618 
z
" clip-path="url(#p1a31047c99)" style="fill: #1f77b4"/>
   </g>
   <g id="patch_9">
    <path d="M 157.800378 227.248777 
L 165.308066 227.248777 
L 165.308066 194.025427 
L 157.800378 194.025427 
z
" clip-path="url(#p1a31047c99)" style="fill: #1f77b4"/>
   </g>
   <g id="patch_10">
    <path d="M 176.569599 227.248777 
L 184.077287 227.248777 
L 184.077287 184.246862 
L 176.569599 184.246862 
z
" clip-path="url(#p1a31047c99)" style="fill: #1f77b4"/>
   </g>
   <g id="patch_11">
    <path d="M 195.338819 227.248777 
L 202.846507 227.248777 
L 202.846507 35.360776 
L 195.338819 35.360776 
z
" clip-path="url(#p1a31047c99)" style="fill: #1f77b4"/>
   </g>
   <g id="patch_12">
    <path d="M 214.10804 227.248777 
L 221.615728 227.248777 
L 221.615728 207.658036 
L 214.10804 207.658036 
z
" clip-path="url(#p1a31047c99)" style="fill: #1f77b4"/>
   </g>
   <g id="patch_13">
    <path d="M 232.87726 227.248777 
L 240.384949 227.248777 
L 240.384949 213.939572 
L 232.87726 213.939572 
z
" clip-path="url(#p1a31047c99)" style="fill: #1f77b4"/>
   </g>
   <g id="patch_14">
    <path d="M 251.646481 227.248777 
L 259.154169 227.248777 
L 259.154169 212.746776 
L 251.646481 212.746776 
z
" clip-path="url(#p1a31047c99)" style="fill: #1f77b4"/>
   </g>
   <g id="patch_15">
    <path d="M 270.415701 227.248777 
L 277.92339 227.248777 
L 277.92339 214.492686 
L 270.415701 214.492686 
z
" clip-path="url(#p1a31047c99)" style="fill: #1f77b4"/>
   </g>
   <g id="patch_16">
    <path d="M 289.184922 227.248777 
L 296.69261 227.248777 
L 296.69261 172.730504 
L 289.184922 172.730504 
z
" clip-path="url(#p1a31047c99)" style="fill: #1f77b4"/>
   </g>
   <g id="patch_17">
    <path d="M 307.954143 227.248777 
L 315.461831 227.248777 
L 315.461831 221.402465 
L 307.954143 221.402465 
z
" clip-path="url(#p1a31047c99)" style="fill: #1f77b4"/>
   </g>
   <g id="patch_18">
    <path d="M 326.723363 227.248777 
L 334.231051 227.248777 
L 334.231051 224.742651 
L 326.723363 224.742651 
z
" clip-path="url(#p1a31047c99)" style="fill: #1f77b4"/>
   </g>
   <g id="patch_19">
    <path d="M 345.492584 227.248777 
L 353.000272 227.248777 
L 353.000272 219.385155 
L 345.492584 219.385155 
z
" clip-path="url(#p1a31047c99)" style="fill: #1f77b4"/>
   </g>
   <g id="patch_20">
    <path d="M 364.261804 227.248777 
L 371.769492 227.248777 
L 371.769492 208.383142 
L 364.261804 208.383142 
z
" clip-path="url(#p1a31047c99)" style="fill: #1f77b4"/>
   </g>
   <g id="patch_21">
    <path d="M 383.031025 227.248777 
L 390.538713 227.248777 
L 390.538713 216.983467 
L 383.031025 216.983467 
z
" clip-path="url(#p1a31047c99)" style="fill: #1f77b4"/>
   </g>
   <g id="patch_22">
    <path d="M 401.800245 227.248777 
L 409.307934 227.248777 
L 409.307934 209.040134 
L 401.800245 209.040134 
z
" clip-path="url(#p1a31047c99)" style="fill: #1f77b4"/>
   </g>
   <g id="patch_23">
    <path d="M 420.569466 227.248777 
L 428.077154 227.248777 
L 428.077154 194.050877 
L 420.569466 194.050877 
z
" clip-path="url(#p1a31047c99)" style="fill: #1f77b4"/>
   </g>
   <g id="patch_24">
    <path d="M 439.338687 227.248777 
L 446.846375 227.248777 
L 446.846375 190.2269 
L 439.338687 190.2269 
z
" clip-path="url(#p1a31047c99)" style="fill: #1f77b4"/>
   </g>
   <g id="patch_25">
    <path d="M 458.107907 227.248777 
L 465.615595 227.248777 
L 465.615595 176.504332 
L 458.107907 176.504332 
z
" clip-path="url(#p1a31047c99)" style="fill: #1f77b4"/>
   </g>
   <g id="patch_26">
    <path d="M 476.877128 227.248777 
L 484.384816 227.248777 
L 484.384816 214.424327 
L 476.877128 214.424327 
z
" clip-path="url(#p1a31047c99)" style="fill: #1f77b4"/>
   </g>
   <g id="patch_27">
    <path d="M 495.646348 227.248777 
L 503.154036 227.248777 
L 503.154036 223.33395 
L 495.646348 223.33395 
z
" clip-path="url(#p1a31047c99)" style="fill: #1f77b4"/>
   </g>
   <g id="patch_28">
    <path d="M 514.415569 227.248777 
L 521.923257 227.248777 
L 521.923257 159.802904 
L 514.415569 159.802904 
z
" clip-path="url(#p1a31047c99)" style="fill: #1f77b4"/>
   </g>
   <g id="patch_29">
    <path d="M 533.184789 227.248777 
L 540.692478 227.248777 
L 540.692478 209.234787 
L 533.184789 209.234787 
z
" clip-path="url(#p1a31047c99)" style="fill: #1f77b4"/>
   </g>
   <g id="patch_30">
    <path d="M 551.95401 227.248777 
L 559.461698 227.248777 
L 559.461698 206.056785 
L 551.95401 206.056785 
z
" clip-path="url(#p1a31047c99)" style="fill: #1f77b4"/>
   </g>
   <g id="patch_31">
    <path d="M 570.72323 227.248777 
L 578.230919 227.248777 
L 578.230919 191.611606 
L 570.72323 191.611606 
z
" clip-path="url(#p1a31047c99)" style="fill: #1f77b4"/>
   </g>
   <g id="patch_32">
    <path d="M 589.492451 227.248777 
L 597.000139 227.248777 
L 597.000139 225.162889 
L 589.492451 225.162889 
z
" clip-path="url(#p1a31047c99)" style="fill: #1f77b4"/>
   </g>
   <g id="patch_33">
    <path d="M 608.261672 227.248777 
L 615.76936 227.248777 
L 615.76936 223.594789 
L 608.261672 223.594789 
z
" clip-path="url(#p1a31047c99)" style="fill: #1f77b4"/>
   </g>
   <g id="patch_34">
    <path d="M 627.030892 227.248777 
L 634.53858 227.248777 
L 634.53858 190.46919 
L 627.030892 190.46919 
z
" clip-path="url(#p1a31047c99)" style="fill: #1f77b4"/>
   </g>
   <g id="patch_35">
    <path d="M 645.800113 227.248777 
L 653.307801 227.248777 
L 653.307801 215.549454 
L 645.800113 215.549454 
z
" clip-path="url(#p1a31047c99)" style="fill: #1f77b4"/>
   </g>
   <g id="patch_36">
    <path d="M 664.569333 227.248777 
L 672.077022 227.248777 
L 672.077022 208.615637 
L 664.569333 208.615637 
z
" clip-path="url(#p1a31047c99)" style="fill: #1f77b4"/>
   </g>
   <g id="patch_37">
    <path d="M 683.338554 227.248777 
L 690.846242 227.248777 
L 690.846242 204.090064 
L 683.338554 204.090064 
z
" clip-path="url(#p1a31047c99)" style="fill: #1f77b4"/>
   </g>
   <g id="patch_38">
    <path d="M 702.107774 227.248777 
L 709.615463 227.248777 
L 709.615463 221.026823 
L 702.107774 221.026823 
z
" clip-path="url(#p1a31047c99)" style="fill: #1f77b4"/>
   </g>
   <g id="patch_39">
    <path d="M 720.876995 227.248777 
L 728.384683 227.248777 
L 728.384683 166.48422 
L 720.876995 166.48422 
z
" clip-path="url(#p1a31047c99)" style="fill: #1f77b4"/>
   </g>
   <g id="patch_40">
    <path d="M 739.646216 227.248777 
L 747.153904 227.248777 
L 747.153904 221.259222 
L 739.646216 221.259222 
z
" clip-path="url(#p1a31047c99)" style="fill: #1f77b4"/>
   </g>
   <g id="patch_41">
    <path d="M 758.415436 227.248777 
L 765.923124 227.248777 
L 765.923124 206.248401 
L 758.415436 206.248401 
z
" clip-path="url(#p1a31047c99)" style="fill: #1f77b4"/>
   </g>
   <g id="patch_42">
    <path d="M 777.184657 227.248777 
L 784.692345 227.248777 
L 784.692345 211.926403 
L 777.184657 211.926403 
z
" clip-path="url(#p1a31047c99)" style="fill: #1f77b4"/>
   </g>
   <g id="patch_43">
    <path d="M 795.953877 227.248777 
L 803.461565 227.248777 
L 803.461565 223.046023 
L 795.953877 223.046023 
z
" clip-path="url(#p1a31047c99)" style="fill: #1f77b4"/>
   </g>
   <g id="patch_44">
    <path d="M 814.723098 227.248777 
L 822.230786 227.248777 
L 822.230786 226.036072 
L 814.723098 226.036072 
z
" clip-path="url(#p1a31047c99)" style="fill: #1f77b4"/>
   </g>
   <g id="patch_45">
    <path d="M 833.492318 227.248777 
L 841.000007 227.248777 
L 841.000007 208.524186 
L 833.492318 208.524186 
z
" clip-path="url(#p1a31047c99)" style="fill: #1f77b4"/>
   </g>
   <g id="patch_46">
    <path d="M 52.692743 227.248777 
L 60.200431 227.248777 
L 60.200431 188.164429 
L 52.692743 188.164429 
z
" clip-path="url(#p1a31047c99)" style="fill: #ff7f0e"/>
   </g>
   <g id="patch_47">
    <path d="M 71.461963 227.248777 
L 78.969652 227.248777 
L 78.969652 216.058542 
L 71.461963 216.058542 
z
" clip-path="url(#p1a31047c99)" style="fill: #ff7f0e"/>
   </g>
   <g id="patch_48">
    <path d="M 90.231184 227.248777 
L 97.738872 227.248777 
L 97.738872 215.628464 
L 90.231184 215.628464 
z
" clip-path="url(#p1a31047c99)" style="fill: #ff7f0e"/>
   </g>
   <g id="patch_49">
    <path d="M 109.000405 227.248777 
L 116.508093 227.248777 
L 116.508093 213.261182 
L 109.000405 213.261182 
z
" clip-path="url(#p1a31047c99)" style="fill: #ff7f0e"/>
   </g>
   <g id="patch_50">
    <path d="M 127.769625 227.248777 
L 135.277313 227.248777 
L 135.277313 216.422848 
L 127.769625 216.422848 
z
" clip-path="url(#p1a31047c99)" style="fill: #ff7f0e"/>
   </g>
   <g id="patch_51">
    <path d="M 146.538846 227.248777 
L 154.046534 227.248777 
L 154.046534 221.464618 
L 146.538846 221.464618 
z
" clip-path="url(#p1a31047c99)" style="fill: #ff7f0e"/>
   </g>
   <g id="patch_52">
    <path d="M 165.308066 227.248777 
L 172.815754 227.248777 
L 172.815754 194.025427 
L 165.308066 194.025427 
z
" clip-path="url(#p1a31047c99)" style="fill: #ff7f0e"/>
   </g>
   <g id="patch_53">
    <path d="M 184.077287 227.248777 
L 191.584975 227.248777 
L 191.584975 184.246862 
L 184.077287 184.246862 
z
" clip-path="url(#p1a31047c99)" style="fill: #ff7f0e"/>
   </g>
   <g id="patch_54">
    <path d="M 202.846507 227.248777 
L 210.354196 227.248777 
L 210.354196 35.360776 
L 202.846507 35.360776 
z
" clip-path="url(#p1a31047c99)" style="fill: #ff7f0e"/>
   </g>
   <g id="patch_55">
    <path d="M 221.615728 227.248777 
L 229.123416 227.248777 
L 229.123416 207.658036 
L 221.615728 207.658036 
z
" clip-path="url(#p1a31047c99)" style="fill: #ff7f0e"/>
   </g>
   <g id="patch_56">
    <path d="M 240.384949 227.248777 
L 247.892637 227.248777 
L 247.892637 213.939572 
L 240.384949 213.939572 
z
" clip-path="url(#p1a31047c99)" style="fill: #ff7f0e"/>
   </g>
   <g id="patch_57">
    <path d="M 259.154169 227.248777 
L 266.661857 227.248777 
L 266.661857 212.746776 
L 259.154169 212.746776 
z
" clip-path="url(#p1a31047c99)" style="fill: #ff7f0e"/>
   </g>
   <g id="patch_58">
    <path d="M 277.92339 227.248777 
L 285.431078 227.248777 
L 285.431078 214.492686 
L 277.92339 214.492686 
z
" clip-path="url(#p1a31047c99)" style="fill: #ff7f0e"/>
   </g>
   <g id="patch_59">
    <path d="M 296.69261 227.248777 
L 304.200298 227.248777 
L 304.200298 172.730504 
L 296.69261 172.730504 
z
" clip-path="url(#p1a31047c99)" style="fill: #ff7f0e"/>
   </g>
   <g id="patch_60">
    <path d="M 315.461831 227.248777 
L 322.969519 227.248777 
L 322.969519 221.402465 
L 315.461831 221.402465 
z
" clip-path="url(#p1a31047c99)" style="fill: #ff7f0e"/>
   </g>
   <g id="patch_61">
    <path d="M 334.231051 227.248777 
L 341.73874 227.248777 
L 341.73874 224.742651 
L 334.231051 224.742651 
z
" clip-path="url(#p1a31047c99)" style="fill: #ff7f0e"/>
   </g>
   <g id="patch_62">
    <path d="M 353.000272 227.248777 
L 360.50796 227.248777 
L 360.50796 219.385155 
L 353.000272 219.385155 
z
" clip-path="url(#p1a31047c99)" style="fill: #ff7f0e"/>
   </g>
   <g id="patch_63">
    <path d="M 371.769492 227.248777 
L 379.277181 227.248777 
L 379.277181 208.383142 
L 371.769492 208.383142 
z
" clip-path="url(#p1a31047c99)" style="fill: #ff7f0e"/>
   </g>
   <g id="patch_64">
    <path d="M 390.538713 227.248777 
L 398.046401 227.248777 
L 398.046401 216.983467 
L 390.538713 216.983467 
z
" clip-path="url(#p1a31047c99)" style="fill: #ff7f0e"/>
   </g>
   <g id="patch_65">
    <path d="M 409.307934 227.248777 
L 416.815622 227.248777 
L 416.815622 209.040134 
L 409.307934 209.040134 
z
" clip-path="url(#p1a31047c99)" style="fill: #ff7f0e"/>
   </g>
   <g id="patch_66">
    <path d="M 428.077154 227.248777 
L 435.584842 227.248777 
L 435.584842 194.050877 
L 428.077154 194.050877 
z
" clip-path="url(#p1a31047c99)" style="fill: #ff7f0e"/>
   </g>
   <g id="patch_67">
    <path d="M 446.846375 227.248777 
L 454.354063 227.248777 
L 454.354063 190.2269 
L 446.846375 190.2269 
z
" clip-path="url(#p1a31047c99)" style="fill: #ff7f0e"/>
   </g>
   <g id="patch_68">
    <path d="M 465.615595 227.248777 
L 473.123284 227.248777 
L 473.123284 176.504332 
L 465.615595 176.504332 
z
" clip-path="url(#p1a31047c99)" style="fill: #ff7f0e"/>
   </g>
   <g id="patch_69">
    <path d="M 484.384816 227.248777 
L 491.892504 227.248777 
L 491.892504 214.424327 
L 484.384816 214.424327 
z
" clip-path="url(#p1a31047c99)" style="fill: #ff7f0e"/>
   </g>
   <g id="patch_70">
    <path d="M 503.154036 227.248777 
L 510.661725 227.248777 
L 510.661725 223.33395 
L 503.154036 223.33395 
z
" clip-path="url(#p1a31047c99)" style="fill: #ff7f0e"/>
   </g>
   <g id="patch_71">
    <path d="M 521.923257 227.248777 
L 529.430945 227.248777 
L 529.430945 159.802904 
L 521.923257 159.802904 
z
" clip-path="url(#p1a31047c99)" style="fill: #ff7f0e"/>
   </g>
   <g id="patch_72">
    <path d="M 540.692478 227.248777 
L 548.200166 227.248777 
L 548.200166 209.234787 
L 540.692478 209.234787 
z
" clip-path="url(#p1a31047c99)" style="fill: #ff7f0e"/>
   </g>
   <g id="patch_73">
    <path d="M 559.461698 227.248777 
L 566.969386 227.248777 
L 566.969386 206.056785 
L 559.461698 206.056785 
z
" clip-path="url(#p1a31047c99)" style="fill: #ff7f0e"/>
   </g>
   <g id="patch_74">
    <path d="M 578.230919 227.248777 
L 585.738607 227.248777 
L 585.738607 191.611606 
L 578.230919 191.611606 
z
" clip-path="url(#p1a31047c99)" style="fill: #ff7f0e"/>
   </g>
   <g id="patch_75">
    <path d="M 597.000139 227.248777 
L 604.507827 227.248777 
L 604.507827 225.162889 
L 597.000139 225.162889 
z
" clip-path="url(#p1a31047c99)" style="fill: #ff7f0e"/>
   </g>
   <g id="patch_76">
    <path d="M 615.76936 227.248777 
L 623.277048 227.248777 
L 623.277048 223.594789 
L 615.76936 223.594789 
z
" clip-path="url(#p1a31047c99)" style="fill: #ff7f0e"/>
   </g>
   <g id="patch_77">
    <path d="M 634.53858 227.248777 
L 642.046269 227.248777 
L 642.046269 190.46919 
L 634.53858 190.46919 
z
" clip-path="url(#p1a31047c99)" style="fill: #ff7f0e"/>
   </g>
   <g id="patch_78">
    <path d="M 653.307801 227.248777 
L 660.815489 227.248777 
L 660.815489 215.549454 
L 653.307801 215.549454 
z
" clip-path="url(#p1a31047c99)" style="fill: #ff7f0e"/>
   </g>
   <g id="patch_79">
    <path d="M 672.077022 227.248777 
L 679.58471 227.248777 
L 679.58471 208.615637 
L 672.077022 208.615637 
z
" clip-path="url(#p1a31047c99)" style="fill: #ff7f0e"/>
   </g>
   <g id="patch_80">
    <path d="M 690.846242 227.248777 
L 698.35393 227.248777 
L 698.35393 204.090064 
L 690.846242 204.090064 
z
" clip-path="url(#p1a31047c99)" style="fill: #ff7f0e"/>
   </g>
   <g id="patch_81">
    <path d="M 709.615463 227.248777 
L 717.123151 227.248777 
L 717.123151 221.026823 
L 709.615463 221.026823 
z
" clip-path="url(#p1a31047c99)" style="fill: #ff7f0e"/>
   </g>
   <g id="patch_82">
    <path d="M 728.384683 227.248777 
L 735.892371 227.248777 
L 735.892371 166.48422 
L 728.384683 166.48422 
z
" clip-path="url(#p1a31047c99)" style="fill: #ff7f0e"/>
   </g>
   <g id="patch_83">
    <path d="M 747.153904 227.248777 
L 754.661592 227.248777 
L 754.661592 221.259222 
L 747.153904 221.259222 
z
" clip-path="url(#p1a31047c99)" style="fill: #ff7f0e"/>
   </g>
   <g id="patch_84">
    <path d="M 765.923124 227.248777 
L 773.430813 227.248777 
L 773.430813 206.248401 
L 765.923124 206.248401 
z
" clip-path="url(#p1a31047c99)" style="fill: #ff7f0e"/>
   </g>
   <g id="patch_85">
    <path d="M 784.692345 227.248777 
L 792.200033 227.248777 
L 792.200033 211.926403 
L 784.692345 211.926403 
z
" clip-path="url(#p1a31047c99)" style="fill: #ff7f0e"/>
   </g>
   <g id="patch_86">
    <path d="M 803.461565 227.248777 
L 810.969254 227.248777 
L 810.969254 223.046023 
L 803.461565 223.046023 
z
" clip-path="url(#p1a31047c99)" style="fill: #ff7f0e"/>
   </g>
   <g id="patch_87">
    <path d="M 822.230786 227.248777 
L 829.738474 227.248777 
L 829.738474 226.036072 
L 822.230786 226.036072 
z
" clip-path="url(#p1a31047c99)" style="fill: #ff7f0e"/>
   </g>
   <g id="patch_88">
    <path d="M 841.000007 227.248777 
L 848.507695 227.248777 
L 848.507695 208.524186 
L 841.000007 208.524186 
z
" clip-path="url(#p1a31047c99)" style="fill: #ff7f0e"/>
   </g>
   <g id="matplotlib.axis_1">
    <g id="xtick_1">
     <g id="line2d_1">
      <defs>
       <path id="mffc436a147" d="M 0 0 
L 0 3.5 
" style="stroke: #000000; stroke-width: 0.8"/>
      </defs>
      <g>
       <use xlink:href="#mffc436a147" x="52.692743" y="227.248777" style="stroke: #000000; stroke-width: 0.8"/>
      </g>
     </g>
     <g id="text_1">
      <!-- ADM -->
      <g transform="translate(55.183403 258.463575)rotate(-90)scale(0.1 -0.1)">
       <defs>
        <path id="CMR17-41" d="M 2323 4441 
C 2291 4524 2278 4544 2214 4544 
C 2150 4544 2138 4524 2106 4441 
L 749 580 
C 627 236 371 166 147 166 
L 147 0 
C 262 12 518 12 640 12 
C 800 12 1056 12 1210 0 
L 1210 166 
C 909 179 864 382 864 459 
C 864 516 877 548 890 586 
L 1229 1536 
L 2906 1536 
L 3290 453 
C 3322 376 3322 363 3322 338 
C 3322 166 3046 166 2925 166 
L 2925 0 
C 3110 12 3443 12 3642 12 
C 3808 12 4128 12 4282 0 
L 4282 166 
C 3942 166 3827 166 3744 402 
L 2323 4441 
z
M 2067 3924 
L 2848 1702 
L 1286 1702 
L 2067 3924 
z
" transform="scale(0.015625)"/>
        <path id="CMR17-44" d="M 333 4352 
L 333 4185 
C 774 4185 845 4185 845 3898 
L 845 453 
C 845 166 774 166 333 166 
L 333 0 
L 2368 0 
C 3398 0 4224 943 4224 2140 
C 4224 3344 3411 4352 2368 4352 
L 333 4352 
z
M 1523 166 
C 1267 166 1254 198 1254 414 
L 1254 3936 
C 1254 4153 1267 4185 1523 4185 
L 2240 4185 
C 2771 4185 3750 3873 3750 2140 
C 3750 1242 3488 879 3366 707 
C 3213 510 2848 166 2240 166 
L 1523 166 
z
" transform="scale(0.015625)"/>
        <path id="CMR17-4d" d="M 1338 4249 
C 1299 4345 1293 4352 1158 4352 
L 339 4352 
L 339 4185 
C 781 4185 851 4185 851 3898 
L 851 624 
C 851 465 851 166 339 166 
L 339 0 
C 486 12 755 12 915 12 
C 1075 12 1344 12 1491 0 
L 1491 166 
C 979 166 979 465 979 624 
L 979 4159 
L 986 4159 
L 2490 102 
C 2515 38 2528 0 2579 0 
C 2630 0 2643 38 2669 102 
L 4186 4191 
L 4192 4191 
L 4192 453 
C 4192 166 4122 166 3680 166 
L 3680 0 
C 3853 12 4198 12 4384 12 
C 4570 12 4922 12 5094 0 
L 5094 166 
C 4653 166 4582 166 4582 453 
L 4582 3898 
C 4582 4185 4653 4185 5094 4185 
L 5094 4352 
L 4282 4352 
C 4147 4352 4141 4345 4102 4249 
L 2720 516 
L 1338 4249 
z
" transform="scale(0.015625)"/>
       </defs>
       <use xlink:href="#CMR17-41" transform="scale(0.996264)"/>
       <use xlink:href="#CMR17-44" transform="translate(69.07243 0)scale(0.996264)"/>
       <use xlink:href="#CMR17-4d" transform="translate(139.465986 0)scale(0.996264)"/>
      </g>
     </g>
    </g>
    <g id="xtick_2">
     <g id="line2d_2">
      <g>
       <use xlink:href="#mffc436a147" x="71.461963" y="227.248777" style="stroke: #000000; stroke-width: 0.8"/>
      </g>
     </g>
     <g id="text_2">
      <!-- ANSS -->
      <g transform="translate(73.952623 260.262401)rotate(-90)scale(0.1 -0.1)">
       <defs>
        <path id="CMR17-4e" d="M 1312 4275 
C 1267 4345 1261 4352 1139 4352 
L 326 4352 
L 326 4185 
L 448 4185 
C 704 4185 819 4153 838 4147 
L 838 624 
C 838 465 838 166 326 166 
L 326 0 
C 474 12 742 12 902 12 
C 1062 12 1331 12 1478 0 
L 1478 166 
C 966 166 966 465 966 624 
L 966 4057 
C 1011 4019 1011 4007 1056 3943 
L 3430 76 
C 3475 0 3494 0 3526 0 
C 3590 0 3590 19 3590 140 
L 3590 3726 
C 3590 3885 3590 4185 4102 4185 
L 4102 4352 
C 3955 4339 3686 4339 3526 4339 
C 3366 4339 3098 4339 2950 4352 
L 2950 4185 
C 3462 4185 3462 3885 3462 3726 
L 3462 777 
L 1312 4275 
z
" transform="scale(0.015625)"/>
        <path id="CMR17-53" d="M 2803 4351 
C 2803 4467 2797 4473 2758 4473 
C 2720 4473 2707 4447 2682 4390 
L 2490 3965 
C 2246 4320 1875 4480 1472 4480 
C 819 4480 294 3958 294 3301 
C 294 3101 339 2817 557 2546 
C 794 2250 1018 2198 1530 2063 
C 1722 2011 2042 1927 2106 1901 
C 2470 1747 2662 1360 2662 999 
C 2662 534 2336 38 1779 38 
C 1094 38 454 425 410 1328 
C 403 1431 397 1437 352 1437 
C 301 1437 294 1431 294 1302 
L 294 0 
C 294 -116 301 -122 339 -122 
C 384 -122 397 -90 486 109 
C 493 128 493 141 614 386 
C 934 -39 1472 -128 1779 -128 
C 2477 -128 2970 457 2970 1141 
C 2970 1476 2848 1734 2778 1850 
C 2509 2263 2221 2340 1914 2417 
C 1869 2437 1856 2437 1498 2527 
C 1152 2617 1005 2662 845 2836 
C 666 3036 602 3243 602 3449 
C 602 3868 934 4326 1478 4326 
C 2157 4326 2579 3842 2675 3036 
C 2694 2920 2701 2914 2746 2914 
C 2803 2914 2803 2933 2803 3043 
L 2803 4351 
z
" transform="scale(0.015625)"/>
       </defs>
       <use xlink:href="#CMR17-41" transform="scale(0.996264)"/>
       <use xlink:href="#CMR17-4e" transform="translate(69.07243 0)scale(0.996264)"/>
       <use xlink:href="#CMR17-53" transform="translate(138.14486 0)scale(0.996264)"/>
       <use xlink:href="#CMR17-53" transform="translate(189.040229 0)scale(0.996264)"/>
      </g>
     </g>
    </g>
    <g id="xtick_3">
     <g id="line2d_3">
      <g>
       <use xlink:href="#mffc436a147" x="90.231184" y="227.248777" style="stroke: #000000; stroke-width: 0.8"/>
      </g>
     </g>
     <g id="text_3">
      <!-- AOS -->
      <g transform="translate(92.721844 254.727585)rotate(-90)scale(0.1 -0.1)">
       <defs>
        <path id="CMR17-4f" d="M 4307 2166 
C 4307 3488 3366 4480 2304 4480 
C 1216 4480 294 3475 294 2166 
C 294 857 1229 -128 2298 -128 
C 3392 -128 4307 876 4307 2166 
z
M 2304 -13 
C 1574 -13 781 722 781 2250 
C 781 3771 1651 4364 2298 4364 
C 2976 4364 3821 3752 3821 2250 
C 3821 696 3008 -13 2304 -13 
z
" transform="scale(0.015625)"/>
       </defs>
       <use xlink:href="#CMR17-41" transform="scale(0.996264)"/>
       <use xlink:href="#CMR17-4f" transform="translate(66.469976 0)scale(0.996264)"/>
       <use xlink:href="#CMR17-53" transform="translate(138.184764 0)scale(0.996264)"/>
      </g>
     </g>
    </g>
    <g id="xtick_4">
     <g id="line2d_4">
      <g>
       <use xlink:href="#mffc436a147" x="109.000405" y="227.248777" style="stroke: #000000; stroke-width: 0.8"/>
      </g>
     </g>
     <g id="text_4">
      <!-- BDX -->
      <g transform="translate(111.491065 256.111281)rotate(-90)scale(0.1 -0.1)">
       <defs>
        <path id="CMR17-42" d="M 333 4352 
L 333 4185 
C 774 4185 845 4185 845 3897 
L 845 451 
C 845 166 774 166 333 166 
L 333 0 
L 2534 0 
C 3354 0 3885 578 3885 1155 
C 3885 1726 3360 2214 2675 2259 
C 3290 2380 3718 2790 3718 3276 
C 3718 3808 3194 4352 2368 4352 
L 333 4352 
z
M 1248 2304 
L 1248 3936 
C 1248 4153 1261 4185 1517 4185 
L 2336 4185 
C 2970 4185 3251 3673 3251 3276 
C 3251 2790 2861 2304 2170 2304 
L 1248 2304 
z
M 1517 166 
C 1261 166 1248 198 1248 413 
L 1248 2201 
L 2432 2201 
C 3091 2201 3411 1624 3411 1161 
C 3411 698 3046 166 2349 166 
L 1517 166 
z
" transform="scale(0.015625)"/>
        <path id="CMR17-58" d="M 2336 2414 
L 3283 3771 
C 3379 3905 3571 4178 4096 4185 
L 4096 4352 
C 3949 4339 3706 4339 3552 4339 
C 3341 4339 3078 4339 2918 4352 
L 2918 4185 
C 3123 4166 3174 4038 3174 3936 
C 3174 3860 3142 3809 3098 3745 
L 2253 2529 
L 1306 3905 
C 1261 3975 1254 3994 1254 4013 
C 1254 4070 1325 4178 1536 4185 
L 1536 4352 
C 1331 4339 1018 4339 806 4339 
C 640 4339 320 4339 166 4352 
L 166 4185 
C 518 4185 634 4172 774 3975 
L 2010 2179 
L 896 567 
C 621 172 205 166 83 166 
L 83 0 
C 230 12 474 12 627 12 
C 800 12 1101 12 1261 0 
L 1261 166 
C 1062 185 1005 312 1005 414 
C 1005 497 1037 542 1069 586 
L 2093 2064 
L 3206 446 
C 3258 376 3258 357 3258 338 
C 3258 287 3200 179 2976 166 
L 2976 0 
C 3181 12 3494 12 3706 12 
C 3872 12 4192 12 4346 0 
L 4346 166 
C 3936 166 3872 198 3744 376 
L 2336 2414 
z
" transform="scale(0.015625)"/>
       </defs>
       <use xlink:href="#CMR17-42" transform="scale(0.996264)"/>
       <use xlink:href="#CMR17-44" transform="translate(65.188754 0)scale(0.996264)"/>
       <use xlink:href="#CMR17-58" transform="translate(132.979856 0)scale(0.996264)"/>
      </g>
     </g>
    </g>
    <g id="xtick_5">
     <g id="line2d_5">
      <g>
       <use xlink:href="#mffc436a147" x="127.769625" y="227.248777" style="stroke: #000000; stroke-width: 0.8"/>
      </g>
     </g>
     <g id="text_5">
      <!-- BKNG -->
      <g transform="translate(130.260285 264.344323)rotate(-90)scale(0.1 -0.1)">
       <defs>
        <path id="CMR17-4b" d="M 2362 2669 
L 3469 3771 
C 3699 3994 3942 4172 4301 4185 
L 4301 4352 
C 4173 4345 4013 4339 3885 4339 
C 3712 4339 3411 4339 3245 4352 
L 3245 4185 
C 3411 4172 3437 4057 3437 4013 
C 3437 3968 3411 3898 3386 3860 
L 1261 1739 
L 1261 3898 
C 1261 4185 1331 4185 1773 4185 
L 1773 4352 
C 1587 4339 1248 4339 1050 4339 
C 851 4339 512 4339 326 4352 
L 326 4185 
C 768 4185 838 4185 838 3898 
L 838 453 
C 838 166 768 166 326 166 
L 326 0 
C 512 12 851 12 1050 12 
C 1248 12 1587 12 1773 0 
L 1773 166 
C 1331 166 1261 166 1261 453 
L 1261 1580 
L 2080 2389 
L 3290 542 
C 3328 478 3373 395 3373 332 
C 3373 166 3194 166 3110 166 
L 3110 0 
C 3315 12 3610 12 3821 12 
C 3974 12 4237 12 4384 0 
L 4384 166 
C 4077 166 3981 204 3789 497 
L 2362 2669 
z
" transform="scale(0.015625)"/>
        <path id="CMR17-47" d="M 3974 1258 
C 3974 1503 3994 1536 4390 1536 
L 4390 1702 
C 4237 1689 3891 1689 3718 1689 
C 3539 1689 3040 1696 2797 1702 
L 2797 1536 
L 2989 1536 
C 3539 1536 3552 1464 3552 1232 
L 3552 806 
C 3552 96 2720 38 2522 38 
C 1862 38 781 496 781 2179 
C 781 3862 1843 4313 2464 4313 
C 3187 4313 3712 3681 3834 2785 
C 3846 2708 3846 2695 3904 2695 
C 3974 2695 3974 2708 3974 2824 
L 3974 4351 
C 3974 4467 3968 4473 3930 4473 
C 3904 4473 3898 4467 3853 4390 
L 3571 3849 
C 3258 4249 2874 4480 2381 4480 
C 1286 4480 294 3507 294 2179 
C 294 858 1267 -128 2394 -128 
C 2912 -128 3418 57 3616 425 
C 3725 161 3904 -20 3936 -20 
C 3968 -20 3974 -13 3974 102 
L 3974 1258 
z
" transform="scale(0.015625)"/>
       </defs>
       <use xlink:href="#CMR17-42" transform="scale(0.996264)"/>
       <use xlink:href="#CMR17-4b" transform="translate(65.188754 0)scale(0.996264)"/>
       <use xlink:href="#CMR17-4e" transform="translate(136.863532 0)scale(0.996264)"/>
       <use xlink:href="#CMR17-47" transform="translate(205.935962 0)scale(0.996264)"/>
      </g>
     </g>
    </g>
    <g id="xtick_6">
     <g id="line2d_6">
      <g>
       <use xlink:href="#mffc436a147" x="146.538846" y="227.248777" style="stroke: #000000; stroke-width: 0.8"/>
      </g>
     </g>
     <g id="text_6">
      <!-- CVX -->
      <g transform="translate(149.029506 256.388014)rotate(-90)scale(0.1 -0.1)">
       <defs>
        <path id="CMR17-43" d="M 3974 4351 
C 3974 4467 3968 4473 3930 4473 
C 3904 4473 3898 4467 3853 4390 
L 3571 3849 
C 3258 4249 2874 4480 2381 4480 
C 1286 4480 294 3507 294 2179 
C 294 837 1286 -128 2387 -128 
C 3366 -128 3974 741 3974 1482 
C 3974 1547 3974 1573 3917 1573 
C 3866 1573 3866 1553 3859 1495 
C 3808 592 3168 38 2477 38 
C 1824 38 781 502 781 2179 
C 781 3862 1843 4313 2464 4313 
C 3187 4313 3712 3681 3834 2785 
C 3846 2707 3846 2695 3904 2695 
C 3974 2695 3974 2707 3974 2824 
L 3974 4351 
z
" transform="scale(0.015625)"/>
        <path id="CMR17-56" d="M 3776 3762 
C 3834 3903 3936 4179 4365 4185 
L 4365 4352 
C 4218 4339 4051 4339 3891 4339 
C 3738 4339 3475 4339 3328 4352 
L 3328 4185 
C 3648 4166 3661 3942 3661 3903 
C 3661 3833 3642 3788 3622 3737 
L 2362 448 
L 1043 3903 
C 1024 3948 1011 3980 1011 4012 
C 1011 4185 1267 4185 1402 4185 
L 1402 4352 
C 1197 4339 896 4339 685 4339 
C 518 4339 218 4339 64 4352 
L 64 4185 
C 435 4185 506 4160 582 3955 
L 2106 -26 
C 2138 -116 2144 -128 2214 -128 
C 2285 -128 2291 -116 2323 -26 
L 3776 3762 
z
" transform="scale(0.015625)"/>
       </defs>
       <use xlink:href="#CMR17-43" transform="scale(0.996264)"/>
       <use xlink:href="#CMR17-56" transform="translate(66.509881 0)scale(0.996264)"/>
       <use xlink:href="#CMR17-58" transform="translate(135.58231 0)scale(0.996264)"/>
      </g>
     </g>
    </g>
    <g id="xtick_7">
     <g id="line2d_7">
      <g>
       <use xlink:href="#mffc436a147" x="165.308066" y="227.248777" style="stroke: #000000; stroke-width: 0.8"/>
      </g>
     </g>
     <g id="text_7">
      <!-- DIS -->
      <g transform="translate(167.798726 250.991579)rotate(-90)scale(0.1 -0.1)">
       <defs>
        <path id="CMR17-49" d="M 1261 3898 
C 1261 4185 1338 4185 1798 4185 
L 1798 4352 
C 1594 4339 1267 4339 1050 4339 
C 832 4339 506 4339 301 4352 
L 301 4185 
C 762 4185 838 4185 838 3898 
L 838 453 
C 838 166 762 166 301 166 
L 301 0 
C 506 12 832 12 1050 12 
C 1267 12 1594 12 1798 0 
L 1798 166 
C 1338 166 1261 166 1261 453 
L 1261 3898 
z
" transform="scale(0.015625)"/>
       </defs>
       <use xlink:href="#CMR17-44" transform="scale(0.996264)"/>
       <use xlink:href="#CMR17-49" transform="translate(70.393556 0)scale(0.996264)"/>
       <use xlink:href="#CMR17-53" transform="translate(103.031965 0)scale(0.996264)"/>
      </g>
     </g>
    </g>
    <g id="xtick_8">
     <g id="line2d_8">
      <g>
       <use xlink:href="#mffc436a147" x="184.077287" y="227.248777" style="stroke: #000000; stroke-width: 0.8"/>
      </g>
     </g>
     <g id="text_8">
      <!-- DVN -->
      <g transform="translate(186.567947 256.526381)rotate(-90)scale(0.1 -0.1)">
       <use xlink:href="#CMR17-44" transform="scale(0.996264)"/>
       <use xlink:href="#CMR17-56" transform="translate(67.791102 0)scale(0.996264)"/>
       <use xlink:href="#CMR17-4e" transform="translate(136.863532 0)scale(0.996264)"/>
      </g>
     </g>
    </g>
    <g id="xtick_9">
     <g id="line2d_9">
      <g>
       <use xlink:href="#mffc436a147" x="202.846507" y="227.248777" style="stroke: #000000; stroke-width: 0.8"/>
      </g>
     </g>
     <g id="text_9">
      <!-- ES -->
      <g transform="translate(205.337167 246.563741)rotate(-90)scale(0.1 -0.1)">
       <defs>
        <path id="CMR17-45" d="M 3885 1614 
L 3770 1614 
C 3629 676 3546 166 2419 166 
L 1530 166 
C 1274 166 1261 198 1261 415 
L 1261 2176 
L 1862 2176 
C 2464 2176 2522 1959 2522 1429 
L 2637 1429 
L 2637 3086 
L 2522 3086 
C 2522 2558 2464 2342 1862 2342 
L 1261 2342 
L 1261 3924 
C 1261 4141 1274 4172 1530 4172 
L 2406 4172 
C 3398 4172 3514 3778 3603 2933 
L 3718 2933 
L 3565 4339 
L 326 4339 
L 326 4172 
C 768 4172 838 4172 838 3886 
L 838 453 
C 838 166 768 166 326 166 
L 326 0 
L 3654 0 
L 3885 1614 
z
" transform="scale(0.015625)"/>
       </defs>
       <use xlink:href="#CMR17-45" transform="scale(0.996264)"/>
       <use xlink:href="#CMR17-53" transform="translate(62.586301 0)scale(0.996264)"/>
      </g>
     </g>
    </g>
    <g id="xtick_10">
     <g id="line2d_10">
      <g>
       <use xlink:href="#mffc436a147" x="221.615728" y="227.248777" style="stroke: #000000; stroke-width: 0.8"/>
      </g>
     </g>
     <g id="text_10">
      <!-- EVRG -->
      <g transform="translate(224.106388 263.375696)rotate(-90)scale(0.1 -0.1)">
       <defs>
        <path id="CMR17-52" d="M 2509 2156 
C 3117 2278 3629 2689 3629 3203 
C 3629 3806 2950 4352 2054 4352 
L 333 4352 
L 333 4185 
C 774 4185 845 4185 845 3896 
L 845 428 
C 845 140 774 140 333 140 
L 333 -26 
C 518 -13 851 -13 1050 -13 
C 1248 -13 1581 -13 1766 -26 
L 1766 140 
C 1325 140 1254 140 1254 428 
L 1254 2112 
L 2003 2112 
C 2368 2112 2573 1964 2662 1881 
C 2918 1632 2918 1459 2918 1024 
C 2918 595 2918 377 3110 160 
C 3354 -103 3680 -128 3821 -128 
C 4294 -128 4365 403 4365 512 
C 4365 550 4365 595 4307 595 
C 4256 595 4250 556 4250 531 
C 4218 115 4032 -26 3834 -26 
C 3482 -26 3443 377 3405 768 
C 3386 902 3373 998 3360 1139 
C 3322 1459 3270 1926 2509 2156 
z
M 1984 2214 
L 1254 2214 
L 1254 3935 
C 1254 4153 1267 4185 1523 4185 
L 1990 4185 
C 2522 4185 3142 3999 3142 3203 
C 3142 2374 2464 2214 1984 2214 
z
" transform="scale(0.015625)"/>
       </defs>
       <use xlink:href="#CMR17-45" transform="scale(0.996264)"/>
       <use xlink:href="#CMR17-56" transform="translate(62.586301 0)scale(0.996264)"/>
       <use xlink:href="#CMR17-52" transform="translate(131.65873 0)scale(0.996264)"/>
       <use xlink:href="#CMR17-47" transform="translate(196.847378 0)scale(0.996264)"/>
      </g>
     </g>
    </g>
    <g id="xtick_11">
     <g id="line2d_11">
      <g>
       <use xlink:href="#mffc436a147" x="240.384949" y="227.248777" style="stroke: #000000; stroke-width: 0.8"/>
      </g>
     </g>
     <g id="text_11">
      <!-- F -->
      <g transform="translate(242.875609 240.752191)rotate(-90)scale(0.1 -0.1)">
       <defs>
        <path id="CMR17-46" d="M 3482 4339 
L 326 4339 
L 326 4172 
C 768 4172 838 4172 838 3883 
L 838 450 
C 838 166 768 166 326 166 
L 326 0 
C 512 12 870 12 1069 12 
C 1331 12 1638 12 1901 0 
L 1901 166 
L 1760 166 
C 1274 166 1261 229 1261 456 
L 1261 2073 
L 1837 2073 
C 2432 2073 2490 1865 2490 1334 
L 2605 1334 
L 2605 2991 
L 2490 2991 
C 2490 2451 2432 2240 1837 2240 
L 1261 2240 
L 1261 3922 
C 1261 4140 1274 4172 1530 4172 
L 2355 4172 
C 3322 4172 3430 3774 3520 2920 
L 3635 2920 
L 3482 4339 
z
" transform="scale(0.015625)"/>
       </defs>
       <use xlink:href="#CMR17-46" transform="scale(0.996264)"/>
      </g>
     </g>
    </g>
    <g id="xtick_12">
     <g id="line2d_12">
      <g>
       <use xlink:href="#mffc436a147" x="259.154169" y="227.248777" style="stroke: #000000; stroke-width: 0.8"/>
      </g>
     </g>
     <g id="text_12">
      <!-- GIS -->
      <g transform="translate(261.644829 251.199129)rotate(-90)scale(0.1 -0.1)">
       <use xlink:href="#CMR17-47" transform="scale(0.996264)"/>
       <use xlink:href="#CMR17-49" transform="translate(72.355346 0)scale(0.996264)"/>
       <use xlink:href="#CMR17-53" transform="translate(104.993755 0)scale(0.996264)"/>
      </g>
     </g>
    </g>
    <g id="xtick_13">
     <g id="line2d_13">
      <g>
       <use xlink:href="#mffc436a147" x="277.92339" y="227.248777" style="stroke: #000000; stroke-width: 0.8"/>
      </g>
     </g>
     <g id="text_13">
      <!-- GWW -->
      <g transform="translate(280.41405 262.545496)rotate(-90)scale(0.1 -0.1)">
       <defs>
        <path id="CMR17-57" d="M 5523 3775 
C 5581 3948 5677 4173 6048 4185 
L 6048 4352 
C 5939 4345 5715 4339 5600 4339 
C 5440 4339 5158 4339 5005 4352 
L 5005 4185 
C 5293 4179 5414 4019 5414 3865 
C 5414 3820 5408 3794 5382 3724 
L 4390 557 
L 3347 3890 
C 3328 3955 3322 3980 3322 4006 
C 3322 4185 3603 4185 3725 4185 
L 3725 4352 
C 3539 4339 3219 4339 3021 4339 
C 2861 4339 2573 4339 2426 4352 
L 2426 4185 
C 2720 4185 2797 4166 2861 4051 
C 2886 3993 2989 3660 2989 3640 
C 2989 3615 2976 3576 2970 3557 
L 2029 564 
L 986 3890 
C 954 3980 954 3993 954 4006 
C 954 4185 1235 4185 1363 4185 
L 1363 4352 
C 1178 4339 858 4339 659 4339 
C 493 4339 211 4339 58 4352 
L 58 4185 
C 442 4185 467 4147 531 3942 
L 1779 -20 
C 1811 -116 1811 -128 1869 -128 
C 1920 -128 1939 -116 1965 -26 
L 3053 3448 
L 4141 -26 
C 4166 -116 4186 -128 4237 -128 
C 4294 -128 4294 -116 4326 -20 
L 5523 3775 
z
" transform="scale(0.015625)"/>
       </defs>
       <use xlink:href="#CMR17-47" transform="scale(0.996264)"/>
       <use xlink:href="#CMR17-57" transform="translate(72.355346 0)scale(0.996264)"/>
       <use xlink:href="#CMR17-57" transform="translate(167.451996 0)scale(0.996264)"/>
      </g>
     </g>
    </g>
    <g id="xtick_14">
     <g id="line2d_14">
      <g>
       <use xlink:href="#mffc436a147" x="296.69261" y="227.248777" style="stroke: #000000; stroke-width: 0.8"/>
      </g>
     </g>
     <g id="text_14">
      <!-- HFC -->
      <g transform="translate(299.18327 255.142684)rotate(-90)scale(0.1 -0.1)">
       <defs>
        <path id="CMR17-48" d="M 3590 3898 
C 3590 4185 3661 4185 4102 4185 
L 4102 4352 
C 3917 4339 3578 4339 3379 4339 
C 3181 4339 2842 4339 2656 4352 
L 2656 4185 
C 3098 4185 3168 4185 3168 3898 
L 3168 2342 
L 1261 2342 
L 1261 3898 
C 1261 4185 1331 4185 1773 4185 
L 1773 4352 
C 1587 4339 1248 4339 1050 4339 
C 851 4339 512 4339 326 4352 
L 326 4185 
C 768 4185 838 4185 838 3898 
L 838 452 
C 838 166 768 166 326 166 
L 326 0 
C 512 12 851 12 1050 12 
C 1248 12 1587 12 1773 0 
L 1773 166 
C 1331 166 1261 166 1261 452 
L 1261 2176 
L 3168 2176 
L 3168 452 
C 3168 166 3098 166 2656 166 
L 2656 0 
C 2842 12 3181 12 3379 12 
C 3578 12 3917 12 4102 0 
L 4102 166 
C 3661 166 3590 166 3590 452 
L 3590 3898 
z
" transform="scale(0.015625)"/>
       </defs>
       <use xlink:href="#CMR17-48" transform="scale(0.996264)"/>
       <use xlink:href="#CMR17-46" transform="translate(69.07243 0)scale(0.996264)"/>
       <use xlink:href="#CMR17-43" transform="translate(126.453822 0)scale(0.996264)"/>
      </g>
     </g>
    </g>
    <g id="xtick_15">
     <g id="line2d_15">
      <g>
       <use xlink:href="#mffc436a147" x="315.461831" y="227.248777" style="stroke: #000000; stroke-width: 0.8"/>
      </g>
     </g>
     <g id="text_15">
      <!-- HOLX -->
      <g transform="translate(317.952491 263.168177)rotate(-90)scale(0.1 -0.1)">
       <defs>
        <path id="CMR17-4c" d="M 3469 1612 
L 3354 1612 
C 3302 981 3219 166 2125 166 
L 1530 166 
C 1274 166 1261 198 1261 414 
L 1261 3892 
C 1261 4121 1274 4185 1760 4185 
L 1901 4185 
L 1901 4352 
C 1638 4339 1331 4339 1069 4339 
C 870 4339 512 4339 326 4352 
L 326 4185 
C 768 4185 838 4185 838 3898 
L 838 453 
C 838 166 768 166 326 166 
L 326 0 
L 3315 0 
L 3469 1612 
z
" transform="scale(0.015625)"/>
       </defs>
       <use xlink:href="#CMR17-48" transform="scale(0.996264)"/>
       <use xlink:href="#CMR17-4f" transform="translate(69.07243 0)scale(0.996264)"/>
       <use xlink:href="#CMR17-4c" transform="translate(140.787218 0)scale(0.996264)"/>
       <use xlink:href="#CMR17-58" transform="translate(198.168626 0)scale(0.996264)"/>
      </g>
     </g>
    </g>
    <g id="xtick_16">
     <g id="line2d_16">
      <g>
       <use xlink:href="#mffc436a147" x="334.231051" y="227.248777" style="stroke: #000000; stroke-width: 0.8"/>
      </g>
     </g>
     <g id="text_16">
      <!-- HP -->
      <g transform="translate(336.721711 248.500919)rotate(-90)scale(0.1 -0.1)">
       <defs>
        <path id="CMR17-50" d="M 1267 2048 
L 2291 2048 
C 3117 2048 3718 2583 3718 3187 
C 3718 3791 3130 4352 2291 4352 
L 333 4352 
L 333 4185 
C 774 4185 845 4185 845 3899 
L 845 453 
C 845 166 774 166 333 166 
L 333 0 
C 518 12 858 12 1056 12 
C 1254 12 1594 12 1779 0 
L 1779 166 
C 1338 166 1267 166 1267 453 
L 1267 2048 
z
M 1254 2182 
L 1254 3937 
C 1254 4153 1267 4185 1523 4185 
L 2170 4185 
C 2995 4185 3232 3715 3232 3187 
C 3232 2608 2950 2182 2170 2182 
L 1254 2182 
z
" transform="scale(0.015625)"/>
       </defs>
       <use xlink:href="#CMR17-48" transform="scale(0.996264)"/>
       <use xlink:href="#CMR17-50" transform="translate(69.07243 0)scale(0.996264)"/>
      </g>
     </g>
    </g>
    <g id="xtick_17">
     <g id="line2d_17">
      <g>
       <use xlink:href="#mffc436a147" x="353.000272" y="227.248777" style="stroke: #000000; stroke-width: 0.8"/>
      </g>
     </g>
     <g id="text_17">
      <!-- IVZ -->
      <g transform="translate(355.490932 251.406679)rotate(-90)scale(0.1 -0.1)">
       <defs>
        <path id="CMR17-5a" d="M 3302 4223 
C 3302 4345 3296 4352 3162 4352 
L 442 4352 
L 378 2943 
L 493 2943 
C 531 3669 723 4185 1760 4185 
L 2816 4185 
L 339 204 
C 294 134 294 128 294 83 
C 294 0 307 0 435 0 
L 3245 0 
L 3334 1663 
L 3219 1663 
C 3162 828 3117 179 1894 179 
L 781 179 
L 3302 4223 
z
" transform="scale(0.015625)"/>
       </defs>
       <use xlink:href="#CMR17-49" transform="scale(0.996264)"/>
       <use xlink:href="#CMR17-56" transform="translate(32.638409 0)scale(0.996264)"/>
       <use xlink:href="#CMR17-5a" transform="translate(101.710839 0)scale(0.996264)"/>
      </g>
     </g>
    </g>
    <g id="xtick_18">
     <g id="line2d_18">
      <g>
       <use xlink:href="#mffc436a147" x="371.769492" y="227.248777" style="stroke: #000000; stroke-width: 0.8"/>
      </g>
     </g>
     <g id="text_18">
      <!-- JBHT -->
      <g transform="translate(374.260152 261.092616)rotate(-90)scale(0.1 -0.1)">
       <defs>
        <path id="CMR17-4a" d="M 1888 902 
C 1888 316 1568 -26 1242 -26 
C 1075 -26 691 49 525 428 
C 550 422 582 415 608 415 
C 730 415 883 499 883 691 
C 883 844 774 960 614 960 
C 461 960 339 863 339 678 
C 339 254 730 -128 1254 -128 
C 1754 -128 2214 223 2291 755 
C 2298 799 2298 812 2298 1030 
L 2298 3734 
C 2298 3844 2298 4024 2310 4063 
C 2336 4185 2483 4185 2682 4185 
L 2682 4352 
C 2669 4352 2214 4339 2054 4339 
C 1786 4339 1491 4339 1222 4352 
L 1222 4185 
L 1376 4185 
C 1875 4185 1888 4114 1888 3883 
L 1888 902 
z
" transform="scale(0.015625)"/>
        <path id="CMR17-54" d="M 3981 4332 
L 288 4332 
L 179 2924 
L 294 2924 
C 378 3981 467 4166 1453 4166 
C 1568 4166 1754 4166 1805 4159 
C 1926 4140 1926 4064 1926 3917 
L 1926 465 
C 1926 236 1907 166 1376 166 
L 1197 166 
L 1197 0 
C 1504 6 1824 12 2138 12 
C 2451 12 2771 6 3078 0 
L 3078 166 
L 2899 166 
C 2368 166 2349 236 2349 465 
L 2349 3917 
C 2349 4057 2349 4134 2464 4159 
C 2515 4166 2701 4166 2816 4166 
C 3795 4166 3891 3981 3974 2924 
L 4090 2924 
L 3981 4332 
z
" transform="scale(0.015625)"/>
       </defs>
       <use xlink:href="#CMR17-4a" transform="scale(0.996264)"/>
       <use xlink:href="#CMR17-42" transform="translate(46.97179 0)scale(0.996264)"/>
       <use xlink:href="#CMR17-48" transform="translate(112.160544 0)scale(0.996264)"/>
       <use xlink:href="#CMR17-54" transform="translate(181.232974 0)scale(0.996264)"/>
      </g>
     </g>
    </g>
    <g id="xtick_19">
     <g id="line2d_19">
      <g>
       <use xlink:href="#mffc436a147" x="390.538713" y="227.248777" style="stroke: #000000; stroke-width: 0.8"/>
      </g>
     </g>
     <g id="text_19">
      <!-- KMX -->
      <g transform="translate(393.029373 258.601956)rotate(-90)scale(0.1 -0.1)">
       <use xlink:href="#CMR17-4b" transform="scale(0.996264)"/>
       <use xlink:href="#CMR17-4d" transform="translate(71.674777 0)scale(0.996264)"/>
       <use xlink:href="#CMR17-58" transform="translate(156.361718 0)scale(0.996264)"/>
      </g>
     </g>
    </g>
    <g id="xtick_20">
     <g id="line2d_20">
      <g>
       <use xlink:href="#mffc436a147" x="409.307934" y="227.248777" style="stroke: #000000; stroke-width: 0.8"/>
      </g>
     </g>
     <g id="text_20">
      <!-- KR -->
      <g transform="translate(411.798594 249.331134)rotate(-90)scale(0.1 -0.1)">
       <use xlink:href="#CMR17-4b" transform="scale(0.996264)"/>
       <use xlink:href="#CMR17-52" transform="translate(71.674777 0)scale(0.996264)"/>
      </g>
     </g>
    </g>
    <g id="xtick_21">
     <g id="line2d_21">
      <g>
       <use xlink:href="#mffc436a147" x="428.077154" y="227.248777" style="stroke: #000000; stroke-width: 0.8"/>
      </g>
     </g>
     <g id="text_21">
      <!-- LUV -->
      <g transform="translate(430.567814 255.419433)rotate(-90)scale(0.1 -0.1)">
       <defs>
        <path id="CMR17-55" d="M 3456 1442 
C 3456 583 2899 38 2291 38 
C 1965 38 1670 211 1491 480 
C 1286 788 1261 1185 1261 1410 
L 1261 3897 
C 1261 4185 1331 4185 1773 4185 
L 1773 4352 
C 1587 4339 1248 4339 1050 4339 
C 851 4339 512 4339 326 4352 
L 326 4185 
C 768 4185 838 4185 838 3897 
L 838 1442 
C 838 519 1536 -128 2278 -128 
C 3110 -128 3590 724 3590 1352 
L 3590 3788 
C 3590 4147 3917 4185 4102 4185 
L 4102 4352 
C 3955 4339 3686 4339 3526 4339 
C 3366 4339 3091 4339 2944 4352 
L 2944 4185 
C 3456 4185 3456 3884 3456 3724 
L 3456 1442 
z
" transform="scale(0.015625)"/>
       </defs>
       <use xlink:href="#CMR17-4c" transform="scale(0.996264)"/>
       <use xlink:href="#CMR17-55" transform="translate(57.381408 0)scale(0.996264)"/>
       <use xlink:href="#CMR17-56" transform="translate(126.453838 0)scale(0.996264)"/>
      </g>
     </g>
    </g>
    <g id="xtick_22">
     <g id="line2d_22">
      <g>
       <use xlink:href="#mffc436a147" x="446.846375" y="227.248777" style="stroke: #000000; stroke-width: 0.8"/>
      </g>
     </g>
     <g id="text_22">
      <!-- MCD -->
      <g transform="translate(449.337035 258.186826)rotate(-90)scale(0.1 -0.1)">
       <use xlink:href="#CMR17-4d" transform="scale(0.996264)"/>
       <use xlink:href="#CMR17-43" transform="translate(84.686941 0)scale(0.996264)"/>
       <use xlink:href="#CMR17-44" transform="translate(151.196821 0)scale(0.996264)"/>
      </g>
     </g>
    </g>
    <g id="xtick_23">
     <g id="line2d_23">
      <g>
       <use xlink:href="#mffc436a147" x="465.615595" y="227.248777" style="stroke: #000000; stroke-width: 0.8"/>
      </g>
     </g>
     <g id="text_23">
      <!-- MCO -->
      <g transform="translate(468.106255 258.325208)rotate(-90)scale(0.1 -0.1)">
       <use xlink:href="#CMR17-4d" transform="scale(0.996264)"/>
       <use xlink:href="#CMR17-43" transform="translate(84.686941 0)scale(0.996264)"/>
       <use xlink:href="#CMR17-4f" transform="translate(151.196821 0)scale(0.996264)"/>
      </g>
     </g>
    </g>
    <g id="xtick_24">
     <g id="line2d_24">
      <g>
       <use xlink:href="#mffc436a147" x="484.384816" y="227.248777" style="stroke: #000000; stroke-width: 0.8"/>
      </g>
     </g>
     <g id="text_24">
      <!-- MHK -->
      <g transform="translate(486.875476 258.601956)rotate(-90)scale(0.1 -0.1)">
       <use xlink:href="#CMR17-4d" transform="scale(0.996264)"/>
       <use xlink:href="#CMR17-48" transform="translate(84.686941 0)scale(0.996264)"/>
       <use xlink:href="#CMR17-4b" transform="translate(153.75937 0)scale(0.996264)"/>
      </g>
     </g>
    </g>
    <g id="xtick_25">
     <g id="line2d_25">
      <g>
       <use xlink:href="#mffc436a147" x="503.154036" y="227.248777" style="stroke: #000000; stroke-width: 0.8"/>
      </g>
     </g>
     <g id="text_25">
      <!-- MO -->
      <g transform="translate(505.644696 251.129961)rotate(-90)scale(0.1 -0.1)">
       <use xlink:href="#CMR17-4d" transform="scale(0.996264)"/>
       <use xlink:href="#CMR17-4f" transform="translate(84.686941 0)scale(0.996264)"/>
      </g>
     </g>
    </g>
    <g id="xtick_26">
     <g id="line2d_26">
      <g>
       <use xlink:href="#mffc436a147" x="521.923257" y="227.248777" style="stroke: #000000; stroke-width: 0.8"/>
      </g>
     </g>
     <g id="text_26">
      <!-- NEM -->
      <g transform="translate(524.413917 257.63336)rotate(-90)scale(0.1 -0.1)">
       <use xlink:href="#CMR17-4e" transform="scale(0.996264)"/>
       <use xlink:href="#CMR17-45" transform="translate(69.07243 0)scale(0.996264)"/>
       <use xlink:href="#CMR17-4d" transform="translate(131.65873 0)scale(0.996264)"/>
      </g>
     </g>
    </g>
    <g id="xtick_27">
     <g id="line2d_27">
      <g>
       <use xlink:href="#mffc436a147" x="540.692478" y="227.248777" style="stroke: #000000; stroke-width: 0.8"/>
      </g>
     </g>
     <g id="text_27">
      <!-- NI -->
      <g transform="translate(543.183138 245.318396)rotate(-90)scale(0.1 -0.1)">
       <use xlink:href="#CMR17-4e" transform="scale(0.996264)"/>
       <use xlink:href="#CMR17-49" transform="translate(69.07243 0)scale(0.996264)"/>
      </g>
     </g>
    </g>
    <g id="xtick_28">
     <g id="line2d_28">
      <g>
       <use xlink:href="#mffc436a147" x="559.461698" y="227.248777" style="stroke: #000000; stroke-width: 0.8"/>
      </g>
     </g>
     <g id="text_28">
      <!-- PEP -->
      <g transform="translate(561.952358 254.589218)rotate(-90)scale(0.1 -0.1)">
       <use xlink:href="#CMR17-50" transform="scale(0.996264)"/>
       <use xlink:href="#CMR17-45" transform="translate(62.586301 0)scale(0.996264)"/>
       <use xlink:href="#CMR17-50" transform="translate(125.172601 0)scale(0.996264)"/>
      </g>
     </g>
    </g>
    <g id="xtick_29">
     <g id="line2d_29">
      <g>
       <use xlink:href="#mffc436a147" x="578.230919" y="227.248777" style="stroke: #000000; stroke-width: 0.8"/>
      </g>
     </g>
     <g id="text_29">
      <!-- PG -->
      <g transform="translate(580.721579 248.846836)rotate(-90)scale(0.1 -0.1)">
       <use xlink:href="#CMR17-50" transform="scale(0.996264)"/>
       <use xlink:href="#CMR17-47" transform="translate(62.586301 0)scale(0.996264)"/>
      </g>
     </g>
    </g>
    <g id="xtick_30">
     <g id="line2d_30">
      <g>
       <use xlink:href="#mffc436a147" x="597.000139" y="227.248777" style="stroke: #000000; stroke-width: 0.8"/>
      </g>
     </g>
     <g id="text_30">
      <!-- PRGO -->
      <g transform="translate(599.490799 263.652445)rotate(-90)scale(0.1 -0.1)">
       <use xlink:href="#CMR17-50" transform="scale(0.996264)"/>
       <use xlink:href="#CMR17-52" transform="translate(62.586301 0)scale(0.996264)"/>
       <use xlink:href="#CMR17-47" transform="translate(127.774949 0)scale(0.996264)"/>
       <use xlink:href="#CMR17-4f" transform="translate(200.130294 0)scale(0.996264)"/>
      </g>
     </g>
    </g>
    <g id="xtick_31">
     <g id="line2d_31">
      <g>
       <use xlink:href="#mffc436a147" x="615.76936" y="227.248777" style="stroke: #000000; stroke-width: 0.8"/>
      </g>
     </g>
     <g id="text_31">
      <!-- RL -->
      <g transform="translate(618.26002 247.809056)rotate(-90)scale(0.1 -0.1)">
       <use xlink:href="#CMR17-52" transform="scale(0.996264)"/>
       <use xlink:href="#CMR17-4c" transform="translate(67.791102 0)scale(0.996264)"/>
      </g>
     </g>
    </g>
    <g id="xtick_32">
     <g id="line2d_32">
      <g>
       <use xlink:href="#mffc436a147" x="634.53858" y="227.248777" style="stroke: #000000; stroke-width: 0.8"/>
      </g>
     </g>
     <g id="text_32">
      <!-- ROL -->
      <g transform="translate(637.02924 255.281051)rotate(-90)scale(0.1 -0.1)">
       <use xlink:href="#CMR17-52" transform="scale(0.996264)"/>
       <use xlink:href="#CMR17-4f" transform="translate(65.188648 0)scale(0.996264)"/>
       <use xlink:href="#CMR17-4c" transform="translate(136.903436 0)scale(0.996264)"/>
      </g>
     </g>
    </g>
    <g id="xtick_33">
     <g id="line2d_33">
      <g>
       <use xlink:href="#mffc436a147" x="653.307801" y="227.248777" style="stroke: #000000; stroke-width: 0.8"/>
      </g>
     </g>
     <g id="text_33">
      <!-- RSG -->
      <g transform="translate(655.798461 254.935119)rotate(-90)scale(0.1 -0.1)">
       <use xlink:href="#CMR17-52" transform="scale(0.996264)"/>
       <use xlink:href="#CMR17-53" transform="translate(67.791102 0)scale(0.996264)"/>
       <use xlink:href="#CMR17-47" transform="translate(118.686472 0)scale(0.996264)"/>
      </g>
     </g>
    </g>
    <g id="xtick_34">
     <g id="line2d_34">
      <g>
       <use xlink:href="#mffc436a147" x="672.077022" y="227.248777" style="stroke: #000000; stroke-width: 0.8"/>
      </g>
     </g>
     <g id="text_34">
      <!-- SBAC -->
      <g transform="translate(674.567682 261.230983)rotate(-90)scale(0.1 -0.1)">
       <use xlink:href="#CMR17-53" transform="scale(0.996264)"/>
       <use xlink:href="#CMR17-42" transform="translate(50.89537 0)scale(0.996264)"/>
       <use xlink:href="#CMR17-41" transform="translate(116.084124 0)scale(0.996264)"/>
       <use xlink:href="#CMR17-43" transform="translate(182.5541 0)scale(0.996264)"/>
      </g>
     </g>
    </g>
    <g id="xtick_35">
     <g id="line2d_35">
      <g>
       <use xlink:href="#mffc436a147" x="690.846242" y="227.248777" style="stroke: #000000; stroke-width: 0.8"/>
      </g>
     </g>
     <g id="text_35">
      <!-- SLB -->
      <g transform="translate(693.336902 253.067155)rotate(-90)scale(0.1 -0.1)">
       <use xlink:href="#CMR17-53" transform="scale(0.996264)"/>
       <use xlink:href="#CMR17-4c" transform="translate(50.89537 0)scale(0.996264)"/>
       <use xlink:href="#CMR17-42" transform="translate(108.276778 0)scale(0.996264)"/>
      </g>
     </g>
    </g>
    <g id="xtick_36">
     <g id="line2d_36">
      <g>
       <use xlink:href="#mffc436a147" x="709.615463" y="227.248777" style="stroke: #000000; stroke-width: 0.8"/>
      </g>
     </g>
     <g id="text_36">
      <!-- SPGI -->
      <g transform="translate(712.106123 257.979276)rotate(-90)scale(0.1 -0.1)">
       <use xlink:href="#CMR17-53" transform="scale(0.996264)"/>
       <use xlink:href="#CMR17-50" transform="translate(50.89537 0)scale(0.996264)"/>
       <use xlink:href="#CMR17-47" transform="translate(113.48167 0)scale(0.996264)"/>
       <use xlink:href="#CMR17-49" transform="translate(185.837016 0)scale(0.996264)"/>
      </g>
     </g>
    </g>
    <g id="xtick_37">
     <g id="line2d_37">
      <g>
       <use xlink:href="#mffc436a147" x="728.384683" y="227.248777" style="stroke: #000000; stroke-width: 0.8"/>
      </g>
     </g>
     <g id="text_37">
      <!-- SRE -->
      <g transform="translate(730.875343 253.897354)rotate(-90)scale(0.1 -0.1)">
       <use xlink:href="#CMR17-53" transform="scale(0.996264)"/>
       <use xlink:href="#CMR17-52" transform="translate(50.89537 0)scale(0.996264)"/>
       <use xlink:href="#CMR17-45" transform="translate(118.686472 0)scale(0.996264)"/>
      </g>
     </g>
    </g>
    <g id="xtick_38">
     <g id="line2d_38">
      <g>
       <use xlink:href="#mffc436a147" x="747.153904" y="227.248777" style="stroke: #000000; stroke-width: 0.8"/>
      </g>
     </g>
     <g id="text_38">
      <!-- STE -->
      <g transform="translate(749.644564 253.758988)rotate(-90)scale(0.1 -0.1)">
       <use xlink:href="#CMR17-53" transform="scale(0.996264)"/>
       <use xlink:href="#CMR17-54" transform="translate(50.89537 0)scale(0.996264)"/>
       <use xlink:href="#CMR17-45" transform="translate(117.40525 0)scale(0.996264)"/>
      </g>
     </g>
    </g>
    <g id="xtick_39">
     <g id="line2d_39">
      <g>
       <use xlink:href="#mffc436a147" x="765.923124" y="227.248777" style="stroke: #000000; stroke-width: 0.8"/>
      </g>
     </g>
     <g id="text_39">
      <!-- TGT -->
      <g transform="translate(768.413784 256.457183)rotate(-90)scale(0.1 -0.1)">
       <use xlink:href="#CMR17-54" transform="scale(0.996264)"/>
       <use xlink:href="#CMR17-47" transform="translate(66.509881 0)scale(0.996264)"/>
       <use xlink:href="#CMR17-54" transform="translate(138.865226 0)scale(0.996264)"/>
      </g>
     </g>
    </g>
    <g id="xtick_40">
     <g id="line2d_40">
      <g>
       <use xlink:href="#mffc436a147" x="784.692345" y="227.248777" style="stroke: #000000; stroke-width: 0.8"/>
      </g>
     </g>
     <g id="text_40">
      <!-- WAB -->
      <g transform="translate(787.183005 257.910093)rotate(-90)scale(0.1 -0.1)">
       <use xlink:href="#CMR17-57" transform="scale(0.996264)"/>
       <use xlink:href="#CMR17-41" transform="translate(84.686941 0)scale(0.996264)"/>
       <use xlink:href="#CMR17-42" transform="translate(153.75937 0)scale(0.996264)"/>
      </g>
     </g>
    </g>
    <g id="xtick_41">
     <g id="line2d_41">
      <g>
       <use xlink:href="#mffc436a147" x="803.461565" y="227.248777" style="stroke: #000000; stroke-width: 0.8"/>
      </g>
     </g>
     <g id="text_41">
      <!-- WBA -->
      <g transform="translate(805.952226 259.017071)rotate(-90)scale(0.1 -0.1)">
       <use xlink:href="#CMR17-57" transform="scale(0.996264)"/>
       <use xlink:href="#CMR17-42" transform="translate(95.09665 0)scale(0.996264)"/>
       <use xlink:href="#CMR17-41" transform="translate(160.285404 0)scale(0.996264)"/>
      </g>
     </g>
    </g>
    <g id="xtick_42">
     <g id="line2d_42">
      <g>
       <use xlink:href="#mffc436a147" x="822.230786" y="227.248777" style="stroke: #000000; stroke-width: 0.8"/>
      </g>
     </g>
     <g id="text_42">
      <!-- WDC -->
      <g transform="translate(824.721446 259.29379)rotate(-90)scale(0.1 -0.1)">
       <use xlink:href="#CMR17-57" transform="scale(0.996264)"/>
       <use xlink:href="#CMR17-44" transform="translate(95.09665 0)scale(0.996264)"/>
       <use xlink:href="#CMR17-43" transform="translate(165.490206 0)scale(0.996264)"/>
      </g>
     </g>
    </g>
    <g id="xtick_43">
     <g id="line2d_43">
      <g>
       <use xlink:href="#mffc436a147" x="841.000007" y="227.248777" style="stroke: #000000; stroke-width: 0.8"/>
      </g>
     </g>
     <g id="text_43">
      <!-- ZBRA -->
      <g transform="translate(843.490667 262.199565)rotate(-90)scale(0.1 -0.1)">
       <use xlink:href="#CMR17-5a" transform="scale(0.996264)"/>
       <use xlink:href="#CMR17-42" transform="translate(56.100171 0)scale(0.996264)"/>
       <use xlink:href="#CMR17-52" transform="translate(121.288926 0)scale(0.996264)"/>
       <use xlink:href="#CMR17-41" transform="translate(189.080028 0)scale(0.996264)"/>
      </g>
     </g>
    </g>
    <g id="text_44">
     <!-- Assets -->
     <g transform="translate(433.064712 275.262822)scale(0.1 -0.1)">
      <defs>
       <path id="CMR17-73" d="M 1978 2688 
C 1978 2803 1971 2809 1933 2809 
C 1907 2809 1901 2803 1824 2707 
C 1805 2681 1747 2617 1728 2592 
C 1523 2809 1235 2816 1126 2816 
C 416 2816 160 2444 160 2073 
C 160 1497 813 1363 998 1324 
C 1402 1241 1542 1216 1677 1100 
C 1760 1024 1901 883 1901 652 
C 1901 384 1747 38 1158 38 
C 602 38 403 460 288 1024 
C 269 1113 269 1120 218 1120 
C 166 1120 160 1113 160 985 
L 160 64 
C 160 -52 166 -58 205 -58 
C 237 -58 243 -52 275 0 
C 314 57 410 211 448 275 
C 576 102 800 -64 1158 -64 
C 1792 -64 2131 281 2131 780 
C 2131 1107 1958 1280 1875 1356 
C 1683 1555 1459 1600 1190 1651 
C 838 1728 390 1817 390 2208 
C 390 2374 480 2726 1126 2726 
C 1811 2726 1850 2086 1862 1881 
C 1869 1849 1901 1843 1920 1843 
C 1978 1843 1978 1862 1978 1971 
L 1978 2688 
z
" transform="scale(0.015625)"/>
       <path id="CMR17-65" d="M 2438 1503 
C 2464 1529 2464 1542 2464 1606 
C 2464 2251 2118 2816 1389 2816 
C 710 2816 173 2175 173 1394 
C 173 554 781 -64 1459 -64 
C 2176 -64 2458 619 2458 755 
C 2458 800 2419 800 2406 800 
C 2362 800 2355 787 2330 709 
C 2189 270 1837 51 1504 51 
C 1229 51 954 206 781 490 
C 582 819 582 1200 582 1503 
L 2438 1503 
z
M 589 1600 
C 634 2511 1126 2713 1382 2713 
C 1818 2713 2112 2308 2118 1600 
L 589 1600 
z
" transform="scale(0.015625)"/>
       <path id="CMR17-74" d="M 966 2585 
L 1862 2585 
L 1862 2752 
L 966 2752 
L 966 3968 
L 851 3968 
C 838 3292 614 2700 70 2687 
L 70 2585 
L 627 2585 
L 627 778 
C 627 655 627 -64 1370 -64 
C 1747 -64 1965 308 1965 784 
L 1965 1151 
L 1850 1151 
L 1850 790 
C 1850 347 1677 51 1408 51 
C 1222 51 966 179 966 765 
L 966 2585 
z
" transform="scale(0.015625)"/>
      </defs>
      <use xlink:href="#CMR17-41" transform="scale(0.996264)"/>
      <use xlink:href="#CMR17-73" transform="translate(69.07243 0)scale(0.996264)"/>
      <use xlink:href="#CMR17-73" transform="translate(104.873767 0)scale(0.996264)"/>
      <use xlink:href="#CMR17-65" transform="translate(140.675105 0)scale(0.996264)"/>
      <use xlink:href="#CMR17-74" transform="translate(181.160766 0)scale(0.996264)"/>
      <use xlink:href="#CMR17-73" transform="translate(216.441533 0)scale(0.996264)"/>
     </g>
    </g>
   </g>
   <g id="matplotlib.axis_2">
    <g id="ytick_1">
     <g id="line2d_44">
      <defs>
       <path id="mdc8cd037ae" d="M 0 0 
L -3.5 0 
" style="stroke: #000000; stroke-width: 0.8"/>
      </defs>
      <g>
       <use xlink:href="#mdc8cd037ae" x="40.492749" y="227.248777" style="stroke: #000000; stroke-width: 0.8"/>
      </g>
     </g>
     <g id="text_45">
      <!-- $\mathdefault{0.000}$ -->
      <g transform="translate(10.8 230.708026)scale(0.1 -0.1)">
       <defs>
        <path id="CMR17-30" d="M 2688 2038 
C 2688 2430 2682 3099 2413 3613 
C 2176 4063 1798 4224 1466 4224 
C 1158 4224 768 4082 525 3620 
C 269 3137 243 2539 243 2038 
C 243 1671 250 1112 448 623 
C 723 -39 1216 -128 1466 -128 
C 1760 -128 2208 -7 2470 604 
C 2662 1048 2688 1568 2688 2038 
z
M 1466 -26 
C 1056 -26 813 328 723 816 
C 653 1196 653 1749 653 2109 
C 653 2604 653 3015 736 3407 
C 858 3954 1216 4121 1466 4121 
C 1728 4121 2067 3947 2189 3420 
C 2272 3054 2278 2623 2278 2109 
C 2278 1691 2278 1176 2202 797 
C 2067 96 1690 -26 1466 -26 
z
" transform="scale(0.015625)"/>
        <path id="CMMI12-3a" d="M 1178 307 
C 1178 492 1024 620 870 620 
C 685 620 557 467 557 313 
C 557 128 710 0 864 0 
C 1050 0 1178 153 1178 307 
z
" transform="scale(0.015625)"/>
       </defs>
       <use xlink:href="#CMR17-30" transform="scale(0.996264)"/>
       <use xlink:href="#CMMI12-3a" transform="translate(45.690477 0)scale(0.996264)"/>
       <use xlink:href="#CMR17-30" transform="translate(72.787654 0)scale(0.996264)"/>
       <use xlink:href="#CMR17-30" transform="translate(118.478131 0)scale(0.996264)"/>
       <use xlink:href="#CMR17-30" transform="translate(164.168608 0)scale(0.996264)"/>
      </g>
     </g>
    </g>
    <g id="ytick_2">
     <g id="line2d_45">
      <g>
       <use xlink:href="#mdc8cd037ae" x="40.492749" y="201.015066" style="stroke: #000000; stroke-width: 0.8"/>
      </g>
     </g>
     <g id="text_46">
      <!-- $\mathdefault{0.025}$ -->
      <g transform="translate(10.8 204.474315)scale(0.1 -0.1)">
       <defs>
        <path id="CMR17-32" d="M 2669 990 
L 2554 990 
C 2490 537 2438 460 2413 422 
C 2381 371 1920 371 1830 371 
L 602 371 
C 832 620 1280 1073 1824 1596 
C 2214 1966 2669 2400 2669 3033 
C 2669 3788 2067 4224 1395 4224 
C 691 4224 262 3603 262 3027 
C 262 2777 448 2745 525 2745 
C 589 2745 781 2783 781 3007 
C 781 3206 614 3264 525 3264 
C 486 3264 448 3257 422 3244 
C 544 3788 915 4057 1306 4057 
C 1862 4057 2227 3616 2227 3033 
C 2227 2477 1901 1998 1536 1583 
L 262 147 
L 262 0 
L 2515 0 
L 2669 990 
z
" transform="scale(0.015625)"/>
        <path id="CMR17-35" d="M 730 3750 
C 794 3724 1056 3641 1325 3641 
C 1920 3641 2246 3961 2432 4140 
C 2432 4191 2432 4224 2394 4224 
C 2387 4224 2374 4224 2323 4198 
C 2099 4102 1837 4032 1517 4032 
C 1325 4032 1037 4055 723 4191 
C 653 4224 640 4224 634 4224 
C 602 4224 595 4217 595 4090 
L 595 2231 
C 595 2113 595 2080 659 2080 
C 691 2080 704 2093 736 2139 
C 941 2435 1222 2560 1542 2560 
C 1766 2560 2246 2415 2246 1293 
C 2246 1087 2246 716 2054 422 
C 1894 159 1645 25 1370 25 
C 947 25 518 319 403 812 
C 429 806 480 793 506 793 
C 589 793 749 838 749 1036 
C 749 1209 627 1280 506 1280 
C 358 1280 262 1190 262 1011 
C 262 454 704 -128 1382 -128 
C 2042 -128 2669 441 2669 1267 
C 2669 2054 2170 2662 1549 2662 
C 1222 2662 947 2540 730 2304 
L 730 3750 
z
" transform="scale(0.015625)"/>
       </defs>
       <use xlink:href="#CMR17-30" transform="scale(0.996264)"/>
       <use xlink:href="#CMMI12-3a" transform="translate(45.690477 0)scale(0.996264)"/>
       <use xlink:href="#CMR17-30" transform="translate(72.787654 0)scale(0.996264)"/>
       <use xlink:href="#CMR17-32" transform="translate(118.478131 0)scale(0.996264)"/>
       <use xlink:href="#CMR17-35" transform="translate(164.168608 0)scale(0.996264)"/>
      </g>
     </g>
    </g>
    <g id="ytick_3">
     <g id="line2d_46">
      <g>
       <use xlink:href="#mdc8cd037ae" x="40.492749" y="174.781355" style="stroke: #000000; stroke-width: 0.8"/>
      </g>
     </g>
     <g id="text_47">
      <!-- $\mathdefault{0.050}$ -->
      <g transform="translate(10.8 178.240604)scale(0.1 -0.1)">
       <use xlink:href="#CMR17-30" transform="scale(0.996264)"/>
       <use xlink:href="#CMMI12-3a" transform="translate(45.690477 0)scale(0.996264)"/>
       <use xlink:href="#CMR17-30" transform="translate(72.787654 0)scale(0.996264)"/>
       <use xlink:href="#CMR17-35" transform="translate(118.478131 0)scale(0.996264)"/>
       <use xlink:href="#CMR17-30" transform="translate(164.168608 0)scale(0.996264)"/>
      </g>
     </g>
    </g>
    <g id="ytick_4">
     <g id="line2d_47">
      <g>
       <use xlink:href="#mdc8cd037ae" x="40.492749" y="148.547643" style="stroke: #000000; stroke-width: 0.8"/>
      </g>
     </g>
     <g id="text_48">
      <!-- $\mathdefault{0.075}$ -->
      <g transform="translate(10.8 152.006893)scale(0.1 -0.1)">
       <defs>
        <path id="CMR17-37" d="M 2886 3955 
L 2886 4096 
L 1382 4096 
C 634 4096 621 4166 595 4288 
L 480 4288 
L 294 3104 
L 410 3104 
C 429 3226 474 3552 550 3673 
C 589 3724 1062 3724 1171 3724 
L 2579 3724 
L 1869 2670 
C 1395 1961 1069 1003 1069 166 
C 1069 89 1069 -128 1299 -128 
C 1530 -128 1530 89 1530 172 
L 1530 466 
C 1530 1514 1709 2204 2003 2644 
L 2886 3955 
z
" transform="scale(0.015625)"/>
       </defs>
       <use xlink:href="#CMR17-30" transform="scale(0.996264)"/>
       <use xlink:href="#CMMI12-3a" transform="translate(45.690477 0)scale(0.996264)"/>
       <use xlink:href="#CMR17-30" transform="translate(72.787654 0)scale(0.996264)"/>
       <use xlink:href="#CMR17-37" transform="translate(118.478131 0)scale(0.996264)"/>
       <use xlink:href="#CMR17-35" transform="translate(164.168608 0)scale(0.996264)"/>
      </g>
     </g>
    </g>
    <g id="ytick_5">
     <g id="line2d_48">
      <g>
       <use xlink:href="#mdc8cd037ae" x="40.492749" y="122.313932" style="stroke: #000000; stroke-width: 0.8"/>
      </g>
     </g>
     <g id="text_49">
      <!-- $\mathdefault{0.100}$ -->
      <g transform="translate(10.8 125.773181)scale(0.1 -0.1)">
       <defs>
        <path id="CMR17-31" d="M 1702 4083 
C 1702 4217 1696 4224 1606 4224 
C 1357 3927 979 3833 621 3820 
C 602 3820 570 3820 563 3808 
C 557 3795 557 3782 557 3648 
C 755 3648 1088 3686 1344 3839 
L 1344 467 
C 1344 243 1331 166 781 166 
L 589 166 
L 589 0 
C 896 6 1216 12 1523 12 
C 1830 12 2150 6 2458 0 
L 2458 166 
L 2266 166 
C 1715 166 1702 236 1702 467 
L 1702 4083 
z
" transform="scale(0.015625)"/>
       </defs>
       <use xlink:href="#CMR17-30" transform="scale(0.996264)"/>
       <use xlink:href="#CMMI12-3a" transform="translate(45.690477 0)scale(0.996264)"/>
       <use xlink:href="#CMR17-31" transform="translate(72.787654 0)scale(0.996264)"/>
       <use xlink:href="#CMR17-30" transform="translate(118.478131 0)scale(0.996264)"/>
       <use xlink:href="#CMR17-30" transform="translate(164.168608 0)scale(0.996264)"/>
      </g>
     </g>
    </g>
    <g id="ytick_6">
     <g id="line2d_49">
      <g>
       <use xlink:href="#mdc8cd037ae" x="40.492749" y="96.080221" style="stroke: #000000; stroke-width: 0.8"/>
      </g>
     </g>
     <g id="text_50">
      <!-- $\mathdefault{0.125}$ -->
      <g transform="translate(10.8 99.53947)scale(0.1 -0.1)">
       <use xlink:href="#CMR17-30" transform="scale(0.996264)"/>
       <use xlink:href="#CMMI12-3a" transform="translate(45.690477 0)scale(0.996264)"/>
       <use xlink:href="#CMR17-31" transform="translate(72.787654 0)scale(0.996264)"/>
       <use xlink:href="#CMR17-32" transform="translate(118.478131 0)scale(0.996264)"/>
       <use xlink:href="#CMR17-35" transform="translate(164.168608 0)scale(0.996264)"/>
      </g>
     </g>
    </g>
    <g id="ytick_7">
     <g id="line2d_50">
      <g>
       <use xlink:href="#mdc8cd037ae" x="40.492749" y="69.84651" style="stroke: #000000; stroke-width: 0.8"/>
      </g>
     </g>
     <g id="text_51">
      <!-- $\mathdefault{0.150}$ -->
      <g transform="translate(10.8 73.305759)scale(0.1 -0.1)">
       <use xlink:href="#CMR17-30" transform="scale(0.996264)"/>
       <use xlink:href="#CMMI12-3a" transform="translate(45.690477 0)scale(0.996264)"/>
       <use xlink:href="#CMR17-31" transform="translate(72.787654 0)scale(0.996264)"/>
       <use xlink:href="#CMR17-35" transform="translate(118.478131 0)scale(0.996264)"/>
       <use xlink:href="#CMR17-30" transform="translate(164.168608 0)scale(0.996264)"/>
      </g>
     </g>
    </g>
    <g id="ytick_8">
     <g id="line2d_51">
      <g>
       <use xlink:href="#mdc8cd037ae" x="40.492749" y="43.612799" style="stroke: #000000; stroke-width: 0.8"/>
      </g>
     </g>
     <g id="text_52">
      <!-- $\mathdefault{0.175}$ -->
      <g transform="translate(10.8 47.072048)scale(0.1 -0.1)">
       <use xlink:href="#CMR17-30" transform="scale(0.996264)"/>
       <use xlink:href="#CMMI12-3a" transform="translate(45.690477 0)scale(0.996264)"/>
       <use xlink:href="#CMR17-31" transform="translate(72.787654 0)scale(0.996264)"/>
       <use xlink:href="#CMR17-37" transform="translate(118.478131 0)scale(0.996264)"/>
       <use xlink:href="#CMR17-35" transform="translate(164.168608 0)scale(0.996264)"/>
      </g>
     </g>
    </g>
    <g id="text_53">
     <!-- % of Portfolio -->
     <g transform="translate(4.862822 126.507577)rotate(-90)scale(0.1 -0.1)"/>
    </g>
   </g>
   <g id="patch_89">
    <path d="M 40.492749 227.248777 
L 40.492749 25.766376 
" style="fill: none; stroke: #000000; stroke-width: 0.8; stroke-linejoin: miter; stroke-linecap: square"/>
   </g>
   <g id="patch_90">
    <path d="M 853.2 227.248777 
L 853.2 25.766376 
" style="fill: none; stroke: #000000; stroke-width: 0.8; stroke-linejoin: miter; stroke-linecap: square"/>
   </g>
   <g id="patch_91">
    <path d="M 40.492749 227.248777 
L 853.2 227.248777 
" style="fill: none; stroke: #000000; stroke-width: 0.8; stroke-linejoin: miter; stroke-linecap: square"/>
   </g>
   <g id="patch_92">
    <path d="M 40.492749 25.766376 
L 853.2 25.766376 
" style="fill: none; stroke: #000000; stroke-width: 0.8; stroke-linejoin: miter; stroke-linecap: square"/>
   </g>
   <g id="text_54">
    <!-- Portfolio comparison (only including assets with positive allocation) -->
    <g transform="translate(272.477074 19.766376)scale(0.12 -0.12)">
     <defs>
      <path id="CMR17-6f" d="M 2758 1356 
C 2758 2176 2163 2816 1466 2816 
C 768 2816 173 2176 173 1356 
C 173 550 768 -64 1466 -64 
C 2163 -64 2758 550 2758 1356 
z
M 1466 51 
C 1165 51 909 230 762 480 
C 602 768 582 1126 582 1408 
C 582 1676 595 2009 762 2297 
C 890 2508 1139 2713 1466 2713 
C 1754 2713 1997 2553 2150 2329 
C 2349 2028 2349 1606 2349 1408 
C 2349 1158 2336 774 2163 467 
C 1984 172 1709 51 1466 51 
z
" transform="scale(0.015625)"/>
      <path id="CMR17-72" d="M 960 1517 
C 960 2134 1222 2713 1702 2713 
C 1747 2713 1792 2707 1837 2687 
C 1837 2687 1696 2642 1696 2475 
C 1696 2321 1818 2257 1914 2257 
C 1990 2257 2131 2302 2131 2482 
C 2131 2687 1926 2816 1709 2816 
C 1222 2816 1011 2340 947 2115 
L 941 2115 
L 941 2816 
L 198 2745 
L 198 2578 
C 576 2578 634 2540 634 2231 
L 634 443 
C 634 198 608 166 198 166 
L 198 0 
C 352 12 646 12 813 12 
C 998 12 1325 12 1498 0 
L 1498 166 
C 1037 166 960 166 960 455 
L 960 1517 
z
" transform="scale(0.015625)"/>
      <path id="CMR17-66" d="M 979 2585 
L 1709 2585 
L 1709 2752 
L 966 2752 
L 966 3539 
C 966 4076 1235 4377 1510 4377 
C 1594 4377 1690 4363 1754 4339 
C 1702 4326 1568 4281 1568 4121 
C 1568 3955 1696 3904 1786 3904 
C 1875 3904 2003 3955 2003 4121 
C 2003 4353 1773 4480 1517 4480 
C 1152 4480 653 4211 653 3526 
L 653 2752 
L 141 2752 
L 141 2585 
L 653 2585 
L 653 441 
C 653 198 627 166 218 166 
L 218 0 
C 371 12 666 12 832 12 
C 1018 12 1344 12 1517 0 
L 1517 166 
C 1056 166 979 166 979 454 
L 979 2585 
z
" transform="scale(0.015625)"/>
      <path id="CMR17-6c" d="M 979 4416 
L 218 4345 
L 218 4179 
C 595 4179 653 4141 653 3835 
L 653 439 
C 653 198 627 166 218 166 
L 218 0 
C 371 12 653 12 813 12 
C 979 12 1261 12 1414 0 
L 1414 166 
C 1005 166 979 191 979 439 
L 979 4416 
z
" transform="scale(0.015625)"/>
      <path id="CMR17-69" d="M 992 3961 
C 992 4102 877 4224 730 4224 
C 589 4224 467 4108 467 3961 
C 467 3820 582 3699 730 3699 
C 870 3699 992 3814 992 3961 
z
M 243 2745 
L 243 2579 
C 602 2579 653 2540 653 2231 
L 653 443 
C 653 198 627 166 218 166 
L 218 0 
C 371 12 646 12 806 12 
C 960 12 1222 12 1370 0 
L 1370 166 
C 992 166 979 205 979 436 
L 979 2816 
L 243 2745 
z
" transform="scale(0.015625)"/>
      <path id="CMR17-63" d="M 2234 2240 
C 2112 2240 1933 2240 1933 2015 
C 1933 1836 2080 1785 2163 1785 
C 2208 1785 2394 1804 2394 2028 
C 2394 2476 1958 2816 1466 2816 
C 787 2816 211 2201 211 1379 
C 211 521 813 -64 1466 -64 
C 2259 -64 2458 676 2458 747 
C 2458 773 2451 792 2406 792 
C 2362 792 2355 786 2330 702 
C 2163 180 1798 51 1523 51 
C 1114 51 621 431 621 1385 
C 621 2358 1094 2700 1472 2700 
C 1722 2700 2093 2582 2234 2240 
z
" transform="scale(0.015625)"/>
      <path id="CMR17-6d" d="M 4326 1954 
C 4326 2276 4269 2816 3507 2816 
C 3072 2816 2771 2520 2656 2173 
L 2650 2173 
C 2573 2700 2195 2816 1837 2816 
C 1331 2816 1069 2424 973 2166 
L 966 2166 
L 966 2816 
L 211 2745 
L 211 2578 
C 589 2578 646 2540 646 2231 
L 646 443 
C 646 198 621 166 211 166 
L 211 0 
C 365 12 646 12 813 12 
C 979 12 1267 12 1421 0 
L 1421 166 
C 1011 166 986 192 986 443 
L 986 1678 
C 986 2269 1344 2713 1792 2713 
C 2266 2713 2317 2289 2317 1980 
L 2317 443 
C 2317 198 2291 166 1882 166 
L 1882 0 
C 2035 12 2317 12 2483 12 
C 2650 12 2938 12 3091 0 
L 3091 166 
C 2682 166 2656 192 2656 443 
L 2656 1678 
C 2656 2269 3014 2713 3462 2713 
C 3936 2713 3987 2289 3987 1980 
L 3987 443 
C 3987 198 3962 166 3552 166 
L 3552 0 
C 3706 12 3987 12 4154 12 
C 4320 12 4608 12 4762 0 
L 4762 166 
C 4352 166 4326 192 4326 443 
L 4326 1954 
z
" transform="scale(0.015625)"/>
      <path id="CMR17-70" d="M 1408 -1114 
C 998 -1114 973 -1088 973 -834 
L 973 380 
C 1158 109 1427 -64 1766 -64 
C 2406 -64 3053 503 3053 1382 
C 3053 2196 2496 2816 1837 2816 
C 1453 2816 1139 2603 960 2345 
L 960 2816 
L 198 2745 
L 198 2577 
C 576 2577 634 2539 634 2228 
L 634 -834 
C 634 -1081 608 -1114 198 -1114 
L 198 -1280 
C 352 -1268 634 -1268 800 -1268 
C 966 -1268 1254 -1268 1408 -1280 
L 1408 -1114 
z
M 973 2015 
C 973 2106 973 2241 1222 2481 
C 1254 2506 1472 2700 1792 2700 
C 2259 2700 2643 2112 2643 1376 
C 2643 639 2234 38 1728 38 
C 1498 38 1248 148 1056 451 
C 973 594 973 632 973 736 
L 973 2015 
z
" transform="scale(0.015625)"/>
      <path id="CMR17-61" d="M 2304 1656 
C 2304 2048 2304 2275 2035 2534 
C 1798 2751 1523 2816 1306 2816 
C 800 2816 435 2408 435 1977 
C 435 1740 627 1728 666 1728 
C 749 1728 896 1779 896 1958 
C 896 2118 774 2188 666 2188 
C 640 2188 608 2182 589 2176 
C 723 2594 1069 2713 1293 2713 
C 1613 2713 1965 2421 1965 1875 
L 1965 1632 
C 1587 1619 1133 1568 774 1373 
C 371 1147 256 822 256 576 
C 256 77 832 -64 1171 -64 
C 1523 -64 1850 135 1990 505 
C 2003 219 2182 -39 2464 -39 
C 2598 -39 2938 51 2938 563 
L 2938 926 
L 2822 926 
L 2822 557 
C 2822 161 2650 109 2566 109 
C 2304 109 2304 446 2304 732 
L 2304 1656 
z
M 1965 887 
C 1965 323 1568 38 1216 38 
C 896 38 646 278 646 576 
C 646 771 730 1114 1101 1322 
C 1408 1497 1760 1523 1965 1536 
L 1965 887 
z
" transform="scale(0.015625)"/>
      <path id="CMR17-6e" d="M 2656 1954 
C 2656 2282 2592 2816 1837 2816 
C 1331 2816 1069 2424 973 2166 
L 966 2166 
L 966 2816 
L 211 2745 
L 211 2578 
C 589 2578 646 2540 646 2231 
L 646 443 
C 646 198 621 166 211 166 
L 211 0 
C 365 12 646 12 813 12 
C 979 12 1267 12 1421 0 
L 1421 166 
C 1011 166 986 192 986 443 
L 986 1678 
C 986 2269 1344 2713 1792 2713 
C 2266 2713 2317 2289 2317 1980 
L 2317 443 
C 2317 198 2291 166 1882 166 
L 1882 0 
C 2035 12 2317 12 2483 12 
C 2650 12 2938 12 3091 0 
L 3091 166 
C 2682 166 2656 192 2656 443 
L 2656 1954 
z
" transform="scale(0.015625)"/>
      <path id="CMR17-28" d="M 1958 -1562 
C 1958 -1556 1958 -1543 1939 -1524 
C 1645 -1223 858 -403 858 1596 
C 858 3595 1632 4408 1946 4729 
C 1946 4735 1958 4748 1958 4767 
C 1958 4787 1939 4800 1914 4800 
C 1843 4800 1299 4325 986 3620 
C 666 2909 576 2218 576 1603 
C 576 1141 621 360 1005 -467 
C 1312 -1133 1837 -1600 1914 -1600 
C 1946 -1600 1958 -1588 1958 -1562 
z
" transform="scale(0.015625)"/>
      <path id="CMR17-79" d="M 2496 2183 
C 2656 2579 2944 2585 3034 2585 
L 3034 2752 
C 2912 2745 2752 2739 2630 2739 
C 2496 2739 2285 2739 2157 2752 
L 2157 2585 
C 2400 2566 2406 2384 2406 2332 
C 2406 2268 2394 2235 2362 2158 
L 1664 409 
L 902 2300 
C 870 2378 870 2423 870 2430 
C 870 2572 1018 2585 1171 2585 
L 1171 2752 
C 1018 2739 742 2739 582 2739 
C 410 2739 205 2739 64 2752 
L 64 2585 
C 410 2585 448 2553 531 2345 
L 1485 -31 
C 1197 -795 1030 -1242 627 -1242 
C 557 -1242 397 -1223 282 -1106 
C 429 -1093 493 -1002 493 -892 
C 493 -782 416 -685 288 -685 
C 147 -685 77 -782 77 -899 
C 77 -1158 339 -1344 627 -1344 
C 998 -1344 1229 -983 1357 -659 
L 2496 2183 
z
" transform="scale(0.015625)"/>
      <path id="CMR17-75" d="M 1882 2745 
L 1882 2579 
C 2259 2579 2317 2540 2317 2229 
L 2317 1053 
C 2317 510 2029 38 1555 38 
C 1030 38 986 355 986 691 
L 986 2816 
L 211 2745 
L 211 2579 
C 467 2579 640 2579 646 2320 
L 646 1079 
C 646 646 646 368 813 187 
C 896 103 1056 -64 1517 -64 
C 2061 -64 2272 400 2323 536 
L 2330 536 
L 2330 -64 
L 3091 -13 
L 3091 154 
C 2714 154 2656 193 2656 503 
L 2656 2816 
L 1882 2745 
z
" transform="scale(0.015625)"/>
      <path id="CMR17-64" d="M 1869 4345 
L 1869 4179 
C 2246 4179 2304 4141 2304 3843 
L 2304 2371 
C 2278 2403 2016 2816 1498 2816 
C 845 2816 211 2228 211 1376 
C 211 529 806 -64 1434 -64 
C 1978 -64 2259 361 2291 406 
L 2291 -64 
L 3066 -13 
L 3066 154 
C 2688 154 2630 193 2630 503 
L 2630 4416 
L 1869 4345 
z
M 2291 762 
C 2291 568 2176 393 2029 264 
C 1811 70 1594 38 1472 38 
C 1286 38 621 135 621 1369 
C 621 2636 1363 2713 1530 2713 
C 1824 2713 2061 2545 2208 2313 
C 2291 2177 2291 2157 2291 2041 
L 2291 762 
z
" transform="scale(0.015625)"/>
      <path id="CMR17-67" d="M 710 1165 
C 832 1068 1043 960 1299 960 
C 1805 960 2240 1359 2240 1895 
C 2240 2063 2189 2321 1997 2521 
C 2176 2713 2438 2777 2586 2777 
C 2611 2777 2650 2777 2682 2758 
C 2656 2751 2598 2726 2598 2623 
C 2598 2540 2656 2483 2739 2483 
C 2835 2483 2886 2547 2886 2630 
C 2886 2751 2790 2880 2586 2880 
C 2330 2880 2106 2758 1926 2591 
C 1734 2764 1504 2828 1299 2828 
C 794 2828 358 2431 358 1895 
C 358 1527 570 1294 634 1230 
C 442 1004 442 742 442 710 
C 442 544 506 300 723 166 
C 390 82 128 -184 128 -517 
C 128 -996 736 -1344 1466 -1344 
C 2170 -1344 2803 -1009 2803 -510 
C 2803 384 1856 384 1363 384 
C 1216 384 954 384 922 390 
C 723 422 589 601 589 825 
C 589 883 589 1024 710 1165 
z
M 1299 1068 
C 736 1068 736 1766 736 1895 
C 736 2024 736 2719 1299 2719 
C 1862 2719 1862 2024 1862 1895 
C 1862 1766 1862 1068 1299 1068 
z
M 1466 -1236 
C 826 -1236 384 -883 384 -517 
C 384 -311 493 -118 634 -11 
C 794 102 858 102 1293 102 
C 1818 102 2547 102 2547 -517 
C 2547 -883 2106 -1236 1466 -1236 
z
" transform="scale(0.015625)"/>
      <path id="CMR17-77" d="M 3725 2186 
C 3853 2566 4109 2579 4205 2585 
L 4205 2752 
C 4077 2745 3949 2739 3821 2739 
C 3699 2739 3424 2739 3315 2752 
L 3315 2585 
C 3514 2572 3622 2456 3622 2296 
C 3622 2251 3610 2193 3597 2148 
L 2995 398 
L 2342 2296 
C 2330 2341 2310 2392 2310 2418 
C 2310 2585 2528 2585 2630 2585 
L 2630 2752 
C 2483 2739 2214 2739 2061 2739 
C 1901 2739 1734 2739 1587 2752 
L 1587 2585 
C 1939 2585 1939 2572 2074 2167 
L 1485 443 
L 851 2302 
C 819 2386 819 2399 819 2418 
C 819 2585 1037 2585 1139 2585 
L 1139 2752 
C 986 2739 717 2739 557 2739 
C 416 2739 198 2739 64 2752 
L 64 2585 
C 346 2585 416 2566 486 2353 
L 1274 38 
C 1299 -45 1318 -64 1370 -64 
C 1414 -64 1440 -52 1472 44 
L 2131 1987 
L 2797 44 
C 2829 -52 2854 -64 2899 -64 
C 2950 -64 2970 -45 2995 38 
L 3725 2186 
z
" transform="scale(0.015625)"/>
      <path id="CMR17-68" d="M 2656 1954 
C 2656 2282 2592 2816 1837 2816 
C 1312 2816 1056 2392 979 2179 
L 973 2179 
L 973 4416 
L 211 4345 
L 211 4179 
C 589 4179 646 4141 646 3843 
L 646 443 
C 646 198 621 166 211 166 
L 211 0 
C 365 12 646 12 813 12 
C 979 12 1267 12 1421 0 
L 1421 166 
C 1011 166 986 192 986 443 
L 986 1678 
C 986 2269 1344 2713 1792 2713 
C 2266 2713 2317 2289 2317 1980 
L 2317 443 
C 2317 198 2291 166 1882 166 
L 1882 0 
C 2035 12 2317 12 2483 12 
C 2650 12 2938 12 3091 0 
L 3091 166 
C 2682 166 2656 192 2656 443 
L 2656 1954 
z
" transform="scale(0.015625)"/>
      <path id="CMR17-76" d="M 2502 2173 
C 2560 2315 2662 2572 3034 2585 
L 3034 2752 
C 2912 2745 2752 2739 2630 2739 
C 2496 2739 2285 2739 2157 2752 
L 2157 2585 
C 2317 2572 2406 2495 2406 2328 
C 2406 2270 2406 2257 2368 2167 
L 1664 379 
L 902 2308 
C 864 2392 864 2405 864 2431 
C 864 2585 1075 2585 1171 2585 
L 1171 2752 
C 1018 2739 736 2739 576 2739 
C 403 2739 205 2739 64 2752 
L 64 2585 
C 307 2585 442 2585 518 2386 
L 1446 44 
C 1485 -52 1491 -64 1549 -64 
C 1606 -64 1613 -52 1651 44 
L 2502 2173 
z
" transform="scale(0.015625)"/>
      <path id="CMR17-29" d="M 1683 1596 
C 1683 2057 1638 2839 1254 3665 
C 947 4332 422 4800 346 4800 
C 326 4800 301 4793 301 4761 
C 301 4748 307 4742 314 4729 
C 621 4408 1402 3595 1402 1603 
C 1402 -396 627 -1210 314 -1530 
C 307 -1543 301 -1549 301 -1562 
C 301 -1594 326 -1600 346 -1600 
C 416 -1600 960 -1127 1274 -422 
C 1594 289 1683 981 1683 1596 
z
" transform="scale(0.015625)"/>
     </defs>
     <use xlink:href="#CMR17-50" transform="scale(0.996264)"/>
     <use xlink:href="#CMR17-6f" transform="translate(59.983847 0)scale(0.996264)"/>
     <use xlink:href="#CMR17-72" transform="translate(105.674324 0)scale(0.996264)"/>
     <use xlink:href="#CMR17-74" transform="translate(140.955092 0)scale(0.996264)"/>
     <use xlink:href="#CMR17-66" transform="translate(176.235859 0)scale(0.996264)"/>
     <use xlink:href="#CMR17-6f" transform="translate(203.709372 0)scale(0.996264)"/>
     <use xlink:href="#CMR17-6c" transform="translate(249.399849 0)scale(0.996264)"/>
     <use xlink:href="#CMR17-69" transform="translate(274.270907 0)scale(0.996264)"/>
     <use xlink:href="#CMR17-6f" transform="translate(299.141966 0)scale(0.996264)"/>
     <use xlink:href="#CMR17-63" transform="translate(374.908409 0)scale(0.996264)"/>
     <use xlink:href="#CMR17-6f" transform="translate(415.39407 0)scale(0.996264)"/>
     <use xlink:href="#CMR17-6d" transform="translate(461.084547 0)scale(0.996264)"/>
     <use xlink:href="#CMR17-70" transform="translate(538.004137 0)scale(0.996264)"/>
     <use xlink:href="#CMR17-61" transform="translate(588.899506 0)scale(0.996264)"/>
     <use xlink:href="#CMR17-72" transform="translate(634.589984 0)scale(0.996264)"/>
     <use xlink:href="#CMR17-69" transform="translate(669.870751 0)scale(0.996264)"/>
     <use xlink:href="#CMR17-73" transform="translate(694.74181 0)scale(0.996264)"/>
     <use xlink:href="#CMR17-6f" transform="translate(730.543148 0)scale(0.996264)"/>
     <use xlink:href="#CMR17-6e" transform="translate(776.233625 0)scale(0.996264)"/>
     <use xlink:href="#CMR17-28" transform="translate(857.204961 0)scale(0.996264)"/>
     <use xlink:href="#CMR17-6f" transform="translate(892.485729 0)scale(0.996264)"/>
     <use xlink:href="#CMR17-6e" transform="translate(938.176206 0)scale(0.996264)"/>
     <use xlink:href="#CMR17-6c" transform="translate(989.071575 0)scale(0.996264)"/>
     <use xlink:href="#CMR17-79" transform="translate(1013.942634 0)scale(0.996264)"/>
     <use xlink:href="#CMR17-69" transform="translate(1092.311516 0)scale(0.996264)"/>
     <use xlink:href="#CMR17-6e" transform="translate(1117.182575 0)scale(0.996264)"/>
     <use xlink:href="#CMR17-63" transform="translate(1168.077944 0)scale(0.996264)"/>
     <use xlink:href="#CMR17-6c" transform="translate(1208.563605 0)scale(0.996264)"/>
     <use xlink:href="#CMR17-75" transform="translate(1233.434663 0)scale(0.996264)"/>
     <use xlink:href="#CMR17-64" transform="translate(1284.330033 0)scale(0.996264)"/>
     <use xlink:href="#CMR17-69" transform="translate(1335.225403 0)scale(0.996264)"/>
     <use xlink:href="#CMR17-6e" transform="translate(1360.096461 0)scale(0.996264)"/>
     <use xlink:href="#CMR17-67" transform="translate(1410.991831 0)scale(0.996264)"/>
     <use xlink:href="#CMR17-61" transform="translate(1486.758275 0)scale(0.996264)"/>
     <use xlink:href="#CMR17-73" transform="translate(1532.448752 0)scale(0.996264)"/>
     <use xlink:href="#CMR17-73" transform="translate(1568.250089 0)scale(0.996264)"/>
     <use xlink:href="#CMR17-65" transform="translate(1604.051427 0)scale(0.996264)"/>
     <use xlink:href="#CMR17-74" transform="translate(1644.537087 0)scale(0.996264)"/>
     <use xlink:href="#CMR17-73" transform="translate(1679.817855 0)scale(0.996264)"/>
     <use xlink:href="#CMR17-77" transform="translate(1745.695159 0)scale(0.996264)"/>
     <use xlink:href="#CMR17-69" transform="translate(1812.20504 0)scale(0.996264)"/>
     <use xlink:href="#CMR17-74" transform="translate(1837.076098 0)scale(0.996264)"/>
     <use xlink:href="#CMR17-68" transform="translate(1872.356866 0)scale(0.996264)"/>
     <use xlink:href="#CMR17-70" transform="translate(1953.328202 0)scale(0.996264)"/>
     <use xlink:href="#CMR17-6f" transform="translate(2006.826011 0)scale(0.996264)"/>
     <use xlink:href="#CMR17-73" transform="translate(2052.516488 0)scale(0.996264)"/>
     <use xlink:href="#CMR17-69" transform="translate(2088.317825 0)scale(0.996264)"/>
     <use xlink:href="#CMR17-74" transform="translate(2113.188884 0)scale(0.996264)"/>
     <use xlink:href="#CMR17-69" transform="translate(2148.469652 0)scale(0.996264)"/>
     <use xlink:href="#CMR17-76" transform="translate(2173.34071 0)scale(0.996264)"/>
     <use xlink:href="#CMR17-65" transform="translate(2219.031172 0)scale(0.996264)"/>
     <use xlink:href="#CMR17-61" transform="translate(2289.592799 0)scale(0.996264)"/>
     <use xlink:href="#CMR17-6c" transform="translate(2335.283276 0)scale(0.996264)"/>
     <use xlink:href="#CMR17-6c" transform="translate(2360.154335 0)scale(0.996264)"/>
     <use xlink:href="#CMR17-6f" transform="translate(2385.025393 0)scale(0.996264)"/>
     <use xlink:href="#CMR17-63" transform="translate(2433.318309 0)scale(0.996264)"/>
     <use xlink:href="#CMR17-61" transform="translate(2473.803969 0)scale(0.996264)"/>
     <use xlink:href="#CMR17-74" transform="translate(2519.494446 0)scale(0.996264)"/>
     <use xlink:href="#CMR17-69" transform="translate(2554.775214 0)scale(0.996264)"/>
     <use xlink:href="#CMR17-6f" transform="translate(2579.646273 0)scale(0.996264)"/>
     <use xlink:href="#CMR17-6e" transform="translate(2625.33675 0)scale(0.996264)"/>
     <use xlink:href="#CMR17-29" transform="translate(2676.23212 0)scale(0.996264)"/>
    </g>
   </g>
   <g id="legend_1">
    <g id="patch_93">
     <path d="M 758.447159 61.640733 
L 846.2 61.640733 
Q 848.2 61.640733 848.2 59.640733 
L 848.2 32.766376 
Q 848.2 30.766376 846.2 30.766376 
L 758.447159 30.766376 
Q 756.447159 30.766376 756.447159 32.766376 
L 756.447159 59.640733 
Q 756.447159 61.640733 758.447159 61.640733 
z
" style="fill: #ffffff; opacity: 0.8; stroke: #cccccc; stroke-linejoin: miter"/>
    </g>
    <g id="patch_94">
     <path d="M 760.447159 41.766376 
L 780.447159 41.766376 
L 780.447159 34.766376 
L 760.447159 34.766376 
z
" style="fill: #1f77b4"/>
    </g>
    <g id="text_55">
     <!-- Exact -->
     <g transform="translate(788.447159 41.766376)scale(0.1 -0.1)">
      <defs>
       <path id="CMR17-78" d="M 1664 1491 
C 1856 1740 2074 2022 2253 2233 
C 2464 2476 2707 2579 2989 2585 
L 2989 2752 
C 2880 2745 2656 2739 2541 2739 
C 2368 2739 2170 2739 2022 2752 
L 2022 2585 
C 2112 2572 2163 2508 2163 2419 
C 2163 2304 2099 2233 2067 2188 
L 1594 1587 
L 1030 2323 
C 973 2393 973 2406 973 2438 
C 973 2515 1037 2579 1146 2585 
L 1146 2752 
C 992 2739 717 2739 557 2739 
C 384 2739 179 2739 38 2752 
L 38 2585 
C 384 2585 461 2560 614 2368 
L 1350 1414 
C 1363 1401 1395 1363 1395 1344 
C 1395 1318 838 633 768 544 
C 480 198 179 172 6 166 
L 6 0 
C 115 6 339 12 454 12 
C 582 12 864 12 979 0 
L 979 166 
C 941 172 838 185 838 332 
C 838 448 890 518 947 595 
L 1478 1248 
L 2035 524 
C 2086 454 2163 358 2163 313 
C 2163 224 2086 172 1984 166 
L 1984 0 
C 2138 12 2413 12 2573 12 
C 2746 12 2950 12 3091 0 
L 3091 166 
C 2771 166 2675 179 2522 377 
L 1664 1491 
z
" transform="scale(0.015625)"/>
      </defs>
      <use xlink:href="#CMR17-45" transform="scale(0.996264)"/>
      <use xlink:href="#CMR17-78" transform="translate(62.586301 0)scale(0.996264)"/>
      <use xlink:href="#CMR17-61" transform="translate(110.879216 0)scale(0.996264)"/>
      <use xlink:href="#CMR17-63" transform="translate(156.569693 0)scale(0.996264)"/>
      <use xlink:href="#CMR17-74" transform="translate(197.055354 0)scale(0.996264)"/>
     </g>
    </g>
    <g id="patch_95">
     <path d="M 760.447159 55.703554 
L 780.447159 55.703554 
L 780.447159 48.703554 
L 760.447159 48.703554 
z
" style="fill: #ff7f0e"/>
    </g>
    <g id="text_56">
     <!-- PADM: $\rho 1^{\intercal}\xi$ -->
     <g transform="translate(788.447159 55.703554)scale(0.1 -0.1)">
      <defs>
       <path id="CMR17-3a" d="M 1062 2489 
C 1062 2649 934 2752 800 2752 
C 672 2752 538 2649 538 2489 
C 538 2329 666 2227 800 2227 
C 928 2227 1062 2329 1062 2489 
z
M 1062 262 
C 1062 422 934 524 800 524 
C 672 524 538 422 538 262 
C 538 102 666 0 800 0 
C 928 0 1062 102 1062 262 
z
" transform="scale(0.015625)"/>
       <path id="CMMI12-1a" d="M 198 -1085 
C 192 -1116 179 -1154 179 -1191 
C 179 -1287 256 -1351 352 -1351 
C 448 -1351 538 -1287 576 -1198 
C 602 -1141 781 -390 986 389 
C 1114 70 1350 -64 1600 -64 
C 2323 -64 3142 830 3142 1794 
C 3142 2477 2726 2816 2285 2816 
C 1722 2816 1037 2234 826 1385 
L 198 -1085 
z
M 1594 64 
C 1158 64 1050 568 1050 645 
C 1050 683 1210 1289 1229 1385 
C 1555 2656 2182 2687 2278 2687 
C 2566 2687 2726 2426 2726 2049 
C 2726 1724 2554 1091 2445 823 
C 2253 383 1920 64 1594 64 
z
" transform="scale(0.015625)"/>
       <path id="MSAM10-7c" d="M 2035 2240 
L 2861 2240 
C 2950 2240 3200 2240 3200 2496 
C 3200 2752 2950 2752 2861 2752 
L 698 2752 
C 608 2752 358 2752 358 2496 
C 358 2240 608 2240 698 2240 
L 1523 2240 
L 1523 -1013 
C 1523 -1102 1523 -1351 1779 -1351 
C 2035 -1351 2035 -1102 2035 -1013 
L 2035 2240 
z
" transform="scale(0.015625)"/>
       <path id="CMMI12-18" d="M 1670 0 
L 998 271 
C 832 335 448 490 448 876 
C 448 1430 1120 1990 1254 1990 
C 1267 1990 1325 1977 1344 1971 
C 1517 1919 1683 1919 1798 1919 
C 1997 1919 2374 1919 2374 2089 
C 2374 2220 2144 2240 1869 2240 
C 1741 2240 1568 2240 1338 2163 
C 1184 2291 1120 2497 1120 2690 
C 1120 3043 1350 3545 1856 3780 
C 1971 3648 2125 3648 2259 3648 
C 2419 3648 2810 3648 2810 3817 
C 2810 3968 2502 3968 2298 3968 
C 2170 3968 2074 3968 1894 3936 
C 1862 4016 1856 4029 1856 4180 
C 1856 4303 1882 4396 1882 4415 
C 1882 4454 1850 4480 1818 4480 
C 1715 4480 1715 4235 1715 4180 
C 1715 4084 1722 3988 1760 3904 
C 992 3705 653 3159 653 2741 
C 653 2355 909 2144 1082 2066 
C 422 1713 141 1057 141 709 
C 141 148 646 -51 877 -148 
L 1453 -380 
C 1613 -438 1875 -547 1920 -573 
C 1984 -618 2035 -695 2035 -798 
C 2035 -934 1933 -1152 1709 -1152 
C 1613 -1152 1402 -1127 1171 -953 
C 1126 -914 1120 -908 1094 -908 
C 1062 -908 1030 -934 1030 -972 
C 1030 -1043 1363 -1280 1709 -1280 
C 2118 -1280 2368 -882 2368 -605 
C 2368 -405 2259 -244 2054 -154 
L 1670 0 
z
M 1997 3817 
C 2106 3840 2221 3840 2304 3840 
C 2515 3840 2534 3835 2662 3812 
C 2586 3789 2534 3776 2266 3776 
C 2144 3776 2067 3776 1997 3817 
z
M 1491 2084 
C 1645 2112 1786 2112 1862 2112 
C 2074 2112 2086 2107 2227 2084 
C 2157 2061 2099 2048 1824 2048 
C 1670 2048 1606 2048 1491 2084 
z
" transform="scale(0.015625)"/>
      </defs>
      <use xlink:href="#CMR17-50" transform="scale(0.996264)"/>
      <use xlink:href="#CMR17-41" transform="translate(54.779045 0)scale(0.996264)"/>
      <use xlink:href="#CMR17-44" transform="translate(123.851475 0)scale(0.996264)"/>
      <use xlink:href="#CMR17-4d" transform="translate(194.245031 0)scale(0.996264)"/>
      <use xlink:href="#CMR17-3a" transform="translate(278.931971 0)scale(0.996264)"/>
      <use xlink:href="#CMMI12-1a" transform="translate(333.878996 0)scale(0.996264)"/>
      <use xlink:href="#CMR17-31" transform="translate(384.193369 0)scale(0.996264)"/>
      <use xlink:href="#MSAM10-7c" transform="translate(429.883846 36.153639)scale(0.697382)"/>
      <use xlink:href="#CMMI12-18" transform="translate(469.125514 0)scale(0.996264)"/>
     </g>
    </g>
   </g>
  </g>
 </g>
 <defs>
  <clipPath id="p1a31047c99">
   <rect x="40.492749" y="25.766376" width="812.707251" height="201.482401"/>
  </clipPath>
 </defs>
</svg>
